<svg xmlns="http://www.w3.org/2000/svg" xmlns:xlink="http://www.w3.org/1999/xlink" width="480" zoomAndPan="magnify" viewBox="0 0 360 359.999987" height="480" preserveAspectRatio="xMidYMid meet" version="1.0"><defs><g/><clipPath id="1059f347b7"><path d="M 0 0 L 360 0 L 360 360 L 0 360 Z M 0 0 " clip-rule="nonzero"/></clipPath><clipPath id="eb680d7f28"><path d="M 180 0 C 279.410156 0 360 80.589844 360 180 C 360 279.410156 279.410156 360 180 360 C 80.589844 360 0 279.410156 0 180 C 0 80.589844 80.589844 0 180 0 L 180 54 C 110.414062 54 54 110.414062 54 180 C 54 249.585938 110.414062 306 180 306 C 249.585938 306 306 249.585938 306 180 C 306 110.414062 249.585938 54 180 54 Z M 180 0 " clip-rule="nonzero"/></clipPath><clipPath id="0f333ebef2"><path d="M 0 0 L 360 0 L 360 360 L 0 360 Z M 0 0 " clip-rule="nonzero"/></clipPath><clipPath id="ca830645dc"><path d="M 180 0 C 279.410156 0 360 80.589844 360 180 C 360 279.410156 279.410156 360 180 360 C 80.589844 360 0 279.410156 0 180 C 0 80.589844 80.589844 0 180 0 L 180 54 C 110.414062 54 54 110.414062 54 180 C 54 249.585938 110.414062 306 180 306 C 249.585938 306 306 249.585938 306 180 C 306 110.414062 249.585938 54 180 54 Z M 180 0 " clip-rule="nonzero"/></clipPath><clipPath id="4fd9fa97c5"><rect x="0" width="360" y="0" height="360"/></clipPath><clipPath id="c30e1a7c90"><path d="M 74 0 L 360 0 L 360 360 L 74 360 Z M 74 0 " clip-rule="nonzero"/></clipPath><clipPath id="ee77e224ad"><path d="M 180 0 C 257.980469 0 327.09375 50.210938 351.191406 124.375 C 375.289062 198.542969 348.890625 279.789062 285.800781 325.625 C 222.714844 371.460938 137.285156 371.460938 74.199219 325.625 L 105.9375 281.9375 C 150.101562 314.019531 209.898438 314.019531 254.0625 281.9375 C 298.222656 249.851562 316.703125 192.980469 299.832031 141.0625 C 282.964844 89.148438 234.585938 54 180 54 Z M 180 0 " clip-rule="nonzero"/></clipPath><clipPath id="50c85effe8"><path d="M 0.160156 0 L 286 0 L 286 360 L 0.160156 360 Z M 0.160156 0 " clip-rule="nonzero"/></clipPath><clipPath id="6f6cdc9a04"><path d="M 106 0 C 183.980469 0 253.09375 50.210938 277.191406 124.375 C 301.289062 198.542969 274.890625 279.789062 211.800781 325.625 C 148.714844 371.460938 63.285156 371.460938 0.199219 325.625 L 31.9375 281.9375 C 76.101562 314.019531 135.898438 314.019531 180.0625 281.9375 C 224.222656 249.851562 242.703125 192.980469 225.832031 141.0625 C 208.964844 89.148438 160.585938 54 106 54 Z M 106 0 " clip-rule="nonzero"/></clipPath><clipPath id="7fa98e3d7c"><rect x="0" width="286" y="0" height="360"/></clipPath><clipPath id="90f68e9d96"><rect x="0" width="360" y="0" height="360"/></clipPath><clipPath id="2e89e5806f"><path d="M 142.992188 213.65625 L 180 213.65625 L 180 246.035156 L 142.992188 246.035156 Z M 142.992188 213.65625 " clip-rule="nonzero"/></clipPath><clipPath id="17522bc73d"><path d="M 161.496094 213.65625 L 180 246.035156 L 142.992188 246.035156 Z M 161.496094 213.65625 " clip-rule="nonzero"/></clipPath><clipPath id="a6b55c4fe8"><path d="M 0.992188 0.65625 L 38 0.65625 L 38 33.035156 L 0.992188 33.035156 Z M 0.992188 0.65625 " clip-rule="nonzero"/></clipPath><clipPath id="9f619fbc76"><path d="M 19.496094 0.65625 L 38 33.035156 L 0.992188 33.035156 Z M 19.496094 0.65625 " clip-rule="nonzero"/></clipPath><clipPath id="78e3469cb6"><rect x="0" width="38" y="0" height="34"/></clipPath></defs><g><g clip-path="url(#90f68e9d96)"><g clip-path="url(#1059f347b7)"><g clip-path="url(#eb680d7f28)"><g><g clip-path="url(#4fd9fa97c5)"><g clip-path="url(#0f333ebef2)"><g clip-path="url(#ca830645dc)"><rect x="-131.04" width="622.08" fill="#d9e8f6" y="-131.039995" height="622.079977" fill-opacity="1"/></g></g></g></g></g></g><g clip-path="url(#c30e1a7c90)"><g clip-path="url(#ee77e224ad)"><g transform="matrix(1, 0, 0, 1, 74, 0)"><g clip-path="url(#7fa98e3d7c)"><g clip-path="url(#50c85effe8)"><g clip-path="url(#6f6cdc9a04)"><rect x="-205.04" width="622.08" fill="#009ec1" y="-131.039995" height="622.079977" fill-opacity="1"/></g></g></g></g></g></g></g></g><g clip-path="url(#2e89e5806f)"><g clip-path="url(#17522bc73d)"><g transform="matrix(1, 0, 0, 1, 142, 213)"><g clip-path="url(#78e3469cb6)"><g clip-path="url(#a6b55c4fe8)"><g clip-path="url(#9f619fbc76)"><path fill="#04c585" d="M 0.992188 0.65625 L 38.054688 0.65625 L 38.054688 33.035156 L 0.992188 33.035156 Z M 0.992188 0.65625 " fill-opacity="1" fill-rule="nonzero"/></g></g></g></g></g></g><g fill="#000000" fill-opacity="1"><g transform="translate(127.201168, 188.404701)"><g><path d="M 7 0 L 7 -11.890625 L 20.796875 -11.890625 L 20.796875 -48.59375 L 8.90625 -48.59375 L 8.90625 -57.6875 C 12.363281 -58.351562 15.289062 -59.148438 17.6875 -60.078125 C 20.09375 -61.015625 22.429688 -62.148438 24.703125 -63.484375 L 35.5 -63.484375 L 35.5 -11.890625 L 47.390625 -11.890625 L 47.390625 0 Z M 7 0 "/></g></g></g><g fill="#000000" fill-opacity="1"><g transform="translate(179.992896, 188.404701)"><g><path d="M 25.203125 -34.1875 C 26.867188 -34.1875 28.550781 -34.671875 30.25 -35.640625 C 31.945312 -36.609375 33.425781 -38.226562 34.6875 -40.5 C 34.019531 -45.5 32.769531 -48.945312 30.9375 -50.84375 C 29.113281 -52.738281 27.066406 -53.6875 24.796875 -53.6875 C 22.660156 -53.6875 20.789062 -52.867188 19.1875 -51.234375 C 17.59375 -49.609375 16.796875 -46.992188 16.796875 -43.390625 C 16.796875 -39.992188 17.59375 -37.609375 19.1875 -36.234375 C 20.789062 -34.867188 22.796875 -34.1875 25.203125 -34.1875 Z M 22.890625 1.203125 C 18.691406 1.203125 15.039062 0.4375 11.9375 -1.09375 C 8.84375 -2.632812 6.296875 -4.40625 4.296875 -6.40625 L 12.09375 -15.203125 C 13.164062 -13.992188 14.597656 -12.941406 16.390625 -12.046875 C 18.191406 -11.148438 20.023438 -10.703125 21.890625 -10.703125 C 23.691406 -10.703125 25.359375 -11.035156 26.890625 -11.703125 C 28.429688 -12.367188 29.78125 -13.484375 30.9375 -15.046875 C 32.101562 -16.609375 33.035156 -18.640625 33.734375 -21.140625 C 34.441406 -23.640625 34.863281 -26.757812 35 -30.5 C 34.195312 -29.425781 33.257812 -28.472656 32.1875 -27.640625 C 31.125 -26.804688 30.023438 -26.109375 28.890625 -25.546875 C 27.765625 -24.984375 26.632812 -24.550781 25.5 -24.25 C 24.363281 -23.945312 23.296875 -23.796875 22.296875 -23.796875 C 19.566406 -23.796875 17.050781 -24.195312 14.75 -25 C 12.445312 -25.800781 10.460938 -27 8.796875 -28.59375 C 7.128906 -30.195312 5.8125 -32.226562 4.84375 -34.6875 C 3.882812 -37.15625 3.40625 -40.054688 3.40625 -43.390625 C 3.40625 -46.660156 3.96875 -49.609375 5.09375 -52.234375 C 6.226562 -54.867188 7.742188 -57.117188 9.640625 -58.984375 C 11.546875 -60.859375 13.78125 -62.273438 16.34375 -63.234375 C 18.914062 -64.203125 21.632812 -64.6875 24.5 -64.6875 C 27.5625 -64.6875 30.539062 -64.085938 33.4375 -62.890625 C 36.34375 -61.691406 38.910156 -59.820312 41.140625 -57.28125 C 43.378906 -54.75 45.179688 -51.5 46.546875 -47.53125 C 47.910156 -43.570312 48.59375 -38.789062 48.59375 -33.1875 C 48.59375 -27.257812 47.875 -22.128906 46.4375 -17.796875 C 45.007812 -13.460938 43.109375 -9.894531 40.734375 -7.09375 C 38.367188 -4.300781 35.632812 -2.21875 32.53125 -0.84375 C 29.4375 0.519531 26.222656 1.203125 22.890625 1.203125 Z M 22.890625 1.203125 "/></g></g></g><g fill="#04c585" fill-opacity="1"><g transform="translate(185.07837, 246.896083)"><g><path d="M 2.21875 0 L 2.21875 -5.046875 C 4.65625 -7.316406 6.882812 -9.441406 8.90625 -11.421875 C 10.925781 -13.410156 12.664062 -15.273438 14.125 -17.015625 C 15.582031 -18.753906 16.722656 -20.375 17.546875 -21.875 C 18.367188 -23.375 18.78125 -24.800781 18.78125 -26.15625 C 18.78125 -28.039062 18.300781 -29.472656 17.34375 -30.453125 C 16.382812 -31.429688 15.0625 -31.921875 13.375 -31.921875 C 11.976562 -31.921875 10.738281 -31.53125 9.65625 -30.75 C 8.582031 -29.96875 7.5625 -29.054688 6.59375 -28.015625 L 1.796875 -32.765625 C 3.679688 -34.765625 5.601562 -36.269531 7.5625 -37.28125 C 9.519531 -38.300781 11.859375 -38.8125 14.578125 -38.8125 C 16.460938 -38.8125 18.171875 -38.519531 19.703125 -37.9375 C 21.242188 -37.363281 22.570312 -36.546875 23.6875 -35.484375 C 24.8125 -34.429688 25.675781 -33.160156 26.28125 -31.671875 C 26.882812 -30.191406 27.1875 -28.535156 27.1875 -26.703125 C 27.1875 -25.097656 26.84375 -23.460938 26.15625 -21.796875 C 25.476562 -20.140625 24.566406 -18.484375 23.421875 -16.828125 C 22.285156 -15.171875 20.988281 -13.507812 19.53125 -11.84375 C 18.070312 -10.1875 16.5625 -8.554688 15 -6.953125 C 15.957031 -7.078125 17.023438 -7.1875 18.203125 -7.28125 C 19.390625 -7.382812 20.441406 -7.4375 21.359375 -7.4375 L 29.046875 -7.4375 L 29.046875 0 Z M 2.21875 0 "/></g></g></g></svg>