<svg xmlns="http://www.w3.org/2000/svg" xmlns:xlink="http://www.w3.org/1999/xlink" width="480" zoomAndPan="magnify" viewBox="0 0 360 359.999987" height="480" preserveAspectRatio="xMidYMid meet" version="1.0"><defs><g/><clipPath id="52ea31e0b1"><path d="M 0 0 L 360 0 L 360 360 L 0 360 Z M 0 0 " clip-rule="nonzero"/></clipPath><clipPath id="9e45773517"><path d="M 180 0 C 279.410156 0 360 80.589844 360 180 C 360 279.410156 279.410156 360 180 360 C 80.589844 360 0 279.410156 0 180 C 0 80.589844 80.589844 0 180 0 L 180 54 C 110.414062 54 54 110.414062 54 180 C 54 249.585938 110.414062 306 180 306 C 249.585938 306 306 249.585938 306 180 C 306 110.414062 249.585938 54 180 54 Z M 180 0 " clip-rule="nonzero"/></clipPath><clipPath id="8a81cfba70"><path d="M 0 0 L 360 0 L 360 360 L 0 360 Z M 0 0 " clip-rule="nonzero"/></clipPath><clipPath id="39a7e3eaf4"><path d="M 180 0 C 279.410156 0 360 80.589844 360 180 C 360 279.410156 279.410156 360 180 360 C 80.589844 360 0 279.410156 0 180 C 0 80.589844 80.589844 0 180 0 L 180 54 C 110.414062 54 54 110.414062 54 180 C 54 249.585938 110.414062 306 180 306 C 249.585938 306 306 249.585938 306 180 C 306 110.414062 249.585938 54 180 54 Z M 180 0 " clip-rule="nonzero"/></clipPath><clipPath id="0b291587e8"><rect x="0" width="360" y="0" height="360"/></clipPath><clipPath id="5251ab22ef"><rect x="0" width="360" y="0" height="360"/></clipPath></defs><rect x="-36" width="432" fill="#ffffff" y="-35.999999" height="431.999984" fill-opacity="1"/><rect x="-36" width="432" fill="#ffffff" y="-35.999999" height="431.999984" fill-opacity="1"/><g><g clip-path="url(#5251ab22ef)"><g clip-path="url(#52ea31e0b1)"><g clip-path="url(#9e45773517)"><g><g clip-path="url(#0b291587e8)"><g clip-path="url(#8a81cfba70)"><g clip-path="url(#39a7e3eaf4)"><rect x="-131.04" width="622.08" fill="#d9e8f6" y="-131.039995" height="622.079977" fill-opacity="1"/></g></g></g></g></g></g></g></g><g fill="#000000" fill-opacity="1"><g transform="translate(127.201168, 214.499983)"><g><path d="M 24.296875 1.203125 C 19.097656 1.203125 14.695312 0.382812 11.09375 -1.25 C 7.5 -2.882812 4.535156 -5.066406 2.203125 -7.796875 L 9 -17.09375 C 10.925781 -15.226562 13.039062 -13.695312 15.34375 -12.5 C 17.644531 -11.300781 20.160156 -10.703125 22.890625 -10.703125 C 26.023438 -10.703125 28.523438 -11.347656 30.390625 -12.640625 C 32.253906 -13.941406 33.1875 -15.796875 33.1875 -18.203125 C 33.1875 -19.597656 32.9375 -20.863281 32.4375 -22 C 31.9375 -23.132812 31.050781 -24.082031 29.78125 -24.84375 C 28.519531 -25.613281 26.789062 -26.210938 24.59375 -26.640625 C 22.394531 -27.078125 19.5625 -27.296875 16.09375 -27.296875 L 16.09375 -37.6875 C 18.957031 -37.6875 21.335938 -37.882812 23.234375 -38.28125 C 25.140625 -38.6875 26.675781 -39.269531 27.84375 -40.03125 C 29.007812 -40.800781 29.84375 -41.703125 30.34375 -42.734375 C 30.84375 -43.773438 31.09375 -44.925781 31.09375 -46.1875 C 31.09375 -48.394531 30.425781 -50.113281 29.09375 -51.34375 C 27.757812 -52.570312 25.828125 -53.1875 23.296875 -53.1875 C 21.023438 -53.1875 18.972656 -52.6875 17.140625 -51.6875 C 15.304688 -50.6875 13.390625 -49.320312 11.390625 -47.59375 L 4 -56.59375 C 6.9375 -59.125 10.019531 -61.101562 13.25 -62.53125 C 16.476562 -63.96875 20.0625 -64.6875 24 -64.6875 C 27.257812 -64.6875 30.238281 -64.300781 32.9375 -63.53125 C 35.644531 -62.769531 37.945312 -61.640625 39.84375 -60.140625 C 41.738281 -58.640625 43.21875 -56.820312 44.28125 -54.6875 C 45.351562 -52.550781 45.890625 -50.085938 45.890625 -47.296875 C 45.890625 -43.960938 44.972656 -41.144531 43.140625 -38.84375 C 41.304688 -36.539062 38.691406 -34.65625 35.296875 -33.1875 L 35.296875 -32.796875 C 38.960938 -31.722656 41.976562 -29.90625 44.34375 -27.34375 C 46.707031 -24.78125 47.890625 -21.429688 47.890625 -17.296875 C 47.890625 -14.359375 47.253906 -11.738281 45.984375 -9.4375 C 44.722656 -7.144531 43.023438 -5.210938 40.890625 -3.640625 C 38.753906 -2.078125 36.253906 -0.878906 33.390625 -0.046875 C 30.523438 0.785156 27.492188 1.203125 24.296875 1.203125 Z M 24.296875 1.203125 "/></g></g></g><g fill="#000000" fill-opacity="1"><g transform="translate(179.992896, 214.499983)"><g><path d="M 3.703125 0 L 3.703125 -8.40625 C 7.765625 -12.195312 11.476562 -15.742188 14.84375 -19.046875 C 18.207031 -22.347656 21.109375 -25.445312 23.546875 -28.34375 C 25.984375 -31.238281 27.882812 -33.9375 29.25 -36.4375 C 30.613281 -38.9375 31.296875 -41.320312 31.296875 -43.59375 C 31.296875 -46.726562 30.492188 -49.109375 28.890625 -50.734375 C 27.296875 -52.367188 25.097656 -53.1875 22.296875 -53.1875 C 19.960938 -53.1875 17.894531 -52.535156 16.09375 -51.234375 C 14.289062 -49.941406 12.59375 -48.425781 11 -46.6875 L 3 -54.59375 C 6.132812 -57.925781 9.332031 -60.441406 12.59375 -62.140625 C 15.863281 -63.835938 19.765625 -64.6875 24.296875 -64.6875 C 27.429688 -64.6875 30.28125 -64.203125 32.84375 -63.234375 C 35.40625 -62.273438 37.617188 -60.910156 39.484375 -59.140625 C 41.359375 -57.367188 42.796875 -55.25 43.796875 -52.78125 C 44.796875 -50.320312 45.296875 -47.5625 45.296875 -44.5 C 45.296875 -41.832031 44.726562 -39.113281 43.59375 -36.34375 C 42.457031 -33.570312 40.9375 -30.800781 39.03125 -28.03125 C 37.132812 -25.269531 34.96875 -22.503906 32.53125 -19.734375 C 30.101562 -16.972656 27.59375 -14.257812 25 -11.59375 C 26.59375 -11.789062 28.375 -11.972656 30.34375 -12.140625 C 32.3125 -12.304688 34.0625 -12.390625 35.59375 -12.390625 L 48.390625 -12.390625 L 48.390625 0 Z M 3.703125 0 "/></g></g></g></svg>