<svg xmlns="http://www.w3.org/2000/svg" xmlns:xlink="http://www.w3.org/1999/xlink" width="480" zoomAndPan="magnify" viewBox="0 0 360 359.999987" height="480" preserveAspectRatio="xMidYMid meet" version="1.0"><defs><g/><clipPath id="57c2cbdbd8"><path d="M 68.753906 11.828125 L 70 11.828125 L 70 297.398438 L 68.753906 297.398438 Z M 68.753906 11.828125 " clip-rule="nonzero"/></clipPath><clipPath id="5917fdb259"><path d="M 139 11.828125 L 141 11.828125 L 141 297.398438 L 139 297.398438 Z M 139 11.828125 " clip-rule="nonzero"/></clipPath><clipPath id="1658256154"><path d="M 211 11.828125 L 212 11.828125 L 212 297.398438 L 211 297.398438 Z M 211 11.828125 " clip-rule="nonzero"/></clipPath><clipPath id="8963847443"><path d="M 282 11.828125 L 284 11.828125 L 284 297.398438 L 282 297.398438 Z M 282 11.828125 " clip-rule="nonzero"/></clipPath><clipPath id="d8cbc2e999"><path d="M 353 11.828125 L 354.324219 11.828125 L 354.324219 297.398438 L 353 297.398438 Z M 353 11.828125 " clip-rule="nonzero"/></clipPath><clipPath id="877e16975d"><path d="M 66 302 L 72 302 L 72 310.171875 L 66 310.171875 Z M 66 302 " clip-rule="nonzero"/></clipPath><clipPath id="55e9242b17"><path d="M 137 302 L 143 302 L 143 310.171875 L 137 310.171875 Z M 137 302 " clip-rule="nonzero"/></clipPath><clipPath id="904cb6f9bb"><path d="M 206 302 L 211 302 L 211 310.171875 L 206 310.171875 Z M 206 302 " clip-rule="nonzero"/></clipPath><clipPath id="7ba12c17d8"><path d="M 211 302 L 217 302 L 217 310.171875 L 211 310.171875 Z M 211 302 " clip-rule="nonzero"/></clipPath><clipPath id="9dcc8b215f"><path d="M 277 302 L 282 302 L 282 310.171875 L 277 310.171875 Z M 277 302 " clip-rule="nonzero"/></clipPath><clipPath id="db40d96dc7"><path d="M 282 302 L 288 302 L 288 310.171875 L 282 310.171875 Z M 282 302 " clip-rule="nonzero"/></clipPath><clipPath id="f617da3ea2"><path d="M 349 302 L 354 302 L 354 310.171875 L 349 310.171875 Z M 349 302 " clip-rule="nonzero"/></clipPath><clipPath id="3b36fed70b"><path d="M 354 302 L 360 302 L 360 310.171875 L 354 310.171875 Z M 354 302 " clip-rule="nonzero"/></clipPath><clipPath id="39ca4fd0e1"><path d="M 68.753906 11.828125 L 182.984375 11.828125 L 182.984375 77.730469 L 68.753906 77.730469 Z M 68.753906 11.828125 " clip-rule="nonzero"/></clipPath><clipPath id="cf7271aa38"><path d="M 68.753906 85.050781 L 254.375 85.050781 L 254.375 150.953125 L 68.753906 150.953125 Z M 68.753906 85.050781 " clip-rule="nonzero"/></clipPath><clipPath id="3b6f2c06e9"><path d="M 68.753906 158.277344 L 125.867188 158.277344 L 125.867188 224.175781 L 68.753906 224.175781 Z M 68.753906 158.277344 " clip-rule="nonzero"/></clipPath><clipPath id="36f3a7dda0"><path d="M 68.753906 231.5 L 354.324219 231.5 L 354.324219 297.398438 L 68.753906 297.398438 Z M 68.753906 231.5 " clip-rule="nonzero"/></clipPath><clipPath id="7c06def39a"><rect x="0" width="360" y="0" height="322"/></clipPath></defs><g transform="matrix(1, 0, 0, 1, 0, 19)"><g clip-path="url(#7c06def39a)"><g clip-path="url(#57c2cbdbd8)"><path stroke-linecap="butt" transform="matrix(0.793248, 0, 0, 0.793248, 68.754721, 11.829634)" fill="none" stroke-linejoin="miter" d="M -0.00102745 359.999264 L -0.00102745 -0.00190216 " stroke="#000000" stroke-width="1" stroke-opacity="0.6" stroke-miterlimit="4"/></g><g clip-path="url(#5917fdb259)"><path stroke-linecap="butt" transform="matrix(0.793248, 0, 0, 0.793248, 68.754721, 11.829634)" fill="none" stroke-linejoin="miter" d="M 90.001726 359.999264 L 90.001726 -0.00190216 " stroke="#000000" stroke-width="1" stroke-opacity="0.251" stroke-miterlimit="4"/></g><g clip-path="url(#1658256154)"><path stroke-linecap="butt" transform="matrix(0.793248, 0, 0, 0.793248, 68.754721, 11.829634)" fill="none" stroke-linejoin="miter" d="M 179.999556 359.999264 L 179.999556 -0.00190216 " stroke="#000000" stroke-width="1" stroke-opacity="0.251" stroke-miterlimit="4"/></g><g clip-path="url(#8963847443)"><path stroke-linecap="butt" transform="matrix(0.793248, 0, 0, 0.793248, 68.754721, 11.829634)" fill="none" stroke-linejoin="miter" d="M 270.00231 359.999264 L 270.00231 -0.00190216 " stroke="#000000" stroke-width="1" stroke-opacity="0.251" stroke-miterlimit="4"/></g><g clip-path="url(#d8cbc2e999)"><path stroke-linecap="butt" transform="matrix(0.793248, 0, 0, 0.793248, 68.754721, 11.829634)" fill="none" stroke-linejoin="miter" d="M 360.000139 359.999264 L 360.000139 -0.00190216 " stroke="#000000" stroke-width="1" stroke-opacity="0.251" stroke-miterlimit="4"/></g><g clip-path="url(#877e16975d)"><g fill="#000000" fill-opacity="1"><g transform="translate(65.973879, 310.170316)"><g><path d="M 2.8125 0.140625 C 2.082031 0.140625 1.515625 -0.179688 1.109375 -0.828125 C 0.703125 -1.472656 0.5 -2.398438 0.5 -3.609375 C 0.5 -4.828125 0.703125 -5.75 1.109375 -6.375 C 1.515625 -7.007812 2.082031 -7.328125 2.8125 -7.328125 C 3.53125 -7.328125 4.09375 -7.007812 4.5 -6.375 C 4.90625 -5.75 5.109375 -4.828125 5.109375 -3.609375 C 5.109375 -2.398438 4.90625 -1.472656 4.5 -0.828125 C 4.09375 -0.179688 3.53125 0.140625 2.8125 0.140625 Z M 2.8125 -0.609375 C 3.019531 -0.609375 3.207031 -0.664062 3.375 -0.78125 C 3.539062 -0.894531 3.6875 -1.070312 3.8125 -1.3125 C 3.9375 -1.5625 4.03125 -1.875 4.09375 -2.25 C 4.164062 -2.632812 4.203125 -3.085938 4.203125 -3.609375 C 4.203125 -4.140625 4.164062 -4.59375 4.09375 -4.96875 C 4.03125 -5.34375 3.9375 -5.644531 3.8125 -5.875 C 3.6875 -6.113281 3.539062 -6.289062 3.375 -6.40625 C 3.207031 -6.519531 3.019531 -6.578125 2.8125 -6.578125 C 2.59375 -6.578125 2.394531 -6.519531 2.21875 -6.40625 C 2.050781 -6.289062 1.90625 -6.113281 1.78125 -5.875 C 1.65625 -5.644531 1.554688 -5.34375 1.484375 -4.96875 C 1.421875 -4.59375 1.390625 -4.140625 1.390625 -3.609375 C 1.390625 -2.554688 1.519531 -1.789062 1.78125 -1.3125 C 2.039062 -0.84375 2.382812 -0.609375 2.8125 -0.609375 Z M 2.8125 -0.609375 "/></g></g></g></g><g clip-path="url(#55e9242b17)"><g fill="#000000" fill-opacity="1"><g transform="translate(137.36622, 310.170316)"><g><path d="M 2.640625 0.140625 C 2.347656 0.140625 2.082031 0.109375 1.84375 0.046875 C 1.613281 -0.00390625 1.398438 -0.0703125 1.203125 -0.15625 C 1.015625 -0.25 0.84375 -0.351562 0.6875 -0.46875 C 0.539062 -0.59375 0.40625 -0.71875 0.28125 -0.84375 L 0.734375 -1.453125 C 0.941406 -1.234375 1.191406 -1.039062 1.484375 -0.875 C 1.773438 -0.707031 2.128906 -0.625 2.546875 -0.625 C 2.765625 -0.625 2.96875 -0.664062 3.15625 -0.75 C 3.351562 -0.832031 3.519531 -0.941406 3.65625 -1.078125 C 3.800781 -1.222656 3.914062 -1.394531 4 -1.59375 C 4.082031 -1.800781 4.125 -2.03125 4.125 -2.28125 C 4.125 -2.769531 3.984375 -3.15625 3.703125 -3.4375 C 3.429688 -3.71875 3.0625 -3.859375 2.59375 -3.859375 C 2.34375 -3.859375 2.128906 -3.816406 1.953125 -3.734375 C 1.773438 -3.660156 1.578125 -3.550781 1.359375 -3.40625 L 0.875 -3.734375 L 1.109375 -7.1875 L 4.703125 -7.1875 L 4.703125 -6.390625 L 1.921875 -6.390625 L 1.71875 -4.265625 C 1.894531 -4.347656 2.066406 -4.414062 2.234375 -4.46875 C 2.410156 -4.519531 2.609375 -4.546875 2.828125 -4.546875 C 3.140625 -4.546875 3.425781 -4.5 3.6875 -4.40625 C 3.957031 -4.320312 4.191406 -4.1875 4.390625 -4 C 4.597656 -3.820312 4.757812 -3.59375 4.875 -3.3125 C 5 -3.03125 5.0625 -2.691406 5.0625 -2.296875 C 5.0625 -1.910156 4.992188 -1.566406 4.859375 -1.265625 C 4.722656 -0.960938 4.539062 -0.707031 4.3125 -0.5 C 4.09375 -0.289062 3.835938 -0.128906 3.546875 -0.015625 C 3.253906 0.0859375 2.953125 0.140625 2.640625 0.140625 Z M 2.640625 0.140625 "/></g></g></g></g><g clip-path="url(#904cb6f9bb)"><g fill="#000000" fill-opacity="1"><g transform="translate(205.573183, 310.170316)"><g><path d="M 0.890625 0 L 0.890625 -0.765625 L 2.53125 -0.765625 L 2.53125 -6.0625 L 1.234375 -6.0625 L 1.234375 -6.65625 C 1.554688 -6.71875 1.835938 -6.789062 2.078125 -6.875 C 2.328125 -6.957031 2.550781 -7.0625 2.75 -7.1875 L 3.453125 -7.1875 L 3.453125 -0.765625 L 4.953125 -0.765625 L 4.953125 0 Z M 0.890625 0 "/></g></g></g></g><g clip-path="url(#7ba12c17d8)"><g fill="#000000" fill-opacity="1"><g transform="translate(211.166554, 310.170316)"><g><path d="M 2.8125 0.140625 C 2.082031 0.140625 1.515625 -0.179688 1.109375 -0.828125 C 0.703125 -1.472656 0.5 -2.398438 0.5 -3.609375 C 0.5 -4.828125 0.703125 -5.75 1.109375 -6.375 C 1.515625 -7.007812 2.082031 -7.328125 2.8125 -7.328125 C 3.53125 -7.328125 4.09375 -7.007812 4.5 -6.375 C 4.90625 -5.75 5.109375 -4.828125 5.109375 -3.609375 C 5.109375 -2.398438 4.90625 -1.472656 4.5 -0.828125 C 4.09375 -0.179688 3.53125 0.140625 2.8125 0.140625 Z M 2.8125 -0.609375 C 3.019531 -0.609375 3.207031 -0.664062 3.375 -0.78125 C 3.539062 -0.894531 3.6875 -1.070312 3.8125 -1.3125 C 3.9375 -1.5625 4.03125 -1.875 4.09375 -2.25 C 4.164062 -2.632812 4.203125 -3.085938 4.203125 -3.609375 C 4.203125 -4.140625 4.164062 -4.59375 4.09375 -4.96875 C 4.03125 -5.34375 3.9375 -5.644531 3.8125 -5.875 C 3.6875 -6.113281 3.539062 -6.289062 3.375 -6.40625 C 3.207031 -6.519531 3.019531 -6.578125 2.8125 -6.578125 C 2.59375 -6.578125 2.394531 -6.519531 2.21875 -6.40625 C 2.050781 -6.289062 1.90625 -6.113281 1.78125 -5.875 C 1.65625 -5.644531 1.554688 -5.34375 1.484375 -4.96875 C 1.421875 -4.59375 1.390625 -4.140625 1.390625 -3.609375 C 1.390625 -2.554688 1.519531 -1.789062 1.78125 -1.3125 C 2.039062 -0.84375 2.382812 -0.609375 2.8125 -0.609375 Z M 2.8125 -0.609375 "/></g></g></g></g><g clip-path="url(#9dcc8b215f)"><g fill="#000000" fill-opacity="1"><g transform="translate(276.965531, 310.170316)"><g><path d="M 0.890625 0 L 0.890625 -0.765625 L 2.53125 -0.765625 L 2.53125 -6.0625 L 1.234375 -6.0625 L 1.234375 -6.65625 C 1.554688 -6.71875 1.835938 -6.789062 2.078125 -6.875 C 2.328125 -6.957031 2.550781 -7.0625 2.75 -7.1875 L 3.453125 -7.1875 L 3.453125 -0.765625 L 4.953125 -0.765625 L 4.953125 0 Z M 0.890625 0 "/></g></g></g></g><g clip-path="url(#db40d96dc7)"><g fill="#000000" fill-opacity="1"><g transform="translate(282.558902, 310.170316)"><g><path d="M 2.640625 0.140625 C 2.347656 0.140625 2.082031 0.109375 1.84375 0.046875 C 1.613281 -0.00390625 1.398438 -0.0703125 1.203125 -0.15625 C 1.015625 -0.25 0.84375 -0.351562 0.6875 -0.46875 C 0.539062 -0.59375 0.40625 -0.71875 0.28125 -0.84375 L 0.734375 -1.453125 C 0.941406 -1.234375 1.191406 -1.039062 1.484375 -0.875 C 1.773438 -0.707031 2.128906 -0.625 2.546875 -0.625 C 2.765625 -0.625 2.96875 -0.664062 3.15625 -0.75 C 3.351562 -0.832031 3.519531 -0.941406 3.65625 -1.078125 C 3.800781 -1.222656 3.914062 -1.394531 4 -1.59375 C 4.082031 -1.800781 4.125 -2.03125 4.125 -2.28125 C 4.125 -2.769531 3.984375 -3.15625 3.703125 -3.4375 C 3.429688 -3.71875 3.0625 -3.859375 2.59375 -3.859375 C 2.34375 -3.859375 2.128906 -3.816406 1.953125 -3.734375 C 1.773438 -3.660156 1.578125 -3.550781 1.359375 -3.40625 L 0.875 -3.734375 L 1.109375 -7.1875 L 4.703125 -7.1875 L 4.703125 -6.390625 L 1.921875 -6.390625 L 1.71875 -4.265625 C 1.894531 -4.347656 2.066406 -4.414062 2.234375 -4.46875 C 2.410156 -4.519531 2.609375 -4.546875 2.828125 -4.546875 C 3.140625 -4.546875 3.425781 -4.5 3.6875 -4.40625 C 3.957031 -4.320312 4.191406 -4.1875 4.390625 -4 C 4.597656 -3.820312 4.757812 -3.59375 4.875 -3.3125 C 5 -3.03125 5.0625 -2.691406 5.0625 -2.296875 C 5.0625 -1.910156 4.992188 -1.566406 4.859375 -1.265625 C 4.722656 -0.960938 4.539062 -0.707031 4.3125 -0.5 C 4.09375 -0.289062 3.835938 -0.128906 3.546875 -0.015625 C 3.253906 0.0859375 2.953125 0.140625 2.640625 0.140625 Z M 2.640625 0.140625 "/></g></g></g></g><g clip-path="url(#f617da3ea2)"><g fill="#000000" fill-opacity="1"><g transform="translate(348.7545, 310.170316)"><g><path d="M 0.453125 0 L 0.453125 -0.546875 C 0.992188 -1.085938 1.472656 -1.578125 1.890625 -2.015625 C 2.316406 -2.453125 2.671875 -2.851562 2.953125 -3.21875 C 3.234375 -3.59375 3.445312 -3.9375 3.59375 -4.25 C 3.75 -4.5625 3.828125 -4.863281 3.828125 -5.15625 C 3.828125 -5.570312 3.710938 -5.910156 3.484375 -6.171875 C 3.265625 -6.429688 2.925781 -6.5625 2.46875 -6.5625 C 2.164062 -6.5625 1.882812 -6.476562 1.625 -6.3125 C 1.375 -6.144531 1.144531 -5.941406 0.9375 -5.703125 L 0.40625 -6.234375 C 0.707031 -6.554688 1.023438 -6.816406 1.359375 -7.015625 C 1.703125 -7.222656 2.109375 -7.328125 2.578125 -7.328125 C 3.242188 -7.328125 3.769531 -7.128906 4.15625 -6.734375 C 4.539062 -6.347656 4.734375 -5.835938 4.734375 -5.203125 C 4.734375 -4.867188 4.660156 -4.53125 4.515625 -4.1875 C 4.367188 -3.84375 4.164062 -3.488281 3.90625 -3.125 C 3.644531 -2.757812 3.332031 -2.378906 2.96875 -1.984375 C 2.613281 -1.585938 2.222656 -1.171875 1.796875 -0.734375 C 1.992188 -0.742188 2.195312 -0.753906 2.40625 -0.765625 C 2.613281 -0.785156 2.816406 -0.796875 3.015625 -0.796875 L 5.09375 -0.796875 L 5.09375 0 Z M 0.453125 0 "/></g></g></g></g><g clip-path="url(#3b36fed70b)"><g fill="#000000" fill-opacity="1"><g transform="translate(354.347872, 310.170316)"><g><path d="M 2.8125 0.140625 C 2.082031 0.140625 1.515625 -0.179688 1.109375 -0.828125 C 0.703125 -1.472656 0.5 -2.398438 0.5 -3.609375 C 0.5 -4.828125 0.703125 -5.75 1.109375 -6.375 C 1.515625 -7.007812 2.082031 -7.328125 2.8125 -7.328125 C 3.53125 -7.328125 4.09375 -7.007812 4.5 -6.375 C 4.90625 -5.75 5.109375 -4.828125 5.109375 -3.609375 C 5.109375 -2.398438 4.90625 -1.472656 4.5 -0.828125 C 4.09375 -0.179688 3.53125 0.140625 2.8125 0.140625 Z M 2.8125 -0.609375 C 3.019531 -0.609375 3.207031 -0.664062 3.375 -0.78125 C 3.539062 -0.894531 3.6875 -1.070312 3.8125 -1.3125 C 3.9375 -1.5625 4.03125 -1.875 4.09375 -2.25 C 4.164062 -2.632812 4.203125 -3.085938 4.203125 -3.609375 C 4.203125 -4.140625 4.164062 -4.59375 4.09375 -4.96875 C 4.03125 -5.34375 3.9375 -5.644531 3.8125 -5.875 C 3.6875 -6.113281 3.539062 -6.289062 3.375 -6.40625 C 3.207031 -6.519531 3.019531 -6.578125 2.8125 -6.578125 C 2.59375 -6.578125 2.394531 -6.519531 2.21875 -6.40625 C 2.050781 -6.289062 1.90625 -6.113281 1.78125 -5.875 C 1.65625 -5.644531 1.554688 -5.34375 1.484375 -4.96875 C 1.421875 -4.59375 1.390625 -4.140625 1.390625 -3.609375 C 1.390625 -2.554688 1.519531 -1.789062 1.78125 -1.3125 C 2.039062 -0.84375 2.382812 -0.609375 2.8125 -0.609375 Z M 2.8125 -0.609375 "/></g></g></g></g><g fill="#000000" fill-opacity="1"><g transform="translate(37.508352, 47.952934)"><g><path d="M 1.015625 0 L 1.015625 -7.390625 L 2.859375 -7.390625 C 4.003906 -7.390625 4.875 -7.070312 5.46875 -6.4375 C 6.0625 -5.8125 6.359375 -4.910156 6.359375 -3.734375 C 6.359375 -3.140625 6.28125 -2.613281 6.125 -2.15625 C 5.976562 -1.695312 5.757812 -1.304688 5.46875 -0.984375 C 5.175781 -0.660156 4.8125 -0.414062 4.375 -0.25 C 3.945312 -0.0820312 3.457031 0 2.90625 0 Z M 1.953125 -0.765625 L 2.796875 -0.765625 C 3.660156 -0.765625 4.304688 -1.023438 4.734375 -1.546875 C 5.171875 -2.066406 5.390625 -2.796875 5.390625 -3.734375 C 5.390625 -4.671875 5.171875 -5.382812 4.734375 -5.875 C 4.304688 -6.375 3.660156 -6.625 2.796875 -6.625 L 1.953125 -6.625 Z M 1.953125 -0.765625 "/></g></g></g><g fill="#000000" fill-opacity="1"><g transform="translate(44.429726, 47.952934)"><g><path d="M 0.921875 0 L 0.921875 -5.46875 L 1.6875 -5.46875 L 1.765625 -4.484375 L 1.796875 -4.484375 C 1.984375 -4.828125 2.210938 -5.097656 2.484375 -5.296875 C 2.753906 -5.503906 3.046875 -5.609375 3.359375 -5.609375 C 3.578125 -5.609375 3.769531 -5.570312 3.9375 -5.5 L 3.765625 -4.6875 C 3.671875 -4.71875 3.585938 -4.738281 3.515625 -4.75 C 3.441406 -4.769531 3.347656 -4.78125 3.234375 -4.78125 C 3.003906 -4.78125 2.757812 -4.6875 2.5 -4.5 C 2.25 -4.3125 2.03125 -3.984375 1.84375 -3.515625 L 1.84375 0 Z M 0.921875 0 "/></g></g></g><g fill="#000000" fill-opacity="1"><g transform="translate(48.064621, 47.952934)"><g><path d="M 2.1875 0.140625 C 1.726562 0.140625 1.34375 0.00390625 1.03125 -0.265625 C 0.726562 -0.535156 0.578125 -0.921875 0.578125 -1.421875 C 0.578125 -2.023438 0.84375 -2.484375 1.375 -2.796875 C 1.914062 -3.117188 2.769531 -3.34375 3.9375 -3.46875 C 3.9375 -3.644531 3.921875 -3.8125 3.890625 -3.96875 C 3.859375 -4.132812 3.800781 -4.28125 3.71875 -4.40625 C 3.632812 -4.539062 3.519531 -4.644531 3.375 -4.71875 C 3.226562 -4.800781 3.039062 -4.84375 2.8125 -4.84375 C 2.5 -4.84375 2.203125 -4.78125 1.921875 -4.65625 C 1.648438 -4.539062 1.40625 -4.410156 1.1875 -4.265625 L 0.828125 -4.90625 C 1.078125 -5.0625 1.382812 -5.21875 1.75 -5.375 C 2.125 -5.53125 2.53125 -5.609375 2.96875 -5.609375 C 3.644531 -5.609375 4.128906 -5.398438 4.421875 -4.984375 C 4.722656 -4.578125 4.875 -4.035156 4.875 -3.359375 L 4.875 0 L 4.109375 0 L 4.03125 -0.65625 L 4 -0.65625 C 3.738281 -0.4375 3.457031 -0.25 3.15625 -0.09375 C 2.851562 0.0625 2.53125 0.140625 2.1875 0.140625 Z M 2.453125 -0.609375 C 2.710938 -0.609375 2.957031 -0.671875 3.1875 -0.796875 C 3.425781 -0.921875 3.675781 -1.101562 3.9375 -1.34375 L 3.9375 -2.859375 C 3.476562 -2.796875 3.09375 -2.722656 2.78125 -2.640625 C 2.476562 -2.566406 2.226562 -2.472656 2.03125 -2.359375 C 1.84375 -2.242188 1.703125 -2.113281 1.609375 -1.96875 C 1.523438 -1.820312 1.484375 -1.660156 1.484375 -1.484375 C 1.484375 -1.171875 1.578125 -0.945312 1.765625 -0.8125 C 1.953125 -0.675781 2.179688 -0.609375 2.453125 -0.609375 Z M 2.453125 -0.609375 "/></g></g></g><g fill="#000000" fill-opacity="1"><g transform="translate(53.736777, 47.952934)"><g><path d="M 1.078125 0 L 1.078125 -4.71875 L 0.34375 -4.71875 L 0.34375 -5.421875 L 1.078125 -5.46875 L 1.078125 -6.34375 C 1.078125 -6.90625 1.207031 -7.347656 1.46875 -7.671875 C 1.726562 -7.992188 2.132812 -8.15625 2.6875 -8.15625 C 2.851562 -8.15625 3.015625 -8.140625 3.171875 -8.109375 C 3.328125 -8.078125 3.46875 -8.03125 3.59375 -7.96875 L 3.390625 -7.265625 C 3.191406 -7.359375 2.984375 -7.40625 2.765625 -7.40625 C 2.253906 -7.40625 2 -7.050781 2 -6.34375 L 2 -5.46875 L 4.015625 -5.46875 L 4.125 -7 L 4.890625 -7 L 4.890625 -5.46875 L 6.375 -5.46875 L 6.375 -4.71875 L 4.890625 -4.71875 L 4.890625 -1.671875 C 4.890625 -1.335938 4.953125 -1.078125 5.078125 -0.890625 C 5.203125 -0.710938 5.425781 -0.625 5.75 -0.625 C 5.84375 -0.625 5.945312 -0.632812 6.0625 -0.65625 C 6.175781 -0.6875 6.273438 -0.722656 6.359375 -0.765625 L 6.546875 -0.0625 C 6.390625 -0.0078125 6.222656 0.0351562 6.046875 0.078125 C 5.878906 0.117188 5.707031 0.140625 5.53125 0.140625 C 5.238281 0.140625 4.992188 0.09375 4.796875 0 C 4.597656 -0.09375 4.4375 -0.21875 4.3125 -0.375 C 4.1875 -0.53125 4.097656 -0.71875 4.046875 -0.9375 C 3.992188 -1.164062 3.96875 -1.414062 3.96875 -1.6875 L 3.96875 -4.71875 L 2 -4.71875 L 2 0 Z M 1.078125 0 "/></g></g></g><g fill="#000000" fill-opacity="1"><g transform="translate(32.394045, 121.175867)"><g><path d="M 2.28125 -4.140625 L 1.9375 -3.015625 L 4.15625 -3.015625 L 3.8125 -4.140625 C 3.675781 -4.546875 3.546875 -4.953125 3.421875 -5.359375 C 3.304688 -5.773438 3.1875 -6.195312 3.0625 -6.625 L 3.015625 -6.625 C 2.898438 -6.195312 2.78125 -5.773438 2.65625 -5.359375 C 2.539062 -4.953125 2.414062 -4.546875 2.28125 -4.140625 Z M 0.03125 0 L 2.53125 -7.390625 L 3.59375 -7.390625 L 6.09375 0 L 5.09375 0 L 4.390625 -2.25 L 1.703125 -2.25 L 0.984375 0 Z M 0.03125 0 "/></g></g></g><g fill="#000000" fill-opacity="1"><g transform="translate(38.516374, 121.175867)"><g><path d="M 3.09375 0.140625 C 2.726562 0.140625 2.382812 0.078125 2.0625 -0.046875 C 1.75 -0.179688 1.476562 -0.367188 1.25 -0.609375 C 1.019531 -0.859375 0.835938 -1.160156 0.703125 -1.515625 C 0.578125 -1.867188 0.515625 -2.269531 0.515625 -2.71875 C 0.515625 -3.175781 0.585938 -3.582031 0.734375 -3.9375 C 0.878906 -4.300781 1.070312 -4.609375 1.3125 -4.859375 C 1.550781 -5.109375 1.828125 -5.296875 2.140625 -5.421875 C 2.460938 -5.546875 2.800781 -5.609375 3.15625 -5.609375 C 3.507812 -5.609375 3.816406 -5.546875 4.078125 -5.421875 C 4.335938 -5.296875 4.5625 -5.144531 4.75 -4.96875 L 4.28125 -4.359375 C 4.125 -4.503906 3.957031 -4.617188 3.78125 -4.703125 C 3.601562 -4.796875 3.40625 -4.84375 3.1875 -4.84375 C 2.9375 -4.84375 2.707031 -4.789062 2.5 -4.6875 C 2.289062 -4.59375 2.109375 -4.453125 1.953125 -4.265625 C 1.804688 -4.078125 1.6875 -3.851562 1.59375 -3.59375 C 1.507812 -3.332031 1.46875 -3.039062 1.46875 -2.71875 C 1.46875 -2.40625 1.507812 -2.117188 1.59375 -1.859375 C 1.675781 -1.609375 1.789062 -1.390625 1.9375 -1.203125 C 2.082031 -1.023438 2.257812 -0.882812 2.46875 -0.78125 C 2.6875 -0.675781 2.921875 -0.625 3.171875 -0.625 C 3.421875 -0.625 3.648438 -0.675781 3.859375 -0.78125 C 4.078125 -0.894531 4.273438 -1.03125 4.453125 -1.1875 L 4.859375 -0.5625 C 4.609375 -0.34375 4.332031 -0.171875 4.03125 -0.046875 C 3.726562 0.078125 3.414062 0.140625 3.09375 0.140625 Z M 3.09375 0.140625 "/></g></g></g><g fill="#000000" fill-opacity="1"><g transform="translate(43.535676, 121.175867)"><g><path d="M 2.640625 0.140625 C 2.347656 0.140625 2.101562 0.09375 1.90625 0 C 1.707031 -0.09375 1.546875 -0.21875 1.421875 -0.375 C 1.296875 -0.53125 1.207031 -0.71875 1.15625 -0.9375 C 1.101562 -1.164062 1.078125 -1.414062 1.078125 -1.6875 L 1.078125 -4.71875 L 0.265625 -4.71875 L 0.265625 -5.421875 L 1.125 -5.46875 L 1.234375 -7 L 2.015625 -7 L 2.015625 -5.46875 L 3.5 -5.46875 L 3.5 -4.71875 L 2.015625 -4.71875 L 2.015625 -1.671875 C 2.015625 -1.335938 2.078125 -1.078125 2.203125 -0.890625 C 2.328125 -0.710938 2.546875 -0.625 2.859375 -0.625 C 2.960938 -0.625 3.066406 -0.632812 3.171875 -0.65625 C 3.285156 -0.6875 3.390625 -0.722656 3.484375 -0.765625 L 3.65625 -0.0625 C 3.507812 -0.0078125 3.347656 0.0351562 3.171875 0.078125 C 2.992188 0.117188 2.816406 0.140625 2.640625 0.140625 Z M 2.640625 0.140625 "/></g></g></g><g fill="#000000" fill-opacity="1"><g transform="translate(47.339615, 121.175867)"><g><path d="M 0.921875 0 L 0.921875 -5.46875 L 1.84375 -5.46875 L 1.84375 0 Z M 1.390625 -6.609375 C 1.210938 -6.609375 1.0625 -6.660156 0.9375 -6.765625 C 0.8125 -6.878906 0.75 -7.023438 0.75 -7.203125 C 0.75 -7.378906 0.8125 -7.519531 0.9375 -7.625 C 1.0625 -7.738281 1.210938 -7.796875 1.390625 -7.796875 C 1.578125 -7.796875 1.726562 -7.738281 1.84375 -7.625 C 1.96875 -7.519531 2.03125 -7.378906 2.03125 -7.203125 C 2.03125 -7.023438 1.96875 -6.878906 1.84375 -6.765625 C 1.726562 -6.660156 1.578125 -6.609375 1.390625 -6.609375 Z M 1.390625 -6.609375 "/></g></g></g><g fill="#000000" fill-opacity="1"><g transform="translate(50.108165, 121.175867)"><g><path d="M 2.109375 0 L 0.140625 -5.46875 L 1.09375 -5.46875 L 2.125 -2.359375 C 2.207031 -2.085938 2.289062 -1.816406 2.375 -1.546875 C 2.46875 -1.285156 2.554688 -1.019531 2.640625 -0.75 L 2.6875 -0.75 C 2.769531 -1.019531 2.847656 -1.285156 2.921875 -1.546875 C 3.003906 -1.816406 3.085938 -2.085938 3.171875 -2.359375 L 4.21875 -5.46875 L 5.125 -5.46875 L 3.1875 0 Z M 2.109375 0 "/></g></g></g><g fill="#000000" fill-opacity="1"><g transform="translate(55.318856, 121.175867)"><g><path d="M 3.140625 0.140625 C 2.773438 0.140625 2.429688 0.0703125 2.109375 -0.0625 C 1.796875 -0.195312 1.519531 -0.382812 1.28125 -0.625 C 1.039062 -0.863281 0.851562 -1.160156 0.71875 -1.515625 C 0.582031 -1.867188 0.515625 -2.269531 0.515625 -2.71875 C 0.515625 -3.175781 0.582031 -3.582031 0.71875 -3.9375 C 0.863281 -4.289062 1.050781 -4.59375 1.28125 -4.84375 C 1.507812 -5.09375 1.769531 -5.28125 2.0625 -5.40625 C 2.351562 -5.539062 2.65625 -5.609375 2.96875 -5.609375 C 3.320312 -5.609375 3.632812 -5.546875 3.90625 -5.421875 C 4.175781 -5.304688 4.398438 -5.132812 4.578125 -4.90625 C 4.765625 -4.6875 4.90625 -4.414062 5 -4.09375 C 5.101562 -3.78125 5.15625 -3.429688 5.15625 -3.046875 C 5.15625 -2.941406 5.148438 -2.84375 5.140625 -2.75 C 5.140625 -2.65625 5.132812 -2.578125 5.125 -2.515625 L 1.4375 -2.515625 C 1.46875 -1.929688 1.644531 -1.46875 1.96875 -1.125 C 2.300781 -0.78125 2.726562 -0.609375 3.25 -0.609375 C 3.519531 -0.609375 3.765625 -0.644531 3.984375 -0.71875 C 4.203125 -0.800781 4.414062 -0.90625 4.625 -1.03125 L 4.953125 -0.421875 C 4.703125 -0.273438 4.429688 -0.144531 4.140625 -0.03125 C 3.847656 0.0820312 3.515625 0.140625 3.140625 0.140625 Z M 1.421875 -3.171875 L 4.34375 -3.171875 C 4.34375 -3.734375 4.222656 -4.15625 3.984375 -4.4375 C 3.753906 -4.726562 3.425781 -4.875 3 -4.875 C 2.800781 -4.875 2.613281 -4.835938 2.4375 -4.765625 C 2.257812 -4.691406 2.097656 -4.582031 1.953125 -4.4375 C 1.816406 -4.289062 1.703125 -4.109375 1.609375 -3.890625 C 1.515625 -3.679688 1.453125 -3.441406 1.421875 -3.171875 Z M 1.421875 -3.171875 "/></g></g></g><g fill="#000000" fill-opacity="1"><g transform="translate(0.148893, 194.398772)"><g><path d="M 3.8125 0.140625 C 3.34375 0.140625 2.910156 0.0507812 2.515625 -0.125 C 2.128906 -0.300781 1.789062 -0.550781 1.5 -0.875 C 1.207031 -1.195312 0.976562 -1.597656 0.8125 -2.078125 C 0.65625 -2.554688 0.578125 -3.09375 0.578125 -3.6875 C 0.578125 -4.28125 0.660156 -4.8125 0.828125 -5.28125 C 0.992188 -5.757812 1.222656 -6.164062 1.515625 -6.5 C 1.804688 -6.832031 2.148438 -7.085938 2.546875 -7.265625 C 2.953125 -7.441406 3.390625 -7.53125 3.859375 -7.53125 C 4.316406 -7.53125 4.710938 -7.4375 5.046875 -7.25 C 5.390625 -7.0625 5.671875 -6.847656 5.890625 -6.609375 L 5.390625 -6 C 5.191406 -6.207031 4.96875 -6.375 4.71875 -6.5 C 4.46875 -6.632812 4.1875 -6.703125 3.875 -6.703125 C 3.519531 -6.703125 3.195312 -6.628906 2.90625 -6.484375 C 2.625 -6.347656 2.378906 -6.148438 2.171875 -5.890625 C 1.972656 -5.640625 1.816406 -5.328125 1.703125 -4.953125 C 1.597656 -4.585938 1.546875 -4.175781 1.546875 -3.71875 C 1.546875 -3.25 1.597656 -2.828125 1.703125 -2.453125 C 1.816406 -2.085938 1.972656 -1.769531 2.171875 -1.5 C 2.367188 -1.238281 2.609375 -1.035156 2.890625 -0.890625 C 3.171875 -0.753906 3.488281 -0.6875 3.84375 -0.6875 C 4.195312 -0.6875 4.507812 -0.757812 4.78125 -0.90625 C 5.050781 -1.050781 5.304688 -1.253906 5.546875 -1.515625 L 6.078125 -0.9375 C 5.773438 -0.59375 5.441406 -0.328125 5.078125 -0.140625 C 4.710938 0.046875 4.289062 0.140625 3.8125 0.140625 Z M 3.8125 0.140625 "/></g></g></g><g fill="#000000" fill-opacity="1"><g transform="translate(6.57508, 194.398772)"><g><path d="M 1.90625 0.140625 C 1.550781 0.140625 1.296875 0.0351562 1.140625 -0.171875 C 0.992188 -0.390625 0.921875 -0.703125 0.921875 -1.109375 L 0.921875 -8.015625 L 1.84375 -8.015625 L 1.84375 -1.03125 C 1.84375 -0.882812 1.867188 -0.78125 1.921875 -0.71875 C 1.972656 -0.65625 2.035156 -0.625 2.109375 -0.625 C 2.140625 -0.625 2.164062 -0.625 2.1875 -0.625 C 2.21875 -0.625 2.257812 -0.632812 2.3125 -0.65625 L 2.4375 0.046875 C 2.375 0.078125 2.300781 0.0976562 2.21875 0.109375 C 2.132812 0.128906 2.03125 0.140625 1.90625 0.140625 Z M 1.90625 0.140625 "/></g></g></g><g fill="#000000" fill-opacity="1"><g transform="translate(9.444916, 194.398772)"><g><path d="M 3.046875 0.140625 C 2.710938 0.140625 2.394531 0.078125 2.09375 -0.046875 C 1.789062 -0.179688 1.519531 -0.367188 1.28125 -0.609375 C 1.050781 -0.859375 0.863281 -1.160156 0.71875 -1.515625 C 0.582031 -1.867188 0.515625 -2.269531 0.515625 -2.71875 C 0.515625 -3.175781 0.582031 -3.582031 0.71875 -3.9375 C 0.863281 -4.300781 1.050781 -4.609375 1.28125 -4.859375 C 1.519531 -5.109375 1.789062 -5.296875 2.09375 -5.421875 C 2.394531 -5.546875 2.710938 -5.609375 3.046875 -5.609375 C 3.390625 -5.609375 3.710938 -5.546875 4.015625 -5.421875 C 4.316406 -5.296875 4.582031 -5.109375 4.8125 -4.859375 C 5.050781 -4.609375 5.238281 -4.300781 5.375 -3.9375 C 5.519531 -3.582031 5.59375 -3.175781 5.59375 -2.71875 C 5.59375 -2.269531 5.519531 -1.867188 5.375 -1.515625 C 5.238281 -1.160156 5.050781 -0.859375 4.8125 -0.609375 C 4.582031 -0.367188 4.316406 -0.179688 4.015625 -0.046875 C 3.710938 0.078125 3.390625 0.140625 3.046875 0.140625 Z M 3.046875 -0.625 C 3.285156 -0.625 3.5 -0.675781 3.6875 -0.78125 C 3.882812 -0.882812 4.050781 -1.023438 4.1875 -1.203125 C 4.332031 -1.390625 4.441406 -1.609375 4.515625 -1.859375 C 4.585938 -2.117188 4.625 -2.40625 4.625 -2.71875 C 4.625 -3.039062 4.585938 -3.332031 4.515625 -3.59375 C 4.441406 -3.851562 4.332031 -4.078125 4.1875 -4.265625 C 4.050781 -4.453125 3.882812 -4.59375 3.6875 -4.6875 C 3.5 -4.789062 3.285156 -4.84375 3.046875 -4.84375 C 2.816406 -4.84375 2.601562 -4.789062 2.40625 -4.6875 C 2.21875 -4.59375 2.050781 -4.453125 1.90625 -4.265625 C 1.769531 -4.078125 1.660156 -3.851562 1.578125 -3.59375 C 1.503906 -3.332031 1.46875 -3.039062 1.46875 -2.71875 C 1.46875 -2.40625 1.503906 -2.117188 1.578125 -1.859375 C 1.660156 -1.609375 1.769531 -1.390625 1.90625 -1.203125 C 2.050781 -1.023438 2.21875 -0.882812 2.40625 -0.78125 C 2.601562 -0.675781 2.816406 -0.625 3.046875 -0.625 Z M 3.046875 -0.625 "/></g></g></g><g fill="#000000" fill-opacity="1"><g transform="translate(15.544731, 194.398772)"><g><path d="M 2.359375 0.140625 C 1.960938 0.140625 1.585938 0.0664062 1.234375 -0.078125 C 0.878906 -0.222656 0.570312 -0.40625 0.3125 -0.625 L 0.78125 -1.234375 C 1.019531 -1.046875 1.265625 -0.890625 1.515625 -0.765625 C 1.765625 -0.640625 2.054688 -0.578125 2.390625 -0.578125 C 2.742188 -0.578125 3.007812 -0.660156 3.1875 -0.828125 C 3.375 -0.992188 3.46875 -1.195312 3.46875 -1.4375 C 3.46875 -1.582031 3.429688 -1.707031 3.359375 -1.8125 C 3.285156 -1.914062 3.1875 -2.003906 3.0625 -2.078125 C 2.945312 -2.160156 2.8125 -2.234375 2.65625 -2.296875 C 2.507812 -2.359375 2.363281 -2.421875 2.21875 -2.484375 C 2.019531 -2.546875 1.820312 -2.617188 1.625 -2.703125 C 1.4375 -2.796875 1.265625 -2.898438 1.109375 -3.015625 C 0.953125 -3.140625 0.820312 -3.285156 0.71875 -3.453125 C 0.625 -3.617188 0.578125 -3.820312 0.578125 -4.0625 C 0.578125 -4.269531 0.617188 -4.46875 0.703125 -4.65625 C 0.796875 -4.851562 0.921875 -5.019531 1.078125 -5.15625 C 1.242188 -5.300781 1.441406 -5.410156 1.671875 -5.484375 C 1.910156 -5.566406 2.175781 -5.609375 2.46875 -5.609375 C 2.8125 -5.609375 3.128906 -5.546875 3.421875 -5.421875 C 3.710938 -5.304688 3.960938 -5.160156 4.171875 -4.984375 L 3.734375 -4.40625 C 3.546875 -4.550781 3.347656 -4.664062 3.140625 -4.75 C 2.941406 -4.84375 2.722656 -4.890625 2.484375 -4.890625 C 2.128906 -4.890625 1.867188 -4.8125 1.703125 -4.65625 C 1.546875 -4.5 1.46875 -4.3125 1.46875 -4.09375 C 1.46875 -3.96875 1.5 -3.859375 1.5625 -3.765625 C 1.632812 -3.671875 1.726562 -3.585938 1.84375 -3.515625 C 1.957031 -3.441406 2.085938 -3.378906 2.234375 -3.328125 C 2.378906 -3.273438 2.53125 -3.21875 2.6875 -3.15625 C 2.882812 -3.082031 3.082031 -3.003906 3.28125 -2.921875 C 3.476562 -2.835938 3.65625 -2.734375 3.8125 -2.609375 C 3.976562 -2.484375 4.109375 -2.328125 4.203125 -2.140625 C 4.304688 -1.960938 4.359375 -1.75 4.359375 -1.5 C 4.359375 -1.269531 4.3125 -1.054688 4.21875 -0.859375 C 4.132812 -0.671875 4.007812 -0.5 3.84375 -0.34375 C 3.675781 -0.195312 3.46875 -0.0820312 3.21875 0 C 2.96875 0.09375 2.679688 0.140625 2.359375 0.140625 Z M 2.359375 0.140625 "/></g></g></g><g fill="#000000" fill-opacity="1"><g transform="translate(20.260272, 194.398772)"><g><path d="M 0.921875 0 L 0.921875 -5.46875 L 1.84375 -5.46875 L 1.84375 0 Z M 1.390625 -6.609375 C 1.210938 -6.609375 1.0625 -6.660156 0.9375 -6.765625 C 0.8125 -6.878906 0.75 -7.023438 0.75 -7.203125 C 0.75 -7.378906 0.8125 -7.519531 0.9375 -7.625 C 1.0625 -7.738281 1.210938 -7.796875 1.390625 -7.796875 C 1.578125 -7.796875 1.726562 -7.738281 1.84375 -7.625 C 1.96875 -7.519531 2.03125 -7.378906 2.03125 -7.203125 C 2.03125 -7.023438 1.96875 -6.878906 1.84375 -6.765625 C 1.726562 -6.660156 1.578125 -6.609375 1.390625 -6.609375 Z M 1.390625 -6.609375 "/></g></g></g><g fill="#000000" fill-opacity="1"><g transform="translate(23.028821, 194.398772)"><g><path d="M 0.921875 0 L 0.921875 -5.46875 L 1.6875 -5.46875 L 1.765625 -4.6875 L 1.796875 -4.6875 C 2.066406 -4.945312 2.34375 -5.164062 2.625 -5.34375 C 2.914062 -5.519531 3.253906 -5.609375 3.640625 -5.609375 C 4.210938 -5.609375 4.632812 -5.425781 4.90625 -5.0625 C 5.175781 -4.707031 5.3125 -4.175781 5.3125 -3.46875 L 5.3125 0 L 4.375 0 L 4.375 -3.34375 C 4.375 -3.863281 4.289062 -4.238281 4.125 -4.46875 C 3.96875 -4.695312 3.707031 -4.8125 3.34375 -4.8125 C 3.0625 -4.8125 2.8125 -4.738281 2.59375 -4.59375 C 2.375 -4.445312 2.125 -4.238281 1.84375 -3.96875 L 1.84375 0 Z M 0.921875 0 "/></g></g></g><g fill="#000000" fill-opacity="1"><g transform="translate(29.184908, 194.398772)"><g><path d="M 2.765625 2.53125 C 2.429688 2.53125 2.125 2.492188 1.84375 2.421875 C 1.570312 2.359375 1.332031 2.265625 1.125 2.140625 C 0.925781 2.015625 0.769531 1.859375 0.65625 1.671875 C 0.550781 1.492188 0.5 1.285156 0.5 1.046875 C 0.5 0.816406 0.570312 0.59375 0.71875 0.375 C 0.863281 0.164062 1.0625 -0.0195312 1.3125 -0.1875 L 1.3125 -0.234375 C 1.175781 -0.316406 1.0625 -0.429688 0.96875 -0.578125 C 0.875 -0.722656 0.828125 -0.90625 0.828125 -1.125 C 0.828125 -1.351562 0.890625 -1.554688 1.015625 -1.734375 C 1.140625 -1.910156 1.273438 -2.046875 1.421875 -2.140625 L 1.421875 -2.1875 C 1.242188 -2.332031 1.078125 -2.53125 0.921875 -2.78125 C 0.773438 -3.039062 0.703125 -3.332031 0.703125 -3.65625 C 0.703125 -3.957031 0.753906 -4.226562 0.859375 -4.46875 C 0.972656 -4.707031 1.125 -4.910156 1.3125 -5.078125 C 1.5 -5.253906 1.71875 -5.382812 1.96875 -5.46875 C 2.226562 -5.5625 2.492188 -5.609375 2.765625 -5.609375 C 2.921875 -5.609375 3.0625 -5.59375 3.1875 -5.5625 C 3.320312 -5.539062 3.441406 -5.507812 3.546875 -5.46875 L 5.453125 -5.46875 L 5.453125 -4.765625 L 4.328125 -4.765625 C 4.453125 -4.640625 4.554688 -4.476562 4.640625 -4.28125 C 4.734375 -4.082031 4.78125 -3.867188 4.78125 -3.640625 C 4.78125 -3.347656 4.726562 -3.082031 4.625 -2.84375 C 4.519531 -2.601562 4.375 -2.398438 4.1875 -2.234375 C 4.007812 -2.078125 3.796875 -1.953125 3.546875 -1.859375 C 3.304688 -1.773438 3.046875 -1.734375 2.765625 -1.734375 C 2.628906 -1.734375 2.488281 -1.75 2.34375 -1.78125 C 2.207031 -1.820312 2.078125 -1.867188 1.953125 -1.921875 C 1.847656 -1.835938 1.757812 -1.742188 1.6875 -1.640625 C 1.625 -1.546875 1.59375 -1.421875 1.59375 -1.265625 C 1.59375 -1.097656 1.660156 -0.957031 1.796875 -0.84375 C 1.929688 -0.726562 2.1875 -0.671875 2.5625 -0.671875 L 3.625 -0.671875 C 4.257812 -0.671875 4.738281 -0.566406 5.0625 -0.359375 C 5.382812 -0.160156 5.546875 0.164062 5.546875 0.625 C 5.546875 0.882812 5.476562 1.128906 5.34375 1.359375 C 5.21875 1.585938 5.035156 1.785156 4.796875 1.953125 C 4.554688 2.128906 4.265625 2.269531 3.921875 2.375 C 3.578125 2.476562 3.191406 2.53125 2.765625 2.53125 Z M 2.765625 -2.359375 C 2.929688 -2.359375 3.082031 -2.382812 3.21875 -2.4375 C 3.351562 -2.5 3.472656 -2.585938 3.578125 -2.703125 C 3.691406 -2.816406 3.78125 -2.953125 3.84375 -3.109375 C 3.90625 -3.273438 3.9375 -3.457031 3.9375 -3.65625 C 3.9375 -4.0625 3.820312 -4.375 3.59375 -4.59375 C 3.363281 -4.820312 3.085938 -4.9375 2.765625 -4.9375 C 2.441406 -4.9375 2.164062 -4.820312 1.9375 -4.59375 C 1.71875 -4.375 1.609375 -4.0625 1.609375 -3.65625 C 1.609375 -3.457031 1.640625 -3.273438 1.703125 -3.109375 C 1.765625 -2.953125 1.847656 -2.816406 1.953125 -2.703125 C 2.066406 -2.585938 2.191406 -2.5 2.328125 -2.4375 C 2.460938 -2.382812 2.609375 -2.359375 2.765625 -2.359375 Z M 2.90625 1.875 C 3.164062 1.875 3.398438 1.84375 3.609375 1.78125 C 3.828125 1.71875 4.007812 1.632812 4.15625 1.53125 C 4.3125 1.4375 4.429688 1.320312 4.515625 1.1875 C 4.597656 1.050781 4.640625 0.910156 4.640625 0.765625 C 4.640625 0.515625 4.546875 0.335938 4.359375 0.234375 C 4.171875 0.140625 3.894531 0.09375 3.53125 0.09375 L 2.59375 0.09375 C 2.488281 0.09375 2.375 0.0859375 2.25 0.078125 C 2.125 0.0664062 2 0.0390625 1.875 0 C 1.6875 0.144531 1.546875 0.296875 1.453125 0.453125 C 1.359375 0.609375 1.3125 0.765625 1.3125 0.921875 C 1.3125 1.210938 1.453125 1.441406 1.734375 1.609375 C 2.015625 1.785156 2.40625 1.875 2.90625 1.875 Z M 2.90625 1.875 "/></g></g></g><g fill="#000000" fill-opacity="1"><g transform="translate(34.857064, 194.398772)"><g/></g></g><g fill="#000000" fill-opacity="1"><g transform="translate(37.107914, 194.398772)"><g><path d="M 3.0625 0.140625 C 2.539062 0.140625 2.054688 0.0390625 1.609375 -0.15625 C 1.171875 -0.351562 0.789062 -0.617188 0.46875 -0.953125 L 1.03125 -1.609375 C 1.300781 -1.328125 1.613281 -1.101562 1.96875 -0.9375 C 2.320312 -0.769531 2.691406 -0.6875 3.078125 -0.6875 C 3.566406 -0.6875 3.945312 -0.796875 4.21875 -1.015625 C 4.488281 -1.242188 4.625 -1.535156 4.625 -1.890625 C 4.625 -2.078125 4.585938 -2.234375 4.515625 -2.359375 C 4.453125 -2.492188 4.363281 -2.609375 4.25 -2.703125 C 4.144531 -2.796875 4.019531 -2.878906 3.875 -2.953125 C 3.726562 -3.035156 3.566406 -3.117188 3.390625 -3.203125 L 2.328125 -3.65625 C 2.160156 -3.738281 1.984375 -3.832031 1.796875 -3.9375 C 1.617188 -4.039062 1.457031 -4.164062 1.3125 -4.3125 C 1.175781 -4.46875 1.0625 -4.644531 0.96875 -4.84375 C 0.875 -5.050781 0.828125 -5.289062 0.828125 -5.5625 C 0.828125 -5.84375 0.882812 -6.101562 1 -6.34375 C 1.125 -6.582031 1.285156 -6.789062 1.484375 -6.96875 C 1.691406 -7.144531 1.9375 -7.28125 2.21875 -7.375 C 2.5 -7.476562 2.8125 -7.53125 3.15625 -7.53125 C 3.59375 -7.53125 4 -7.441406 4.375 -7.265625 C 4.757812 -7.097656 5.082031 -6.878906 5.34375 -6.609375 L 4.828125 -6 C 4.609375 -6.21875 4.359375 -6.390625 4.078125 -6.515625 C 3.804688 -6.640625 3.5 -6.703125 3.15625 -6.703125 C 2.738281 -6.703125 2.40625 -6.601562 2.15625 -6.40625 C 1.90625 -6.21875 1.78125 -5.957031 1.78125 -5.625 C 1.78125 -5.4375 1.816406 -5.28125 1.890625 -5.15625 C 1.960938 -5.039062 2.054688 -4.9375 2.171875 -4.84375 C 2.296875 -4.75 2.425781 -4.664062 2.5625 -4.59375 C 2.707031 -4.519531 2.859375 -4.453125 3.015625 -4.390625 L 4.0625 -3.9375 C 4.269531 -3.851562 4.46875 -3.75 4.65625 -3.625 C 4.84375 -3.507812 5.003906 -3.375 5.140625 -3.21875 C 5.273438 -3.070312 5.378906 -2.894531 5.453125 -2.6875 C 5.535156 -2.476562 5.578125 -2.238281 5.578125 -1.96875 C 5.578125 -1.675781 5.519531 -1.398438 5.40625 -1.140625 C 5.289062 -0.890625 5.125 -0.664062 4.90625 -0.46875 C 4.6875 -0.28125 4.421875 -0.128906 4.109375 -0.015625 C 3.804688 0.0859375 3.457031 0.140625 3.0625 0.140625 Z M 3.0625 0.140625 "/></g></g></g><g fill="#000000" fill-opacity="1"><g transform="translate(43.117699, 194.398772)"><g><path d="M 3.046875 0.140625 C 2.710938 0.140625 2.394531 0.078125 2.09375 -0.046875 C 1.789062 -0.179688 1.519531 -0.367188 1.28125 -0.609375 C 1.050781 -0.859375 0.863281 -1.160156 0.71875 -1.515625 C 0.582031 -1.867188 0.515625 -2.269531 0.515625 -2.71875 C 0.515625 -3.175781 0.582031 -3.582031 0.71875 -3.9375 C 0.863281 -4.300781 1.050781 -4.609375 1.28125 -4.859375 C 1.519531 -5.109375 1.789062 -5.296875 2.09375 -5.421875 C 2.394531 -5.546875 2.710938 -5.609375 3.046875 -5.609375 C 3.390625 -5.609375 3.710938 -5.546875 4.015625 -5.421875 C 4.316406 -5.296875 4.582031 -5.109375 4.8125 -4.859375 C 5.050781 -4.609375 5.238281 -4.300781 5.375 -3.9375 C 5.519531 -3.582031 5.59375 -3.175781 5.59375 -2.71875 C 5.59375 -2.269531 5.519531 -1.867188 5.375 -1.515625 C 5.238281 -1.160156 5.050781 -0.859375 4.8125 -0.609375 C 4.582031 -0.367188 4.316406 -0.179688 4.015625 -0.046875 C 3.710938 0.078125 3.390625 0.140625 3.046875 0.140625 Z M 3.046875 -0.625 C 3.285156 -0.625 3.5 -0.675781 3.6875 -0.78125 C 3.882812 -0.882812 4.050781 -1.023438 4.1875 -1.203125 C 4.332031 -1.390625 4.441406 -1.609375 4.515625 -1.859375 C 4.585938 -2.117188 4.625 -2.40625 4.625 -2.71875 C 4.625 -3.039062 4.585938 -3.332031 4.515625 -3.59375 C 4.441406 -3.851562 4.332031 -4.078125 4.1875 -4.265625 C 4.050781 -4.453125 3.882812 -4.59375 3.6875 -4.6875 C 3.5 -4.789062 3.285156 -4.84375 3.046875 -4.84375 C 2.816406 -4.84375 2.601562 -4.789062 2.40625 -4.6875 C 2.21875 -4.59375 2.050781 -4.453125 1.90625 -4.265625 C 1.769531 -4.078125 1.660156 -3.851562 1.578125 -3.59375 C 1.503906 -3.332031 1.46875 -3.039062 1.46875 -2.71875 C 1.46875 -2.40625 1.503906 -2.117188 1.578125 -1.859375 C 1.660156 -1.609375 1.769531 -1.390625 1.90625 -1.203125 C 2.050781 -1.023438 2.21875 -0.882812 2.40625 -0.78125 C 2.601562 -0.675781 2.816406 -0.625 3.046875 -0.625 Z M 3.046875 -0.625 "/></g></g></g><g fill="#000000" fill-opacity="1"><g transform="translate(49.217514, 194.398772)"><g><path d="M 3.046875 0.140625 C 2.710938 0.140625 2.394531 0.078125 2.09375 -0.046875 C 1.789062 -0.179688 1.519531 -0.367188 1.28125 -0.609375 C 1.050781 -0.859375 0.863281 -1.160156 0.71875 -1.515625 C 0.582031 -1.867188 0.515625 -2.269531 0.515625 -2.71875 C 0.515625 -3.175781 0.582031 -3.582031 0.71875 -3.9375 C 0.863281 -4.300781 1.050781 -4.609375 1.28125 -4.859375 C 1.519531 -5.109375 1.789062 -5.296875 2.09375 -5.421875 C 2.394531 -5.546875 2.710938 -5.609375 3.046875 -5.609375 C 3.390625 -5.609375 3.710938 -5.546875 4.015625 -5.421875 C 4.316406 -5.296875 4.582031 -5.109375 4.8125 -4.859375 C 5.050781 -4.609375 5.238281 -4.300781 5.375 -3.9375 C 5.519531 -3.582031 5.59375 -3.175781 5.59375 -2.71875 C 5.59375 -2.269531 5.519531 -1.867188 5.375 -1.515625 C 5.238281 -1.160156 5.050781 -0.859375 4.8125 -0.609375 C 4.582031 -0.367188 4.316406 -0.179688 4.015625 -0.046875 C 3.710938 0.078125 3.390625 0.140625 3.046875 0.140625 Z M 3.046875 -0.625 C 3.285156 -0.625 3.5 -0.675781 3.6875 -0.78125 C 3.882812 -0.882812 4.050781 -1.023438 4.1875 -1.203125 C 4.332031 -1.390625 4.441406 -1.609375 4.515625 -1.859375 C 4.585938 -2.117188 4.625 -2.40625 4.625 -2.71875 C 4.625 -3.039062 4.585938 -3.332031 4.515625 -3.59375 C 4.441406 -3.851562 4.332031 -4.078125 4.1875 -4.265625 C 4.050781 -4.453125 3.882812 -4.59375 3.6875 -4.6875 C 3.5 -4.789062 3.285156 -4.84375 3.046875 -4.84375 C 2.816406 -4.84375 2.601562 -4.789062 2.40625 -4.6875 C 2.21875 -4.59375 2.050781 -4.453125 1.90625 -4.265625 C 1.769531 -4.078125 1.660156 -3.851562 1.578125 -3.59375 C 1.503906 -3.332031 1.46875 -3.039062 1.46875 -2.71875 C 1.46875 -2.40625 1.503906 -2.117188 1.578125 -1.859375 C 1.660156 -1.609375 1.769531 -1.390625 1.90625 -1.203125 C 2.050781 -1.023438 2.21875 -0.882812 2.40625 -0.78125 C 2.601562 -0.675781 2.816406 -0.625 3.046875 -0.625 Z M 3.046875 -0.625 "/></g></g></g><g fill="#000000" fill-opacity="1"><g transform="translate(55.317329, 194.398772)"><g><path d="M 0.921875 0 L 0.921875 -5.46875 L 1.6875 -5.46875 L 1.765625 -4.6875 L 1.796875 -4.6875 C 2.066406 -4.945312 2.34375 -5.164062 2.625 -5.34375 C 2.914062 -5.519531 3.253906 -5.609375 3.640625 -5.609375 C 4.210938 -5.609375 4.632812 -5.425781 4.90625 -5.0625 C 5.175781 -4.707031 5.3125 -4.175781 5.3125 -3.46875 L 5.3125 0 L 4.375 0 L 4.375 -3.34375 C 4.375 -3.863281 4.289062 -4.238281 4.125 -4.46875 C 3.96875 -4.695312 3.707031 -4.8125 3.34375 -4.8125 C 3.0625 -4.8125 2.8125 -4.738281 2.59375 -4.59375 C 2.375 -4.445312 2.125 -4.238281 1.84375 -3.96875 L 1.84375 0 Z M 0.921875 0 "/></g></g></g><g fill="#000000" fill-opacity="1"><g transform="translate(29.631259, 267.621705)"><g><path d="M 3.8125 0.140625 C 3.34375 0.140625 2.910156 0.0507812 2.515625 -0.125 C 2.128906 -0.300781 1.789062 -0.550781 1.5 -0.875 C 1.207031 -1.195312 0.976562 -1.597656 0.8125 -2.078125 C 0.65625 -2.554688 0.578125 -3.09375 0.578125 -3.6875 C 0.578125 -4.28125 0.660156 -4.8125 0.828125 -5.28125 C 0.992188 -5.757812 1.222656 -6.164062 1.515625 -6.5 C 1.804688 -6.832031 2.148438 -7.085938 2.546875 -7.265625 C 2.953125 -7.441406 3.390625 -7.53125 3.859375 -7.53125 C 4.316406 -7.53125 4.710938 -7.4375 5.046875 -7.25 C 5.390625 -7.0625 5.671875 -6.847656 5.890625 -6.609375 L 5.390625 -6 C 5.191406 -6.207031 4.96875 -6.375 4.71875 -6.5 C 4.46875 -6.632812 4.1875 -6.703125 3.875 -6.703125 C 3.519531 -6.703125 3.195312 -6.628906 2.90625 -6.484375 C 2.625 -6.347656 2.378906 -6.148438 2.171875 -5.890625 C 1.972656 -5.640625 1.816406 -5.328125 1.703125 -4.953125 C 1.597656 -4.585938 1.546875 -4.175781 1.546875 -3.71875 C 1.546875 -3.25 1.597656 -2.828125 1.703125 -2.453125 C 1.816406 -2.085938 1.972656 -1.769531 2.171875 -1.5 C 2.367188 -1.238281 2.609375 -1.035156 2.890625 -0.890625 C 3.171875 -0.753906 3.488281 -0.6875 3.84375 -0.6875 C 4.195312 -0.6875 4.507812 -0.757812 4.78125 -0.90625 C 5.050781 -1.050781 5.304688 -1.253906 5.546875 -1.515625 L 6.078125 -0.9375 C 5.773438 -0.59375 5.441406 -0.328125 5.078125 -0.140625 C 4.710938 0.046875 4.289062 0.140625 3.8125 0.140625 Z M 3.8125 0.140625 "/></g></g></g><g fill="#000000" fill-opacity="1"><g transform="translate(36.057446, 267.621705)"><g><path d="M 1.90625 0.140625 C 1.550781 0.140625 1.296875 0.0351562 1.140625 -0.171875 C 0.992188 -0.390625 0.921875 -0.703125 0.921875 -1.109375 L 0.921875 -8.015625 L 1.84375 -8.015625 L 1.84375 -1.03125 C 1.84375 -0.882812 1.867188 -0.78125 1.921875 -0.71875 C 1.972656 -0.65625 2.035156 -0.625 2.109375 -0.625 C 2.140625 -0.625 2.164062 -0.625 2.1875 -0.625 C 2.21875 -0.625 2.257812 -0.632812 2.3125 -0.65625 L 2.4375 0.046875 C 2.375 0.078125 2.300781 0.0976562 2.21875 0.109375 C 2.132812 0.128906 2.03125 0.140625 1.90625 0.140625 Z M 1.90625 0.140625 "/></g></g></g><g fill="#000000" fill-opacity="1"><g transform="translate(38.927282, 267.621705)"><g><path d="M 3.046875 0.140625 C 2.710938 0.140625 2.394531 0.078125 2.09375 -0.046875 C 1.789062 -0.179688 1.519531 -0.367188 1.28125 -0.609375 C 1.050781 -0.859375 0.863281 -1.160156 0.71875 -1.515625 C 0.582031 -1.867188 0.515625 -2.269531 0.515625 -2.71875 C 0.515625 -3.175781 0.582031 -3.582031 0.71875 -3.9375 C 0.863281 -4.300781 1.050781 -4.609375 1.28125 -4.859375 C 1.519531 -5.109375 1.789062 -5.296875 2.09375 -5.421875 C 2.394531 -5.546875 2.710938 -5.609375 3.046875 -5.609375 C 3.390625 -5.609375 3.710938 -5.546875 4.015625 -5.421875 C 4.316406 -5.296875 4.582031 -5.109375 4.8125 -4.859375 C 5.050781 -4.609375 5.238281 -4.300781 5.375 -3.9375 C 5.519531 -3.582031 5.59375 -3.175781 5.59375 -2.71875 C 5.59375 -2.269531 5.519531 -1.867188 5.375 -1.515625 C 5.238281 -1.160156 5.050781 -0.859375 4.8125 -0.609375 C 4.582031 -0.367188 4.316406 -0.179688 4.015625 -0.046875 C 3.710938 0.078125 3.390625 0.140625 3.046875 0.140625 Z M 3.046875 -0.625 C 3.285156 -0.625 3.5 -0.675781 3.6875 -0.78125 C 3.882812 -0.882812 4.050781 -1.023438 4.1875 -1.203125 C 4.332031 -1.390625 4.441406 -1.609375 4.515625 -1.859375 C 4.585938 -2.117188 4.625 -2.40625 4.625 -2.71875 C 4.625 -3.039062 4.585938 -3.332031 4.515625 -3.59375 C 4.441406 -3.851562 4.332031 -4.078125 4.1875 -4.265625 C 4.050781 -4.453125 3.882812 -4.59375 3.6875 -4.6875 C 3.5 -4.789062 3.285156 -4.84375 3.046875 -4.84375 C 2.816406 -4.84375 2.601562 -4.789062 2.40625 -4.6875 C 2.21875 -4.59375 2.050781 -4.453125 1.90625 -4.265625 C 1.769531 -4.078125 1.660156 -3.851562 1.578125 -3.59375 C 1.503906 -3.332031 1.46875 -3.039062 1.46875 -2.71875 C 1.46875 -2.40625 1.503906 -2.117188 1.578125 -1.859375 C 1.660156 -1.609375 1.769531 -1.390625 1.90625 -1.203125 C 2.050781 -1.023438 2.21875 -0.882812 2.40625 -0.78125 C 2.601562 -0.675781 2.816406 -0.625 3.046875 -0.625 Z M 3.046875 -0.625 "/></g></g></g><g fill="#000000" fill-opacity="1"><g transform="translate(45.027097, 267.621705)"><g><path d="M 2.359375 0.140625 C 1.960938 0.140625 1.585938 0.0664062 1.234375 -0.078125 C 0.878906 -0.222656 0.570312 -0.40625 0.3125 -0.625 L 0.78125 -1.234375 C 1.019531 -1.046875 1.265625 -0.890625 1.515625 -0.765625 C 1.765625 -0.640625 2.054688 -0.578125 2.390625 -0.578125 C 2.742188 -0.578125 3.007812 -0.660156 3.1875 -0.828125 C 3.375 -0.992188 3.46875 -1.195312 3.46875 -1.4375 C 3.46875 -1.582031 3.429688 -1.707031 3.359375 -1.8125 C 3.285156 -1.914062 3.1875 -2.003906 3.0625 -2.078125 C 2.945312 -2.160156 2.8125 -2.234375 2.65625 -2.296875 C 2.507812 -2.359375 2.363281 -2.421875 2.21875 -2.484375 C 2.019531 -2.546875 1.820312 -2.617188 1.625 -2.703125 C 1.4375 -2.796875 1.265625 -2.898438 1.109375 -3.015625 C 0.953125 -3.140625 0.820312 -3.285156 0.71875 -3.453125 C 0.625 -3.617188 0.578125 -3.820312 0.578125 -4.0625 C 0.578125 -4.269531 0.617188 -4.46875 0.703125 -4.65625 C 0.796875 -4.851562 0.921875 -5.019531 1.078125 -5.15625 C 1.242188 -5.300781 1.441406 -5.410156 1.671875 -5.484375 C 1.910156 -5.566406 2.175781 -5.609375 2.46875 -5.609375 C 2.8125 -5.609375 3.128906 -5.546875 3.421875 -5.421875 C 3.710938 -5.304688 3.960938 -5.160156 4.171875 -4.984375 L 3.734375 -4.40625 C 3.546875 -4.550781 3.347656 -4.664062 3.140625 -4.75 C 2.941406 -4.84375 2.722656 -4.890625 2.484375 -4.890625 C 2.128906 -4.890625 1.867188 -4.8125 1.703125 -4.65625 C 1.546875 -4.5 1.46875 -4.3125 1.46875 -4.09375 C 1.46875 -3.96875 1.5 -3.859375 1.5625 -3.765625 C 1.632812 -3.671875 1.726562 -3.585938 1.84375 -3.515625 C 1.957031 -3.441406 2.085938 -3.378906 2.234375 -3.328125 C 2.378906 -3.273438 2.53125 -3.21875 2.6875 -3.15625 C 2.882812 -3.082031 3.082031 -3.003906 3.28125 -2.921875 C 3.476562 -2.835938 3.65625 -2.734375 3.8125 -2.609375 C 3.976562 -2.484375 4.109375 -2.328125 4.203125 -2.140625 C 4.304688 -1.960938 4.359375 -1.75 4.359375 -1.5 C 4.359375 -1.269531 4.3125 -1.054688 4.21875 -0.859375 C 4.132812 -0.671875 4.007812 -0.5 3.84375 -0.34375 C 3.675781 -0.195312 3.46875 -0.0820312 3.21875 0 C 2.96875 0.09375 2.679688 0.140625 2.359375 0.140625 Z M 2.359375 0.140625 "/></g></g></g><g fill="#000000" fill-opacity="1"><g transform="translate(49.742638, 267.621705)"><g><path d="M 3.140625 0.140625 C 2.773438 0.140625 2.429688 0.0703125 2.109375 -0.0625 C 1.796875 -0.195312 1.519531 -0.382812 1.28125 -0.625 C 1.039062 -0.863281 0.851562 -1.160156 0.71875 -1.515625 C 0.582031 -1.867188 0.515625 -2.269531 0.515625 -2.71875 C 0.515625 -3.175781 0.582031 -3.582031 0.71875 -3.9375 C 0.863281 -4.289062 1.050781 -4.59375 1.28125 -4.84375 C 1.507812 -5.09375 1.769531 -5.28125 2.0625 -5.40625 C 2.351562 -5.539062 2.65625 -5.609375 2.96875 -5.609375 C 3.320312 -5.609375 3.632812 -5.546875 3.90625 -5.421875 C 4.175781 -5.304688 4.398438 -5.132812 4.578125 -4.90625 C 4.765625 -4.6875 4.90625 -4.414062 5 -4.09375 C 5.101562 -3.78125 5.15625 -3.429688 5.15625 -3.046875 C 5.15625 -2.941406 5.148438 -2.84375 5.140625 -2.75 C 5.140625 -2.65625 5.132812 -2.578125 5.125 -2.515625 L 1.4375 -2.515625 C 1.46875 -1.929688 1.644531 -1.46875 1.96875 -1.125 C 2.300781 -0.78125 2.726562 -0.609375 3.25 -0.609375 C 3.519531 -0.609375 3.765625 -0.644531 3.984375 -0.71875 C 4.203125 -0.800781 4.414062 -0.90625 4.625 -1.03125 L 4.953125 -0.421875 C 4.703125 -0.273438 4.429688 -0.144531 4.140625 -0.03125 C 3.847656 0.0820312 3.515625 0.140625 3.140625 0.140625 Z M 1.421875 -3.171875 L 4.34375 -3.171875 C 4.34375 -3.734375 4.222656 -4.15625 3.984375 -4.4375 C 3.753906 -4.726562 3.425781 -4.875 3 -4.875 C 2.800781 -4.875 2.613281 -4.835938 2.4375 -4.765625 C 2.257812 -4.691406 2.097656 -4.582031 1.953125 -4.4375 C 1.816406 -4.289062 1.703125 -4.109375 1.609375 -3.890625 C 1.515625 -3.679688 1.453125 -3.441406 1.421875 -3.171875 Z M 1.421875 -3.171875 "/></g></g></g><g fill="#000000" fill-opacity="1"><g transform="translate(55.324752, 267.621705)"><g><path d="M 2.796875 0.140625 C 2.097656 0.140625 1.546875 -0.109375 1.140625 -0.609375 C 0.734375 -1.109375 0.53125 -1.8125 0.53125 -2.71875 C 0.53125 -3.164062 0.59375 -3.566406 0.71875 -3.921875 C 0.851562 -4.285156 1.03125 -4.585938 1.25 -4.828125 C 1.46875 -5.078125 1.71875 -5.269531 2 -5.40625 C 2.289062 -5.539062 2.59375 -5.609375 2.90625 -5.609375 C 3.21875 -5.609375 3.488281 -5.550781 3.71875 -5.4375 C 3.957031 -5.320312 4.195312 -5.171875 4.4375 -4.984375 L 4.390625 -5.921875 L 4.390625 -8.015625 L 5.328125 -8.015625 L 5.328125 0 L 4.5625 0 L 4.484375 -0.640625 L 4.453125 -0.640625 C 4.234375 -0.429688 3.984375 -0.25 3.703125 -0.09375 C 3.421875 0.0625 3.117188 0.140625 2.796875 0.140625 Z M 3 -0.640625 C 3.25 -0.640625 3.488281 -0.703125 3.71875 -0.828125 C 3.945312 -0.953125 4.171875 -1.140625 4.390625 -1.390625 L 4.390625 -4.265625 C 4.160156 -4.472656 3.9375 -4.617188 3.71875 -4.703125 C 3.507812 -4.785156 3.289062 -4.828125 3.0625 -4.828125 C 2.84375 -4.828125 2.632812 -4.773438 2.4375 -4.671875 C 2.25 -4.578125 2.082031 -4.4375 1.9375 -4.25 C 1.800781 -4.070312 1.691406 -3.851562 1.609375 -3.59375 C 1.523438 -3.332031 1.484375 -3.046875 1.484375 -2.734375 C 1.484375 -2.078125 1.613281 -1.5625 1.875 -1.1875 C 2.144531 -0.820312 2.519531 -0.640625 3 -0.640625 Z M 3 -0.640625 "/></g></g></g><g clip-path="url(#39ca4fd0e1)"><path fill="#97d4ea" d="M 68.753906 11.828125 L 177.710938 11.828125 C 178.054688 11.828125 178.398438 11.863281 178.738281 11.929688 C 179.078125 12 179.40625 12.097656 179.726562 12.230469 C 180.046875 12.363281 180.351562 12.527344 180.640625 12.71875 C 180.925781 12.910156 181.195312 13.128906 181.4375 13.375 C 181.683594 13.617188 181.902344 13.886719 182.09375 14.171875 C 182.285156 14.460938 182.449219 14.765625 182.582031 15.085938 C 182.714844 15.402344 182.8125 15.734375 182.882812 16.074219 C 182.949219 16.414062 182.984375 16.753906 182.984375 17.101562 L 182.984375 72.457031 C 182.984375 72.804688 182.949219 73.148438 182.882812 73.488281 C 182.8125 73.828125 182.714844 74.15625 182.582031 74.476562 C 182.449219 74.796875 182.285156 75.097656 182.09375 75.386719 C 181.902344 75.675781 181.683594 75.941406 181.4375 76.1875 C 181.195312 76.429688 180.925781 76.648438 180.640625 76.839844 C 180.351562 77.035156 180.046875 77.195312 179.726562 77.328125 C 179.40625 77.460938 179.078125 77.5625 178.738281 77.628906 C 178.398438 77.695312 178.054688 77.730469 177.710938 77.730469 L 68.753906 77.730469 C 68.410156 77.730469 68.066406 77.695312 67.726562 77.628906 C 67.386719 77.5625 67.058594 77.460938 66.738281 77.328125 C 66.417969 77.195312 66.113281 77.035156 65.824219 76.839844 C 65.539062 76.648438 65.273438 76.429688 65.027344 76.1875 C 64.78125 75.941406 64.5625 75.675781 64.371094 75.386719 C 64.179688 75.097656 64.015625 74.796875 63.882812 74.476562 C 63.75 74.15625 63.652344 73.828125 63.582031 73.488281 C 63.515625 73.148438 63.484375 72.804688 63.484375 72.457031 L 63.484375 17.101562 C 63.484375 16.753906 63.515625 16.414062 63.582031 16.074219 C 63.652344 15.734375 63.75 15.402344 63.882812 15.085938 C 64.015625 14.765625 64.179688 14.460938 64.371094 14.171875 C 64.5625 13.886719 64.78125 13.617188 65.027344 13.375 C 65.273438 13.128906 65.539062 12.910156 65.824219 12.71875 C 66.113281 12.527344 66.417969 12.363281 66.738281 12.230469 C 67.058594 12.097656 67.386719 12 67.726562 11.929688 C 68.066406 11.863281 68.410156 11.828125 68.753906 11.828125 Z M 68.753906 11.828125 " fill-opacity="1" fill-rule="nonzero"/></g><g clip-path="url(#cf7271aa38)"><path fill="#82e2c2" d="M 68.753906 85.050781 L 249.101562 85.050781 C 249.449219 85.050781 249.792969 85.085938 250.132812 85.152344 C 250.472656 85.222656 250.800781 85.320312 251.121094 85.453125 C 251.441406 85.585938 251.742188 85.75 252.03125 85.941406 C 252.320312 86.132812 252.585938 86.351562 252.832031 86.597656 C 253.074219 86.839844 253.292969 87.109375 253.484375 87.394531 C 253.679688 87.683594 253.839844 87.988281 253.972656 88.308594 C 254.105469 88.625 254.207031 88.957031 254.273438 89.296875 C 254.339844 89.636719 254.375 89.976562 254.375 90.324219 L 254.375 145.679688 C 254.375 146.027344 254.339844 146.371094 254.273438 146.710938 C 254.207031 147.050781 254.105469 147.378906 253.972656 147.699219 C 253.839844 148.019531 253.679688 148.324219 253.484375 148.609375 C 253.292969 148.898438 253.074219 149.164062 252.832031 149.410156 C 252.585938 149.652344 252.320312 149.871094 252.03125 150.066406 C 251.742188 150.257812 251.441406 150.417969 251.121094 150.550781 C 250.800781 150.683594 250.472656 150.785156 250.132812 150.851562 C 249.792969 150.917969 249.449219 150.953125 249.101562 150.953125 L 68.753906 150.953125 C 68.410156 150.953125 68.066406 150.917969 67.726562 150.851562 C 67.386719 150.785156 67.058594 150.683594 66.738281 150.550781 C 66.417969 150.417969 66.113281 150.257812 65.824219 150.066406 C 65.539062 149.871094 65.273438 149.652344 65.027344 149.410156 C 64.78125 149.164062 64.5625 148.898438 64.371094 148.609375 C 64.179688 148.324219 64.015625 148.019531 63.882812 147.699219 C 63.75 147.378906 63.652344 147.050781 63.582031 146.710938 C 63.515625 146.371094 63.484375 146.027344 63.484375 145.679688 L 63.484375 90.324219 C 63.484375 89.976562 63.515625 89.636719 63.582031 89.296875 C 63.652344 88.957031 63.75 88.625 63.882812 88.308594 C 64.015625 87.988281 64.179688 87.683594 64.371094 87.394531 C 64.5625 87.109375 64.78125 86.839844 65.027344 86.597656 C 65.273438 86.351562 65.539062 86.132812 65.824219 85.941406 C 66.113281 85.75 66.417969 85.585938 66.738281 85.453125 C 67.058594 85.320312 67.386719 85.222656 67.726562 85.152344 C 68.066406 85.085938 68.410156 85.050781 68.753906 85.050781 Z M 68.753906 85.050781 " fill-opacity="1" fill-rule="nonzero"/></g><g clip-path="url(#3b6f2c06e9)"><path fill="#ffbc78" d="M 68.753906 158.277344 L 120.597656 158.277344 C 120.941406 158.277344 121.285156 158.308594 121.625 158.375 C 121.964844 158.445312 122.292969 158.542969 122.613281 158.675781 C 122.933594 158.808594 123.238281 158.972656 123.527344 159.164062 C 123.8125 159.355469 124.078125 159.574219 124.324219 159.820312 C 124.570312 160.0625 124.789062 160.332031 124.980469 160.617188 C 125.171875 160.90625 125.335938 161.210938 125.46875 161.53125 C 125.601562 161.851562 125.699219 162.179688 125.765625 162.519531 C 125.835938 162.859375 125.867188 163.203125 125.867188 163.546875 L 125.867188 218.902344 C 125.867188 219.25 125.835938 219.59375 125.765625 219.933594 C 125.699219 220.273438 125.601562 220.601562 125.46875 220.921875 C 125.335938 221.242188 125.171875 221.546875 124.980469 221.832031 C 124.789062 222.121094 124.570312 222.386719 124.324219 222.632812 C 124.078125 222.875 123.8125 223.09375 123.527344 223.289062 C 123.238281 223.480469 122.933594 223.640625 122.613281 223.773438 C 122.292969 223.90625 121.964844 224.007812 121.625 224.074219 C 121.285156 224.140625 120.941406 224.175781 120.597656 224.175781 L 68.753906 224.175781 C 68.410156 224.175781 68.066406 224.140625 67.726562 224.074219 C 67.386719 224.007812 67.058594 223.90625 66.738281 223.773438 C 66.417969 223.640625 66.113281 223.480469 65.824219 223.289062 C 65.539062 223.09375 65.273438 222.875 65.027344 222.632812 C 64.78125 222.386719 64.5625 222.121094 64.371094 221.832031 C 64.179688 221.546875 64.015625 221.242188 63.882812 220.921875 C 63.75 220.601562 63.652344 220.273438 63.582031 219.933594 C 63.515625 219.59375 63.484375 219.25 63.484375 218.902344 L 63.484375 163.546875 C 63.484375 163.203125 63.515625 162.859375 63.582031 162.519531 C 63.652344 162.179688 63.75 161.851562 63.882812 161.53125 C 64.015625 161.210938 64.179688 160.90625 64.371094 160.617188 C 64.5625 160.332031 64.78125 160.0625 65.027344 159.820312 C 65.273438 159.574219 65.539062 159.355469 65.824219 159.164062 C 66.113281 158.972656 66.417969 158.808594 66.738281 158.675781 C 67.058594 158.542969 67.386719 158.445312 67.726562 158.375 C 68.066406 158.308594 68.410156 158.277344 68.753906 158.277344 Z M 68.753906 158.277344 " fill-opacity="1" fill-rule="nonzero"/></g><g clip-path="url(#36f3a7dda0)"><path fill="#f2938c" d="M 68.753906 231.5 L 349.050781 231.5 C 349.398438 231.5 349.742188 231.53125 350.082031 231.601562 C 350.421875 231.667969 350.75 231.765625 351.070312 231.898438 C 351.390625 232.03125 351.691406 232.195312 351.980469 232.386719 C 352.269531 232.578125 352.535156 232.796875 352.78125 233.042969 C 353.023438 233.289062 353.242188 233.554688 353.4375 233.839844 C 353.628906 234.128906 353.789062 234.433594 353.921875 234.753906 C 354.054688 235.074219 354.15625 235.402344 354.222656 235.742188 C 354.289062 236.082031 354.324219 236.425781 354.324219 236.769531 L 354.324219 292.128906 C 354.324219 292.472656 354.289062 292.816406 354.222656 293.15625 C 354.15625 293.496094 354.054688 293.824219 353.921875 294.144531 C 353.789062 294.464844 353.628906 294.769531 353.4375 295.054688 C 353.242188 295.34375 353.023438 295.609375 352.78125 295.855469 C 352.535156 296.101562 352.269531 296.316406 351.980469 296.511719 C 351.691406 296.703125 351.390625 296.863281 351.070312 296.996094 C 350.75 297.128906 350.421875 297.230469 350.082031 297.296875 C 349.742188 297.367188 349.398438 297.398438 349.050781 297.398438 L 68.753906 297.398438 C 68.410156 297.398438 68.066406 297.367188 67.726562 297.296875 C 67.386719 297.230469 67.058594 297.128906 66.738281 296.996094 C 66.417969 296.863281 66.113281 296.703125 65.824219 296.511719 C 65.539062 296.316406 65.273438 296.101562 65.027344 295.855469 C 64.78125 295.609375 64.5625 295.34375 64.371094 295.054688 C 64.179688 294.769531 64.015625 294.464844 63.882812 294.144531 C 63.75 293.824219 63.652344 293.496094 63.582031 293.15625 C 63.515625 292.816406 63.484375 292.472656 63.484375 292.128906 L 63.484375 236.769531 C 63.484375 236.425781 63.515625 236.082031 63.582031 235.742188 C 63.652344 235.402344 63.75 235.074219 63.882812 234.753906 C 64.015625 234.433594 64.179688 234.128906 64.371094 233.839844 C 64.5625 233.554688 64.78125 233.289062 65.027344 233.042969 C 65.273438 232.796875 65.539062 232.578125 65.824219 232.386719 C 66.113281 232.195312 66.417969 232.03125 66.738281 231.898438 C 67.058594 231.765625 67.386719 231.667969 67.726562 231.601562 C 68.066406 231.53125 68.410156 231.5 68.753906 231.5 Z M 68.753906 231.5 " fill-opacity="1" fill-rule="nonzero"/></g><g fill="#000000" fill-opacity="1"><g transform="translate(123.079835, 48.343845)"><g><path d="M 2.8125 0.140625 C 2.476562 0.140625 2.164062 0.09375 1.875 0 C 1.582031 -0.101562 1.332031 -0.242188 1.125 -0.421875 C 0.925781 -0.597656 0.765625 -0.804688 0.640625 -1.046875 C 0.523438 -1.285156 0.46875 -1.550781 0.46875 -1.84375 C 0.46875 -2.070312 0.503906 -2.285156 0.578125 -2.484375 C 0.660156 -2.679688 0.757812 -2.859375 0.875 -3.015625 C 1 -3.179688 1.140625 -3.328125 1.296875 -3.453125 C 1.460938 -3.578125 1.632812 -3.6875 1.8125 -3.78125 L 1.8125 -3.8125 C 1.550781 -4 1.316406 -4.226562 1.109375 -4.5 C 0.910156 -4.769531 0.8125 -5.09375 0.8125 -5.46875 C 0.8125 -5.75 0.863281 -6 0.96875 -6.21875 C 1.070312 -6.445312 1.210938 -6.640625 1.390625 -6.796875 C 1.578125 -6.960938 1.789062 -7.09375 2.03125 -7.1875 C 2.28125 -7.28125 2.550781 -7.328125 2.84375 -7.328125 C 3.164062 -7.328125 3.445312 -7.28125 3.6875 -7.1875 C 3.9375 -7.09375 4.148438 -6.957031 4.328125 -6.78125 C 4.503906 -6.613281 4.640625 -6.410156 4.734375 -6.171875 C 4.828125 -5.941406 4.875 -5.6875 4.875 -5.40625 C 4.875 -5.21875 4.84375 -5.035156 4.78125 -4.859375 C 4.71875 -4.691406 4.640625 -4.53125 4.546875 -4.375 C 4.453125 -4.226562 4.347656 -4.09375 4.234375 -3.96875 C 4.117188 -3.851562 4.003906 -3.753906 3.890625 -3.671875 L 3.890625 -3.625 C 4.046875 -3.539062 4.195312 -3.4375 4.34375 -3.3125 C 4.5 -3.195312 4.632812 -3.066406 4.75 -2.921875 C 4.863281 -2.773438 4.957031 -2.609375 5.03125 -2.421875 C 5.101562 -2.234375 5.140625 -2.019531 5.140625 -1.78125 C 5.140625 -1.507812 5.082031 -1.253906 4.96875 -1.015625 C 4.851562 -0.785156 4.691406 -0.582031 4.484375 -0.40625 C 4.285156 -0.238281 4.039062 -0.101562 3.75 0 C 3.46875 0.09375 3.15625 0.140625 2.8125 0.140625 Z M 3.328125 -3.921875 C 3.566406 -4.140625 3.75 -4.367188 3.875 -4.609375 C 4.007812 -4.847656 4.078125 -5.097656 4.078125 -5.359375 C 4.078125 -5.722656 3.96875 -6.023438 3.75 -6.265625 C 3.53125 -6.515625 3.222656 -6.640625 2.828125 -6.640625 C 2.492188 -6.640625 2.21875 -6.53125 2 -6.3125 C 1.78125 -6.101562 1.671875 -5.820312 1.671875 -5.46875 C 1.671875 -5.25 1.710938 -5.0625 1.796875 -4.90625 C 1.890625 -4.757812 2.015625 -4.625 2.171875 -4.5 C 2.328125 -4.382812 2.503906 -4.28125 2.703125 -4.1875 C 2.898438 -4.09375 3.109375 -4.003906 3.328125 -3.921875 Z M 2.84375 -0.546875 C 3.257812 -0.546875 3.597656 -0.660156 3.859375 -0.890625 C 4.117188 -1.128906 4.25 -1.4375 4.25 -1.8125 C 4.25 -2.039062 4.195312 -2.238281 4.09375 -2.40625 C 3.988281 -2.570312 3.84375 -2.71875 3.65625 -2.84375 C 3.476562 -2.96875 3.269531 -3.078125 3.03125 -3.171875 C 2.800781 -3.273438 2.554688 -3.382812 2.296875 -3.5 C 2.015625 -3.300781 1.773438 -3.070312 1.578125 -2.8125 C 1.390625 -2.550781 1.296875 -2.253906 1.296875 -1.921875 C 1.296875 -1.722656 1.332031 -1.539062 1.40625 -1.375 C 1.488281 -1.207031 1.597656 -1.0625 1.734375 -0.9375 C 1.878906 -0.8125 2.046875 -0.710938 2.234375 -0.640625 C 2.421875 -0.578125 2.625 -0.546875 2.84375 -0.546875 Z M 2.84375 -0.546875 "/></g></g></g><g fill="#000000" fill-opacity="1"><g transform="translate(155.590621, 121.570578)"><g><path d="M 0.890625 0 L 0.890625 -0.765625 L 2.53125 -0.765625 L 2.53125 -6.0625 L 1.234375 -6.0625 L 1.234375 -6.65625 C 1.554688 -6.71875 1.835938 -6.789062 2.078125 -6.875 C 2.328125 -6.957031 2.550781 -7.0625 2.75 -7.1875 L 3.453125 -7.1875 L 3.453125 -0.765625 L 4.953125 -0.765625 L 4.953125 0 Z M 0.890625 0 "/></g></g></g><g fill="#000000" fill-opacity="1"><g transform="translate(161.183992, 121.570578)"><g><path d="M 2.65625 0.140625 C 2.375 0.140625 2.113281 0.109375 1.875 0.046875 C 1.632812 -0.00390625 1.414062 -0.078125 1.21875 -0.171875 C 1.03125 -0.265625 0.859375 -0.367188 0.703125 -0.484375 C 0.546875 -0.609375 0.410156 -0.738281 0.296875 -0.875 L 0.765625 -1.484375 C 0.984375 -1.265625 1.234375 -1.066406 1.515625 -0.890625 C 1.804688 -0.710938 2.171875 -0.625 2.609375 -0.625 C 3.035156 -0.625 3.390625 -0.742188 3.671875 -0.984375 C 3.953125 -1.222656 4.09375 -1.546875 4.09375 -1.953125 C 4.09375 -2.160156 4.050781 -2.351562 3.96875 -2.53125 C 3.894531 -2.707031 3.765625 -2.859375 3.578125 -2.984375 C 3.398438 -3.109375 3.164062 -3.203125 2.875 -3.265625 C 2.582031 -3.335938 2.222656 -3.375 1.796875 -3.375 L 1.796875 -4.09375 C 2.171875 -4.09375 2.488281 -4.125 2.75 -4.1875 C 3.007812 -4.257812 3.21875 -4.351562 3.375 -4.46875 C 3.539062 -4.59375 3.65625 -4.734375 3.71875 -4.890625 C 3.789062 -5.054688 3.828125 -5.238281 3.828125 -5.4375 C 3.828125 -5.78125 3.71875 -6.050781 3.5 -6.25 C 3.28125 -6.457031 2.976562 -6.5625 2.59375 -6.5625 C 2.289062 -6.5625 2.015625 -6.492188 1.765625 -6.359375 C 1.515625 -6.222656 1.28125 -6.046875 1.0625 -5.828125 L 0.5625 -6.421875 C 0.84375 -6.679688 1.148438 -6.894531 1.484375 -7.0625 C 1.816406 -7.238281 2.195312 -7.328125 2.625 -7.328125 C 2.9375 -7.328125 3.222656 -7.285156 3.484375 -7.203125 C 3.753906 -7.117188 3.984375 -7 4.171875 -6.84375 C 4.367188 -6.6875 4.519531 -6.492188 4.625 -6.265625 C 4.726562 -6.046875 4.78125 -5.789062 4.78125 -5.5 C 4.78125 -5.0625 4.660156 -4.703125 4.421875 -4.421875 C 4.179688 -4.148438 3.863281 -3.9375 3.46875 -3.78125 L 3.46875 -3.734375 C 3.6875 -3.679688 3.890625 -3.601562 4.078125 -3.5 C 4.265625 -3.40625 4.425781 -3.28125 4.5625 -3.125 C 4.707031 -2.96875 4.820312 -2.785156 4.90625 -2.578125 C 4.988281 -2.378906 5.03125 -2.160156 5.03125 -1.921875 C 5.03125 -1.597656 4.96875 -1.304688 4.84375 -1.046875 C 4.71875 -0.796875 4.546875 -0.582031 4.328125 -0.40625 C 4.117188 -0.226562 3.867188 -0.09375 3.578125 0 C 3.296875 0.09375 2.988281 0.140625 2.65625 0.140625 Z M 2.65625 0.140625 "/></g></g></g><g fill="#000000" fill-opacity="1"><g transform="translate(94.522896, 194.784921)"><g><path d="M 3.421875 0 L 3.421875 -1.984375 L 0.1875 -1.984375 L 0.1875 -2.59375 L 3.265625 -7.1875 L 4.296875 -7.1875 L 4.296875 -2.71875 L 5.28125 -2.71875 L 5.28125 -1.984375 L 4.296875 -1.984375 L 4.296875 0 Z M 1.171875 -2.71875 L 3.421875 -2.71875 L 3.421875 -4.8125 C 3.421875 -5.007812 3.425781 -5.238281 3.4375 -5.5 C 3.445312 -5.769531 3.460938 -6.003906 3.484375 -6.203125 L 3.4375 -6.203125 C 3.34375 -6.023438 3.25 -5.851562 3.15625 -5.6875 C 3.0625 -5.519531 2.957031 -5.351562 2.84375 -5.1875 Z M 1.171875 -2.71875 "/></g></g></g><g fill="#000000" fill-opacity="1"><g transform="translate(205.961888, 268.011654)"><g><path d="M 0.453125 0 L 0.453125 -0.546875 C 0.992188 -1.085938 1.472656 -1.578125 1.890625 -2.015625 C 2.316406 -2.453125 2.671875 -2.851562 2.953125 -3.21875 C 3.234375 -3.59375 3.445312 -3.9375 3.59375 -4.25 C 3.75 -4.5625 3.828125 -4.863281 3.828125 -5.15625 C 3.828125 -5.570312 3.710938 -5.910156 3.484375 -6.171875 C 3.265625 -6.429688 2.925781 -6.5625 2.46875 -6.5625 C 2.164062 -6.5625 1.882812 -6.476562 1.625 -6.3125 C 1.375 -6.144531 1.144531 -5.941406 0.9375 -5.703125 L 0.40625 -6.234375 C 0.707031 -6.554688 1.023438 -6.816406 1.359375 -7.015625 C 1.703125 -7.222656 2.109375 -7.328125 2.578125 -7.328125 C 3.242188 -7.328125 3.769531 -7.128906 4.15625 -6.734375 C 4.539062 -6.347656 4.734375 -5.835938 4.734375 -5.203125 C 4.734375 -4.867188 4.660156 -4.53125 4.515625 -4.1875 C 4.367188 -3.84375 4.164062 -3.488281 3.90625 -3.125 C 3.644531 -2.757812 3.332031 -2.378906 2.96875 -1.984375 C 2.613281 -1.585938 2.222656 -1.171875 1.796875 -0.734375 C 1.992188 -0.742188 2.195312 -0.753906 2.40625 -0.765625 C 2.613281 -0.785156 2.816406 -0.796875 3.015625 -0.796875 L 5.09375 -0.796875 L 5.09375 0 Z M 0.453125 0 "/></g></g></g><g fill="#000000" fill-opacity="1"><g transform="translate(211.555259, 268.011654)"><g><path d="M 2.8125 0.140625 C 2.082031 0.140625 1.515625 -0.179688 1.109375 -0.828125 C 0.703125 -1.472656 0.5 -2.398438 0.5 -3.609375 C 0.5 -4.828125 0.703125 -5.75 1.109375 -6.375 C 1.515625 -7.007812 2.082031 -7.328125 2.8125 -7.328125 C 3.53125 -7.328125 4.09375 -7.007812 4.5 -6.375 C 4.90625 -5.75 5.109375 -4.828125 5.109375 -3.609375 C 5.109375 -2.398438 4.90625 -1.472656 4.5 -0.828125 C 4.09375 -0.179688 3.53125 0.140625 2.8125 0.140625 Z M 2.8125 -0.609375 C 3.019531 -0.609375 3.207031 -0.664062 3.375 -0.78125 C 3.539062 -0.894531 3.6875 -1.070312 3.8125 -1.3125 C 3.9375 -1.5625 4.03125 -1.875 4.09375 -2.25 C 4.164062 -2.632812 4.203125 -3.085938 4.203125 -3.609375 C 4.203125 -4.140625 4.164062 -4.59375 4.09375 -4.96875 C 4.03125 -5.34375 3.9375 -5.644531 3.8125 -5.875 C 3.6875 -6.113281 3.539062 -6.289062 3.375 -6.40625 C 3.207031 -6.519531 3.019531 -6.578125 2.8125 -6.578125 C 2.59375 -6.578125 2.394531 -6.519531 2.21875 -6.40625 C 2.050781 -6.289062 1.90625 -6.113281 1.78125 -5.875 C 1.65625 -5.644531 1.554688 -5.34375 1.484375 -4.96875 C 1.421875 -4.59375 1.390625 -4.140625 1.390625 -3.609375 C 1.390625 -2.554688 1.519531 -1.789062 1.78125 -1.3125 C 2.039062 -0.84375 2.382812 -0.609375 2.8125 -0.609375 Z M 2.8125 -0.609375 "/></g></g></g></g></g></svg>