<svg xmlns="http://www.w3.org/2000/svg" xmlns:xlink="http://www.w3.org/1999/xlink" width="480" zoomAndPan="magnify" viewBox="0 0 360 359.999987" height="480" preserveAspectRatio="xMidYMid meet" version="1.0"><defs><g/><clipPath id="8fb205feb8"><path d="M 0 0 L 360 0 L 360 360 L 0 360 Z M 0 0 " clip-rule="nonzero"/></clipPath><clipPath id="c65757c001"><path d="M 180 0 C 279.410156 0 360 80.589844 360 180 C 360 279.410156 279.410156 360 180 360 C 80.589844 360 0 279.410156 0 180 C 0 80.589844 80.589844 0 180 0 L 180 54 C 110.414062 54 54 110.414062 54 180 C 54 249.585938 110.414062 306 180 306 C 249.585938 306 306 249.585938 306 180 C 306 110.414062 249.585938 54 180 54 Z M 180 0 " clip-rule="nonzero"/></clipPath><clipPath id="8caf257a0f"><path d="M 0 0 L 360 0 L 360 360 L 0 360 Z M 0 0 " clip-rule="nonzero"/></clipPath><clipPath id="6597ec83e4"><path d="M 180 0 C 279.410156 0 360 80.589844 360 180 C 360 279.410156 279.410156 360 180 360 C 80.589844 360 0 279.410156 0 180 C 0 80.589844 80.589844 0 180 0 L 180 54 C 110.414062 54 54 110.414062 54 180 C 54 249.585938 110.414062 306 180 306 C 249.585938 306 306 249.585938 306 180 C 306 110.414062 249.585938 54 180 54 Z M 180 0 " clip-rule="nonzero"/></clipPath><clipPath id="08ee1d4d70"><rect x="0" width="360" y="0" height="360"/></clipPath><clipPath id="91dc3c56c3"><path d="M 74 0 L 360 0 L 360 360 L 74 360 Z M 74 0 " clip-rule="nonzero"/></clipPath><clipPath id="ac28b0917b"><path d="M 180 0 C 257.980469 0 327.09375 50.210938 351.191406 124.375 C 375.289062 198.542969 348.890625 279.789062 285.800781 325.625 C 222.714844 371.460938 137.285156 371.460938 74.199219 325.625 L 105.9375 281.9375 C 150.101562 314.019531 209.898438 314.019531 254.0625 281.9375 C 298.222656 249.851562 316.703125 192.980469 299.832031 141.0625 C 282.964844 89.148438 234.585938 54 180 54 Z M 180 0 " clip-rule="nonzero"/></clipPath><clipPath id="555f76074f"><path d="M 0.160156 0 L 286 0 L 286 360 L 0.160156 360 Z M 0.160156 0 " clip-rule="nonzero"/></clipPath><clipPath id="b5cf399f36"><path d="M 106 0 C 183.980469 0 253.09375 50.210938 277.191406 124.375 C 301.289062 198.542969 274.890625 279.789062 211.800781 325.625 C 148.714844 371.460938 63.285156 371.460938 0.199219 325.625 L 31.9375 281.9375 C 76.101562 314.019531 135.898438 314.019531 180.0625 281.9375 C 224.222656 249.851562 242.703125 192.980469 225.832031 141.0625 C 208.964844 89.148438 160.585938 54 106 54 Z M 106 0 " clip-rule="nonzero"/></clipPath><clipPath id="69921309d2"><rect x="0" width="286" y="0" height="360"/></clipPath><clipPath id="41d55b9246"><rect x="0" width="360" y="0" height="360"/></clipPath><clipPath id="c573b455fc"><path d="M 142.992188 213.65625 L 180 213.65625 L 180 246.035156 L 142.992188 246.035156 Z M 142.992188 213.65625 " clip-rule="nonzero"/></clipPath><clipPath id="bf390833a5"><path d="M 161.496094 213.65625 L 180 246.035156 L 142.992188 246.035156 Z M 161.496094 213.65625 " clip-rule="nonzero"/></clipPath><clipPath id="9fc7696622"><path d="M 0.992188 0.65625 L 38 0.65625 L 38 33.035156 L 0.992188 33.035156 Z M 0.992188 0.65625 " clip-rule="nonzero"/></clipPath><clipPath id="779ab810c0"><path d="M 19.496094 0.65625 L 38 33.035156 L 0.992188 33.035156 Z M 19.496094 0.65625 " clip-rule="nonzero"/></clipPath><clipPath id="96d9580809"><rect x="0" width="38" y="0" height="34"/></clipPath></defs><g><g clip-path="url(#41d55b9246)"><g clip-path="url(#8fb205feb8)"><g clip-path="url(#c65757c001)"><g><g clip-path="url(#08ee1d4d70)"><g clip-path="url(#8caf257a0f)"><g clip-path="url(#6597ec83e4)"><rect x="-131.04" width="622.08" fill="#d9e8f6" y="-131.039995" height="622.079977" fill-opacity="1"/></g></g></g></g></g></g><g clip-path="url(#91dc3c56c3)"><g clip-path="url(#ac28b0917b)"><g transform="matrix(1, 0, 0, 1, 74, 0)"><g clip-path="url(#69921309d2)"><g clip-path="url(#555f76074f)"><g clip-path="url(#b5cf399f36)"><rect x="-205.04" width="622.08" fill="#005ea2" y="-131.039995" height="622.079977" fill-opacity="1"/></g></g></g></g></g></g></g></g><g clip-path="url(#c573b455fc)"><g clip-path="url(#bf390833a5)"><g transform="matrix(1, 0, 0, 1, 142, 213)"><g clip-path="url(#96d9580809)"><g clip-path="url(#9fc7696622)"><g clip-path="url(#779ab810c0)"><path fill="#04c585" d="M 0.992188 0.65625 L 38.054688 0.65625 L 38.054688 33.035156 L 0.992188 33.035156 Z M 0.992188 0.65625 " fill-opacity="1" fill-rule="nonzero"/></g></g></g></g></g></g><g fill="#000000" fill-opacity="1"><g transform="translate(127.201168, 188.404701)"><g><path d="M 29.390625 0 L 29.390625 -15.203125 L 1.90625 -15.203125 L 1.90625 -25.296875 L 25.09375 -63.484375 L 43.09375 -63.484375 L 43.09375 -26.390625 L 50.390625 -26.390625 L 50.390625 -15.203125 L 43.09375 -15.203125 L 43.09375 0 Z M 16 -26.390625 L 29.390625 -26.390625 L 29.390625 -36.6875 C 29.390625 -38.757812 29.457031 -41.144531 29.59375 -43.84375 C 29.726562 -46.539062 29.863281 -48.890625 30 -50.890625 L 29.59375 -50.890625 C 28.789062 -49.160156 27.957031 -47.394531 27.09375 -45.59375 C 26.226562 -43.789062 25.328125 -41.988281 24.390625 -40.1875 Z M 16 -26.390625 "/></g></g></g><g fill="#000000" fill-opacity="1"><g transform="translate(179.992896, 188.404701)"><g><path d="M 28.09375 1.203125 C 25.03125 1.203125 22.046875 0.601562 19.140625 -0.59375 C 16.242188 -1.800781 13.675781 -3.671875 11.4375 -6.203125 C 9.207031 -8.734375 7.425781 -11.976562 6.09375 -15.9375 C 4.757812 -19.90625 4.09375 -24.691406 4.09375 -30.296875 C 4.09375 -36.222656 4.8125 -41.351562 6.25 -45.6875 C 7.6875 -50.019531 9.585938 -53.585938 11.953125 -56.390625 C 14.316406 -59.191406 17.046875 -61.273438 20.140625 -62.640625 C 23.242188 -64.003906 26.460938 -64.6875 29.796875 -64.6875 C 33.992188 -64.6875 37.625 -63.9375 40.6875 -62.4375 C 43.757812 -60.9375 46.296875 -59.15625 48.296875 -57.09375 L 40.59375 -48.296875 C 39.457031 -49.492188 37.988281 -50.539062 36.1875 -51.4375 C 34.394531 -52.34375 32.5625 -52.796875 30.6875 -52.796875 C 28.957031 -52.796875 27.328125 -52.460938 25.796875 -51.796875 C 24.265625 -51.128906 22.914062 -50.007812 21.75 -48.4375 C 20.582031 -46.875 19.628906 -44.828125 18.890625 -42.296875 C 18.160156 -39.765625 17.726562 -36.664062 17.59375 -33 C 18.394531 -34.0625 19.328125 -35.007812 20.390625 -35.84375 C 21.460938 -36.675781 22.5625 -37.375 23.6875 -37.9375 C 24.820312 -38.507812 25.957031 -38.941406 27.09375 -39.234375 C 28.226562 -39.535156 29.296875 -39.6875 30.296875 -39.6875 C 33.023438 -39.6875 35.539062 -39.285156 37.84375 -38.484375 C 40.144531 -37.691406 42.144531 -36.492188 43.84375 -34.890625 C 45.539062 -33.296875 46.851562 -31.265625 47.78125 -28.796875 C 48.71875 -26.328125 49.1875 -23.425781 49.1875 -20.09375 C 49.1875 -16.757812 48.617188 -13.789062 47.484375 -11.1875 C 46.359375 -8.59375 44.84375 -6.363281 42.9375 -4.5 C 41.039062 -2.632812 38.804688 -1.21875 36.234375 -0.25 C 33.671875 0.71875 30.957031 1.203125 28.09375 1.203125 Z M 27.796875 -9.796875 C 29.992188 -9.796875 31.875 -10.613281 33.4375 -12.25 C 35.007812 -13.882812 35.796875 -16.5 35.796875 -20.09375 C 35.796875 -23.5 35.007812 -25.882812 33.4375 -27.25 C 31.875 -28.613281 29.894531 -29.296875 27.5 -29.296875 C 25.832031 -29.296875 24.144531 -28.8125 22.4375 -27.84375 C 20.738281 -26.875 19.222656 -25.257812 17.890625 -23 C 18.222656 -20.46875 18.722656 -18.367188 19.390625 -16.703125 C 20.054688 -15.035156 20.820312 -13.679688 21.6875 -12.640625 C 22.5625 -11.609375 23.515625 -10.875 24.546875 -10.4375 C 25.578125 -10.007812 26.660156 -9.796875 27.796875 -9.796875 Z M 27.796875 -9.796875 "/></g></g></g><g fill="#04c585" fill-opacity="1"><g transform="translate(185.07837, 246.896083)"><g><path d="M 15.78125 0.71875 C 13.863281 0.71875 12.09375 0.46875 10.46875 -0.03125 C 8.851562 -0.53125 7.453125 -1.238281 6.265625 -2.15625 C 5.085938 -3.082031 4.164062 -4.179688 3.5 -5.453125 C 2.84375 -6.734375 2.515625 -8.15625 2.515625 -9.71875 C 2.515625 -12.039062 3.144531 -13.941406 4.40625 -15.421875 C 5.664062 -16.898438 7.195312 -18.117188 9 -19.078125 L 9 -19.3125 C 7.519531 -20.4375 6.300781 -21.707031 5.34375 -23.125 C 4.382812 -24.550781 3.90625 -26.28125 3.90625 -28.3125 C 3.90625 -29.914062 4.203125 -31.367188 4.796875 -32.671875 C 5.398438 -33.972656 6.238281 -35.082031 7.3125 -36 C 8.394531 -36.914062 9.6875 -37.613281 11.1875 -38.09375 C 12.6875 -38.570312 14.316406 -38.8125 16.078125 -38.8125 C 17.796875 -38.8125 19.375 -38.5625 20.8125 -38.0625 C 22.257812 -37.5625 23.484375 -36.863281 24.484375 -35.96875 C 25.484375 -35.070312 26.257812 -33.972656 26.8125 -32.671875 C 27.375 -31.367188 27.65625 -29.9375 27.65625 -28.375 C 27.65625 -26.539062 27.15625 -24.910156 26.15625 -23.484375 C 25.15625 -22.066406 24 -20.921875 22.6875 -20.046875 L 22.6875 -19.796875 C 24.519531 -18.796875 26.078125 -17.515625 27.359375 -15.953125 C 28.640625 -14.398438 29.28125 -12.363281 29.28125 -9.84375 C 29.28125 -8.320312 28.957031 -6.921875 28.3125 -5.640625 C 27.675781 -4.359375 26.765625 -3.25 25.578125 -2.3125 C 24.398438 -1.375 22.984375 -0.632812 21.328125 -0.09375 C 19.671875 0.445312 17.820312 0.71875 15.78125 0.71875 Z M 18.1875 -22.203125 C 19.738281 -24.003906 20.515625 -25.863281 20.515625 -27.78125 C 20.515625 -29.257812 20.101562 -30.445312 19.28125 -31.34375 C 18.46875 -32.25 17.34375 -32.703125 15.90625 -32.703125 C 14.738281 -32.703125 13.734375 -32.34375 12.890625 -31.625 C 12.054688 -30.90625 11.640625 -29.800781 11.640625 -28.3125 C 11.640625 -26.757812 12.238281 -25.539062 13.4375 -24.65625 C 14.632812 -23.78125 16.21875 -22.960938 18.1875 -22.203125 Z M 15.953125 -5.40625 C 17.441406 -5.40625 18.664062 -5.789062 19.625 -6.5625 C 20.582031 -7.34375 21.0625 -8.535156 21.0625 -10.140625 C 21.0625 -10.984375 20.867188 -11.703125 20.484375 -12.296875 C 20.109375 -12.898438 19.5625 -13.453125 18.84375 -13.953125 C 18.125 -14.453125 17.269531 -14.921875 16.28125 -15.359375 C 15.300781 -15.796875 14.210938 -16.273438 13.015625 -16.796875 C 12.179688 -15.992188 11.484375 -15.070312 10.921875 -14.03125 C 10.359375 -13 10.078125 -11.898438 10.078125 -10.734375 C 10.078125 -9.054688 10.65625 -7.75 11.8125 -6.8125 C 12.976562 -5.875 14.359375 -5.40625 15.953125 -5.40625 Z M 15.953125 -5.40625 "/></g></g></g></svg>