<svg xmlns="http://www.w3.org/2000/svg" xmlns:xlink="http://www.w3.org/1999/xlink" width="480" zoomAndPan="magnify" viewBox="0 0 360 359.999987" height="480" preserveAspectRatio="xMidYMid meet" version="1.0"><defs><g/><clipPath id="7883e310c0"><path d="M 0 0 L 360 0 L 360 360 L 0 360 Z M 0 0 " clip-rule="nonzero"/></clipPath><clipPath id="c5af5250f5"><path d="M 180 0 C 279.410156 0 360 80.589844 360 180 C 360 279.410156 279.410156 360 180 360 C 80.589844 360 0 279.410156 0 180 C 0 80.589844 80.589844 0 180 0 L 180 54 C 110.414062 54 54 110.414062 54 180 C 54 249.585938 110.414062 306 180 306 C 249.585938 306 306 249.585938 306 180 C 306 110.414062 249.585938 54 180 54 Z M 180 0 " clip-rule="nonzero"/></clipPath><clipPath id="bb64d6e38e"><path d="M 0 0 L 360 0 L 360 360 L 0 360 Z M 0 0 " clip-rule="nonzero"/></clipPath><clipPath id="952a99988f"><path d="M 180 0 C 279.410156 0 360 80.589844 360 180 C 360 279.410156 279.410156 360 180 360 C 80.589844 360 0 279.410156 0 180 C 0 80.589844 80.589844 0 180 0 L 180 54 C 110.414062 54 54 110.414062 54 180 C 54 249.585938 110.414062 306 180 306 C 249.585938 306 306 249.585938 306 180 C 306 110.414062 249.585938 54 180 54 Z M 180 0 " clip-rule="nonzero"/></clipPath><clipPath id="8c8913752b"><rect x="0" width="360" y="0" height="360"/></clipPath><clipPath id="7c980315e2"><rect x="0" width="360" y="0" height="360"/></clipPath></defs><g><g clip-path="url(#7c980315e2)"><g clip-path="url(#7883e310c0)"><g clip-path="url(#c5af5250f5)"><g><g clip-path="url(#8c8913752b)"><g clip-path="url(#bb64d6e38e)"><g clip-path="url(#952a99988f)"><rect x="-131.04" width="622.08" fill="#e1f3f8" y="-131.039995" height="622.079977" fill-opacity="1"/></g></g></g></g></g></g></g></g><g fill="#000000" fill-opacity="1"><g transform="translate(153.59765, 214.499983)"><g><path d="M 24.703125 1.203125 C 19.492188 1.203125 15.085938 0.351562 11.484375 -1.34375 C 7.890625 -3.050781 4.828125 -5.171875 2.296875 -7.703125 L 8.90625 -17 C 10.832031 -15.257812 12.910156 -13.773438 15.140625 -12.546875 C 17.378906 -11.316406 19.863281 -10.703125 22.59375 -10.703125 C 25.863281 -10.703125 28.460938 -11.535156 30.390625 -13.203125 C 32.328125 -14.867188 33.296875 -17.332031 33.296875 -20.59375 C 33.296875 -23.789062 32.378906 -26.222656 30.546875 -27.890625 C 28.710938 -29.554688 26.296875 -30.390625 23.296875 -30.390625 C 22.359375 -30.390625 21.523438 -30.335938 20.796875 -30.234375 C 20.066406 -30.140625 19.347656 -29.957031 18.640625 -29.6875 C 17.941406 -29.425781 17.207031 -29.09375 16.4375 -28.6875 C 15.675781 -28.289062 14.828125 -27.796875 13.890625 -27.203125 L 7.296875 -31.390625 L 9.09375 -63.484375 L 45.09375 -63.484375 L 45.09375 -51.09375 L 21.796875 -51.09375 L 20.703125 -39.1875 C 21.898438 -39.726562 23.046875 -40.113281 24.140625 -40.34375 C 25.242188 -40.570312 26.460938 -40.6875 27.796875 -40.6875 C 30.523438 -40.6875 33.101562 -40.285156 35.53125 -39.484375 C 37.96875 -38.691406 40.117188 -37.492188 41.984375 -35.890625 C 43.859375 -34.296875 45.328125 -32.265625 46.390625 -29.796875 C 47.460938 -27.328125 48 -24.394531 48 -21 C 48 -17.46875 47.363281 -14.332031 46.09375 -11.59375 C 44.820312 -8.863281 43.117188 -6.546875 40.984375 -4.640625 C 38.859375 -2.742188 36.378906 -1.296875 33.546875 -0.296875 C 30.710938 0.703125 27.765625 1.203125 24.703125 1.203125 Z M 24.703125 1.203125 "/></g></g></g></svg>