<svg xmlns="http://www.w3.org/2000/svg" xmlns:xlink="http://www.w3.org/1999/xlink" width="480" zoomAndPan="magnify" viewBox="0 0 360 359.999987" height="480" preserveAspectRatio="xMidYMid meet" version="1.0"><defs><g/><clipPath id="e47fb96d22"><path d="M 0 0 L 360 0 L 360 360 L 0 360 Z M 0 0 " clip-rule="nonzero"/></clipPath><clipPath id="f228eb0218"><path d="M 180 0 C 279.410156 0 360 80.589844 360 180 C 360 279.410156 279.410156 360 180 360 C 80.589844 360 0 279.410156 0 180 C 0 80.589844 80.589844 0 180 0 L 180 54 C 110.414062 54 54 110.414062 54 180 C 54 249.585938 110.414062 306 180 306 C 249.585938 306 306 249.585938 306 180 C 306 110.414062 249.585938 54 180 54 Z M 180 0 " clip-rule="nonzero"/></clipPath><clipPath id="abb9fc3351"><path d="M 0 0 L 360 0 L 360 360 L 0 360 Z M 0 0 " clip-rule="nonzero"/></clipPath><clipPath id="8d2d5ad643"><path d="M 180 0 C 279.410156 0 360 80.589844 360 180 C 360 279.410156 279.410156 360 180 360 C 80.589844 360 0 279.410156 0 180 C 0 80.589844 80.589844 0 180 0 L 180 54 C 110.414062 54 54 110.414062 54 180 C 54 249.585938 110.414062 306 180 306 C 249.585938 306 306 249.585938 306 180 C 306 110.414062 249.585938 54 180 54 Z M 180 0 " clip-rule="nonzero"/></clipPath><clipPath id="3eda009f1e"><rect x="0" width="360" y="0" height="360"/></clipPath><clipPath id="c857189283"><path d="M 180 0 L 351.5625 0 L 351.5625 142 L 180 142 Z M 180 0 " clip-rule="nonzero"/></clipPath><clipPath id="b23ffcda3d"><path d="M 180 0 C 257.980469 0 327.09375 50.210938 351.191406 124.375 L 299.832031 141.0625 C 282.964844 89.148438 234.585938 54 180 54 Z M 180 0 " clip-rule="nonzero"/></clipPath><clipPath id="5124372cd3"><path d="M 0 0 L 171.359375 0 L 171.359375 141.121094 L 0 141.121094 Z M 0 0 " clip-rule="nonzero"/></clipPath><clipPath id="7ded0a6543"><path d="M 0 0 C 77.980469 0 147.09375 50.210938 171.191406 124.375 L 119.832031 141.0625 C 102.964844 89.148438 54.585938 54 0 54 Z M 0 0 " clip-rule="nonzero"/></clipPath><clipPath id="d07492ccb7"><rect x="0" width="172" y="0" height="142"/></clipPath><clipPath id="44c32deb61"><rect x="0" width="360" y="0" height="360"/></clipPath></defs><g><g clip-path="url(#44c32deb61)"><g clip-path="url(#e47fb96d22)"><g clip-path="url(#f228eb0218)"><g><g clip-path="url(#3eda009f1e)"><g clip-path="url(#abb9fc3351)"><g clip-path="url(#8d2d5ad643)"><rect x="-131.04" width="622.08" fill="#d9e8f6" y="-131.039995" height="622.079977" fill-opacity="1"/></g></g></g></g></g></g><g clip-path="url(#c857189283)"><g clip-path="url(#b23ffcda3d)"><g transform="matrix(1, 0, 0, 1, 180, 0)"><g clip-path="url(#d07492ccb7)"><g clip-path="url(#5124372cd3)"><g clip-path="url(#7ded0a6543)"><rect x="-311.04" width="622.08" fill="#ffbc78" y="-131.039995" height="622.079977" fill-opacity="1"/></g></g></g></g></g></g></g></g><g fill="#000000" fill-opacity="1"><g transform="translate(153.59765, 214.499983)"><g><path d="M 29.390625 0 L 29.390625 -15.203125 L 1.90625 -15.203125 L 1.90625 -25.296875 L 25.09375 -63.484375 L 43.09375 -63.484375 L 43.09375 -26.390625 L 50.390625 -26.390625 L 50.390625 -15.203125 L 43.09375 -15.203125 L 43.09375 0 Z M 16 -26.390625 L 29.390625 -26.390625 L 29.390625 -36.6875 C 29.390625 -38.757812 29.457031 -41.144531 29.59375 -43.84375 C 29.726562 -46.539062 29.863281 -48.890625 30 -50.890625 L 29.59375 -50.890625 C 28.789062 -49.160156 27.957031 -47.394531 27.09375 -45.59375 C 26.226562 -43.789062 25.328125 -41.988281 24.390625 -40.1875 Z M 16 -26.390625 "/></g></g></g></svg>