<svg xmlns="http://www.w3.org/2000/svg" xmlns:xlink="http://www.w3.org/1999/xlink" width="480" zoomAndPan="magnify" viewBox="0 0 360 359.999987" height="480" preserveAspectRatio="xMidYMid meet" version="1.0"><defs><g/><clipPath id="4807d1aca8"><path d="M 0 0 L 360 0 L 360 360 L 0 360 Z M 0 0 " clip-rule="nonzero"/></clipPath><clipPath id="bed583a134"><path d="M 180 0 C 279.410156 0 360 80.589844 360 180 C 360 279.410156 279.410156 360 180 360 C 80.589844 360 0 279.410156 0 180 C 0 80.589844 80.589844 0 180 0 L 180 54 C 110.414062 54 54 110.414062 54 180 C 54 249.585938 110.414062 306 180 306 C 249.585938 306 306 249.585938 306 180 C 306 110.414062 249.585938 54 180 54 Z M 180 0 " clip-rule="nonzero"/></clipPath><clipPath id="62538cf683"><path d="M 0 0 L 360 0 L 360 360 L 0 360 Z M 0 0 " clip-rule="nonzero"/></clipPath><clipPath id="d9647d5ce6"><path d="M 180 0 C 279.410156 0 360 80.589844 360 180 C 360 279.410156 279.410156 360 180 360 C 80.589844 360 0 279.410156 0 180 C 0 80.589844 80.589844 0 180 0 L 180 54 C 110.414062 54 54 110.414062 54 180 C 54 249.585938 110.414062 306 180 306 C 249.585938 306 306 249.585938 306 180 C 306 110.414062 249.585938 54 180 54 Z M 180 0 " clip-rule="nonzero"/></clipPath><clipPath id="f854756dfa"><rect x="0" width="360" y="0" height="360"/></clipPath><clipPath id="ad24ed2e7f"><path d="M 180 0 L 351.5625 0 L 351.5625 142 L 180 142 Z M 180 0 " clip-rule="nonzero"/></clipPath><clipPath id="3150f747a7"><path d="M 180 0 C 257.980469 0 327.09375 50.210938 351.191406 124.375 L 299.832031 141.0625 C 282.964844 89.148438 234.585938 54 180 54 Z M 180 0 " clip-rule="nonzero"/></clipPath><clipPath id="c2f51950e4"><path d="M 0 0 L 171.359375 0 L 171.359375 141.121094 L 0 141.121094 Z M 0 0 " clip-rule="nonzero"/></clipPath><clipPath id="444daeb1ed"><path d="M 0 0 C 77.980469 0 147.09375 50.210938 171.191406 124.375 L 119.832031 141.0625 C 102.964844 89.148438 54.585938 54 0 54 Z M 0 0 " clip-rule="nonzero"/></clipPath><clipPath id="6deaf6eb64"><rect x="0" width="172" y="0" height="142"/></clipPath><clipPath id="2d80b56946"><rect x="0" width="360" y="0" height="360"/></clipPath></defs><rect x="-36" width="432" fill="#ffffff" y="-35.999999" height="431.999984" fill-opacity="1"/><rect x="-36" width="432" fill="#ffffff" y="-35.999999" height="431.999984" fill-opacity="1"/><g><g clip-path="url(#2d80b56946)"><g clip-path="url(#4807d1aca8)"><g clip-path="url(#bed583a134)"><g><g clip-path="url(#f854756dfa)"><g clip-path="url(#62538cf683)"><g clip-path="url(#d9647d5ce6)"><rect x="-131.04" width="622.08" fill="#d9e8f6" y="-131.039995" height="622.079977" fill-opacity="1"/></g></g></g></g></g></g><g clip-path="url(#ad24ed2e7f)"><g clip-path="url(#3150f747a7)"><g transform="matrix(1, 0, 0, 1, 180, 0)"><g clip-path="url(#6deaf6eb64)"><g clip-path="url(#c2f51950e4)"><g clip-path="url(#444daeb1ed)"><rect x="-311.04" width="622.08" fill="#009ec1" y="-131.039995" height="622.079977" fill-opacity="1"/></g></g></g></g></g></g></g></g><g fill="#000000" fill-opacity="1"><g transform="translate(127.201168, 214.499983)"><g><path d="M 7 0 L 7 -11.890625 L 20.796875 -11.890625 L 20.796875 -48.59375 L 8.90625 -48.59375 L 8.90625 -57.6875 C 12.363281 -58.351562 15.289062 -59.148438 17.6875 -60.078125 C 20.09375 -61.015625 22.429688 -62.148438 24.703125 -63.484375 L 35.5 -63.484375 L 35.5 -11.890625 L 47.390625 -11.890625 L 47.390625 0 Z M 7 0 "/></g></g></g><g fill="#000000" fill-opacity="1"><g transform="translate(179.992896, 214.499983)"><g><path d="M 26.390625 1.203125 C 22.992188 1.203125 19.894531 0.488281 17.09375 -0.9375 C 14.289062 -2.375 11.90625 -4.492188 9.9375 -7.296875 C 7.976562 -10.097656 6.445312 -13.5625 5.34375 -17.6875 C 4.25 -21.820312 3.703125 -26.59375 3.703125 -32 C 3.703125 -37.394531 4.25 -42.125 5.34375 -46.1875 C 6.445312 -50.257812 7.976562 -53.675781 9.9375 -56.4375 C 11.90625 -59.207031 14.289062 -61.273438 17.09375 -62.640625 C 19.894531 -64.003906 22.992188 -64.6875 26.390625 -64.6875 C 29.796875 -64.6875 32.894531 -64.003906 35.6875 -62.640625 C 38.488281 -61.273438 40.875 -59.207031 42.84375 -56.4375 C 44.8125 -53.675781 46.34375 -50.257812 47.4375 -46.1875 C 48.539062 -42.125 49.09375 -37.394531 49.09375 -32 C 49.09375 -26.59375 48.539062 -21.820312 47.4375 -17.6875 C 46.34375 -13.5625 44.8125 -10.097656 42.84375 -7.296875 C 40.875 -4.492188 38.488281 -2.375 35.6875 -0.9375 C 32.894531 0.488281 29.796875 1.203125 26.390625 1.203125 Z M 26.390625 -10.203125 C 27.660156 -10.203125 28.828125 -10.515625 29.890625 -11.140625 C 30.960938 -11.773438 31.894531 -12.925781 32.6875 -14.59375 C 33.488281 -16.257812 34.101562 -18.492188 34.53125 -21.296875 C 34.96875 -24.097656 35.1875 -27.664062 35.1875 -32 C 35.1875 -36.332031 34.96875 -39.878906 34.53125 -42.640625 C 34.101562 -45.410156 33.488281 -47.578125 32.6875 -49.140625 C 31.894531 -50.703125 30.960938 -51.785156 29.890625 -52.390625 C 28.828125 -52.992188 27.660156 -53.296875 26.390625 -53.296875 C 25.191406 -53.296875 24.054688 -52.992188 22.984375 -52.390625 C 21.921875 -51.785156 20.988281 -50.703125 20.1875 -49.140625 C 19.394531 -47.578125 18.765625 -45.410156 18.296875 -42.640625 C 17.828125 -39.878906 17.59375 -36.332031 17.59375 -32 C 17.59375 -27.664062 17.828125 -24.097656 18.296875 -21.296875 C 18.765625 -18.492188 19.394531 -16.257812 20.1875 -14.59375 C 20.988281 -12.925781 21.921875 -11.773438 22.984375 -11.140625 C 24.054688 -10.515625 25.191406 -10.203125 26.390625 -10.203125 Z M 26.390625 -10.203125 "/></g></g></g></svg>