<svg xmlns="http://www.w3.org/2000/svg" xmlns:xlink="http://www.w3.org/1999/xlink" width="480" zoomAndPan="magnify" viewBox="0 0 360 359.999987" height="480" preserveAspectRatio="xMidYMid meet" version="1.0"><defs><g/><clipPath id="deaeb0b980"><path d="M 0 0 L 360 0 L 360 360 L 0 360 Z M 0 0 " clip-rule="nonzero"/></clipPath><clipPath id="d36161bf76"><path d="M 180 0 C 279.410156 0 360 80.589844 360 180 C 360 279.410156 279.410156 360 180 360 C 80.589844 360 0 279.410156 0 180 C 0 80.589844 80.589844 0 180 0 L 180 54 C 110.414062 54 54 110.414062 54 180 C 54 249.585938 110.414062 306 180 306 C 249.585938 306 306 249.585938 306 180 C 306 110.414062 249.585938 54 180 54 Z M 180 0 " clip-rule="nonzero"/></clipPath><clipPath id="c526bbf07a"><path d="M 0 0 L 360 0 L 360 360 L 0 360 Z M 0 0 " clip-rule="nonzero"/></clipPath><clipPath id="4abbbc8559"><path d="M 180 0 C 279.410156 0 360 80.589844 360 180 C 360 279.410156 279.410156 360 180 360 C 80.589844 360 0 279.410156 0 180 C 0 80.589844 80.589844 0 180 0 L 180 54 C 110.414062 54 54 110.414062 54 180 C 54 249.585938 110.414062 306 180 306 C 249.585938 306 306 249.585938 306 180 C 306 110.414062 249.585938 54 180 54 Z M 180 0 " clip-rule="nonzero"/></clipPath><clipPath id="4baa10ec6b"><rect x="0" width="360" y="0" height="360"/></clipPath><clipPath id="2dcf773581"><path d="M 180 0 L 360 0 L 360 236 L 180 236 Z M 180 0 " clip-rule="nonzero"/></clipPath><clipPath id="57fd0b874e"><path d="M 180 0 C 237.617188 0 291.753906 27.582031 325.625 74.199219 C 359.492188 120.8125 368.996094 180.824219 351.191406 235.625 L 299.832031 218.9375 C 312.296875 180.578125 305.644531 138.570312 281.9375 105.9375 C 258.230469 73.308594 220.332031 54 180 54 Z M 180 0 " clip-rule="nonzero"/></clipPath><clipPath id="de1b23c653"><path d="M 0 0 L 180 0 L 180 235.679688 L 0 235.679688 Z M 0 0 " clip-rule="nonzero"/></clipPath><clipPath id="c32170ea26"><path d="M 0 0 C 57.617188 0 111.753906 27.582031 145.625 74.199219 C 179.492188 120.8125 188.996094 180.824219 171.191406 235.625 L 119.832031 218.9375 C 132.296875 180.578125 125.644531 138.570312 101.9375 105.9375 C 78.230469 73.308594 40.332031 54 0 54 Z M 0 0 " clip-rule="nonzero"/></clipPath><clipPath id="751d912283"><rect x="0" width="180" y="0" height="236"/></clipPath><clipPath id="0e346280a0"><rect x="0" width="360" y="0" height="360"/></clipPath><clipPath id="a1366a5da9"><path d="M 142.992188 213.65625 L 180 213.65625 L 180 246.035156 L 142.992188 246.035156 Z M 142.992188 213.65625 " clip-rule="nonzero"/></clipPath><clipPath id="c60f9f7b7c"><path d="M 161.496094 213.65625 L 180 246.035156 L 142.992188 246.035156 Z M 161.496094 213.65625 " clip-rule="nonzero"/></clipPath><clipPath id="b5c5f7ae20"><path d="M 0.992188 0.65625 L 38 0.65625 L 38 33.035156 L 0.992188 33.035156 Z M 0.992188 0.65625 " clip-rule="nonzero"/></clipPath><clipPath id="f26f4650ea"><path d="M 19.496094 0.65625 L 38 33.035156 L 0.992188 33.035156 Z M 19.496094 0.65625 " clip-rule="nonzero"/></clipPath><clipPath id="ea3273f6ee"><rect x="0" width="38" y="0" height="34"/></clipPath></defs><g><g clip-path="url(#0e346280a0)"><g clip-path="url(#deaeb0b980)"><g clip-path="url(#d36161bf76)"><g><g clip-path="url(#4baa10ec6b)"><g clip-path="url(#c526bbf07a)"><g clip-path="url(#4abbbc8559)"><rect x="-131.04" width="622.08" fill="#d9e8f6" y="-131.039995" height="622.079977" fill-opacity="1"/></g></g></g></g></g></g><g clip-path="url(#2dcf773581)"><g clip-path="url(#57fd0b874e)"><g transform="matrix(1, 0, 0, 1, 180, 0)"><g clip-path="url(#751d912283)"><g clip-path="url(#de1b23c653)"><g clip-path="url(#c32170ea26)"><rect x="-311.04" width="622.08" fill="#82e2c2" y="-131.039995" height="622.079977" fill-opacity="1"/></g></g></g></g></g></g></g></g><g clip-path="url(#a1366a5da9)"><g clip-path="url(#c60f9f7b7c)"><g transform="matrix(1, 0, 0, 1, 142, 213)"><g clip-path="url(#ea3273f6ee)"><g clip-path="url(#b5c5f7ae20)"><g clip-path="url(#f26f4650ea)"><path fill="#04c585" d="M 0.992188 0.65625 L 38.054688 0.65625 L 38.054688 33.035156 L 0.992188 33.035156 Z M 0.992188 0.65625 " fill-opacity="1" fill-rule="nonzero"/></g></g></g></g></g></g><g fill="#000000" fill-opacity="1"><g transform="translate(127.201168, 188.404672)"><g><path d="M 7 0 L 7 -11.890625 L 20.796875 -11.890625 L 20.796875 -48.59375 L 8.90625 -48.59375 L 8.90625 -57.6875 C 12.363281 -58.351562 15.289062 -59.148438 17.6875 -60.078125 C 20.09375 -61.015625 22.429688 -62.148438 24.703125 -63.484375 L 35.5 -63.484375 L 35.5 -11.890625 L 47.390625 -11.890625 L 47.390625 0 Z M 7 0 "/></g></g></g><g fill="#000000" fill-opacity="1"><g transform="translate(179.992896, 188.404672)"><g><path d="M 24.296875 1.203125 C 19.097656 1.203125 14.695312 0.382812 11.09375 -1.25 C 7.5 -2.882812 4.535156 -5.066406 2.203125 -7.796875 L 9 -17.09375 C 10.925781 -15.226562 13.039062 -13.695312 15.34375 -12.5 C 17.644531 -11.300781 20.160156 -10.703125 22.890625 -10.703125 C 26.023438 -10.703125 28.523438 -11.347656 30.390625 -12.640625 C 32.253906 -13.941406 33.1875 -15.796875 33.1875 -18.203125 C 33.1875 -19.597656 32.9375 -20.863281 32.4375 -22 C 31.9375 -23.132812 31.050781 -24.082031 29.78125 -24.84375 C 28.519531 -25.613281 26.789062 -26.210938 24.59375 -26.640625 C 22.394531 -27.078125 19.5625 -27.296875 16.09375 -27.296875 L 16.09375 -37.6875 C 18.957031 -37.6875 21.335938 -37.882812 23.234375 -38.28125 C 25.140625 -38.6875 26.675781 -39.269531 27.84375 -40.03125 C 29.007812 -40.800781 29.84375 -41.703125 30.34375 -42.734375 C 30.84375 -43.773438 31.09375 -44.925781 31.09375 -46.1875 C 31.09375 -48.394531 30.425781 -50.113281 29.09375 -51.34375 C 27.757812 -52.570312 25.828125 -53.1875 23.296875 -53.1875 C 21.023438 -53.1875 18.972656 -52.6875 17.140625 -51.6875 C 15.304688 -50.6875 13.390625 -49.320312 11.390625 -47.59375 L 4 -56.59375 C 6.9375 -59.125 10.019531 -61.101562 13.25 -62.53125 C 16.476562 -63.96875 20.0625 -64.6875 24 -64.6875 C 27.257812 -64.6875 30.238281 -64.300781 32.9375 -63.53125 C 35.644531 -62.769531 37.945312 -61.640625 39.84375 -60.140625 C 41.738281 -58.640625 43.21875 -56.820312 44.28125 -54.6875 C 45.351562 -52.550781 45.890625 -50.085938 45.890625 -47.296875 C 45.890625 -43.960938 44.972656 -41.144531 43.140625 -38.84375 C 41.304688 -36.539062 38.691406 -34.65625 35.296875 -33.1875 L 35.296875 -32.796875 C 38.960938 -31.722656 41.976562 -29.90625 44.34375 -27.34375 C 46.707031 -24.78125 47.890625 -21.429688 47.890625 -17.296875 C 47.890625 -14.359375 47.253906 -11.738281 45.984375 -9.4375 C 44.722656 -7.144531 43.023438 -5.210938 40.890625 -3.640625 C 38.753906 -2.078125 36.253906 -0.878906 33.390625 -0.046875 C 30.523438 0.785156 27.492188 1.203125 24.296875 1.203125 Z M 24.296875 1.203125 "/></g></g></g><g fill="#04c585" fill-opacity="1"><g transform="translate(185.07837, 246.896114)"><g><path d="M 14.578125 0.71875 C 11.460938 0.71875 8.820312 0.226562 6.65625 -0.75 C 4.5 -1.726562 2.71875 -3.039062 1.3125 -4.6875 L 5.40625 -10.265625 C 6.5625 -9.140625 7.828125 -8.21875 9.203125 -7.5 C 10.585938 -6.78125 12.097656 -6.421875 13.734375 -6.421875 C 15.617188 -6.421875 17.117188 -6.8125 18.234375 -7.59375 C 19.359375 -8.375 19.921875 -9.484375 19.921875 -10.921875 C 19.921875 -11.765625 19.769531 -12.523438 19.46875 -13.203125 C 19.164062 -13.878906 18.632812 -14.445312 17.875 -14.90625 C 17.113281 -15.363281 16.070312 -15.722656 14.75 -15.984375 C 13.4375 -16.242188 11.738281 -16.375 9.65625 -16.375 L 9.65625 -22.625 C 11.375 -22.625 12.800781 -22.742188 13.9375 -22.984375 C 15.082031 -23.222656 16.003906 -23.570312 16.703125 -24.03125 C 17.410156 -24.488281 17.910156 -25.023438 18.203125 -25.640625 C 18.503906 -26.265625 18.65625 -26.957031 18.65625 -27.71875 C 18.65625 -29.039062 18.253906 -30.070312 17.453125 -30.8125 C 16.660156 -31.550781 15.503906 -31.921875 13.984375 -31.921875 C 12.617188 -31.921875 11.382812 -31.617188 10.28125 -31.015625 C 9.1875 -30.421875 8.039062 -29.601562 6.84375 -28.5625 L 2.40625 -33.953125 C 4.164062 -35.472656 6.015625 -36.660156 7.953125 -37.515625 C 9.890625 -38.378906 12.039062 -38.8125 14.40625 -38.8125 C 16.363281 -38.8125 18.148438 -38.582031 19.765625 -38.125 C 21.390625 -37.664062 22.769531 -36.984375 23.90625 -36.078125 C 25.050781 -35.179688 25.941406 -34.09375 26.578125 -32.8125 C 27.222656 -31.539062 27.546875 -30.0625 27.546875 -28.375 C 27.546875 -26.375 26.992188 -24.679688 25.890625 -23.296875 C 24.785156 -21.921875 23.21875 -20.796875 21.1875 -19.921875 L 21.1875 -19.6875 C 23.382812 -19.039062 25.191406 -17.945312 26.609375 -16.40625 C 28.023438 -14.863281 28.734375 -12.851562 28.734375 -10.375 C 28.734375 -8.613281 28.351562 -7.039062 27.59375 -5.65625 C 26.832031 -4.28125 25.8125 -3.125 24.53125 -2.1875 C 23.257812 -1.25 21.757812 -0.53125 20.03125 -0.03125 C 18.3125 0.46875 16.492188 0.71875 14.578125 0.71875 Z M 14.578125 0.71875 "/></g></g></g></svg>