<svg xmlns="http://www.w3.org/2000/svg" xmlns:xlink="http://www.w3.org/1999/xlink" width="480" zoomAndPan="magnify" viewBox="0 0 360 359.999987" height="480" preserveAspectRatio="xMidYMid meet" version="1.0"><defs><g/><clipPath id="b3247f21ef"><path d="M 58.171875 11.828125 L 59 11.828125 L 59 297.398438 L 58.171875 297.398438 Z M 58.171875 11.828125 " clip-rule="nonzero"/></clipPath><clipPath id="c4fa370c33"><path d="M 129 11.828125 L 130 11.828125 L 130 297.398438 L 129 297.398438 Z M 129 11.828125 " clip-rule="nonzero"/></clipPath><clipPath id="2067f8b236"><path d="M 200 11.828125 L 202 11.828125 L 202 297.398438 L 200 297.398438 Z M 200 11.828125 " clip-rule="nonzero"/></clipPath><clipPath id="44149680e7"><path d="M 271 11.828125 L 273 11.828125 L 273 297.398438 L 271 297.398438 Z M 271 11.828125 " clip-rule="nonzero"/></clipPath><clipPath id="d84ccc8e21"><path d="M 343 11.828125 L 343.742188 11.828125 L 343.742188 297.398438 L 343 297.398438 Z M 343 11.828125 " clip-rule="nonzero"/></clipPath><clipPath id="e112b36a5a"><path d="M 55 302 L 61 302 L 61 310.171875 L 55 310.171875 Z M 55 302 " clip-rule="nonzero"/></clipPath><clipPath id="7c766f324a"><path d="M 127 302 L 132 302 L 132 310.171875 L 127 310.171875 Z M 127 302 " clip-rule="nonzero"/></clipPath><clipPath id="888ef1c704"><path d="M 195 302 L 200 302 L 200 310.171875 L 195 310.171875 Z M 195 302 " clip-rule="nonzero"/></clipPath><clipPath id="66d054edf4"><path d="M 201 302 L 206 302 L 206 310.171875 L 201 310.171875 Z M 201 302 " clip-rule="nonzero"/></clipPath><clipPath id="5f546eff73"><path d="M 267 302 L 272 302 L 272 310.171875 L 267 310.171875 Z M 267 302 " clip-rule="nonzero"/></clipPath><clipPath id="87d9722bb9"><path d="M 272 302 L 278 302 L 278 310.171875 L 272 310.171875 Z M 272 302 " clip-rule="nonzero"/></clipPath><clipPath id="09ff196b32"><path d="M 338 302 L 344 302 L 344 310.171875 L 338 310.171875 Z M 338 302 " clip-rule="nonzero"/></clipPath><clipPath id="3487c39004"><path d="M 344 302 L 349 302 L 349 310.171875 L 344 310.171875 Z M 344 302 " clip-rule="nonzero"/></clipPath><clipPath id="17156e9e60"><path d="M 0 188 L 5 188 L 5 195 L 0 195 Z M 0 188 " clip-rule="nonzero"/></clipPath><clipPath id="d4a4467e08"><path d="M 58.171875 11.828125 L 172.398438 11.828125 L 172.398438 77.730469 L 58.171875 77.730469 Z M 58.171875 11.828125 " clip-rule="nonzero"/></clipPath><clipPath id="4ac4bea455"><path d="M 58.171875 85.050781 L 243.792969 85.050781 L 243.792969 150.953125 L 58.171875 150.953125 Z M 58.171875 85.050781 " clip-rule="nonzero"/></clipPath><clipPath id="e5fee8b175"><path d="M 58.171875 158.277344 L 115.285156 158.277344 L 115.285156 224.175781 L 58.171875 224.175781 Z M 58.171875 158.277344 " clip-rule="nonzero"/></clipPath><clipPath id="36435c3108"><path d="M 58.171875 231.5 L 343.742188 231.5 L 343.742188 297.398438 L 58.171875 297.398438 Z M 58.171875 231.5 " clip-rule="nonzero"/></clipPath><clipPath id="b8e7765389"><rect x="0" width="360" y="0" height="322"/></clipPath></defs><g transform="matrix(1, 0, 0, 1, 0, 19)"><g clip-path="url(#b8e7765389)"><g clip-path="url(#b3247f21ef)"><path stroke-linecap="butt" transform="matrix(0.793248, 0, 0, 0.793248, 58.171171, 11.829634)" fill="none" stroke-linejoin="miter" d="M 0.000887602 359.999264 L 0.000887602 -0.00190216 " stroke="#000000" stroke-width="1" stroke-opacity="0.6" stroke-miterlimit="4"/></g><g clip-path="url(#c4fa370c33)"><path stroke-linecap="butt" transform="matrix(0.793248, 0, 0, 0.793248, 58.171171, 11.829634)" fill="none" stroke-linejoin="miter" d="M 89.998717 359.999264 L 89.998717 -0.00190216 " stroke="#000000" stroke-width="1" stroke-opacity="0.251" stroke-miterlimit="4"/></g><g clip-path="url(#2067f8b236)"><path stroke-linecap="butt" transform="matrix(0.793248, 0, 0, 0.793248, 58.171171, 11.829634)" fill="none" stroke-linejoin="miter" d="M 180.001471 359.999264 L 180.001471 -0.00190216 " stroke="#000000" stroke-width="1" stroke-opacity="0.251" stroke-miterlimit="4"/></g><g clip-path="url(#44149680e7)"><path stroke-linecap="butt" transform="matrix(0.793248, 0, 0, 0.793248, 58.171171, 11.829634)" fill="none" stroke-linejoin="miter" d="M 269.9993 359.999264 L 269.9993 -0.00190216 " stroke="#000000" stroke-width="1" stroke-opacity="0.251" stroke-miterlimit="4"/></g><g clip-path="url(#d84ccc8e21)"><path stroke-linecap="butt" transform="matrix(0.793248, 0, 0, 0.793248, 58.171171, 11.829634)" fill="none" stroke-linejoin="miter" d="M 360.002054 359.999264 L 360.002054 -0.00190216 " stroke="#000000" stroke-width="1" stroke-opacity="0.251" stroke-miterlimit="4"/></g><g clip-path="url(#e112b36a5a)"><g fill="#000000" fill-opacity="1"><g transform="translate(55.390329, 310.170316)"><g><path d="M 2.8125 0.140625 C 2.082031 0.140625 1.515625 -0.179688 1.109375 -0.828125 C 0.703125 -1.472656 0.5 -2.398438 0.5 -3.609375 C 0.5 -4.828125 0.703125 -5.75 1.109375 -6.375 C 1.515625 -7.007812 2.082031 -7.328125 2.8125 -7.328125 C 3.53125 -7.328125 4.09375 -7.007812 4.5 -6.375 C 4.90625 -5.75 5.109375 -4.828125 5.109375 -3.609375 C 5.109375 -2.398438 4.90625 -1.472656 4.5 -0.828125 C 4.09375 -0.179688 3.53125 0.140625 2.8125 0.140625 Z M 2.8125 -0.609375 C 3.019531 -0.609375 3.207031 -0.664062 3.375 -0.78125 C 3.539062 -0.894531 3.6875 -1.070312 3.8125 -1.3125 C 3.9375 -1.5625 4.03125 -1.875 4.09375 -2.25 C 4.164062 -2.632812 4.203125 -3.085938 4.203125 -3.609375 C 4.203125 -4.140625 4.164062 -4.59375 4.09375 -4.96875 C 4.03125 -5.34375 3.9375 -5.644531 3.8125 -5.875 C 3.6875 -6.113281 3.539062 -6.289062 3.375 -6.40625 C 3.207031 -6.519531 3.019531 -6.578125 2.8125 -6.578125 C 2.59375 -6.578125 2.394531 -6.519531 2.21875 -6.40625 C 2.050781 -6.289062 1.90625 -6.113281 1.78125 -5.875 C 1.65625 -5.644531 1.554688 -5.34375 1.484375 -4.96875 C 1.421875 -4.59375 1.390625 -4.140625 1.390625 -3.609375 C 1.390625 -2.554688 1.519531 -1.789062 1.78125 -1.3125 C 2.039062 -0.84375 2.382812 -0.609375 2.8125 -0.609375 Z M 2.8125 -0.609375 "/></g></g></g></g><g clip-path="url(#7c766f324a)"><g fill="#000000" fill-opacity="1"><g transform="translate(126.782682, 310.170316)"><g><path d="M 2.640625 0.140625 C 2.347656 0.140625 2.082031 0.109375 1.84375 0.046875 C 1.613281 -0.00390625 1.398438 -0.0703125 1.203125 -0.15625 C 1.015625 -0.25 0.84375 -0.351562 0.6875 -0.46875 C 0.539062 -0.59375 0.40625 -0.71875 0.28125 -0.84375 L 0.734375 -1.453125 C 0.941406 -1.234375 1.191406 -1.039062 1.484375 -0.875 C 1.773438 -0.707031 2.128906 -0.625 2.546875 -0.625 C 2.765625 -0.625 2.96875 -0.664062 3.15625 -0.75 C 3.351562 -0.832031 3.519531 -0.941406 3.65625 -1.078125 C 3.800781 -1.222656 3.914062 -1.394531 4 -1.59375 C 4.082031 -1.800781 4.125 -2.03125 4.125 -2.28125 C 4.125 -2.769531 3.984375 -3.15625 3.703125 -3.4375 C 3.429688 -3.71875 3.0625 -3.859375 2.59375 -3.859375 C 2.34375 -3.859375 2.128906 -3.816406 1.953125 -3.734375 C 1.773438 -3.660156 1.578125 -3.550781 1.359375 -3.40625 L 0.875 -3.734375 L 1.109375 -7.1875 L 4.703125 -7.1875 L 4.703125 -6.390625 L 1.921875 -6.390625 L 1.71875 -4.265625 C 1.894531 -4.347656 2.066406 -4.414062 2.234375 -4.46875 C 2.410156 -4.519531 2.609375 -4.546875 2.828125 -4.546875 C 3.140625 -4.546875 3.425781 -4.5 3.6875 -4.40625 C 3.957031 -4.320312 4.191406 -4.1875 4.390625 -4 C 4.597656 -3.820312 4.757812 -3.59375 4.875 -3.3125 C 5 -3.03125 5.0625 -2.691406 5.0625 -2.296875 C 5.0625 -1.910156 4.992188 -1.566406 4.859375 -1.265625 C 4.722656 -0.960938 4.539062 -0.707031 4.3125 -0.5 C 4.09375 -0.289062 3.835938 -0.128906 3.546875 -0.015625 C 3.253906 0.0859375 2.953125 0.140625 2.640625 0.140625 Z M 2.640625 0.140625 "/></g></g></g></g><g clip-path="url(#888ef1c704)"><g fill="#000000" fill-opacity="1"><g transform="translate(194.98963, 310.170316)"><g><path d="M 0.890625 0 L 0.890625 -0.765625 L 2.53125 -0.765625 L 2.53125 -6.0625 L 1.234375 -6.0625 L 1.234375 -6.65625 C 1.554688 -6.71875 1.835938 -6.789062 2.078125 -6.875 C 2.328125 -6.957031 2.550781 -7.0625 2.75 -7.1875 L 3.453125 -7.1875 L 3.453125 -0.765625 L 4.953125 -0.765625 L 4.953125 0 Z M 0.890625 0 "/></g></g></g></g><g clip-path="url(#66d054edf4)"><g fill="#000000" fill-opacity="1"><g transform="translate(200.583001, 310.170316)"><g><path d="M 2.8125 0.140625 C 2.082031 0.140625 1.515625 -0.179688 1.109375 -0.828125 C 0.703125 -1.472656 0.5 -2.398438 0.5 -3.609375 C 0.5 -4.828125 0.703125 -5.75 1.109375 -6.375 C 1.515625 -7.007812 2.082031 -7.328125 2.8125 -7.328125 C 3.53125 -7.328125 4.09375 -7.007812 4.5 -6.375 C 4.90625 -5.75 5.109375 -4.828125 5.109375 -3.609375 C 5.109375 -2.398438 4.90625 -1.472656 4.5 -0.828125 C 4.09375 -0.179688 3.53125 0.140625 2.8125 0.140625 Z M 2.8125 -0.609375 C 3.019531 -0.609375 3.207031 -0.664062 3.375 -0.78125 C 3.539062 -0.894531 3.6875 -1.070312 3.8125 -1.3125 C 3.9375 -1.5625 4.03125 -1.875 4.09375 -2.25 C 4.164062 -2.632812 4.203125 -3.085938 4.203125 -3.609375 C 4.203125 -4.140625 4.164062 -4.59375 4.09375 -4.96875 C 4.03125 -5.34375 3.9375 -5.644531 3.8125 -5.875 C 3.6875 -6.113281 3.539062 -6.289062 3.375 -6.40625 C 3.207031 -6.519531 3.019531 -6.578125 2.8125 -6.578125 C 2.59375 -6.578125 2.394531 -6.519531 2.21875 -6.40625 C 2.050781 -6.289062 1.90625 -6.113281 1.78125 -5.875 C 1.65625 -5.644531 1.554688 -5.34375 1.484375 -4.96875 C 1.421875 -4.59375 1.390625 -4.140625 1.390625 -3.609375 C 1.390625 -2.554688 1.519531 -1.789062 1.78125 -1.3125 C 2.039062 -0.84375 2.382812 -0.609375 2.8125 -0.609375 Z M 2.8125 -0.609375 "/></g></g></g></g><g clip-path="url(#5f546eff73)"><g fill="#000000" fill-opacity="1"><g transform="translate(266.381978, 310.170316)"><g><path d="M 0.890625 0 L 0.890625 -0.765625 L 2.53125 -0.765625 L 2.53125 -6.0625 L 1.234375 -6.0625 L 1.234375 -6.65625 C 1.554688 -6.71875 1.835938 -6.789062 2.078125 -6.875 C 2.328125 -6.957031 2.550781 -7.0625 2.75 -7.1875 L 3.453125 -7.1875 L 3.453125 -0.765625 L 4.953125 -0.765625 L 4.953125 0 Z M 0.890625 0 "/></g></g></g></g><g clip-path="url(#87d9722bb9)"><g fill="#000000" fill-opacity="1"><g transform="translate(271.975349, 310.170316)"><g><path d="M 2.640625 0.140625 C 2.347656 0.140625 2.082031 0.109375 1.84375 0.046875 C 1.613281 -0.00390625 1.398438 -0.0703125 1.203125 -0.15625 C 1.015625 -0.25 0.84375 -0.351562 0.6875 -0.46875 C 0.539062 -0.59375 0.40625 -0.71875 0.28125 -0.84375 L 0.734375 -1.453125 C 0.941406 -1.234375 1.191406 -1.039062 1.484375 -0.875 C 1.773438 -0.707031 2.128906 -0.625 2.546875 -0.625 C 2.765625 -0.625 2.96875 -0.664062 3.15625 -0.75 C 3.351562 -0.832031 3.519531 -0.941406 3.65625 -1.078125 C 3.800781 -1.222656 3.914062 -1.394531 4 -1.59375 C 4.082031 -1.800781 4.125 -2.03125 4.125 -2.28125 C 4.125 -2.769531 3.984375 -3.15625 3.703125 -3.4375 C 3.429688 -3.71875 3.0625 -3.859375 2.59375 -3.859375 C 2.34375 -3.859375 2.128906 -3.816406 1.953125 -3.734375 C 1.773438 -3.660156 1.578125 -3.550781 1.359375 -3.40625 L 0.875 -3.734375 L 1.109375 -7.1875 L 4.703125 -7.1875 L 4.703125 -6.390625 L 1.921875 -6.390625 L 1.71875 -4.265625 C 1.894531 -4.347656 2.066406 -4.414062 2.234375 -4.46875 C 2.410156 -4.519531 2.609375 -4.546875 2.828125 -4.546875 C 3.140625 -4.546875 3.425781 -4.5 3.6875 -4.40625 C 3.957031 -4.320312 4.191406 -4.1875 4.390625 -4 C 4.597656 -3.820312 4.757812 -3.59375 4.875 -3.3125 C 5 -3.03125 5.0625 -2.691406 5.0625 -2.296875 C 5.0625 -1.910156 4.992188 -1.566406 4.859375 -1.265625 C 4.722656 -0.960938 4.539062 -0.707031 4.3125 -0.5 C 4.09375 -0.289062 3.835938 -0.128906 3.546875 -0.015625 C 3.253906 0.0859375 2.953125 0.140625 2.640625 0.140625 Z M 2.640625 0.140625 "/></g></g></g></g><g clip-path="url(#09ff196b32)"><g fill="#000000" fill-opacity="1"><g transform="translate(338.170948, 310.170316)"><g><path d="M 0.453125 0 L 0.453125 -0.546875 C 0.992188 -1.085938 1.472656 -1.578125 1.890625 -2.015625 C 2.316406 -2.453125 2.671875 -2.851562 2.953125 -3.21875 C 3.234375 -3.59375 3.445312 -3.9375 3.59375 -4.25 C 3.75 -4.5625 3.828125 -4.863281 3.828125 -5.15625 C 3.828125 -5.570312 3.710938 -5.910156 3.484375 -6.171875 C 3.265625 -6.429688 2.925781 -6.5625 2.46875 -6.5625 C 2.164062 -6.5625 1.882812 -6.476562 1.625 -6.3125 C 1.375 -6.144531 1.144531 -5.941406 0.9375 -5.703125 L 0.40625 -6.234375 C 0.707031 -6.554688 1.023438 -6.816406 1.359375 -7.015625 C 1.703125 -7.222656 2.109375 -7.328125 2.578125 -7.328125 C 3.242188 -7.328125 3.769531 -7.128906 4.15625 -6.734375 C 4.539062 -6.347656 4.734375 -5.835938 4.734375 -5.203125 C 4.734375 -4.867188 4.660156 -4.53125 4.515625 -4.1875 C 4.367188 -3.84375 4.164062 -3.488281 3.90625 -3.125 C 3.644531 -2.757812 3.332031 -2.378906 2.96875 -1.984375 C 2.613281 -1.585938 2.222656 -1.171875 1.796875 -0.734375 C 1.992188 -0.742188 2.195312 -0.753906 2.40625 -0.765625 C 2.613281 -0.785156 2.816406 -0.796875 3.015625 -0.796875 L 5.09375 -0.796875 L 5.09375 0 Z M 0.453125 0 "/></g></g></g></g><g clip-path="url(#3487c39004)"><g fill="#000000" fill-opacity="1"><g transform="translate(343.764319, 310.170316)"><g><path d="M 2.8125 0.140625 C 2.082031 0.140625 1.515625 -0.179688 1.109375 -0.828125 C 0.703125 -1.472656 0.5 -2.398438 0.5 -3.609375 C 0.5 -4.828125 0.703125 -5.75 1.109375 -6.375 C 1.515625 -7.007812 2.082031 -7.328125 2.8125 -7.328125 C 3.53125 -7.328125 4.09375 -7.007812 4.5 -6.375 C 4.90625 -5.75 5.109375 -4.828125 5.109375 -3.609375 C 5.109375 -2.398438 4.90625 -1.472656 4.5 -0.828125 C 4.09375 -0.179688 3.53125 0.140625 2.8125 0.140625 Z M 2.8125 -0.609375 C 3.019531 -0.609375 3.207031 -0.664062 3.375 -0.78125 C 3.539062 -0.894531 3.6875 -1.070312 3.8125 -1.3125 C 3.9375 -1.5625 4.03125 -1.875 4.09375 -2.25 C 4.164062 -2.632812 4.203125 -3.085938 4.203125 -3.609375 C 4.203125 -4.140625 4.164062 -4.59375 4.09375 -4.96875 C 4.03125 -5.34375 3.9375 -5.644531 3.8125 -5.875 C 3.6875 -6.113281 3.539062 -6.289062 3.375 -6.40625 C 3.207031 -6.519531 3.019531 -6.578125 2.8125 -6.578125 C 2.59375 -6.578125 2.394531 -6.519531 2.21875 -6.40625 C 2.050781 -6.289062 1.90625 -6.113281 1.78125 -5.875 C 1.65625 -5.644531 1.554688 -5.34375 1.484375 -4.96875 C 1.421875 -4.59375 1.390625 -4.140625 1.390625 -3.609375 C 1.390625 -2.554688 1.519531 -1.789062 1.78125 -1.3125 C 2.039062 -0.84375 2.382812 -0.609375 2.8125 -0.609375 Z M 2.8125 -0.609375 "/></g></g></g></g><g fill="#000000" fill-opacity="1"><g transform="translate(26.924802, 47.952934)"><g><path d="M 1.015625 0 L 1.015625 -7.390625 L 2.859375 -7.390625 C 4.003906 -7.390625 4.875 -7.070312 5.46875 -6.4375 C 6.0625 -5.8125 6.359375 -4.910156 6.359375 -3.734375 C 6.359375 -3.140625 6.28125 -2.613281 6.125 -2.15625 C 5.976562 -1.695312 5.757812 -1.304688 5.46875 -0.984375 C 5.175781 -0.660156 4.8125 -0.414062 4.375 -0.25 C 3.945312 -0.0820312 3.457031 0 2.90625 0 Z M 1.953125 -0.765625 L 2.796875 -0.765625 C 3.660156 -0.765625 4.304688 -1.023438 4.734375 -1.546875 C 5.171875 -2.066406 5.390625 -2.796875 5.390625 -3.734375 C 5.390625 -4.671875 5.171875 -5.382812 4.734375 -5.875 C 4.304688 -6.375 3.660156 -6.625 2.796875 -6.625 L 1.953125 -6.625 Z M 1.953125 -0.765625 "/></g></g></g><g fill="#000000" fill-opacity="1"><g transform="translate(33.846177, 47.952934)"><g><path d="M 0.921875 0 L 0.921875 -5.46875 L 1.6875 -5.46875 L 1.765625 -4.484375 L 1.796875 -4.484375 C 1.984375 -4.828125 2.210938 -5.097656 2.484375 -5.296875 C 2.753906 -5.503906 3.046875 -5.609375 3.359375 -5.609375 C 3.578125 -5.609375 3.769531 -5.570312 3.9375 -5.5 L 3.765625 -4.6875 C 3.671875 -4.71875 3.585938 -4.738281 3.515625 -4.75 C 3.441406 -4.769531 3.347656 -4.78125 3.234375 -4.78125 C 3.003906 -4.78125 2.757812 -4.6875 2.5 -4.5 C 2.25 -4.3125 2.03125 -3.984375 1.84375 -3.515625 L 1.84375 0 Z M 0.921875 0 "/></g></g></g><g fill="#000000" fill-opacity="1"><g transform="translate(37.481071, 47.952934)"><g><path d="M 2.1875 0.140625 C 1.726562 0.140625 1.34375 0.00390625 1.03125 -0.265625 C 0.726562 -0.535156 0.578125 -0.921875 0.578125 -1.421875 C 0.578125 -2.023438 0.84375 -2.484375 1.375 -2.796875 C 1.914062 -3.117188 2.769531 -3.34375 3.9375 -3.46875 C 3.9375 -3.644531 3.921875 -3.8125 3.890625 -3.96875 C 3.859375 -4.132812 3.800781 -4.28125 3.71875 -4.40625 C 3.632812 -4.539062 3.519531 -4.644531 3.375 -4.71875 C 3.226562 -4.800781 3.039062 -4.84375 2.8125 -4.84375 C 2.5 -4.84375 2.203125 -4.78125 1.921875 -4.65625 C 1.648438 -4.539062 1.40625 -4.410156 1.1875 -4.265625 L 0.828125 -4.90625 C 1.078125 -5.0625 1.382812 -5.21875 1.75 -5.375 C 2.125 -5.53125 2.53125 -5.609375 2.96875 -5.609375 C 3.644531 -5.609375 4.128906 -5.398438 4.421875 -4.984375 C 4.722656 -4.578125 4.875 -4.035156 4.875 -3.359375 L 4.875 0 L 4.109375 0 L 4.03125 -0.65625 L 4 -0.65625 C 3.738281 -0.4375 3.457031 -0.25 3.15625 -0.09375 C 2.851562 0.0625 2.53125 0.140625 2.1875 0.140625 Z M 2.453125 -0.609375 C 2.710938 -0.609375 2.957031 -0.671875 3.1875 -0.796875 C 3.425781 -0.921875 3.675781 -1.101562 3.9375 -1.34375 L 3.9375 -2.859375 C 3.476562 -2.796875 3.09375 -2.722656 2.78125 -2.640625 C 2.476562 -2.566406 2.226562 -2.472656 2.03125 -2.359375 C 1.84375 -2.242188 1.703125 -2.113281 1.609375 -1.96875 C 1.523438 -1.820312 1.484375 -1.660156 1.484375 -1.484375 C 1.484375 -1.171875 1.578125 -0.945312 1.765625 -0.8125 C 1.953125 -0.675781 2.179688 -0.609375 2.453125 -0.609375 Z M 2.453125 -0.609375 "/></g></g></g><g fill="#000000" fill-opacity="1"><g transform="translate(43.153227, 47.952934)"><g><path d="M 1.078125 0 L 1.078125 -4.71875 L 0.34375 -4.71875 L 0.34375 -5.421875 L 1.078125 -5.46875 L 1.078125 -6.34375 C 1.078125 -6.90625 1.207031 -7.347656 1.46875 -7.671875 C 1.726562 -7.992188 2.132812 -8.15625 2.6875 -8.15625 C 2.851562 -8.15625 3.015625 -8.140625 3.171875 -8.109375 C 3.328125 -8.078125 3.46875 -8.03125 3.59375 -7.96875 L 3.390625 -7.265625 C 3.191406 -7.359375 2.984375 -7.40625 2.765625 -7.40625 C 2.253906 -7.40625 2 -7.050781 2 -6.34375 L 2 -5.46875 L 4.015625 -5.46875 L 4.125 -7 L 4.890625 -7 L 4.890625 -5.46875 L 6.375 -5.46875 L 6.375 -4.71875 L 4.890625 -4.71875 L 4.890625 -1.671875 C 4.890625 -1.335938 4.953125 -1.078125 5.078125 -0.890625 C 5.203125 -0.710938 5.425781 -0.625 5.75 -0.625 C 5.84375 -0.625 5.945312 -0.632812 6.0625 -0.65625 C 6.175781 -0.6875 6.273438 -0.722656 6.359375 -0.765625 L 6.546875 -0.0625 C 6.390625 -0.0078125 6.222656 0.0351562 6.046875 0.078125 C 5.878906 0.117188 5.707031 0.140625 5.53125 0.140625 C 5.238281 0.140625 4.992188 0.09375 4.796875 0 C 4.597656 -0.09375 4.4375 -0.21875 4.3125 -0.375 C 4.1875 -0.53125 4.097656 -0.71875 4.046875 -0.9375 C 3.992188 -1.164062 3.96875 -1.414062 3.96875 -1.6875 L 3.96875 -4.71875 L 2 -4.71875 L 2 0 Z M 1.078125 0 "/></g></g></g><g fill="#000000" fill-opacity="1"><g transform="translate(21.810491, 121.175867)"><g><path d="M 2.28125 -4.140625 L 1.9375 -3.015625 L 4.15625 -3.015625 L 3.8125 -4.140625 C 3.675781 -4.546875 3.546875 -4.953125 3.421875 -5.359375 C 3.304688 -5.773438 3.1875 -6.195312 3.0625 -6.625 L 3.015625 -6.625 C 2.898438 -6.195312 2.78125 -5.773438 2.65625 -5.359375 C 2.539062 -4.953125 2.414062 -4.546875 2.28125 -4.140625 Z M 0.03125 0 L 2.53125 -7.390625 L 3.59375 -7.390625 L 6.09375 0 L 5.09375 0 L 4.390625 -2.25 L 1.703125 -2.25 L 0.984375 0 Z M 0.03125 0 "/></g></g></g><g fill="#000000" fill-opacity="1"><g transform="translate(27.93282, 121.175867)"><g><path d="M 3.09375 0.140625 C 2.726562 0.140625 2.382812 0.078125 2.0625 -0.046875 C 1.75 -0.179688 1.476562 -0.367188 1.25 -0.609375 C 1.019531 -0.859375 0.835938 -1.160156 0.703125 -1.515625 C 0.578125 -1.867188 0.515625 -2.269531 0.515625 -2.71875 C 0.515625 -3.175781 0.585938 -3.582031 0.734375 -3.9375 C 0.878906 -4.300781 1.070312 -4.609375 1.3125 -4.859375 C 1.550781 -5.109375 1.828125 -5.296875 2.140625 -5.421875 C 2.460938 -5.546875 2.800781 -5.609375 3.15625 -5.609375 C 3.507812 -5.609375 3.816406 -5.546875 4.078125 -5.421875 C 4.335938 -5.296875 4.5625 -5.144531 4.75 -4.96875 L 4.28125 -4.359375 C 4.125 -4.503906 3.957031 -4.617188 3.78125 -4.703125 C 3.601562 -4.796875 3.40625 -4.84375 3.1875 -4.84375 C 2.9375 -4.84375 2.707031 -4.789062 2.5 -4.6875 C 2.289062 -4.59375 2.109375 -4.453125 1.953125 -4.265625 C 1.804688 -4.078125 1.6875 -3.851562 1.59375 -3.59375 C 1.507812 -3.332031 1.46875 -3.039062 1.46875 -2.71875 C 1.46875 -2.40625 1.507812 -2.117188 1.59375 -1.859375 C 1.675781 -1.609375 1.789062 -1.390625 1.9375 -1.203125 C 2.082031 -1.023438 2.257812 -0.882812 2.46875 -0.78125 C 2.6875 -0.675781 2.921875 -0.625 3.171875 -0.625 C 3.421875 -0.625 3.648438 -0.675781 3.859375 -0.78125 C 4.078125 -0.894531 4.273438 -1.03125 4.453125 -1.1875 L 4.859375 -0.5625 C 4.609375 -0.34375 4.332031 -0.171875 4.03125 -0.046875 C 3.726562 0.078125 3.414062 0.140625 3.09375 0.140625 Z M 3.09375 0.140625 "/></g></g></g><g fill="#000000" fill-opacity="1"><g transform="translate(32.952122, 121.175867)"><g><path d="M 2.640625 0.140625 C 2.347656 0.140625 2.101562 0.09375 1.90625 0 C 1.707031 -0.09375 1.546875 -0.21875 1.421875 -0.375 C 1.296875 -0.53125 1.207031 -0.71875 1.15625 -0.9375 C 1.101562 -1.164062 1.078125 -1.414062 1.078125 -1.6875 L 1.078125 -4.71875 L 0.265625 -4.71875 L 0.265625 -5.421875 L 1.125 -5.46875 L 1.234375 -7 L 2.015625 -7 L 2.015625 -5.46875 L 3.5 -5.46875 L 3.5 -4.71875 L 2.015625 -4.71875 L 2.015625 -1.671875 C 2.015625 -1.335938 2.078125 -1.078125 2.203125 -0.890625 C 2.328125 -0.710938 2.546875 -0.625 2.859375 -0.625 C 2.960938 -0.625 3.066406 -0.632812 3.171875 -0.65625 C 3.285156 -0.6875 3.390625 -0.722656 3.484375 -0.765625 L 3.65625 -0.0625 C 3.507812 -0.0078125 3.347656 0.0351562 3.171875 0.078125 C 2.992188 0.117188 2.816406 0.140625 2.640625 0.140625 Z M 2.640625 0.140625 "/></g></g></g><g fill="#000000" fill-opacity="1"><g transform="translate(36.756061, 121.175867)"><g><path d="M 0.921875 0 L 0.921875 -5.46875 L 1.84375 -5.46875 L 1.84375 0 Z M 1.390625 -6.609375 C 1.210938 -6.609375 1.0625 -6.660156 0.9375 -6.765625 C 0.8125 -6.878906 0.75 -7.023438 0.75 -7.203125 C 0.75 -7.378906 0.8125 -7.519531 0.9375 -7.625 C 1.0625 -7.738281 1.210938 -7.796875 1.390625 -7.796875 C 1.578125 -7.796875 1.726562 -7.738281 1.84375 -7.625 C 1.96875 -7.519531 2.03125 -7.378906 2.03125 -7.203125 C 2.03125 -7.023438 1.96875 -6.878906 1.84375 -6.765625 C 1.726562 -6.660156 1.578125 -6.609375 1.390625 -6.609375 Z M 1.390625 -6.609375 "/></g></g></g><g fill="#000000" fill-opacity="1"><g transform="translate(39.524611, 121.175867)"><g><path d="M 2.109375 0 L 0.140625 -5.46875 L 1.09375 -5.46875 L 2.125 -2.359375 C 2.207031 -2.085938 2.289062 -1.816406 2.375 -1.546875 C 2.46875 -1.285156 2.554688 -1.019531 2.640625 -0.75 L 2.6875 -0.75 C 2.769531 -1.019531 2.847656 -1.285156 2.921875 -1.546875 C 3.003906 -1.816406 3.085938 -2.085938 3.171875 -2.359375 L 4.21875 -5.46875 L 5.125 -5.46875 L 3.1875 0 Z M 2.109375 0 "/></g></g></g><g fill="#000000" fill-opacity="1"><g transform="translate(44.735302, 121.175867)"><g><path d="M 3.140625 0.140625 C 2.773438 0.140625 2.429688 0.0703125 2.109375 -0.0625 C 1.796875 -0.195312 1.519531 -0.382812 1.28125 -0.625 C 1.039062 -0.863281 0.851562 -1.160156 0.71875 -1.515625 C 0.582031 -1.867188 0.515625 -2.269531 0.515625 -2.71875 C 0.515625 -3.175781 0.582031 -3.582031 0.71875 -3.9375 C 0.863281 -4.289062 1.050781 -4.59375 1.28125 -4.84375 C 1.507812 -5.09375 1.769531 -5.28125 2.0625 -5.40625 C 2.351562 -5.539062 2.65625 -5.609375 2.96875 -5.609375 C 3.320312 -5.609375 3.632812 -5.546875 3.90625 -5.421875 C 4.175781 -5.304688 4.398438 -5.132812 4.578125 -4.90625 C 4.765625 -4.6875 4.90625 -4.414062 5 -4.09375 C 5.101562 -3.78125 5.15625 -3.429688 5.15625 -3.046875 C 5.15625 -2.941406 5.148438 -2.84375 5.140625 -2.75 C 5.140625 -2.65625 5.132812 -2.578125 5.125 -2.515625 L 1.4375 -2.515625 C 1.46875 -1.929688 1.644531 -1.46875 1.96875 -1.125 C 2.300781 -0.78125 2.726562 -0.609375 3.25 -0.609375 C 3.519531 -0.609375 3.765625 -0.644531 3.984375 -0.71875 C 4.203125 -0.800781 4.414062 -0.90625 4.625 -1.03125 L 4.953125 -0.421875 C 4.703125 -0.273438 4.429688 -0.144531 4.140625 -0.03125 C 3.847656 0.0820312 3.515625 0.140625 3.140625 0.140625 Z M 1.421875 -3.171875 L 4.34375 -3.171875 C 4.34375 -3.734375 4.222656 -4.15625 3.984375 -4.4375 C 3.753906 -4.726562 3.425781 -4.875 3 -4.875 C 2.800781 -4.875 2.613281 -4.835938 2.4375 -4.765625 C 2.257812 -4.691406 2.097656 -4.582031 1.953125 -4.4375 C 1.816406 -4.289062 1.703125 -4.109375 1.609375 -3.890625 C 1.515625 -3.679688 1.453125 -3.441406 1.421875 -3.171875 Z M 1.421875 -3.171875 "/></g></g></g><g clip-path="url(#17156e9e60)"><g fill="#000000" fill-opacity="1"><g transform="translate(-1.138637, 194.398772)"><g><path d="M 3.046875 0.140625 C 2.710938 0.140625 2.394531 0.078125 2.09375 -0.046875 C 1.789062 -0.179688 1.519531 -0.367188 1.28125 -0.609375 C 1.050781 -0.859375 0.863281 -1.160156 0.71875 -1.515625 C 0.582031 -1.867188 0.515625 -2.269531 0.515625 -2.71875 C 0.515625 -3.175781 0.582031 -3.582031 0.71875 -3.9375 C 0.863281 -4.300781 1.050781 -4.609375 1.28125 -4.859375 C 1.519531 -5.109375 1.789062 -5.296875 2.09375 -5.421875 C 2.394531 -5.546875 2.710938 -5.609375 3.046875 -5.609375 C 3.390625 -5.609375 3.710938 -5.546875 4.015625 -5.421875 C 4.316406 -5.296875 4.582031 -5.109375 4.8125 -4.859375 C 5.050781 -4.609375 5.238281 -4.300781 5.375 -3.9375 C 5.519531 -3.582031 5.59375 -3.175781 5.59375 -2.71875 C 5.59375 -2.269531 5.519531 -1.867188 5.375 -1.515625 C 5.238281 -1.160156 5.050781 -0.859375 4.8125 -0.609375 C 4.582031 -0.367188 4.316406 -0.179688 4.015625 -0.046875 C 3.710938 0.078125 3.390625 0.140625 3.046875 0.140625 Z M 3.046875 -0.625 C 3.285156 -0.625 3.5 -0.675781 3.6875 -0.78125 C 3.882812 -0.882812 4.050781 -1.023438 4.1875 -1.203125 C 4.332031 -1.390625 4.441406 -1.609375 4.515625 -1.859375 C 4.585938 -2.117188 4.625 -2.40625 4.625 -2.71875 C 4.625 -3.039062 4.585938 -3.332031 4.515625 -3.59375 C 4.441406 -3.851562 4.332031 -4.078125 4.1875 -4.265625 C 4.050781 -4.453125 3.882812 -4.59375 3.6875 -4.6875 C 3.5 -4.789062 3.285156 -4.84375 3.046875 -4.84375 C 2.816406 -4.84375 2.601562 -4.789062 2.40625 -4.6875 C 2.21875 -4.59375 2.050781 -4.453125 1.90625 -4.265625 C 1.769531 -4.078125 1.660156 -3.851562 1.578125 -3.59375 C 1.503906 -3.332031 1.46875 -3.039062 1.46875 -2.71875 C 1.46875 -2.40625 1.503906 -2.117188 1.578125 -1.859375 C 1.660156 -1.609375 1.769531 -1.390625 1.90625 -1.203125 C 2.050781 -1.023438 2.21875 -0.882812 2.40625 -0.78125 C 2.601562 -0.675781 2.816406 -0.625 3.046875 -0.625 Z M 3.046875 -0.625 "/></g></g></g></g><g fill="#000000" fill-opacity="1"><g transform="translate(4.961178, 194.398772)"><g><path d="M 2.359375 0.140625 C 1.960938 0.140625 1.585938 0.0664062 1.234375 -0.078125 C 0.878906 -0.222656 0.570312 -0.40625 0.3125 -0.625 L 0.78125 -1.234375 C 1.019531 -1.046875 1.265625 -0.890625 1.515625 -0.765625 C 1.765625 -0.640625 2.054688 -0.578125 2.390625 -0.578125 C 2.742188 -0.578125 3.007812 -0.660156 3.1875 -0.828125 C 3.375 -0.992188 3.46875 -1.195312 3.46875 -1.4375 C 3.46875 -1.582031 3.429688 -1.707031 3.359375 -1.8125 C 3.285156 -1.914062 3.1875 -2.003906 3.0625 -2.078125 C 2.945312 -2.160156 2.8125 -2.234375 2.65625 -2.296875 C 2.507812 -2.359375 2.363281 -2.421875 2.21875 -2.484375 C 2.019531 -2.546875 1.820312 -2.617188 1.625 -2.703125 C 1.4375 -2.796875 1.265625 -2.898438 1.109375 -3.015625 C 0.953125 -3.140625 0.820312 -3.285156 0.71875 -3.453125 C 0.625 -3.617188 0.578125 -3.820312 0.578125 -4.0625 C 0.578125 -4.269531 0.617188 -4.46875 0.703125 -4.65625 C 0.796875 -4.851562 0.921875 -5.019531 1.078125 -5.15625 C 1.242188 -5.300781 1.441406 -5.410156 1.671875 -5.484375 C 1.910156 -5.566406 2.175781 -5.609375 2.46875 -5.609375 C 2.8125 -5.609375 3.128906 -5.546875 3.421875 -5.421875 C 3.710938 -5.304688 3.960938 -5.160156 4.171875 -4.984375 L 3.734375 -4.40625 C 3.546875 -4.550781 3.347656 -4.664062 3.140625 -4.75 C 2.941406 -4.84375 2.722656 -4.890625 2.484375 -4.890625 C 2.128906 -4.890625 1.867188 -4.8125 1.703125 -4.65625 C 1.546875 -4.5 1.46875 -4.3125 1.46875 -4.09375 C 1.46875 -3.96875 1.5 -3.859375 1.5625 -3.765625 C 1.632812 -3.671875 1.726562 -3.585938 1.84375 -3.515625 C 1.957031 -3.441406 2.085938 -3.378906 2.234375 -3.328125 C 2.378906 -3.273438 2.53125 -3.21875 2.6875 -3.15625 C 2.882812 -3.082031 3.082031 -3.003906 3.28125 -2.921875 C 3.476562 -2.835938 3.65625 -2.734375 3.8125 -2.609375 C 3.976562 -2.484375 4.109375 -2.328125 4.203125 -2.140625 C 4.304688 -1.960938 4.359375 -1.75 4.359375 -1.5 C 4.359375 -1.269531 4.3125 -1.054688 4.21875 -0.859375 C 4.132812 -0.671875 4.007812 -0.5 3.84375 -0.34375 C 3.675781 -0.195312 3.46875 -0.0820312 3.21875 0 C 2.96875 0.09375 2.679688 0.140625 2.359375 0.140625 Z M 2.359375 0.140625 "/></g></g></g><g fill="#000000" fill-opacity="1"><g transform="translate(9.676718, 194.398772)"><g><path d="M 0.921875 0 L 0.921875 -5.46875 L 1.84375 -5.46875 L 1.84375 0 Z M 1.390625 -6.609375 C 1.210938 -6.609375 1.0625 -6.660156 0.9375 -6.765625 C 0.8125 -6.878906 0.75 -7.023438 0.75 -7.203125 C 0.75 -7.378906 0.8125 -7.519531 0.9375 -7.625 C 1.0625 -7.738281 1.210938 -7.796875 1.390625 -7.796875 C 1.578125 -7.796875 1.726562 -7.738281 1.84375 -7.625 C 1.96875 -7.519531 2.03125 -7.378906 2.03125 -7.203125 C 2.03125 -7.023438 1.96875 -6.878906 1.84375 -6.765625 C 1.726562 -6.660156 1.578125 -6.609375 1.390625 -6.609375 Z M 1.390625 -6.609375 "/></g></g></g><g fill="#000000" fill-opacity="1"><g transform="translate(12.445268, 194.398772)"><g><path d="M 0.921875 0 L 0.921875 -5.46875 L 1.6875 -5.46875 L 1.765625 -4.6875 L 1.796875 -4.6875 C 2.066406 -4.945312 2.34375 -5.164062 2.625 -5.34375 C 2.914062 -5.519531 3.253906 -5.609375 3.640625 -5.609375 C 4.210938 -5.609375 4.632812 -5.425781 4.90625 -5.0625 C 5.175781 -4.707031 5.3125 -4.175781 5.3125 -3.46875 L 5.3125 0 L 4.375 0 L 4.375 -3.34375 C 4.375 -3.863281 4.289062 -4.238281 4.125 -4.46875 C 3.96875 -4.695312 3.707031 -4.8125 3.34375 -4.8125 C 3.0625 -4.8125 2.8125 -4.738281 2.59375 -4.59375 C 2.375 -4.445312 2.125 -4.238281 1.84375 -3.96875 L 1.84375 0 Z M 0.921875 0 "/></g></g></g><g fill="#000000" fill-opacity="1"><g transform="translate(18.601354, 194.398772)"><g><path d="M 2.765625 2.53125 C 2.429688 2.53125 2.125 2.492188 1.84375 2.421875 C 1.570312 2.359375 1.332031 2.265625 1.125 2.140625 C 0.925781 2.015625 0.769531 1.859375 0.65625 1.671875 C 0.550781 1.492188 0.5 1.285156 0.5 1.046875 C 0.5 0.816406 0.570312 0.59375 0.71875 0.375 C 0.863281 0.164062 1.0625 -0.0195312 1.3125 -0.1875 L 1.3125 -0.234375 C 1.175781 -0.316406 1.0625 -0.429688 0.96875 -0.578125 C 0.875 -0.722656 0.828125 -0.90625 0.828125 -1.125 C 0.828125 -1.351562 0.890625 -1.554688 1.015625 -1.734375 C 1.140625 -1.910156 1.273438 -2.046875 1.421875 -2.140625 L 1.421875 -2.1875 C 1.242188 -2.332031 1.078125 -2.53125 0.921875 -2.78125 C 0.773438 -3.039062 0.703125 -3.332031 0.703125 -3.65625 C 0.703125 -3.957031 0.753906 -4.226562 0.859375 -4.46875 C 0.972656 -4.707031 1.125 -4.910156 1.3125 -5.078125 C 1.5 -5.253906 1.71875 -5.382812 1.96875 -5.46875 C 2.226562 -5.5625 2.492188 -5.609375 2.765625 -5.609375 C 2.921875 -5.609375 3.0625 -5.59375 3.1875 -5.5625 C 3.320312 -5.539062 3.441406 -5.507812 3.546875 -5.46875 L 5.453125 -5.46875 L 5.453125 -4.765625 L 4.328125 -4.765625 C 4.453125 -4.640625 4.554688 -4.476562 4.640625 -4.28125 C 4.734375 -4.082031 4.78125 -3.867188 4.78125 -3.640625 C 4.78125 -3.347656 4.726562 -3.082031 4.625 -2.84375 C 4.519531 -2.601562 4.375 -2.398438 4.1875 -2.234375 C 4.007812 -2.078125 3.796875 -1.953125 3.546875 -1.859375 C 3.304688 -1.773438 3.046875 -1.734375 2.765625 -1.734375 C 2.628906 -1.734375 2.488281 -1.75 2.34375 -1.78125 C 2.207031 -1.820312 2.078125 -1.867188 1.953125 -1.921875 C 1.847656 -1.835938 1.757812 -1.742188 1.6875 -1.640625 C 1.625 -1.546875 1.59375 -1.421875 1.59375 -1.265625 C 1.59375 -1.097656 1.660156 -0.957031 1.796875 -0.84375 C 1.929688 -0.726562 2.1875 -0.671875 2.5625 -0.671875 L 3.625 -0.671875 C 4.257812 -0.671875 4.738281 -0.566406 5.0625 -0.359375 C 5.382812 -0.160156 5.546875 0.164062 5.546875 0.625 C 5.546875 0.882812 5.476562 1.128906 5.34375 1.359375 C 5.21875 1.585938 5.035156 1.785156 4.796875 1.953125 C 4.554688 2.128906 4.265625 2.269531 3.921875 2.375 C 3.578125 2.476562 3.191406 2.53125 2.765625 2.53125 Z M 2.765625 -2.359375 C 2.929688 -2.359375 3.082031 -2.382812 3.21875 -2.4375 C 3.351562 -2.5 3.472656 -2.585938 3.578125 -2.703125 C 3.691406 -2.816406 3.78125 -2.953125 3.84375 -3.109375 C 3.90625 -3.273438 3.9375 -3.457031 3.9375 -3.65625 C 3.9375 -4.0625 3.820312 -4.375 3.59375 -4.59375 C 3.363281 -4.820312 3.085938 -4.9375 2.765625 -4.9375 C 2.441406 -4.9375 2.164062 -4.820312 1.9375 -4.59375 C 1.71875 -4.375 1.609375 -4.0625 1.609375 -3.65625 C 1.609375 -3.457031 1.640625 -3.273438 1.703125 -3.109375 C 1.765625 -2.953125 1.847656 -2.816406 1.953125 -2.703125 C 2.066406 -2.585938 2.191406 -2.5 2.328125 -2.4375 C 2.460938 -2.382812 2.609375 -2.359375 2.765625 -2.359375 Z M 2.90625 1.875 C 3.164062 1.875 3.398438 1.84375 3.609375 1.78125 C 3.828125 1.71875 4.007812 1.632812 4.15625 1.53125 C 4.3125 1.4375 4.429688 1.320312 4.515625 1.1875 C 4.597656 1.050781 4.640625 0.910156 4.640625 0.765625 C 4.640625 0.515625 4.546875 0.335938 4.359375 0.234375 C 4.171875 0.140625 3.894531 0.09375 3.53125 0.09375 L 2.59375 0.09375 C 2.488281 0.09375 2.375 0.0859375 2.25 0.078125 C 2.125 0.0664062 2 0.0390625 1.875 0 C 1.6875 0.144531 1.546875 0.296875 1.453125 0.453125 C 1.359375 0.609375 1.3125 0.765625 1.3125 0.921875 C 1.3125 1.210938 1.453125 1.441406 1.734375 1.609375 C 2.015625 1.785156 2.40625 1.875 2.90625 1.875 Z M 2.90625 1.875 "/></g></g></g><g fill="#000000" fill-opacity="1"><g transform="translate(24.273511, 194.398772)"><g/></g></g><g fill="#000000" fill-opacity="1"><g transform="translate(26.52436, 194.398772)"><g><path d="M 3.0625 0.140625 C 2.539062 0.140625 2.054688 0.0390625 1.609375 -0.15625 C 1.171875 -0.351562 0.789062 -0.617188 0.46875 -0.953125 L 1.03125 -1.609375 C 1.300781 -1.328125 1.613281 -1.101562 1.96875 -0.9375 C 2.320312 -0.769531 2.691406 -0.6875 3.078125 -0.6875 C 3.566406 -0.6875 3.945312 -0.796875 4.21875 -1.015625 C 4.488281 -1.242188 4.625 -1.535156 4.625 -1.890625 C 4.625 -2.078125 4.585938 -2.234375 4.515625 -2.359375 C 4.453125 -2.492188 4.363281 -2.609375 4.25 -2.703125 C 4.144531 -2.796875 4.019531 -2.878906 3.875 -2.953125 C 3.726562 -3.035156 3.566406 -3.117188 3.390625 -3.203125 L 2.328125 -3.65625 C 2.160156 -3.738281 1.984375 -3.832031 1.796875 -3.9375 C 1.617188 -4.039062 1.457031 -4.164062 1.3125 -4.3125 C 1.175781 -4.46875 1.0625 -4.644531 0.96875 -4.84375 C 0.875 -5.050781 0.828125 -5.289062 0.828125 -5.5625 C 0.828125 -5.84375 0.882812 -6.101562 1 -6.34375 C 1.125 -6.582031 1.285156 -6.789062 1.484375 -6.96875 C 1.691406 -7.144531 1.9375 -7.28125 2.21875 -7.375 C 2.5 -7.476562 2.8125 -7.53125 3.15625 -7.53125 C 3.59375 -7.53125 4 -7.441406 4.375 -7.265625 C 4.757812 -7.097656 5.082031 -6.878906 5.34375 -6.609375 L 4.828125 -6 C 4.609375 -6.21875 4.359375 -6.390625 4.078125 -6.515625 C 3.804688 -6.640625 3.5 -6.703125 3.15625 -6.703125 C 2.738281 -6.703125 2.40625 -6.601562 2.15625 -6.40625 C 1.90625 -6.21875 1.78125 -5.957031 1.78125 -5.625 C 1.78125 -5.4375 1.816406 -5.28125 1.890625 -5.15625 C 1.960938 -5.039062 2.054688 -4.9375 2.171875 -4.84375 C 2.296875 -4.75 2.425781 -4.664062 2.5625 -4.59375 C 2.707031 -4.519531 2.859375 -4.453125 3.015625 -4.390625 L 4.0625 -3.9375 C 4.269531 -3.851562 4.46875 -3.75 4.65625 -3.625 C 4.84375 -3.507812 5.003906 -3.375 5.140625 -3.21875 C 5.273438 -3.070312 5.378906 -2.894531 5.453125 -2.6875 C 5.535156 -2.476562 5.578125 -2.238281 5.578125 -1.96875 C 5.578125 -1.675781 5.519531 -1.398438 5.40625 -1.140625 C 5.289062 -0.890625 5.125 -0.664062 4.90625 -0.46875 C 4.6875 -0.28125 4.421875 -0.128906 4.109375 -0.015625 C 3.804688 0.0859375 3.457031 0.140625 3.0625 0.140625 Z M 3.0625 0.140625 "/></g></g></g><g fill="#000000" fill-opacity="1"><g transform="translate(32.534145, 194.398772)"><g><path d="M 3.046875 0.140625 C 2.710938 0.140625 2.394531 0.078125 2.09375 -0.046875 C 1.789062 -0.179688 1.519531 -0.367188 1.28125 -0.609375 C 1.050781 -0.859375 0.863281 -1.160156 0.71875 -1.515625 C 0.582031 -1.867188 0.515625 -2.269531 0.515625 -2.71875 C 0.515625 -3.175781 0.582031 -3.582031 0.71875 -3.9375 C 0.863281 -4.300781 1.050781 -4.609375 1.28125 -4.859375 C 1.519531 -5.109375 1.789062 -5.296875 2.09375 -5.421875 C 2.394531 -5.546875 2.710938 -5.609375 3.046875 -5.609375 C 3.390625 -5.609375 3.710938 -5.546875 4.015625 -5.421875 C 4.316406 -5.296875 4.582031 -5.109375 4.8125 -4.859375 C 5.050781 -4.609375 5.238281 -4.300781 5.375 -3.9375 C 5.519531 -3.582031 5.59375 -3.175781 5.59375 -2.71875 C 5.59375 -2.269531 5.519531 -1.867188 5.375 -1.515625 C 5.238281 -1.160156 5.050781 -0.859375 4.8125 -0.609375 C 4.582031 -0.367188 4.316406 -0.179688 4.015625 -0.046875 C 3.710938 0.078125 3.390625 0.140625 3.046875 0.140625 Z M 3.046875 -0.625 C 3.285156 -0.625 3.5 -0.675781 3.6875 -0.78125 C 3.882812 -0.882812 4.050781 -1.023438 4.1875 -1.203125 C 4.332031 -1.390625 4.441406 -1.609375 4.515625 -1.859375 C 4.585938 -2.117188 4.625 -2.40625 4.625 -2.71875 C 4.625 -3.039062 4.585938 -3.332031 4.515625 -3.59375 C 4.441406 -3.851562 4.332031 -4.078125 4.1875 -4.265625 C 4.050781 -4.453125 3.882812 -4.59375 3.6875 -4.6875 C 3.5 -4.789062 3.285156 -4.84375 3.046875 -4.84375 C 2.816406 -4.84375 2.601562 -4.789062 2.40625 -4.6875 C 2.21875 -4.59375 2.050781 -4.453125 1.90625 -4.265625 C 1.769531 -4.078125 1.660156 -3.851562 1.578125 -3.59375 C 1.503906 -3.332031 1.46875 -3.039062 1.46875 -2.71875 C 1.46875 -2.40625 1.503906 -2.117188 1.578125 -1.859375 C 1.660156 -1.609375 1.769531 -1.390625 1.90625 -1.203125 C 2.050781 -1.023438 2.21875 -0.882812 2.40625 -0.78125 C 2.601562 -0.675781 2.816406 -0.625 3.046875 -0.625 Z M 3.046875 -0.625 "/></g></g></g><g fill="#000000" fill-opacity="1"><g transform="translate(38.63396, 194.398772)"><g><path d="M 3.046875 0.140625 C 2.710938 0.140625 2.394531 0.078125 2.09375 -0.046875 C 1.789062 -0.179688 1.519531 -0.367188 1.28125 -0.609375 C 1.050781 -0.859375 0.863281 -1.160156 0.71875 -1.515625 C 0.582031 -1.867188 0.515625 -2.269531 0.515625 -2.71875 C 0.515625 -3.175781 0.582031 -3.582031 0.71875 -3.9375 C 0.863281 -4.300781 1.050781 -4.609375 1.28125 -4.859375 C 1.519531 -5.109375 1.789062 -5.296875 2.09375 -5.421875 C 2.394531 -5.546875 2.710938 -5.609375 3.046875 -5.609375 C 3.390625 -5.609375 3.710938 -5.546875 4.015625 -5.421875 C 4.316406 -5.296875 4.582031 -5.109375 4.8125 -4.859375 C 5.050781 -4.609375 5.238281 -4.300781 5.375 -3.9375 C 5.519531 -3.582031 5.59375 -3.175781 5.59375 -2.71875 C 5.59375 -2.269531 5.519531 -1.867188 5.375 -1.515625 C 5.238281 -1.160156 5.050781 -0.859375 4.8125 -0.609375 C 4.582031 -0.367188 4.316406 -0.179688 4.015625 -0.046875 C 3.710938 0.078125 3.390625 0.140625 3.046875 0.140625 Z M 3.046875 -0.625 C 3.285156 -0.625 3.5 -0.675781 3.6875 -0.78125 C 3.882812 -0.882812 4.050781 -1.023438 4.1875 -1.203125 C 4.332031 -1.390625 4.441406 -1.609375 4.515625 -1.859375 C 4.585938 -2.117188 4.625 -2.40625 4.625 -2.71875 C 4.625 -3.039062 4.585938 -3.332031 4.515625 -3.59375 C 4.441406 -3.851562 4.332031 -4.078125 4.1875 -4.265625 C 4.050781 -4.453125 3.882812 -4.59375 3.6875 -4.6875 C 3.5 -4.789062 3.285156 -4.84375 3.046875 -4.84375 C 2.816406 -4.84375 2.601562 -4.789062 2.40625 -4.6875 C 2.21875 -4.59375 2.050781 -4.453125 1.90625 -4.265625 C 1.769531 -4.078125 1.660156 -3.851562 1.578125 -3.59375 C 1.503906 -3.332031 1.46875 -3.039062 1.46875 -2.71875 C 1.46875 -2.40625 1.503906 -2.117188 1.578125 -1.859375 C 1.660156 -1.609375 1.769531 -1.390625 1.90625 -1.203125 C 2.050781 -1.023438 2.21875 -0.882812 2.40625 -0.78125 C 2.601562 -0.675781 2.816406 -0.625 3.046875 -0.625 Z M 3.046875 -0.625 "/></g></g></g><g fill="#000000" fill-opacity="1"><g transform="translate(44.733775, 194.398772)"><g><path d="M 0.921875 0 L 0.921875 -5.46875 L 1.6875 -5.46875 L 1.765625 -4.6875 L 1.796875 -4.6875 C 2.066406 -4.945312 2.34375 -5.164062 2.625 -5.34375 C 2.914062 -5.519531 3.253906 -5.609375 3.640625 -5.609375 C 4.210938 -5.609375 4.632812 -5.425781 4.90625 -5.0625 C 5.175781 -4.707031 5.3125 -4.175781 5.3125 -3.46875 L 5.3125 0 L 4.375 0 L 4.375 -3.34375 C 4.375 -3.863281 4.289062 -4.238281 4.125 -4.46875 C 3.96875 -4.695312 3.707031 -4.8125 3.34375 -4.8125 C 3.0625 -4.8125 2.8125 -4.738281 2.59375 -4.59375 C 2.375 -4.445312 2.125 -4.238281 1.84375 -3.96875 L 1.84375 0 Z M 0.921875 0 "/></g></g></g><g fill="#000000" fill-opacity="1"><g transform="translate(19.047709, 267.621705)"><g><path d="M 3.8125 0.140625 C 3.34375 0.140625 2.910156 0.0507812 2.515625 -0.125 C 2.128906 -0.300781 1.789062 -0.550781 1.5 -0.875 C 1.207031 -1.195312 0.976562 -1.597656 0.8125 -2.078125 C 0.65625 -2.554688 0.578125 -3.09375 0.578125 -3.6875 C 0.578125 -4.28125 0.660156 -4.8125 0.828125 -5.28125 C 0.992188 -5.757812 1.222656 -6.164062 1.515625 -6.5 C 1.804688 -6.832031 2.148438 -7.085938 2.546875 -7.265625 C 2.953125 -7.441406 3.390625 -7.53125 3.859375 -7.53125 C 4.316406 -7.53125 4.710938 -7.4375 5.046875 -7.25 C 5.390625 -7.0625 5.671875 -6.847656 5.890625 -6.609375 L 5.390625 -6 C 5.191406 -6.207031 4.96875 -6.375 4.71875 -6.5 C 4.46875 -6.632812 4.1875 -6.703125 3.875 -6.703125 C 3.519531 -6.703125 3.195312 -6.628906 2.90625 -6.484375 C 2.625 -6.347656 2.378906 -6.148438 2.171875 -5.890625 C 1.972656 -5.640625 1.816406 -5.328125 1.703125 -4.953125 C 1.597656 -4.585938 1.546875 -4.175781 1.546875 -3.71875 C 1.546875 -3.25 1.597656 -2.828125 1.703125 -2.453125 C 1.816406 -2.085938 1.972656 -1.769531 2.171875 -1.5 C 2.367188 -1.238281 2.609375 -1.035156 2.890625 -0.890625 C 3.171875 -0.753906 3.488281 -0.6875 3.84375 -0.6875 C 4.195312 -0.6875 4.507812 -0.757812 4.78125 -0.90625 C 5.050781 -1.050781 5.304688 -1.253906 5.546875 -1.515625 L 6.078125 -0.9375 C 5.773438 -0.59375 5.441406 -0.328125 5.078125 -0.140625 C 4.710938 0.046875 4.289062 0.140625 3.8125 0.140625 Z M 3.8125 0.140625 "/></g></g></g><g fill="#000000" fill-opacity="1"><g transform="translate(25.473897, 267.621705)"><g><path d="M 1.90625 0.140625 C 1.550781 0.140625 1.296875 0.0351562 1.140625 -0.171875 C 0.992188 -0.390625 0.921875 -0.703125 0.921875 -1.109375 L 0.921875 -8.015625 L 1.84375 -8.015625 L 1.84375 -1.03125 C 1.84375 -0.882812 1.867188 -0.78125 1.921875 -0.71875 C 1.972656 -0.65625 2.035156 -0.625 2.109375 -0.625 C 2.140625 -0.625 2.164062 -0.625 2.1875 -0.625 C 2.21875 -0.625 2.257812 -0.632812 2.3125 -0.65625 L 2.4375 0.046875 C 2.375 0.078125 2.300781 0.0976562 2.21875 0.109375 C 2.132812 0.128906 2.03125 0.140625 1.90625 0.140625 Z M 1.90625 0.140625 "/></g></g></g><g fill="#000000" fill-opacity="1"><g transform="translate(28.343733, 267.621705)"><g><path d="M 3.046875 0.140625 C 2.710938 0.140625 2.394531 0.078125 2.09375 -0.046875 C 1.789062 -0.179688 1.519531 -0.367188 1.28125 -0.609375 C 1.050781 -0.859375 0.863281 -1.160156 0.71875 -1.515625 C 0.582031 -1.867188 0.515625 -2.269531 0.515625 -2.71875 C 0.515625 -3.175781 0.582031 -3.582031 0.71875 -3.9375 C 0.863281 -4.300781 1.050781 -4.609375 1.28125 -4.859375 C 1.519531 -5.109375 1.789062 -5.296875 2.09375 -5.421875 C 2.394531 -5.546875 2.710938 -5.609375 3.046875 -5.609375 C 3.390625 -5.609375 3.710938 -5.546875 4.015625 -5.421875 C 4.316406 -5.296875 4.582031 -5.109375 4.8125 -4.859375 C 5.050781 -4.609375 5.238281 -4.300781 5.375 -3.9375 C 5.519531 -3.582031 5.59375 -3.175781 5.59375 -2.71875 C 5.59375 -2.269531 5.519531 -1.867188 5.375 -1.515625 C 5.238281 -1.160156 5.050781 -0.859375 4.8125 -0.609375 C 4.582031 -0.367188 4.316406 -0.179688 4.015625 -0.046875 C 3.710938 0.078125 3.390625 0.140625 3.046875 0.140625 Z M 3.046875 -0.625 C 3.285156 -0.625 3.5 -0.675781 3.6875 -0.78125 C 3.882812 -0.882812 4.050781 -1.023438 4.1875 -1.203125 C 4.332031 -1.390625 4.441406 -1.609375 4.515625 -1.859375 C 4.585938 -2.117188 4.625 -2.40625 4.625 -2.71875 C 4.625 -3.039062 4.585938 -3.332031 4.515625 -3.59375 C 4.441406 -3.851562 4.332031 -4.078125 4.1875 -4.265625 C 4.050781 -4.453125 3.882812 -4.59375 3.6875 -4.6875 C 3.5 -4.789062 3.285156 -4.84375 3.046875 -4.84375 C 2.816406 -4.84375 2.601562 -4.789062 2.40625 -4.6875 C 2.21875 -4.59375 2.050781 -4.453125 1.90625 -4.265625 C 1.769531 -4.078125 1.660156 -3.851562 1.578125 -3.59375 C 1.503906 -3.332031 1.46875 -3.039062 1.46875 -2.71875 C 1.46875 -2.40625 1.503906 -2.117188 1.578125 -1.859375 C 1.660156 -1.609375 1.769531 -1.390625 1.90625 -1.203125 C 2.050781 -1.023438 2.21875 -0.882812 2.40625 -0.78125 C 2.601562 -0.675781 2.816406 -0.625 3.046875 -0.625 Z M 3.046875 -0.625 "/></g></g></g><g fill="#000000" fill-opacity="1"><g transform="translate(34.443548, 267.621705)"><g><path d="M 2.359375 0.140625 C 1.960938 0.140625 1.585938 0.0664062 1.234375 -0.078125 C 0.878906 -0.222656 0.570312 -0.40625 0.3125 -0.625 L 0.78125 -1.234375 C 1.019531 -1.046875 1.265625 -0.890625 1.515625 -0.765625 C 1.765625 -0.640625 2.054688 -0.578125 2.390625 -0.578125 C 2.742188 -0.578125 3.007812 -0.660156 3.1875 -0.828125 C 3.375 -0.992188 3.46875 -1.195312 3.46875 -1.4375 C 3.46875 -1.582031 3.429688 -1.707031 3.359375 -1.8125 C 3.285156 -1.914062 3.1875 -2.003906 3.0625 -2.078125 C 2.945312 -2.160156 2.8125 -2.234375 2.65625 -2.296875 C 2.507812 -2.359375 2.363281 -2.421875 2.21875 -2.484375 C 2.019531 -2.546875 1.820312 -2.617188 1.625 -2.703125 C 1.4375 -2.796875 1.265625 -2.898438 1.109375 -3.015625 C 0.953125 -3.140625 0.820312 -3.285156 0.71875 -3.453125 C 0.625 -3.617188 0.578125 -3.820312 0.578125 -4.0625 C 0.578125 -4.269531 0.617188 -4.46875 0.703125 -4.65625 C 0.796875 -4.851562 0.921875 -5.019531 1.078125 -5.15625 C 1.242188 -5.300781 1.441406 -5.410156 1.671875 -5.484375 C 1.910156 -5.566406 2.175781 -5.609375 2.46875 -5.609375 C 2.8125 -5.609375 3.128906 -5.546875 3.421875 -5.421875 C 3.710938 -5.304688 3.960938 -5.160156 4.171875 -4.984375 L 3.734375 -4.40625 C 3.546875 -4.550781 3.347656 -4.664062 3.140625 -4.75 C 2.941406 -4.84375 2.722656 -4.890625 2.484375 -4.890625 C 2.128906 -4.890625 1.867188 -4.8125 1.703125 -4.65625 C 1.546875 -4.5 1.46875 -4.3125 1.46875 -4.09375 C 1.46875 -3.96875 1.5 -3.859375 1.5625 -3.765625 C 1.632812 -3.671875 1.726562 -3.585938 1.84375 -3.515625 C 1.957031 -3.441406 2.085938 -3.378906 2.234375 -3.328125 C 2.378906 -3.273438 2.53125 -3.21875 2.6875 -3.15625 C 2.882812 -3.082031 3.082031 -3.003906 3.28125 -2.921875 C 3.476562 -2.835938 3.65625 -2.734375 3.8125 -2.609375 C 3.976562 -2.484375 4.109375 -2.328125 4.203125 -2.140625 C 4.304688 -1.960938 4.359375 -1.75 4.359375 -1.5 C 4.359375 -1.269531 4.3125 -1.054688 4.21875 -0.859375 C 4.132812 -0.671875 4.007812 -0.5 3.84375 -0.34375 C 3.675781 -0.195312 3.46875 -0.0820312 3.21875 0 C 2.96875 0.09375 2.679688 0.140625 2.359375 0.140625 Z M 2.359375 0.140625 "/></g></g></g><g fill="#000000" fill-opacity="1"><g transform="translate(39.159088, 267.621705)"><g><path d="M 3.140625 0.140625 C 2.773438 0.140625 2.429688 0.0703125 2.109375 -0.0625 C 1.796875 -0.195312 1.519531 -0.382812 1.28125 -0.625 C 1.039062 -0.863281 0.851562 -1.160156 0.71875 -1.515625 C 0.582031 -1.867188 0.515625 -2.269531 0.515625 -2.71875 C 0.515625 -3.175781 0.582031 -3.582031 0.71875 -3.9375 C 0.863281 -4.289062 1.050781 -4.59375 1.28125 -4.84375 C 1.507812 -5.09375 1.769531 -5.28125 2.0625 -5.40625 C 2.351562 -5.539062 2.65625 -5.609375 2.96875 -5.609375 C 3.320312 -5.609375 3.632812 -5.546875 3.90625 -5.421875 C 4.175781 -5.304688 4.398438 -5.132812 4.578125 -4.90625 C 4.765625 -4.6875 4.90625 -4.414062 5 -4.09375 C 5.101562 -3.78125 5.15625 -3.429688 5.15625 -3.046875 C 5.15625 -2.941406 5.148438 -2.84375 5.140625 -2.75 C 5.140625 -2.65625 5.132812 -2.578125 5.125 -2.515625 L 1.4375 -2.515625 C 1.46875 -1.929688 1.644531 -1.46875 1.96875 -1.125 C 2.300781 -0.78125 2.726562 -0.609375 3.25 -0.609375 C 3.519531 -0.609375 3.765625 -0.644531 3.984375 -0.71875 C 4.203125 -0.800781 4.414062 -0.90625 4.625 -1.03125 L 4.953125 -0.421875 C 4.703125 -0.273438 4.429688 -0.144531 4.140625 -0.03125 C 3.847656 0.0820312 3.515625 0.140625 3.140625 0.140625 Z M 1.421875 -3.171875 L 4.34375 -3.171875 C 4.34375 -3.734375 4.222656 -4.15625 3.984375 -4.4375 C 3.753906 -4.726562 3.425781 -4.875 3 -4.875 C 2.800781 -4.875 2.613281 -4.835938 2.4375 -4.765625 C 2.257812 -4.691406 2.097656 -4.582031 1.953125 -4.4375 C 1.816406 -4.289062 1.703125 -4.109375 1.609375 -3.890625 C 1.515625 -3.679688 1.453125 -3.441406 1.421875 -3.171875 Z M 1.421875 -3.171875 "/></g></g></g><g fill="#000000" fill-opacity="1"><g transform="translate(44.741203, 267.621705)"><g><path d="M 2.796875 0.140625 C 2.097656 0.140625 1.546875 -0.109375 1.140625 -0.609375 C 0.734375 -1.109375 0.53125 -1.8125 0.53125 -2.71875 C 0.53125 -3.164062 0.59375 -3.566406 0.71875 -3.921875 C 0.851562 -4.285156 1.03125 -4.585938 1.25 -4.828125 C 1.46875 -5.078125 1.71875 -5.269531 2 -5.40625 C 2.289062 -5.539062 2.59375 -5.609375 2.90625 -5.609375 C 3.21875 -5.609375 3.488281 -5.550781 3.71875 -5.4375 C 3.957031 -5.320312 4.195312 -5.171875 4.4375 -4.984375 L 4.390625 -5.921875 L 4.390625 -8.015625 L 5.328125 -8.015625 L 5.328125 0 L 4.5625 0 L 4.484375 -0.640625 L 4.453125 -0.640625 C 4.234375 -0.429688 3.984375 -0.25 3.703125 -0.09375 C 3.421875 0.0625 3.117188 0.140625 2.796875 0.140625 Z M 3 -0.640625 C 3.25 -0.640625 3.488281 -0.703125 3.71875 -0.828125 C 3.945312 -0.953125 4.171875 -1.140625 4.390625 -1.390625 L 4.390625 -4.265625 C 4.160156 -4.472656 3.9375 -4.617188 3.71875 -4.703125 C 3.507812 -4.785156 3.289062 -4.828125 3.0625 -4.828125 C 2.84375 -4.828125 2.632812 -4.773438 2.4375 -4.671875 C 2.25 -4.578125 2.082031 -4.4375 1.9375 -4.25 C 1.800781 -4.070312 1.691406 -3.851562 1.609375 -3.59375 C 1.523438 -3.332031 1.484375 -3.046875 1.484375 -2.734375 C 1.484375 -2.078125 1.613281 -1.5625 1.875 -1.1875 C 2.144531 -0.820312 2.519531 -0.640625 3 -0.640625 Z M 3 -0.640625 "/></g></g></g><g clip-path="url(#d4a4467e08)"><path fill="#97d4ea" d="M 58.171875 11.828125 L 167.125 11.828125 C 167.472656 11.828125 167.816406 11.863281 168.15625 11.929688 C 168.496094 12 168.824219 12.097656 169.144531 12.230469 C 169.464844 12.363281 169.769531 12.527344 170.054688 12.71875 C 170.34375 12.910156 170.609375 13.128906 170.855469 13.375 C 171.097656 13.617188 171.316406 13.886719 171.511719 14.171875 C 171.703125 14.460938 171.863281 14.765625 171.996094 15.085938 C 172.128906 15.402344 172.230469 15.734375 172.296875 16.074219 C 172.363281 16.414062 172.398438 16.753906 172.398438 17.101562 L 172.398438 72.457031 C 172.398438 72.804688 172.363281 73.148438 172.296875 73.488281 C 172.230469 73.828125 172.128906 74.15625 171.996094 74.476562 C 171.863281 74.796875 171.703125 75.097656 171.511719 75.386719 C 171.316406 75.675781 171.097656 75.941406 170.855469 76.1875 C 170.609375 76.429688 170.34375 76.648438 170.054688 76.839844 C 169.769531 77.035156 169.464844 77.195312 169.144531 77.328125 C 168.824219 77.460938 168.496094 77.5625 168.15625 77.628906 C 167.816406 77.695312 167.472656 77.730469 167.125 77.730469 L 58.171875 77.730469 C 57.824219 77.730469 57.480469 77.695312 57.144531 77.628906 C 56.804688 77.5625 56.472656 77.460938 56.152344 77.328125 C 55.832031 77.195312 55.53125 77.035156 55.242188 76.839844 C 54.953125 76.648438 54.6875 76.429688 54.441406 76.1875 C 54.199219 75.941406 53.980469 75.675781 53.789062 75.386719 C 53.59375 75.097656 53.433594 74.796875 53.300781 74.476562 C 53.167969 74.15625 53.066406 73.828125 53 73.488281 C 52.933594 73.148438 52.898438 72.804688 52.898438 72.457031 L 52.898438 17.101562 C 52.898438 16.753906 52.933594 16.414062 53 16.074219 C 53.066406 15.734375 53.167969 15.402344 53.300781 15.085938 C 53.433594 14.765625 53.59375 14.460938 53.789062 14.171875 C 53.980469 13.886719 54.199219 13.617188 54.441406 13.375 C 54.6875 13.128906 54.953125 12.910156 55.242188 12.71875 C 55.53125 12.527344 55.832031 12.363281 56.152344 12.230469 C 56.472656 12.097656 56.804688 12 57.144531 11.929688 C 57.480469 11.863281 57.824219 11.828125 58.171875 11.828125 Z M 58.171875 11.828125 " fill-opacity="1" fill-rule="nonzero"/></g><g clip-path="url(#4ac4bea455)"><path fill="#82e2c2" d="M 58.171875 85.050781 L 238.519531 85.050781 C 238.867188 85.050781 239.207031 85.085938 239.546875 85.152344 C 239.886719 85.222656 240.21875 85.320312 240.535156 85.453125 C 240.855469 85.585938 241.160156 85.75 241.449219 85.941406 C 241.734375 86.132812 242.003906 86.351562 242.246094 86.597656 C 242.492188 86.839844 242.710938 87.109375 242.902344 87.394531 C 243.09375 87.683594 243.257812 87.988281 243.390625 88.308594 C 243.523438 88.625 243.621094 88.957031 243.691406 89.296875 C 243.757812 89.636719 243.792969 89.976562 243.792969 90.324219 L 243.792969 145.679688 C 243.792969 146.027344 243.757812 146.371094 243.691406 146.710938 C 243.621094 147.050781 243.523438 147.378906 243.390625 147.699219 C 243.257812 148.019531 243.09375 148.324219 242.902344 148.609375 C 242.710938 148.898438 242.492188 149.164062 242.246094 149.410156 C 242.003906 149.652344 241.734375 149.871094 241.449219 150.066406 C 241.160156 150.257812 240.855469 150.417969 240.535156 150.550781 C 240.21875 150.683594 239.886719 150.785156 239.546875 150.851562 C 239.207031 150.917969 238.867188 150.953125 238.519531 150.953125 L 58.171875 150.953125 C 57.824219 150.953125 57.480469 150.917969 57.144531 150.851562 C 56.804688 150.785156 56.472656 150.683594 56.152344 150.550781 C 55.832031 150.417969 55.53125 150.257812 55.242188 150.066406 C 54.953125 149.871094 54.6875 149.652344 54.441406 149.410156 C 54.199219 149.164062 53.980469 148.898438 53.789062 148.609375 C 53.59375 148.324219 53.433594 148.019531 53.300781 147.699219 C 53.167969 147.378906 53.066406 147.050781 53 146.710938 C 52.933594 146.371094 52.898438 146.027344 52.898438 145.679688 L 52.898438 90.324219 C 52.898438 89.976562 52.933594 89.636719 53 89.296875 C 53.066406 88.957031 53.167969 88.625 53.300781 88.308594 C 53.433594 87.988281 53.59375 87.683594 53.789062 87.394531 C 53.980469 87.109375 54.199219 86.839844 54.441406 86.597656 C 54.6875 86.351562 54.953125 86.132812 55.242188 85.941406 C 55.53125 85.75 55.832031 85.585938 56.152344 85.453125 C 56.472656 85.320312 56.804688 85.222656 57.144531 85.152344 C 57.480469 85.085938 57.824219 85.050781 58.171875 85.050781 Z M 58.171875 85.050781 " fill-opacity="1" fill-rule="nonzero"/></g><g clip-path="url(#e5fee8b175)"><path fill="#ffbc78" d="M 58.171875 158.277344 L 110.011719 158.277344 C 110.359375 158.277344 110.703125 158.308594 111.042969 158.375 C 111.382812 158.445312 111.710938 158.542969 112.03125 158.675781 C 112.351562 158.808594 112.652344 158.972656 112.941406 159.164062 C 113.230469 159.355469 113.496094 159.574219 113.742188 159.820312 C 113.984375 160.0625 114.203125 160.332031 114.398438 160.617188 C 114.589844 160.90625 114.75 161.210938 114.882812 161.53125 C 115.015625 161.851562 115.117188 162.179688 115.183594 162.519531 C 115.25 162.859375 115.285156 163.203125 115.285156 163.546875 L 115.285156 218.902344 C 115.285156 219.25 115.25 219.59375 115.183594 219.933594 C 115.117188 220.273438 115.015625 220.601562 114.882812 220.921875 C 114.75 221.242188 114.589844 221.546875 114.398438 221.832031 C 114.203125 222.121094 113.984375 222.386719 113.742188 222.632812 C 113.496094 222.875 113.230469 223.09375 112.941406 223.289062 C 112.652344 223.480469 112.351562 223.640625 112.03125 223.773438 C 111.710938 223.90625 111.382812 224.007812 111.042969 224.074219 C 110.703125 224.140625 110.359375 224.175781 110.011719 224.175781 L 58.171875 224.175781 C 57.824219 224.175781 57.480469 224.140625 57.144531 224.074219 C 56.804688 224.007812 56.472656 223.90625 56.152344 223.773438 C 55.832031 223.640625 55.53125 223.480469 55.242188 223.289062 C 54.953125 223.09375 54.6875 222.875 54.441406 222.632812 C 54.199219 222.386719 53.980469 222.121094 53.789062 221.832031 C 53.59375 221.546875 53.433594 221.242188 53.300781 220.921875 C 53.167969 220.601562 53.066406 220.273438 53 219.933594 C 52.933594 219.59375 52.898438 219.25 52.898438 218.902344 L 52.898438 163.546875 C 52.898438 163.203125 52.933594 162.859375 53 162.519531 C 53.066406 162.179688 53.167969 161.851562 53.300781 161.53125 C 53.433594 161.210938 53.59375 160.90625 53.789062 160.617188 C 53.980469 160.332031 54.199219 160.0625 54.441406 159.820312 C 54.6875 159.574219 54.953125 159.355469 55.242188 159.164062 C 55.53125 158.972656 55.832031 158.808594 56.152344 158.675781 C 56.472656 158.542969 56.804688 158.445312 57.144531 158.375 C 57.480469 158.308594 57.824219 158.277344 58.171875 158.277344 Z M 58.171875 158.277344 " fill-opacity="1" fill-rule="nonzero"/></g><g clip-path="url(#36435c3108)"><path fill="#f2938c" d="M 58.171875 231.5 L 338.46875 231.5 C 338.816406 231.5 339.15625 231.53125 339.496094 231.601562 C 339.835938 231.667969 340.167969 231.765625 340.484375 231.898438 C 340.804688 232.03125 341.109375 232.195312 341.398438 232.386719 C 341.683594 232.578125 341.953125 232.796875 342.195312 233.042969 C 342.441406 233.289062 342.660156 233.554688 342.851562 233.839844 C 343.042969 234.128906 343.207031 234.433594 343.339844 234.753906 C 343.472656 235.074219 343.570312 235.402344 343.640625 235.742188 C 343.707031 236.082031 343.742188 236.425781 343.742188 236.769531 L 343.742188 292.128906 C 343.742188 292.472656 343.707031 292.816406 343.640625 293.15625 C 343.570312 293.496094 343.472656 293.824219 343.339844 294.144531 C 343.207031 294.464844 343.042969 294.769531 342.851562 295.054688 C 342.660156 295.34375 342.441406 295.609375 342.195312 295.855469 C 341.953125 296.101562 341.683594 296.316406 341.398438 296.511719 C 341.109375 296.703125 340.804688 296.863281 340.484375 296.996094 C 340.167969 297.128906 339.835938 297.230469 339.496094 297.296875 C 339.15625 297.367188 338.816406 297.398438 338.46875 297.398438 L 58.171875 297.398438 C 57.824219 297.398438 57.480469 297.367188 57.144531 297.296875 C 56.804688 297.230469 56.472656 297.128906 56.152344 296.996094 C 55.832031 296.863281 55.53125 296.703125 55.242188 296.511719 C 54.953125 296.316406 54.6875 296.101562 54.441406 295.855469 C 54.199219 295.609375 53.980469 295.34375 53.789062 295.054688 C 53.59375 294.769531 53.433594 294.464844 53.300781 294.144531 C 53.167969 293.824219 53.066406 293.496094 53 293.15625 C 52.933594 292.816406 52.898438 292.472656 52.898438 292.128906 L 52.898438 236.769531 C 52.898438 236.425781 52.933594 236.082031 53 235.742188 C 53.066406 235.402344 53.167969 235.074219 53.300781 234.753906 C 53.433594 234.433594 53.59375 234.128906 53.789062 233.839844 C 53.980469 233.554688 54.199219 233.289062 54.441406 233.042969 C 54.6875 232.796875 54.953125 232.578125 55.242188 232.386719 C 55.53125 232.195312 55.832031 232.03125 56.152344 231.898438 C 56.472656 231.765625 56.804688 231.667969 57.144531 231.601562 C 57.480469 231.53125 57.824219 231.5 58.171875 231.5 Z M 58.171875 231.5 " fill-opacity="1" fill-rule="nonzero"/></g><g fill="#000000" fill-opacity="1"><g transform="translate(112.496285, 48.343845)"><g><path d="M 2.8125 0.140625 C 2.476562 0.140625 2.164062 0.09375 1.875 0 C 1.582031 -0.101562 1.332031 -0.242188 1.125 -0.421875 C 0.925781 -0.597656 0.765625 -0.804688 0.640625 -1.046875 C 0.523438 -1.285156 0.46875 -1.550781 0.46875 -1.84375 C 0.46875 -2.070312 0.503906 -2.285156 0.578125 -2.484375 C 0.660156 -2.679688 0.757812 -2.859375 0.875 -3.015625 C 1 -3.179688 1.140625 -3.328125 1.296875 -3.453125 C 1.460938 -3.578125 1.632812 -3.6875 1.8125 -3.78125 L 1.8125 -3.8125 C 1.550781 -4 1.316406 -4.226562 1.109375 -4.5 C 0.910156 -4.769531 0.8125 -5.09375 0.8125 -5.46875 C 0.8125 -5.75 0.863281 -6 0.96875 -6.21875 C 1.070312 -6.445312 1.210938 -6.640625 1.390625 -6.796875 C 1.578125 -6.960938 1.789062 -7.09375 2.03125 -7.1875 C 2.28125 -7.28125 2.550781 -7.328125 2.84375 -7.328125 C 3.164062 -7.328125 3.445312 -7.28125 3.6875 -7.1875 C 3.9375 -7.09375 4.148438 -6.957031 4.328125 -6.78125 C 4.503906 -6.613281 4.640625 -6.410156 4.734375 -6.171875 C 4.828125 -5.941406 4.875 -5.6875 4.875 -5.40625 C 4.875 -5.21875 4.84375 -5.035156 4.78125 -4.859375 C 4.71875 -4.691406 4.640625 -4.53125 4.546875 -4.375 C 4.453125 -4.226562 4.347656 -4.09375 4.234375 -3.96875 C 4.117188 -3.851562 4.003906 -3.753906 3.890625 -3.671875 L 3.890625 -3.625 C 4.046875 -3.539062 4.195312 -3.4375 4.34375 -3.3125 C 4.5 -3.195312 4.632812 -3.066406 4.75 -2.921875 C 4.863281 -2.773438 4.957031 -2.609375 5.03125 -2.421875 C 5.101562 -2.234375 5.140625 -2.019531 5.140625 -1.78125 C 5.140625 -1.507812 5.082031 -1.253906 4.96875 -1.015625 C 4.851562 -0.785156 4.691406 -0.582031 4.484375 -0.40625 C 4.285156 -0.238281 4.039062 -0.101562 3.75 0 C 3.46875 0.09375 3.15625 0.140625 2.8125 0.140625 Z M 3.328125 -3.921875 C 3.566406 -4.140625 3.75 -4.367188 3.875 -4.609375 C 4.007812 -4.847656 4.078125 -5.097656 4.078125 -5.359375 C 4.078125 -5.722656 3.96875 -6.023438 3.75 -6.265625 C 3.53125 -6.515625 3.222656 -6.640625 2.828125 -6.640625 C 2.492188 -6.640625 2.21875 -6.53125 2 -6.3125 C 1.78125 -6.101562 1.671875 -5.820312 1.671875 -5.46875 C 1.671875 -5.25 1.710938 -5.0625 1.796875 -4.90625 C 1.890625 -4.757812 2.015625 -4.625 2.171875 -4.5 C 2.328125 -4.382812 2.503906 -4.28125 2.703125 -4.1875 C 2.898438 -4.09375 3.109375 -4.003906 3.328125 -3.921875 Z M 2.84375 -0.546875 C 3.257812 -0.546875 3.597656 -0.660156 3.859375 -0.890625 C 4.117188 -1.128906 4.25 -1.4375 4.25 -1.8125 C 4.25 -2.039062 4.195312 -2.238281 4.09375 -2.40625 C 3.988281 -2.570312 3.84375 -2.71875 3.65625 -2.84375 C 3.476562 -2.96875 3.269531 -3.078125 3.03125 -3.171875 C 2.800781 -3.273438 2.554688 -3.382812 2.296875 -3.5 C 2.015625 -3.300781 1.773438 -3.070312 1.578125 -2.8125 C 1.390625 -2.550781 1.296875 -2.253906 1.296875 -1.921875 C 1.296875 -1.722656 1.332031 -1.539062 1.40625 -1.375 C 1.488281 -1.207031 1.597656 -1.0625 1.734375 -0.9375 C 1.878906 -0.8125 2.046875 -0.710938 2.234375 -0.640625 C 2.421875 -0.578125 2.625 -0.546875 2.84375 -0.546875 Z M 2.84375 -0.546875 "/></g></g></g><g fill="#000000" fill-opacity="1"><g transform="translate(145.00707, 121.570578)"><g><path d="M 0.890625 0 L 0.890625 -0.765625 L 2.53125 -0.765625 L 2.53125 -6.0625 L 1.234375 -6.0625 L 1.234375 -6.65625 C 1.554688 -6.71875 1.835938 -6.789062 2.078125 -6.875 C 2.328125 -6.957031 2.550781 -7.0625 2.75 -7.1875 L 3.453125 -7.1875 L 3.453125 -0.765625 L 4.953125 -0.765625 L 4.953125 0 Z M 0.890625 0 "/></g></g></g><g fill="#000000" fill-opacity="1"><g transform="translate(150.600442, 121.570578)"><g><path d="M 2.65625 0.140625 C 2.375 0.140625 2.113281 0.109375 1.875 0.046875 C 1.632812 -0.00390625 1.414062 -0.078125 1.21875 -0.171875 C 1.03125 -0.265625 0.859375 -0.367188 0.703125 -0.484375 C 0.546875 -0.609375 0.410156 -0.738281 0.296875 -0.875 L 0.765625 -1.484375 C 0.984375 -1.265625 1.234375 -1.066406 1.515625 -0.890625 C 1.804688 -0.710938 2.171875 -0.625 2.609375 -0.625 C 3.035156 -0.625 3.390625 -0.742188 3.671875 -0.984375 C 3.953125 -1.222656 4.09375 -1.546875 4.09375 -1.953125 C 4.09375 -2.160156 4.050781 -2.351562 3.96875 -2.53125 C 3.894531 -2.707031 3.765625 -2.859375 3.578125 -2.984375 C 3.398438 -3.109375 3.164062 -3.203125 2.875 -3.265625 C 2.582031 -3.335938 2.222656 -3.375 1.796875 -3.375 L 1.796875 -4.09375 C 2.171875 -4.09375 2.488281 -4.125 2.75 -4.1875 C 3.007812 -4.257812 3.21875 -4.351562 3.375 -4.46875 C 3.539062 -4.59375 3.65625 -4.734375 3.71875 -4.890625 C 3.789062 -5.054688 3.828125 -5.238281 3.828125 -5.4375 C 3.828125 -5.78125 3.71875 -6.050781 3.5 -6.25 C 3.28125 -6.457031 2.976562 -6.5625 2.59375 -6.5625 C 2.289062 -6.5625 2.015625 -6.492188 1.765625 -6.359375 C 1.515625 -6.222656 1.28125 -6.046875 1.0625 -5.828125 L 0.5625 -6.421875 C 0.84375 -6.679688 1.148438 -6.894531 1.484375 -7.0625 C 1.816406 -7.238281 2.195312 -7.328125 2.625 -7.328125 C 2.9375 -7.328125 3.222656 -7.285156 3.484375 -7.203125 C 3.753906 -7.117188 3.984375 -7 4.171875 -6.84375 C 4.367188 -6.6875 4.519531 -6.492188 4.625 -6.265625 C 4.726562 -6.046875 4.78125 -5.789062 4.78125 -5.5 C 4.78125 -5.0625 4.660156 -4.703125 4.421875 -4.421875 C 4.179688 -4.148438 3.863281 -3.9375 3.46875 -3.78125 L 3.46875 -3.734375 C 3.6875 -3.679688 3.890625 -3.601562 4.078125 -3.5 C 4.265625 -3.40625 4.425781 -3.28125 4.5625 -3.125 C 4.707031 -2.96875 4.820312 -2.785156 4.90625 -2.578125 C 4.988281 -2.378906 5.03125 -2.160156 5.03125 -1.921875 C 5.03125 -1.597656 4.96875 -1.304688 4.84375 -1.046875 C 4.71875 -0.796875 4.546875 -0.582031 4.328125 -0.40625 C 4.117188 -0.226562 3.867188 -0.09375 3.578125 0 C 3.296875 0.09375 2.988281 0.140625 2.65625 0.140625 Z M 2.65625 0.140625 "/></g></g></g><g fill="#000000" fill-opacity="1"><g transform="translate(83.939346, 194.784921)"><g><path d="M 3.421875 0 L 3.421875 -1.984375 L 0.1875 -1.984375 L 0.1875 -2.59375 L 3.265625 -7.1875 L 4.296875 -7.1875 L 4.296875 -2.71875 L 5.28125 -2.71875 L 5.28125 -1.984375 L 4.296875 -1.984375 L 4.296875 0 Z M 1.171875 -2.71875 L 3.421875 -2.71875 L 3.421875 -4.8125 C 3.421875 -5.007812 3.425781 -5.238281 3.4375 -5.5 C 3.445312 -5.769531 3.460938 -6.003906 3.484375 -6.203125 L 3.4375 -6.203125 C 3.34375 -6.023438 3.25 -5.851562 3.15625 -5.6875 C 3.0625 -5.519531 2.957031 -5.351562 2.84375 -5.1875 Z M 1.171875 -2.71875 "/></g></g></g><g fill="#000000" fill-opacity="1"><g transform="translate(195.378337, 268.011654)"><g><path d="M 0.453125 0 L 0.453125 -0.546875 C 0.992188 -1.085938 1.472656 -1.578125 1.890625 -2.015625 C 2.316406 -2.453125 2.671875 -2.851562 2.953125 -3.21875 C 3.234375 -3.59375 3.445312 -3.9375 3.59375 -4.25 C 3.75 -4.5625 3.828125 -4.863281 3.828125 -5.15625 C 3.828125 -5.570312 3.710938 -5.910156 3.484375 -6.171875 C 3.265625 -6.429688 2.925781 -6.5625 2.46875 -6.5625 C 2.164062 -6.5625 1.882812 -6.476562 1.625 -6.3125 C 1.375 -6.144531 1.144531 -5.941406 0.9375 -5.703125 L 0.40625 -6.234375 C 0.707031 -6.554688 1.023438 -6.816406 1.359375 -7.015625 C 1.703125 -7.222656 2.109375 -7.328125 2.578125 -7.328125 C 3.242188 -7.328125 3.769531 -7.128906 4.15625 -6.734375 C 4.539062 -6.347656 4.734375 -5.835938 4.734375 -5.203125 C 4.734375 -4.867188 4.660156 -4.53125 4.515625 -4.1875 C 4.367188 -3.84375 4.164062 -3.488281 3.90625 -3.125 C 3.644531 -2.757812 3.332031 -2.378906 2.96875 -1.984375 C 2.613281 -1.585938 2.222656 -1.171875 1.796875 -0.734375 C 1.992188 -0.742188 2.195312 -0.753906 2.40625 -0.765625 C 2.613281 -0.785156 2.816406 -0.796875 3.015625 -0.796875 L 5.09375 -0.796875 L 5.09375 0 Z M 0.453125 0 "/></g></g></g><g fill="#000000" fill-opacity="1"><g transform="translate(200.971709, 268.011654)"><g><path d="M 2.8125 0.140625 C 2.082031 0.140625 1.515625 -0.179688 1.109375 -0.828125 C 0.703125 -1.472656 0.5 -2.398438 0.5 -3.609375 C 0.5 -4.828125 0.703125 -5.75 1.109375 -6.375 C 1.515625 -7.007812 2.082031 -7.328125 2.8125 -7.328125 C 3.53125 -7.328125 4.09375 -7.007812 4.5 -6.375 C 4.90625 -5.75 5.109375 -4.828125 5.109375 -3.609375 C 5.109375 -2.398438 4.90625 -1.472656 4.5 -0.828125 C 4.09375 -0.179688 3.53125 0.140625 2.8125 0.140625 Z M 2.8125 -0.609375 C 3.019531 -0.609375 3.207031 -0.664062 3.375 -0.78125 C 3.539062 -0.894531 3.6875 -1.070312 3.8125 -1.3125 C 3.9375 -1.5625 4.03125 -1.875 4.09375 -2.25 C 4.164062 -2.632812 4.203125 -3.085938 4.203125 -3.609375 C 4.203125 -4.140625 4.164062 -4.59375 4.09375 -4.96875 C 4.03125 -5.34375 3.9375 -5.644531 3.8125 -5.875 C 3.6875 -6.113281 3.539062 -6.289062 3.375 -6.40625 C 3.207031 -6.519531 3.019531 -6.578125 2.8125 -6.578125 C 2.59375 -6.578125 2.394531 -6.519531 2.21875 -6.40625 C 2.050781 -6.289062 1.90625 -6.113281 1.78125 -5.875 C 1.65625 -5.644531 1.554688 -5.34375 1.484375 -4.96875 C 1.421875 -4.59375 1.390625 -4.140625 1.390625 -3.609375 C 1.390625 -2.554688 1.519531 -1.789062 1.78125 -1.3125 C 2.039062 -0.84375 2.382812 -0.609375 2.8125 -0.609375 Z M 2.8125 -0.609375 "/></g></g></g></g></g></svg>