<svg xmlns="http://www.w3.org/2000/svg" xmlns:xlink="http://www.w3.org/1999/xlink" width="480" zoomAndPan="magnify" viewBox="0 0 360 359.999987" height="480" preserveAspectRatio="xMidYMid meet" version="1.0"><defs><g/><clipPath id="bdcc2e0c34"><path d="M 0 0 L 360 0 L 360 360 L 0 360 Z M 0 0 " clip-rule="nonzero"/></clipPath><clipPath id="927e6ee571"><path d="M 180 0 C 279.410156 0 360 80.589844 360 180 C 360 279.410156 279.410156 360 180 360 C 80.589844 360 0 279.410156 0 180 C 0 80.589844 80.589844 0 180 0 L 180 54 C 110.414062 54 54 110.414062 54 180 C 54 249.585938 110.414062 306 180 306 C 249.585938 306 306 249.585938 306 180 C 306 110.414062 249.585938 54 180 54 Z M 180 0 " clip-rule="nonzero"/></clipPath><clipPath id="6d5403d8aa"><path d="M 0 0 L 360 0 L 360 360 L 0 360 Z M 0 0 " clip-rule="nonzero"/></clipPath><clipPath id="ca25c839fe"><path d="M 180 0 C 279.410156 0 360 80.589844 360 180 C 360 279.410156 279.410156 360 180 360 C 80.589844 360 0 279.410156 0 180 C 0 80.589844 80.589844 0 180 0 L 180 54 C 110.414062 54 54 110.414062 54 180 C 54 249.585938 110.414062 306 180 306 C 249.585938 306 306 249.585938 306 180 C 306 110.414062 249.585938 54 180 54 Z M 180 0 " clip-rule="nonzero"/></clipPath><clipPath id="5cf5a3ef12"><rect x="0" width="360" y="0" height="360"/></clipPath><clipPath id="783327e6c7"><path d="M 180 0 L 351.5625 0 L 351.5625 142 L 180 142 Z M 180 0 " clip-rule="nonzero"/></clipPath><clipPath id="8c248ac660"><path d="M 180 0 C 257.980469 0 327.09375 50.210938 351.191406 124.375 L 299.832031 141.0625 C 282.964844 89.148438 234.585938 54 180 54 Z M 180 0 " clip-rule="nonzero"/></clipPath><clipPath id="464ce7b109"><path d="M 0 0 L 171.359375 0 L 171.359375 141.121094 L 0 141.121094 Z M 0 0 " clip-rule="nonzero"/></clipPath><clipPath id="09ff7615c5"><path d="M 0 0 C 77.980469 0 147.09375 50.210938 171.191406 124.375 L 119.832031 141.0625 C 102.964844 89.148438 54.585938 54 0 54 Z M 0 0 " clip-rule="nonzero"/></clipPath><clipPath id="56bc714727"><rect x="0" width="172" y="0" height="142"/></clipPath><clipPath id="4f4221a132"><rect x="0" width="360" y="0" height="360"/></clipPath><clipPath id="e351763f5b"><path d="M 142.925781 213.652344 L 179.988281 213.652344 L 179.988281 246.035156 L 142.925781 246.035156 Z M 142.925781 213.652344 " clip-rule="nonzero"/></clipPath><clipPath id="5f0c4e6afa"><path d="M 161.484375 246.035156 L 142.980469 213.652344 L 179.988281 213.652344 Z M 161.484375 246.035156 " clip-rule="nonzero"/></clipPath><clipPath id="39e5410f0a"><path d="M 0.925781 0.652344 L 37.988281 0.652344 L 37.988281 33.035156 L 0.925781 33.035156 Z M 0.925781 0.652344 " clip-rule="nonzero"/></clipPath><clipPath id="0af556cbe0"><path d="M 19.484375 33.035156 L 0.980469 0.652344 L 37.988281 0.652344 Z M 19.484375 33.035156 " clip-rule="nonzero"/></clipPath><clipPath id="abe8b867d0"><rect x="0" width="38" y="0" height="34"/></clipPath></defs><g><g clip-path="url(#4f4221a132)"><g clip-path="url(#bdcc2e0c34)"><g clip-path="url(#927e6ee571)"><g><g clip-path="url(#5cf5a3ef12)"><g clip-path="url(#6d5403d8aa)"><g clip-path="url(#ca25c839fe)"><rect x="-131.04" width="622.08" fill="#d9e8f6" y="-131.039995" height="622.079977" fill-opacity="1"/></g></g></g></g></g></g><g clip-path="url(#783327e6c7)"><g clip-path="url(#8c248ac660)"><g transform="matrix(1, 0, 0, 1, 180, 0)"><g clip-path="url(#56bc714727)"><g clip-path="url(#464ce7b109)"><g clip-path="url(#09ff7615c5)"><rect x="-311.04" width="622.08" fill="#00bde3" y="-131.039995" height="622.079977" fill-opacity="1"/></g></g></g></g></g></g></g></g><g clip-path="url(#e351763f5b)"><g clip-path="url(#5f0c4e6afa)"><g transform="matrix(1, 0, 0, 1, 142, 213)"><g clip-path="url(#abe8b867d0)"><g clip-path="url(#39e5410f0a)"><g clip-path="url(#0af556cbe0)"><path fill="#d83933" d="M 37.988281 33.035156 L 0.925781 33.035156 L 0.925781 0.652344 L 37.988281 0.652344 Z M 37.988281 33.035156 " fill-opacity="1" fill-rule="nonzero"/></g></g></g></g></g></g><g fill="#000000" fill-opacity="1"><g transform="translate(153.59765, 188.404701)"><g><path d="M 26.296875 1.203125 C 23.097656 1.203125 20.144531 0.785156 17.4375 -0.046875 C 14.738281 -0.878906 12.40625 -2.0625 10.4375 -3.59375 C 8.476562 -5.132812 6.945312 -6.96875 5.84375 -9.09375 C 4.75 -11.226562 4.203125 -13.597656 4.203125 -16.203125 C 4.203125 -20.066406 5.25 -23.226562 7.34375 -25.6875 C 9.445312 -28.15625 12 -30.191406 15 -31.796875 L 15 -32.1875 C 12.53125 -34.0625 10.492188 -36.179688 8.890625 -38.546875 C 7.296875 -40.910156 6.5 -43.789062 6.5 -47.1875 C 6.5 -49.851562 7 -52.269531 8 -54.4375 C 9 -56.601562 10.394531 -58.453125 12.1875 -59.984375 C 13.988281 -61.523438 16.140625 -62.691406 18.640625 -63.484375 C 21.140625 -64.285156 23.859375 -64.6875 26.796875 -64.6875 C 29.660156 -64.6875 32.289062 -64.269531 34.6875 -63.4375 C 37.09375 -62.601562 39.128906 -61.4375 40.796875 -59.9375 C 42.460938 -58.4375 43.757812 -56.601562 44.6875 -54.4375 C 45.625 -52.269531 46.09375 -49.890625 46.09375 -47.296875 C 46.09375 -44.222656 45.257812 -41.503906 43.59375 -39.140625 C 41.925781 -36.773438 39.992188 -34.859375 37.796875 -33.390625 L 37.796875 -33 C 40.859375 -31.332031 43.457031 -29.195312 45.59375 -26.59375 C 47.726562 -24 48.796875 -20.597656 48.796875 -16.390625 C 48.796875 -13.859375 48.257812 -11.523438 47.1875 -9.390625 C 46.125 -7.265625 44.609375 -5.414062 42.640625 -3.84375 C 40.671875 -2.28125 38.300781 -1.046875 35.53125 -0.140625 C 32.769531 0.753906 29.691406 1.203125 26.296875 1.203125 Z M 30.296875 -37 C 32.890625 -40 34.1875 -43.097656 34.1875 -46.296875 C 34.1875 -48.765625 33.503906 -50.742188 32.140625 -52.234375 C 30.773438 -53.734375 28.894531 -54.484375 26.5 -54.484375 C 24.5625 -54.484375 22.890625 -53.882812 21.484375 -52.6875 C 20.085938 -51.488281 19.390625 -49.65625 19.390625 -47.1875 C 19.390625 -44.59375 20.390625 -42.5625 22.390625 -41.09375 C 24.390625 -39.625 27.023438 -38.257812 30.296875 -37 Z M 26.59375 -9 C 29.0625 -9 31.09375 -9.644531 32.6875 -10.9375 C 34.289062 -12.238281 35.09375 -14.222656 35.09375 -16.890625 C 35.09375 -18.296875 34.773438 -19.5 34.140625 -20.5 C 33.503906 -21.5 32.585938 -22.414062 31.390625 -23.25 C 30.191406 -24.082031 28.773438 -24.863281 27.140625 -25.59375 C 25.515625 -26.332031 23.703125 -27.132812 21.703125 -28 C 20.296875 -26.664062 19.125 -25.128906 18.1875 -23.390625 C 17.257812 -21.660156 16.796875 -19.828125 16.796875 -17.890625 C 16.796875 -15.097656 17.757812 -12.914062 19.6875 -11.34375 C 21.625 -9.78125 23.925781 -9 26.59375 -9 Z M 26.59375 -9 "/></g></g></g><g fill="#d83933" fill-opacity="1"><g transform="translate(183.94984, 246.896114)"><g><path d="M 2.21875 0 L 2.21875 -5.046875 C 4.65625 -7.316406 6.882812 -9.441406 8.90625 -11.421875 C 10.925781 -13.410156 12.664062 -15.273438 14.125 -17.015625 C 15.582031 -18.753906 16.722656 -20.375 17.546875 -21.875 C 18.367188 -23.375 18.78125 -24.800781 18.78125 -26.15625 C 18.78125 -28.039062 18.300781 -29.472656 17.34375 -30.453125 C 16.382812 -31.429688 15.0625 -31.921875 13.375 -31.921875 C 11.976562 -31.921875 10.738281 -31.53125 9.65625 -30.75 C 8.582031 -29.96875 7.5625 -29.054688 6.59375 -28.015625 L 1.796875 -32.765625 C 3.679688 -34.765625 5.601562 -36.269531 7.5625 -37.28125 C 9.519531 -38.300781 11.859375 -38.8125 14.578125 -38.8125 C 16.460938 -38.8125 18.171875 -38.519531 19.703125 -37.9375 C 21.242188 -37.363281 22.570312 -36.546875 23.6875 -35.484375 C 24.8125 -34.429688 25.675781 -33.160156 26.28125 -31.671875 C 26.882812 -30.191406 27.1875 -28.535156 27.1875 -26.703125 C 27.1875 -25.097656 26.84375 -23.460938 26.15625 -21.796875 C 25.476562 -20.140625 24.566406 -18.484375 23.421875 -16.828125 C 22.285156 -15.171875 20.988281 -13.507812 19.53125 -11.84375 C 18.070312 -10.1875 16.5625 -8.554688 15 -6.953125 C 15.957031 -7.078125 17.023438 -7.1875 18.203125 -7.28125 C 19.390625 -7.382812 20.441406 -7.4375 21.359375 -7.4375 L 29.046875 -7.4375 L 29.046875 0 Z M 2.21875 0 "/></g></g></g></svg>