<svg xmlns="http://www.w3.org/2000/svg" xmlns:xlink="http://www.w3.org/1999/xlink" width="480" zoomAndPan="magnify" viewBox="0 0 360 359.999987" height="480" preserveAspectRatio="xMidYMid meet" version="1.0"><defs><g/><clipPath id="646ed86082"><rect x="0" width="360" y="0" height="339"/></clipPath></defs><rect x="-36" width="432" fill="#ffffff" y="-35.999999" height="431.999984" fill-opacity="1"/><rect x="-36" width="432" fill="#ffffff" y="-35.999999" height="431.999984" fill-opacity="1"/><g transform="matrix(1, 0, 0, 1, 0, 11)"><g clip-path="url(#646ed86082)"><path fill="#f2e4d4" d="M 187.160156 30.375 C 189.992188 30.375 192.816406 30.460938 195.640625 30.636719 C 198.464844 30.808594 201.28125 31.070312 204.089844 31.417969 C 206.898438 31.761719 209.695312 32.195312 212.476562 32.710938 C 215.257812 33.230469 218.019531 33.832031 220.765625 34.519531 C 223.511719 35.207031 226.230469 35.980469 228.929688 36.832031 C 231.625 37.6875 234.292969 38.625 236.933594 39.644531 C 239.574219 40.660156 242.179688 41.757812 244.753906 42.9375 C 247.324219 44.117188 249.859375 45.371094 252.355469 46.707031 C 254.851562 48.039062 257.300781 49.449219 259.710938 50.933594 C 262.121094 52.417969 264.480469 53.972656 266.796875 55.605469 C 269.109375 57.234375 271.371094 58.933594 273.578125 60.699219 C 275.789062 62.46875 277.941406 64.300781 280.039062 66.203125 C 282.132812 68.101562 284.171875 70.066406 286.144531 72.089844 C 288.121094 74.117188 290.035156 76.199219 291.882812 78.339844 C 293.730469 80.484375 295.511719 82.679688 297.226562 84.933594 C 298.9375 87.183594 300.582031 89.488281 302.152344 91.839844 C 303.726562 94.191406 305.222656 96.589844 306.648438 99.035156 C 308.074219 101.480469 309.421875 103.964844 310.691406 106.492188 C 311.964844 109.019531 313.160156 111.585938 314.273438 114.1875 C 315.386719 116.785156 316.421875 119.417969 317.375 122.082031 C 318.328125 124.746094 319.199219 127.4375 319.988281 130.15625 C 320.777344 132.875 321.480469 135.613281 322.101562 138.375 C 322.71875 141.132812 323.253906 143.910156 323.703125 146.703125 C 324.152344 149.5 324.515625 152.304688 324.792969 155.117188 C 325.070312 157.933594 325.261719 160.757812 325.367188 163.585938 C 325.46875 166.410156 325.488281 169.238281 325.417969 172.070312 C 325.347656 174.898438 325.191406 177.722656 324.949219 180.539062 C 324.707031 183.359375 324.378906 186.167969 323.964844 188.96875 C 323.546875 191.765625 323.046875 194.550781 322.460938 197.316406 C 321.875 200.085938 321.207031 202.832031 320.449219 205.5625 C 319.695312 208.289062 318.859375 210.988281 317.9375 213.664062 C 317.015625 216.339844 316.015625 218.984375 314.933594 221.597656 L 187.160156 168.675781 Z M 187.160156 30.375 " fill-opacity="1" fill-rule="nonzero"/><path fill="#ffbc78" d="M 314.933594 221.597656 C 314.066406 223.691406 313.148438 225.757812 312.183594 227.804688 C 311.214844 229.851562 310.195312 231.871094 309.128906 233.867188 C 308.0625 235.863281 306.949219 237.832031 305.785156 239.773438 C 304.621094 241.714844 303.410156 243.628906 302.152344 245.507812 C 300.894531 247.390625 299.59375 249.242188 298.242188 251.058594 C 296.894531 252.878906 295.503906 254.660156 294.066406 256.410156 C 292.632812 258.160156 291.152344 259.875 289.632812 261.550781 C 288.113281 263.226562 286.554688 264.867188 284.953125 266.464844 C 283.351562 268.066406 281.714844 269.628906 280.039062 271.148438 C 278.359375 272.667969 276.648438 274.144531 274.898438 275.582031 C 273.148438 277.015625 271.363281 278.410156 269.546875 279.757812 C 267.726562 281.105469 265.878906 282.410156 263.996094 283.664062 C 262.113281 284.921875 260.203125 286.132812 258.261719 287.296875 C 256.320312 288.460938 254.351562 289.578125 252.355469 290.644531 C 250.359375 291.710938 248.335938 292.726562 246.292969 293.695312 C 244.246094 294.664062 242.175781 295.578125 240.085938 296.445312 C 237.996094 297.3125 235.882812 298.125 233.753906 298.890625 C 231.621094 299.652344 229.472656 300.359375 227.308594 301.019531 C 225.140625 301.675781 222.960938 302.277344 220.765625 302.828125 C 218.570312 303.378906 216.363281 303.875 214.140625 304.316406 C 211.921875 304.757812 209.691406 305.144531 207.453125 305.476562 C 205.214844 305.808594 202.96875 306.085938 200.71875 306.308594 C 198.464844 306.527344 196.207031 306.695312 193.949219 306.808594 C 191.6875 306.917969 189.425781 306.972656 187.160156 306.972656 C 184.898438 306.972656 182.636719 306.917969 180.375 306.808594 C 178.113281 306.695312 175.859375 306.527344 173.605469 306.308594 C 171.351562 306.085938 169.109375 305.808594 166.867188 305.476562 C 164.628906 305.144531 162.402344 304.757812 160.179688 304.316406 C 157.960938 303.875 155.753906 303.378906 153.558594 302.828125 C 151.363281 302.277344 149.179688 301.675781 147.015625 301.019531 C 144.847656 300.359375 142.699219 299.652344 140.570312 298.890625 C 138.4375 298.125 136.328125 297.3125 134.238281 296.445312 L 187.160156 168.675781 Z M 314.933594 221.597656 " fill-opacity="1" fill-rule="nonzero"/><path fill="#fa9441" d="M 134.238281 296.445312 C 131.097656 295.144531 128.015625 293.734375 124.980469 292.207031 C 121.949219 290.679688 118.972656 289.042969 116.0625 287.296875 C 113.148438 285.550781 110.304688 283.699219 107.527344 281.746094 C 104.75 279.789062 102.050781 277.734375 99.425781 275.582031 C 96.800781 273.425781 94.257812 271.179688 91.800781 268.835938 C 89.339844 266.496094 86.96875 264.066406 84.6875 261.550781 C 82.410156 259.035156 80.222656 256.4375 78.132812 253.761719 C 76.046875 251.082031 74.058594 248.332031 72.171875 245.507812 C 70.285156 242.6875 68.503906 239.796875 66.828125 236.84375 C 65.15625 233.886719 63.59375 230.875 62.140625 227.804688 C 60.6875 224.734375 59.351562 221.617188 58.128906 218.449219 C 56.90625 215.28125 55.804688 212.070312 54.816406 208.820312 C 53.832031 205.570312 52.96875 202.289062 52.222656 198.976562 C 51.480469 195.664062 50.859375 192.328125 50.359375 188.96875 C 49.863281 185.609375 49.488281 182.234375 49.238281 178.847656 C 48.988281 175.460938 48.863281 172.070312 48.863281 168.675781 L 187.160156 168.675781 Z M 134.238281 296.445312 " fill-opacity="1" fill-rule="nonzero"/><path fill="#c05600" d="M 48.863281 168.675781 C 48.863281 165.84375 48.949219 163.019531 49.125 160.195312 C 49.296875 157.371094 49.554688 154.554688 49.902344 151.746094 C 50.25 148.9375 50.679688 146.140625 51.199219 143.359375 C 51.71875 140.578125 52.320312 137.816406 53.007812 135.070312 C 53.695312 132.324219 54.464844 129.605469 55.320312 126.90625 C 56.175781 124.210938 57.113281 121.542969 58.128906 118.902344 C 59.148438 116.261719 60.246094 113.65625 61.425781 111.082031 C 62.601562 108.511719 63.859375 105.976562 65.191406 103.480469 C 66.527344 100.984375 67.9375 98.535156 69.421875 96.125 C 70.90625 93.714844 72.460938 91.355469 74.089844 89.042969 C 75.71875 86.726562 77.417969 84.464844 79.1875 82.257812 C 80.953125 80.046875 82.789062 77.894531 84.6875 75.800781 C 86.589844 73.703125 88.550781 71.667969 90.578125 69.691406 C 92.601562 67.714844 94.6875 65.800781 96.828125 63.953125 C 98.972656 62.105469 101.167969 60.324219 103.421875 58.613281 C 105.671875 56.898438 107.972656 55.253906 110.328125 53.683594 L 187.160156 168.675781 Z M 48.863281 168.675781 " fill-opacity="1" fill-rule="nonzero"/><path fill="#775540" d="M 110.328125 53.683594 C 115.980469 49.90625 121.882812 46.5625 128.027344 43.65625 C 134.175781 40.75 140.5 38.308594 147.007812 36.332031 C 153.515625 34.359375 160.132812 32.871094 166.859375 31.875 C 173.585938 30.875 180.347656 30.375 187.148438 30.375 L 187.160156 168.675781 Z M 110.328125 53.683594 " fill-opacity="1" fill-rule="nonzero"/><g fill="#000000" fill-opacity="1"><g transform="translate(302.25433, 70.833132)"><g><path d="M 3.6875 0.125 C 3.238281 0.125 2.820312 0.0390625 2.4375 -0.125 C 2.0625 -0.289062 1.734375 -0.53125 1.453125 -0.84375 C 1.171875 -1.15625 0.953125 -1.539062 0.796875 -2 C 0.640625 -2.46875 0.5625 -2.992188 0.5625 -3.578125 C 0.5625 -4.148438 0.640625 -4.664062 0.796875 -5.125 C 0.960938 -5.582031 1.1875 -5.96875 1.46875 -6.28125 C 1.75 -6.601562 2.082031 -6.847656 2.46875 -7.015625 C 2.851562 -7.191406 3.273438 -7.28125 3.734375 -7.28125 C 4.171875 -7.28125 4.554688 -7.191406 4.890625 -7.015625 C 5.222656 -6.835938 5.492188 -6.632812 5.703125 -6.40625 L 5.21875 -5.8125 C 5.019531 -6.019531 4.800781 -6.179688 4.5625 -6.296875 C 4.320312 -6.421875 4.050781 -6.484375 3.75 -6.484375 C 3.40625 -6.484375 3.09375 -6.414062 2.8125 -6.28125 C 2.539062 -6.144531 2.304688 -5.953125 2.109375 -5.703125 C 1.921875 -5.453125 1.769531 -5.148438 1.65625 -4.796875 C 1.550781 -4.441406 1.5 -4.039062 1.5 -3.59375 C 1.5 -3.144531 1.550781 -2.738281 1.65625 -2.375 C 1.769531 -2.019531 1.921875 -1.710938 2.109375 -1.453125 C 2.296875 -1.203125 2.523438 -1.007812 2.796875 -0.875 C 3.066406 -0.738281 3.375 -0.671875 3.71875 -0.671875 C 4.070312 -0.671875 4.378906 -0.738281 4.640625 -0.875 C 4.898438 -1.019531 5.144531 -1.21875 5.375 -1.46875 L 5.875 -0.90625 C 5.59375 -0.582031 5.273438 -0.328125 4.921875 -0.140625 C 4.566406 0.0351562 4.15625 0.125 3.6875 0.125 Z M 3.6875 0.125 "/></g></g></g><g fill="#000000" fill-opacity="1"><g transform="translate(308.47862, 70.833132)"><g><path d="M 2.953125 0.125 C 2.628906 0.125 2.316406 0.0664062 2.015625 -0.046875 C 1.722656 -0.171875 1.460938 -0.351562 1.234375 -0.59375 C 1.015625 -0.832031 0.835938 -1.125 0.703125 -1.46875 C 0.566406 -1.8125 0.5 -2.203125 0.5 -2.640625 C 0.5 -3.078125 0.566406 -3.46875 0.703125 -3.8125 C 0.835938 -4.164062 1.015625 -4.460938 1.234375 -4.703125 C 1.460938 -4.941406 1.722656 -5.125 2.015625 -5.25 C 2.316406 -5.375 2.628906 -5.4375 2.953125 -5.4375 C 3.285156 -5.4375 3.597656 -5.375 3.890625 -5.25 C 4.179688 -5.125 4.4375 -4.941406 4.65625 -4.703125 C 4.882812 -4.460938 5.066406 -4.164062 5.203125 -3.8125 C 5.335938 -3.46875 5.40625 -3.078125 5.40625 -2.640625 C 5.40625 -2.203125 5.335938 -1.8125 5.203125 -1.46875 C 5.066406 -1.125 4.882812 -0.832031 4.65625 -0.59375 C 4.4375 -0.351562 4.179688 -0.171875 3.890625 -0.046875 C 3.597656 0.0664062 3.285156 0.125 2.953125 0.125 Z M 2.953125 -0.609375 C 3.179688 -0.609375 3.390625 -0.65625 3.578125 -0.75 C 3.765625 -0.851562 3.925781 -0.992188 4.0625 -1.171875 C 4.195312 -1.347656 4.300781 -1.5625 4.375 -1.8125 C 4.445312 -2.0625 4.484375 -2.335938 4.484375 -2.640625 C 4.484375 -2.941406 4.445312 -3.21875 4.375 -3.46875 C 4.300781 -3.71875 4.195312 -3.929688 4.0625 -4.109375 C 3.925781 -4.296875 3.765625 -4.4375 3.578125 -4.53125 C 3.390625 -4.632812 3.179688 -4.6875 2.953125 -4.6875 C 2.734375 -4.6875 2.523438 -4.632812 2.328125 -4.53125 C 2.140625 -4.4375 1.976562 -4.296875 1.84375 -4.109375 C 1.707031 -3.929688 1.601562 -3.71875 1.53125 -3.46875 C 1.457031 -3.21875 1.421875 -2.941406 1.421875 -2.640625 C 1.421875 -2.335938 1.457031 -2.0625 1.53125 -1.8125 C 1.601562 -1.5625 1.707031 -1.347656 1.84375 -1.171875 C 1.976562 -0.992188 2.140625 -0.851562 2.328125 -0.75 C 2.523438 -0.65625 2.734375 -0.609375 2.953125 -0.609375 Z M 2.953125 -0.609375 "/></g></g></g><g fill="#000000" fill-opacity="1"><g transform="translate(314.386792, 70.833132)"><g><path d="M 0.890625 0 L 0.890625 -5.296875 L 1.640625 -5.296875 L 1.71875 -4.53125 L 1.75 -4.53125 C 1.976562 -4.789062 2.226562 -5.003906 2.5 -5.171875 C 2.769531 -5.347656 3.066406 -5.4375 3.390625 -5.4375 C 3.796875 -5.4375 4.113281 -5.34375 4.34375 -5.15625 C 4.570312 -4.976562 4.742188 -4.734375 4.859375 -4.421875 C 5.128906 -4.722656 5.40625 -4.96875 5.6875 -5.15625 C 5.96875 -5.34375 6.269531 -5.4375 6.59375 -5.4375 C 7.144531 -5.4375 7.550781 -5.257812 7.8125 -4.90625 C 8.082031 -4.5625 8.21875 -4.046875 8.21875 -3.359375 L 8.21875 0 L 7.3125 0 L 7.3125 -3.234375 C 7.3125 -3.734375 7.234375 -4.09375 7.078125 -4.3125 C 6.921875 -4.539062 6.675781 -4.65625 6.34375 -4.65625 C 5.9375 -4.65625 5.488281 -4.382812 5 -3.84375 L 5 0 L 4.109375 0 L 4.109375 -3.234375 C 4.109375 -3.734375 4.023438 -4.09375 3.859375 -4.3125 C 3.703125 -4.539062 3.457031 -4.65625 3.125 -4.65625 C 2.71875 -4.65625 2.269531 -4.382812 1.78125 -3.84375 L 1.78125 0 Z M 0.890625 0 "/></g></g></g><g fill="#000000" fill-opacity="1"><g transform="translate(323.423463, 70.833132)"><g><path d="M 0.890625 0 L 0.890625 -5.296875 L 1.640625 -5.296875 L 1.71875 -4.53125 L 1.75 -4.53125 C 1.976562 -4.789062 2.226562 -5.003906 2.5 -5.171875 C 2.769531 -5.347656 3.066406 -5.4375 3.390625 -5.4375 C 3.796875 -5.4375 4.113281 -5.34375 4.34375 -5.15625 C 4.570312 -4.976562 4.742188 -4.734375 4.859375 -4.421875 C 5.128906 -4.722656 5.40625 -4.96875 5.6875 -5.15625 C 5.96875 -5.34375 6.269531 -5.4375 6.59375 -5.4375 C 7.144531 -5.4375 7.550781 -5.257812 7.8125 -4.90625 C 8.082031 -4.5625 8.21875 -4.046875 8.21875 -3.359375 L 8.21875 0 L 7.3125 0 L 7.3125 -3.234375 C 7.3125 -3.734375 7.234375 -4.09375 7.078125 -4.3125 C 6.921875 -4.539062 6.675781 -4.65625 6.34375 -4.65625 C 5.9375 -4.65625 5.488281 -4.382812 5 -3.84375 L 5 0 L 4.109375 0 L 4.109375 -3.234375 C 4.109375 -3.734375 4.023438 -4.09375 3.859375 -4.3125 C 3.703125 -4.539062 3.457031 -4.65625 3.125 -4.65625 C 2.71875 -4.65625 2.269531 -4.382812 1.78125 -3.84375 L 1.78125 0 Z M 0.890625 0 "/></g></g></g><g fill="#000000" fill-opacity="1"><g transform="translate(332.460135, 70.833132)"><g><path d="M 2.4375 0.125 C 1.875 0.125 1.460938 -0.046875 1.203125 -0.390625 C 0.941406 -0.742188 0.8125 -1.257812 0.8125 -1.9375 L 0.8125 -5.296875 L 1.71875 -5.296875 L 1.71875 -2.0625 C 1.71875 -1.5625 1.796875 -1.195312 1.953125 -0.96875 C 2.109375 -0.75 2.363281 -0.640625 2.71875 -0.640625 C 2.988281 -0.640625 3.226562 -0.707031 3.4375 -0.84375 C 3.65625 -0.988281 3.890625 -1.21875 4.140625 -1.53125 L 4.140625 -5.296875 L 5.03125 -5.296875 L 5.03125 0 L 4.296875 0 L 4.21875 -0.828125 L 4.1875 -0.828125 C 3.9375 -0.535156 3.675781 -0.300781 3.40625 -0.125 C 3.132812 0.0390625 2.8125 0.125 2.4375 0.125 Z M 2.4375 0.125 "/></g></g></g><g fill="#000000" fill-opacity="1"><g transform="translate(338.390112, 70.833132)"><g><path d="M 0.890625 0 L 0.890625 -5.296875 L 1.640625 -5.296875 L 1.71875 -4.53125 L 1.75 -4.53125 C 2 -4.789062 2.265625 -5.003906 2.546875 -5.171875 C 2.828125 -5.347656 3.148438 -5.4375 3.515625 -5.4375 C 4.078125 -5.4375 4.488281 -5.257812 4.75 -4.90625 C 5.007812 -4.5625 5.140625 -4.046875 5.140625 -3.359375 L 5.140625 0 L 4.25 0 L 4.25 -3.234375 C 4.25 -3.734375 4.164062 -4.09375 4 -4.3125 C 3.84375 -4.539062 3.585938 -4.65625 3.234375 -4.65625 C 2.960938 -4.65625 2.71875 -4.585938 2.5 -4.453125 C 2.289062 -4.316406 2.050781 -4.113281 1.78125 -3.84375 L 1.78125 0 Z M 0.890625 0 "/></g></g></g><g fill="#000000" fill-opacity="1"><g transform="translate(344.352788, 70.833132)"><g><path d="M 0.890625 0 L 0.890625 -5.296875 L 1.78125 -5.296875 L 1.78125 0 Z M 1.359375 -6.390625 C 1.179688 -6.390625 1.03125 -6.441406 0.90625 -6.546875 C 0.789062 -6.660156 0.734375 -6.800781 0.734375 -6.96875 C 0.734375 -7.144531 0.789062 -7.285156 0.90625 -7.390625 C 1.03125 -7.492188 1.179688 -7.546875 1.359375 -7.546875 C 1.523438 -7.546875 1.664062 -7.492188 1.78125 -7.390625 C 1.90625 -7.285156 1.96875 -7.144531 1.96875 -6.96875 C 1.96875 -6.800781 1.90625 -6.660156 1.78125 -6.546875 C 1.664062 -6.441406 1.523438 -6.390625 1.359375 -6.390625 Z M 1.359375 -6.390625 "/></g></g></g><g fill="#000000" fill-opacity="1"><g transform="translate(347.034356, 70.833132)"><g><path d="M 2.5625 0.125 C 2.28125 0.125 2.039062 0.0820312 1.84375 0 C 1.65625 -0.0820312 1.5 -0.203125 1.375 -0.359375 C 1.257812 -0.515625 1.175781 -0.703125 1.125 -0.921875 C 1.070312 -1.140625 1.046875 -1.378906 1.046875 -1.640625 L 1.046875 -4.5625 L 0.265625 -4.5625 L 0.265625 -5.25 L 1.09375 -5.296875 L 1.203125 -6.78125 L 1.953125 -6.78125 L 1.953125 -5.296875 L 3.375 -5.296875 L 3.375 -4.5625 L 1.953125 -4.5625 L 1.953125 -1.625 C 1.953125 -1.300781 2.007812 -1.046875 2.125 -0.859375 C 2.25 -0.679688 2.460938 -0.59375 2.765625 -0.59375 C 2.859375 -0.59375 2.957031 -0.609375 3.0625 -0.640625 C 3.175781 -0.671875 3.28125 -0.703125 3.375 -0.734375 L 3.546875 -0.0625 C 3.398438 -0.0078125 3.238281 0.03125 3.0625 0.0625 C 2.894531 0.101562 2.726562 0.125 2.5625 0.125 Z M 2.5625 0.125 "/></g></g></g><g fill="#000000" fill-opacity="1"><g transform="translate(350.718783, 70.833132)"><g><path d="M 0.984375 2.28125 C 0.859375 2.28125 0.742188 2.269531 0.640625 2.25 C 0.535156 2.226562 0.441406 2.203125 0.359375 2.171875 L 0.53125 1.46875 C 0.59375 1.476562 0.660156 1.488281 0.734375 1.5 C 0.804688 1.519531 0.875 1.53125 0.9375 1.53125 C 1.238281 1.53125 1.484375 1.421875 1.671875 1.203125 C 1.867188 0.992188 2.023438 0.726562 2.140625 0.40625 L 2.25 0.015625 L 0.125 -5.296875 L 1.0625 -5.296875 L 2.140625 -2.359375 C 2.210938 -2.128906 2.296875 -1.882812 2.390625 -1.625 C 2.484375 -1.375 2.570312 -1.125 2.65625 -0.875 L 2.6875 -0.875 C 2.769531 -1.113281 2.847656 -1.363281 2.921875 -1.625 C 2.992188 -1.882812 3.066406 -2.128906 3.140625 -2.359375 L 4.09375 -5.296875 L 4.96875 -5.296875 L 2.96875 0.4375 C 2.875 0.695312 2.765625 0.9375 2.640625 1.15625 C 2.523438 1.382812 2.390625 1.582031 2.234375 1.75 C 2.078125 1.914062 1.894531 2.046875 1.6875 2.140625 C 1.488281 2.234375 1.253906 2.28125 0.984375 2.28125 Z M 0.984375 2.28125 "/></g></g></g><g fill="#000000" fill-opacity="1"><g transform="translate(323.407312, 84.410895)"><g><path d="M 0.859375 0 L 0.859375 -0.734375 L 2.453125 -0.734375 L 2.453125 -5.875 L 1.1875 -5.875 L 1.1875 -6.453125 C 1.507812 -6.503906 1.785156 -6.570312 2.015625 -6.65625 C 2.253906 -6.738281 2.46875 -6.835938 2.65625 -6.953125 L 3.34375 -6.953125 L 3.34375 -0.734375 L 4.78125 -0.734375 L 4.78125 0 Z M 0.859375 0 "/></g></g></g><g fill="#000000" fill-opacity="1"><g transform="translate(328.824951, 84.410895)"><g><path d="M 2.71875 0.125 C 2.007812 0.125 1.457031 -0.1875 1.0625 -0.8125 C 0.675781 -1.4375 0.484375 -2.332031 0.484375 -3.5 C 0.484375 -4.664062 0.675781 -5.554688 1.0625 -6.171875 C 1.457031 -6.785156 2.007812 -7.09375 2.71875 -7.09375 C 3.414062 -7.09375 3.957031 -6.785156 4.34375 -6.171875 C 4.738281 -5.554688 4.9375 -4.664062 4.9375 -3.5 C 4.9375 -2.332031 4.738281 -1.4375 4.34375 -0.8125 C 3.957031 -0.1875 3.414062 0.125 2.71875 0.125 Z M 2.71875 -0.59375 C 2.914062 -0.59375 3.097656 -0.644531 3.265625 -0.75 C 3.429688 -0.863281 3.570312 -1.039062 3.6875 -1.28125 C 3.8125 -1.519531 3.90625 -1.820312 3.96875 -2.1875 C 4.03125 -2.550781 4.0625 -2.988281 4.0625 -3.5 C 4.0625 -4.007812 4.03125 -4.445312 3.96875 -4.8125 C 3.90625 -5.175781 3.8125 -5.472656 3.6875 -5.703125 C 3.570312 -5.929688 3.429688 -6.097656 3.265625 -6.203125 C 3.097656 -6.316406 2.914062 -6.375 2.71875 -6.375 C 2.507812 -6.375 2.320312 -6.316406 2.15625 -6.203125 C 1.988281 -6.097656 1.84375 -5.929688 1.71875 -5.703125 C 1.601562 -5.472656 1.515625 -5.175781 1.453125 -4.8125 C 1.390625 -4.445312 1.359375 -4.007812 1.359375 -3.5 C 1.359375 -2.476562 1.484375 -1.738281 1.734375 -1.28125 C 1.984375 -0.820312 2.3125 -0.59375 2.71875 -0.59375 Z M 2.71875 -0.59375 "/></g></g></g><g fill="#000000" fill-opacity="1"><g transform="translate(221.592095, 314.788677)"><g><path d="M 3.6875 0.125 C 3.238281 0.125 2.820312 0.0390625 2.4375 -0.125 C 2.0625 -0.289062 1.734375 -0.53125 1.453125 -0.84375 C 1.171875 -1.15625 0.953125 -1.539062 0.796875 -2 C 0.640625 -2.46875 0.5625 -2.992188 0.5625 -3.578125 C 0.5625 -4.148438 0.640625 -4.664062 0.796875 -5.125 C 0.960938 -5.582031 1.1875 -5.96875 1.46875 -6.28125 C 1.75 -6.601562 2.082031 -6.847656 2.46875 -7.015625 C 2.851562 -7.191406 3.273438 -7.28125 3.734375 -7.28125 C 4.171875 -7.28125 4.554688 -7.191406 4.890625 -7.015625 C 5.222656 -6.835938 5.492188 -6.632812 5.703125 -6.40625 L 5.21875 -5.8125 C 5.019531 -6.019531 4.800781 -6.179688 4.5625 -6.296875 C 4.320312 -6.421875 4.050781 -6.484375 3.75 -6.484375 C 3.40625 -6.484375 3.09375 -6.414062 2.8125 -6.28125 C 2.539062 -6.144531 2.304688 -5.953125 2.109375 -5.703125 C 1.921875 -5.453125 1.769531 -5.148438 1.65625 -4.796875 C 1.550781 -4.441406 1.5 -4.039062 1.5 -3.59375 C 1.5 -3.144531 1.550781 -2.738281 1.65625 -2.375 C 1.769531 -2.019531 1.921875 -1.710938 2.109375 -1.453125 C 2.296875 -1.203125 2.523438 -1.007812 2.796875 -0.875 C 3.066406 -0.738281 3.375 -0.671875 3.71875 -0.671875 C 4.070312 -0.671875 4.378906 -0.738281 4.640625 -0.875 C 4.898438 -1.019531 5.144531 -1.21875 5.375 -1.46875 L 5.875 -0.90625 C 5.59375 -0.582031 5.273438 -0.328125 4.921875 -0.140625 C 4.566406 0.0351562 4.15625 0.125 3.6875 0.125 Z M 3.6875 0.125 "/></g></g></g><g fill="#000000" fill-opacity="1"><g transform="translate(227.816385, 314.788677)"><g><path d="M 0.890625 0 L 0.890625 -5.296875 L 1.78125 -5.296875 L 1.78125 0 Z M 1.359375 -6.390625 C 1.179688 -6.390625 1.03125 -6.441406 0.90625 -6.546875 C 0.789062 -6.660156 0.734375 -6.800781 0.734375 -6.96875 C 0.734375 -7.144531 0.789062 -7.285156 0.90625 -7.390625 C 1.03125 -7.492188 1.179688 -7.546875 1.359375 -7.546875 C 1.523438 -7.546875 1.664062 -7.492188 1.78125 -7.390625 C 1.90625 -7.285156 1.96875 -7.144531 1.96875 -6.96875 C 1.96875 -6.800781 1.90625 -6.660156 1.78125 -6.546875 C 1.664062 -6.441406 1.523438 -6.390625 1.359375 -6.390625 Z M 1.359375 -6.390625 "/></g></g></g><g fill="#000000" fill-opacity="1"><g transform="translate(230.497953, 314.788677)"><g><path d="M 2.5625 0.125 C 2.28125 0.125 2.039062 0.0820312 1.84375 0 C 1.65625 -0.0820312 1.5 -0.203125 1.375 -0.359375 C 1.257812 -0.515625 1.175781 -0.703125 1.125 -0.921875 C 1.070312 -1.140625 1.046875 -1.378906 1.046875 -1.640625 L 1.046875 -4.5625 L 0.265625 -4.5625 L 0.265625 -5.25 L 1.09375 -5.296875 L 1.203125 -6.78125 L 1.953125 -6.78125 L 1.953125 -5.296875 L 3.375 -5.296875 L 3.375 -4.5625 L 1.953125 -4.5625 L 1.953125 -1.625 C 1.953125 -1.300781 2.007812 -1.046875 2.125 -0.859375 C 2.25 -0.679688 2.460938 -0.59375 2.765625 -0.59375 C 2.859375 -0.59375 2.957031 -0.609375 3.0625 -0.640625 C 3.175781 -0.671875 3.28125 -0.703125 3.375 -0.734375 L 3.546875 -0.0625 C 3.398438 -0.0078125 3.238281 0.03125 3.0625 0.0625 C 2.894531 0.101562 2.726562 0.125 2.5625 0.125 Z M 2.5625 0.125 "/></g></g></g><g fill="#000000" fill-opacity="1"><g transform="translate(234.18238, 314.788677)"><g><path d="M 0.984375 2.28125 C 0.859375 2.28125 0.742188 2.269531 0.640625 2.25 C 0.535156 2.226562 0.441406 2.203125 0.359375 2.171875 L 0.53125 1.46875 C 0.59375 1.476562 0.660156 1.488281 0.734375 1.5 C 0.804688 1.519531 0.875 1.53125 0.9375 1.53125 C 1.238281 1.53125 1.484375 1.421875 1.671875 1.203125 C 1.867188 0.992188 2.023438 0.726562 2.140625 0.40625 L 2.25 0.015625 L 0.125 -5.296875 L 1.0625 -5.296875 L 2.140625 -2.359375 C 2.210938 -2.128906 2.296875 -1.882812 2.390625 -1.625 C 2.484375 -1.375 2.570312 -1.125 2.65625 -0.875 L 2.6875 -0.875 C 2.769531 -1.113281 2.847656 -1.363281 2.921875 -1.625 C 2.992188 -1.882812 3.066406 -2.128906 3.140625 -2.359375 L 4.09375 -5.296875 L 4.96875 -5.296875 L 2.96875 0.4375 C 2.875 0.695312 2.765625 0.9375 2.640625 1.15625 C 2.523438 1.382812 2.390625 1.582031 2.234375 1.75 C 2.078125 1.914062 1.894531 2.046875 1.6875 2.140625 C 1.488281 2.234375 1.253906 2.28125 0.984375 2.28125 Z M 0.984375 2.28125 "/></g></g></g><g fill="#000000" fill-opacity="1"><g transform="translate(239.272998, 314.788677)"><g/></g></g><g fill="#000000" fill-opacity="1"><g transform="translate(241.45313, 314.788677)"><g><path d="M 3.6875 0.125 C 3.238281 0.125 2.820312 0.0390625 2.4375 -0.125 C 2.0625 -0.289062 1.734375 -0.53125 1.453125 -0.84375 C 1.171875 -1.15625 0.953125 -1.539062 0.796875 -2 C 0.640625 -2.46875 0.5625 -2.992188 0.5625 -3.578125 C 0.5625 -4.148438 0.640625 -4.664062 0.796875 -5.125 C 0.960938 -5.582031 1.1875 -5.96875 1.46875 -6.28125 C 1.75 -6.601562 2.082031 -6.847656 2.46875 -7.015625 C 2.851562 -7.191406 3.273438 -7.28125 3.734375 -7.28125 C 4.171875 -7.28125 4.554688 -7.191406 4.890625 -7.015625 C 5.222656 -6.835938 5.492188 -6.632812 5.703125 -6.40625 L 5.21875 -5.8125 C 5.019531 -6.019531 4.800781 -6.179688 4.5625 -6.296875 C 4.320312 -6.421875 4.050781 -6.484375 3.75 -6.484375 C 3.40625 -6.484375 3.09375 -6.414062 2.8125 -6.28125 C 2.539062 -6.144531 2.304688 -5.953125 2.109375 -5.703125 C 1.921875 -5.453125 1.769531 -5.148438 1.65625 -4.796875 C 1.550781 -4.441406 1.5 -4.039062 1.5 -3.59375 C 1.5 -3.144531 1.550781 -2.738281 1.65625 -2.375 C 1.769531 -2.019531 1.921875 -1.710938 2.109375 -1.453125 C 2.296875 -1.203125 2.523438 -1.007812 2.796875 -0.875 C 3.066406 -0.738281 3.375 -0.671875 3.71875 -0.671875 C 4.070312 -0.671875 4.378906 -0.738281 4.640625 -0.875 C 4.898438 -1.019531 5.144531 -1.21875 5.375 -1.46875 L 5.875 -0.90625 C 5.59375 -0.582031 5.273438 -0.328125 4.921875 -0.140625 C 4.566406 0.0351562 4.15625 0.125 3.6875 0.125 Z M 3.6875 0.125 "/></g></g></g><g fill="#000000" fill-opacity="1"><g transform="translate(247.67742, 314.788677)"><g><path d="M 2.953125 0.125 C 2.628906 0.125 2.316406 0.0664062 2.015625 -0.046875 C 1.722656 -0.171875 1.460938 -0.351562 1.234375 -0.59375 C 1.015625 -0.832031 0.835938 -1.125 0.703125 -1.46875 C 0.566406 -1.8125 0.5 -2.203125 0.5 -2.640625 C 0.5 -3.078125 0.566406 -3.46875 0.703125 -3.8125 C 0.835938 -4.164062 1.015625 -4.460938 1.234375 -4.703125 C 1.460938 -4.941406 1.722656 -5.125 2.015625 -5.25 C 2.316406 -5.375 2.628906 -5.4375 2.953125 -5.4375 C 3.285156 -5.4375 3.597656 -5.375 3.890625 -5.25 C 4.179688 -5.125 4.4375 -4.941406 4.65625 -4.703125 C 4.882812 -4.460938 5.066406 -4.164062 5.203125 -3.8125 C 5.335938 -3.46875 5.40625 -3.078125 5.40625 -2.640625 C 5.40625 -2.203125 5.335938 -1.8125 5.203125 -1.46875 C 5.066406 -1.125 4.882812 -0.832031 4.65625 -0.59375 C 4.4375 -0.351562 4.179688 -0.171875 3.890625 -0.046875 C 3.597656 0.0664062 3.285156 0.125 2.953125 0.125 Z M 2.953125 -0.609375 C 3.179688 -0.609375 3.390625 -0.65625 3.578125 -0.75 C 3.765625 -0.851562 3.925781 -0.992188 4.0625 -1.171875 C 4.195312 -1.347656 4.300781 -1.5625 4.375 -1.8125 C 4.445312 -2.0625 4.484375 -2.335938 4.484375 -2.640625 C 4.484375 -2.941406 4.445312 -3.21875 4.375 -3.46875 C 4.300781 -3.71875 4.195312 -3.929688 4.0625 -4.109375 C 3.925781 -4.296875 3.765625 -4.4375 3.578125 -4.53125 C 3.390625 -4.632812 3.179688 -4.6875 2.953125 -4.6875 C 2.734375 -4.6875 2.523438 -4.632812 2.328125 -4.53125 C 2.140625 -4.4375 1.976562 -4.296875 1.84375 -4.109375 C 1.707031 -3.929688 1.601562 -3.71875 1.53125 -3.46875 C 1.457031 -3.21875 1.421875 -2.941406 1.421875 -2.640625 C 1.421875 -2.335938 1.457031 -2.0625 1.53125 -1.8125 C 1.601562 -1.5625 1.707031 -1.347656 1.84375 -1.171875 C 1.976562 -0.992188 2.140625 -0.851562 2.328125 -0.75 C 2.523438 -0.65625 2.734375 -0.609375 2.953125 -0.609375 Z M 2.953125 -0.609375 "/></g></g></g><g fill="#000000" fill-opacity="1"><g transform="translate(253.585592, 314.788677)"><g><path d="M 2.4375 0.125 C 1.875 0.125 1.460938 -0.046875 1.203125 -0.390625 C 0.941406 -0.742188 0.8125 -1.257812 0.8125 -1.9375 L 0.8125 -5.296875 L 1.71875 -5.296875 L 1.71875 -2.0625 C 1.71875 -1.5625 1.796875 -1.195312 1.953125 -0.96875 C 2.109375 -0.75 2.363281 -0.640625 2.71875 -0.640625 C 2.988281 -0.640625 3.226562 -0.707031 3.4375 -0.84375 C 3.65625 -0.988281 3.890625 -1.21875 4.140625 -1.53125 L 4.140625 -5.296875 L 5.03125 -5.296875 L 5.03125 0 L 4.296875 0 L 4.21875 -0.828125 L 4.1875 -0.828125 C 3.9375 -0.535156 3.675781 -0.300781 3.40625 -0.125 C 3.132812 0.0390625 2.8125 0.125 2.4375 0.125 Z M 2.4375 0.125 "/></g></g></g><g fill="#000000" fill-opacity="1"><g transform="translate(259.51557, 314.788677)"><g><path d="M 0.890625 0 L 0.890625 -5.296875 L 1.640625 -5.296875 L 1.71875 -4.53125 L 1.75 -4.53125 C 2 -4.789062 2.265625 -5.003906 2.546875 -5.171875 C 2.828125 -5.347656 3.148438 -5.4375 3.515625 -5.4375 C 4.078125 -5.4375 4.488281 -5.257812 4.75 -4.90625 C 5.007812 -4.5625 5.140625 -4.046875 5.140625 -3.359375 L 5.140625 0 L 4.25 0 L 4.25 -3.234375 C 4.25 -3.734375 4.164062 -4.09375 4 -4.3125 C 3.84375 -4.539062 3.585938 -4.65625 3.234375 -4.65625 C 2.960938 -4.65625 2.71875 -4.585938 2.5 -4.453125 C 2.289062 -4.316406 2.050781 -4.113281 1.78125 -3.84375 L 1.78125 0 Z M 0.890625 0 "/></g></g></g><g fill="#000000" fill-opacity="1"><g transform="translate(265.478245, 314.788677)"><g><path d="M 2.984375 0.125 C 2.640625 0.125 2.3125 0.0664062 2 -0.046875 C 1.695312 -0.171875 1.4375 -0.351562 1.21875 -0.59375 C 1 -0.832031 0.820312 -1.125 0.6875 -1.46875 C 0.5625 -1.8125 0.5 -2.203125 0.5 -2.640625 C 0.5 -3.078125 0.566406 -3.46875 0.703125 -3.8125 C 0.847656 -4.164062 1.035156 -4.460938 1.265625 -4.703125 C 1.492188 -4.941406 1.765625 -5.125 2.078125 -5.25 C 2.390625 -5.375 2.710938 -5.4375 3.046875 -5.4375 C 3.398438 -5.4375 3.695312 -5.375 3.9375 -5.25 C 4.1875 -5.125 4.410156 -4.976562 4.609375 -4.8125 L 4.140625 -4.21875 C 3.992188 -4.351562 3.832031 -4.460938 3.65625 -4.546875 C 3.488281 -4.640625 3.300781 -4.6875 3.09375 -4.6875 C 2.84375 -4.6875 2.613281 -4.632812 2.40625 -4.53125 C 2.207031 -4.4375 2.035156 -4.296875 1.890625 -4.109375 C 1.742188 -3.929688 1.628906 -3.71875 1.546875 -3.46875 C 1.460938 -3.21875 1.421875 -2.941406 1.421875 -2.640625 C 1.421875 -2.335938 1.460938 -2.0625 1.546875 -1.8125 C 1.628906 -1.5625 1.738281 -1.347656 1.875 -1.171875 C 2.019531 -0.992188 2.191406 -0.851562 2.390625 -0.75 C 2.597656 -0.65625 2.820312 -0.609375 3.0625 -0.609375 C 3.3125 -0.609375 3.539062 -0.660156 3.75 -0.765625 C 3.957031 -0.867188 4.144531 -0.992188 4.3125 -1.140625 L 4.703125 -0.546875 C 4.460938 -0.335938 4.195312 -0.171875 3.90625 -0.046875 C 3.613281 0.0664062 3.304688 0.125 2.984375 0.125 Z M 2.984375 0.125 "/></g></g></g><g fill="#000000" fill-opacity="1"><g transform="translate(270.448952, 314.788677)"><g><path d="M 0.890625 0 L 0.890625 -5.296875 L 1.78125 -5.296875 L 1.78125 0 Z M 1.359375 -6.390625 C 1.179688 -6.390625 1.03125 -6.441406 0.90625 -6.546875 C 0.789062 -6.660156 0.734375 -6.800781 0.734375 -6.96875 C 0.734375 -7.144531 0.789062 -7.285156 0.90625 -7.390625 C 1.03125 -7.492188 1.179688 -7.546875 1.359375 -7.546875 C 1.523438 -7.546875 1.664062 -7.492188 1.78125 -7.390625 C 1.90625 -7.285156 1.96875 -7.144531 1.96875 -6.96875 C 1.96875 -6.800781 1.90625 -6.660156 1.78125 -6.546875 C 1.664062 -6.441406 1.523438 -6.390625 1.359375 -6.390625 Z M 1.359375 -6.390625 "/></g></g></g><g fill="#000000" fill-opacity="1"><g transform="translate(273.13052, 314.788677)"><g><path d="M 1.84375 0.125 C 1.5 0.125 1.253906 0.0234375 1.109375 -0.171875 C 0.960938 -0.378906 0.890625 -0.675781 0.890625 -1.0625 L 0.890625 -7.765625 L 1.78125 -7.765625 L 1.78125 -1 C 1.78125 -0.851562 1.804688 -0.75 1.859375 -0.6875 C 1.910156 -0.632812 1.972656 -0.609375 2.046875 -0.609375 C 2.066406 -0.609375 2.085938 -0.609375 2.109375 -0.609375 C 2.140625 -0.609375 2.179688 -0.613281 2.234375 -0.625 L 2.359375 0.046875 C 2.296875 0.078125 2.222656 0.0976562 2.140625 0.109375 C 2.066406 0.117188 1.96875 0.125 1.84375 0.125 Z M 1.84375 0.125 "/></g></g></g><g fill="#000000" fill-opacity="1"><g transform="translate(246.214545, 328.378445)"><g><path d="M 2.71875 0.125 C 2.394531 0.125 2.09375 0.078125 1.8125 -0.015625 C 1.53125 -0.109375 1.289062 -0.238281 1.09375 -0.40625 C 0.894531 -0.582031 0.738281 -0.785156 0.625 -1.015625 C 0.507812 -1.242188 0.453125 -1.5 0.453125 -1.78125 C 0.453125 -2 0.488281 -2.203125 0.5625 -2.390625 C 0.632812 -2.585938 0.726562 -2.765625 0.84375 -2.921875 C 0.96875 -3.078125 1.109375 -3.210938 1.265625 -3.328125 C 1.421875 -3.453125 1.582031 -3.5625 1.75 -3.65625 L 1.75 -3.703125 C 1.5 -3.878906 1.273438 -4.097656 1.078125 -4.359375 C 0.878906 -4.617188 0.78125 -4.929688 0.78125 -5.296875 C 0.78125 -5.566406 0.832031 -5.8125 0.9375 -6.03125 C 1.039062 -6.25 1.175781 -6.4375 1.34375 -6.59375 C 1.519531 -6.75 1.726562 -6.867188 1.96875 -6.953125 C 2.207031 -7.046875 2.472656 -7.09375 2.765625 -7.09375 C 3.066406 -7.09375 3.335938 -7.046875 3.578125 -6.953125 C 3.816406 -6.859375 4.019531 -6.726562 4.1875 -6.5625 C 4.363281 -6.40625 4.492188 -6.210938 4.578125 -5.984375 C 4.671875 -5.753906 4.71875 -5.503906 4.71875 -5.234375 C 4.71875 -5.054688 4.6875 -4.878906 4.625 -4.703125 C 4.5625 -4.535156 4.484375 -4.378906 4.390625 -4.234375 C 4.304688 -4.097656 4.207031 -3.96875 4.09375 -3.84375 C 3.976562 -3.726562 3.867188 -3.632812 3.765625 -3.5625 L 3.765625 -3.515625 C 3.910156 -3.421875 4.054688 -3.316406 4.203125 -3.203125 C 4.347656 -3.097656 4.476562 -2.972656 4.59375 -2.828125 C 4.707031 -2.691406 4.796875 -2.53125 4.859375 -2.34375 C 4.929688 -2.164062 4.96875 -1.957031 4.96875 -1.71875 C 4.96875 -1.457031 4.910156 -1.210938 4.796875 -0.984375 C 4.691406 -0.765625 4.539062 -0.570312 4.34375 -0.40625 C 4.15625 -0.238281 3.921875 -0.109375 3.640625 -0.015625 C 3.367188 0.078125 3.0625 0.125 2.71875 0.125 Z M 3.21875 -3.796875 C 3.445312 -4.003906 3.625 -4.222656 3.75 -4.453125 C 3.882812 -4.691406 3.953125 -4.9375 3.953125 -5.1875 C 3.953125 -5.539062 3.84375 -5.832031 3.625 -6.0625 C 3.414062 -6.300781 3.117188 -6.421875 2.734375 -6.421875 C 2.410156 -6.421875 2.140625 -6.316406 1.921875 -6.109375 C 1.710938 -5.910156 1.609375 -5.640625 1.609375 -5.296875 C 1.609375 -5.085938 1.648438 -4.90625 1.734375 -4.75 C 1.828125 -4.601562 1.945312 -4.472656 2.09375 -4.359375 C 2.25 -4.242188 2.421875 -4.140625 2.609375 -4.046875 C 2.804688 -3.960938 3.007812 -3.878906 3.21875 -3.796875 Z M 2.75 -0.53125 C 3.15625 -0.53125 3.484375 -0.640625 3.734375 -0.859375 C 3.984375 -1.085938 4.109375 -1.382812 4.109375 -1.75 C 4.109375 -1.976562 4.054688 -2.171875 3.953125 -2.328125 C 3.859375 -2.492188 3.722656 -2.632812 3.546875 -2.75 C 3.367188 -2.875 3.164062 -2.984375 2.9375 -3.078125 C 2.707031 -3.179688 2.46875 -3.28125 2.21875 -3.375 C 1.945312 -3.1875 1.71875 -2.96875 1.53125 -2.71875 C 1.34375 -2.46875 1.25 -2.179688 1.25 -1.859375 C 1.25 -1.671875 1.285156 -1.492188 1.359375 -1.328125 C 1.441406 -1.171875 1.550781 -1.03125 1.6875 -0.90625 C 1.820312 -0.789062 1.976562 -0.695312 2.15625 -0.625 C 2.34375 -0.5625 2.539062 -0.53125 2.75 -0.53125 Z M 2.75 -0.53125 "/></g></g></g><g fill="#000000" fill-opacity="1"><g transform="translate(19.510322, 260.993842)"><g><path d="M 0.984375 0 L 0.984375 -7.15625 L 3.015625 -7.15625 C 3.421875 -7.15625 3.785156 -7.117188 4.109375 -7.046875 C 4.441406 -6.972656 4.722656 -6.851562 4.953125 -6.6875 C 5.191406 -6.53125 5.375 -6.316406 5.5 -6.046875 C 5.632812 -5.773438 5.703125 -5.441406 5.703125 -5.046875 C 5.703125 -4.671875 5.640625 -4.34375 5.515625 -4.0625 C 5.390625 -3.789062 5.207031 -3.5625 4.96875 -3.375 C 4.738281 -3.195312 4.460938 -3.0625 4.140625 -2.96875 C 3.816406 -2.875 3.457031 -2.828125 3.0625 -2.828125 L 1.890625 -2.828125 L 1.890625 0 Z M 1.890625 -3.578125 L 2.953125 -3.578125 C 3.578125 -3.578125 4.039062 -3.691406 4.34375 -3.921875 C 4.644531 -4.160156 4.796875 -4.535156 4.796875 -5.046875 C 4.796875 -5.566406 4.632812 -5.925781 4.3125 -6.125 C 4 -6.320312 3.53125 -6.421875 2.90625 -6.421875 L 1.890625 -6.421875 Z M 1.890625 -3.578125 "/></g></g></g><g fill="#000000" fill-opacity="1"><g transform="translate(25.210972, 260.993842)"><g><path d="M 2.109375 0.125 C 1.671875 0.125 1.300781 -0.00390625 1 -0.265625 C 0.707031 -0.523438 0.5625 -0.894531 0.5625 -1.375 C 0.5625 -1.957031 0.816406 -2.398438 1.328125 -2.703125 C 1.847656 -3.015625 2.675781 -3.234375 3.8125 -3.359375 C 3.8125 -3.523438 3.796875 -3.6875 3.765625 -3.84375 C 3.734375 -4.007812 3.675781 -4.148438 3.59375 -4.265625 C 3.519531 -4.390625 3.410156 -4.488281 3.265625 -4.5625 C 3.117188 -4.644531 2.9375 -4.6875 2.71875 -4.6875 C 2.414062 -4.6875 2.128906 -4.628906 1.859375 -4.515625 C 1.597656 -4.398438 1.359375 -4.269531 1.140625 -4.125 L 0.796875 -4.75 C 1.046875 -4.90625 1.347656 -5.054688 1.703125 -5.203125 C 2.054688 -5.359375 2.445312 -5.4375 2.875 -5.4375 C 3.519531 -5.4375 3.988281 -5.238281 4.28125 -4.84375 C 4.570312 -4.445312 4.71875 -3.914062 4.71875 -3.25 L 4.71875 0 L 3.984375 0 L 3.90625 -0.625 L 3.875 -0.625 C 3.613281 -0.414062 3.335938 -0.238281 3.046875 -0.09375 C 2.765625 0.0507812 2.453125 0.125 2.109375 0.125 Z M 2.375 -0.59375 C 2.632812 -0.59375 2.875 -0.648438 3.09375 -0.765625 C 3.320312 -0.890625 3.5625 -1.066406 3.8125 -1.296875 L 3.8125 -2.765625 C 3.375 -2.710938 3.003906 -2.644531 2.703125 -2.5625 C 2.398438 -2.476562 2.15625 -2.378906 1.96875 -2.265625 C 1.78125 -2.160156 1.644531 -2.035156 1.5625 -1.890625 C 1.476562 -1.753906 1.4375 -1.601562 1.4375 -1.4375 C 1.4375 -1.132812 1.523438 -0.914062 1.703125 -0.78125 C 1.890625 -0.65625 2.113281 -0.59375 2.375 -0.59375 Z M 2.375 -0.59375 "/></g></g></g><g fill="#000000" fill-opacity="1"><g transform="translate(30.704921, 260.993842)"><g><path d="M 0.890625 0 L 0.890625 -5.296875 L 1.640625 -5.296875 L 1.71875 -4.34375 L 1.75 -4.34375 C 1.925781 -4.675781 2.144531 -4.941406 2.40625 -5.140625 C 2.664062 -5.335938 2.945312 -5.4375 3.25 -5.4375 C 3.457031 -5.4375 3.644531 -5.398438 3.8125 -5.328125 L 3.640625 -4.53125 C 3.554688 -4.5625 3.476562 -4.582031 3.40625 -4.59375 C 3.332031 -4.613281 3.238281 -4.625 3.125 -4.625 C 2.90625 -4.625 2.671875 -4.53125 2.421875 -4.34375 C 2.179688 -4.164062 1.96875 -3.851562 1.78125 -3.40625 L 1.78125 0 Z M 0.890625 0 "/></g></g></g><g fill="#000000" fill-opacity="1"><g transform="translate(34.487464, 260.993842)"><g><path d="M 0.890625 0 L 0.890625 -7.765625 L 1.78125 -7.765625 L 1.78125 -2.515625 L 1.8125 -2.515625 L 4.0625 -5.296875 L 5.0625 -5.296875 L 3.28125 -3.171875 L 5.296875 0 L 4.3125 0 L 2.765625 -2.546875 L 1.78125 -1.390625 L 1.78125 0 Z M 0.890625 0 "/></g></g></g><g fill="#000000" fill-opacity="1"><g transform="translate(39.883297, 260.993842)"><g><path d="M 2.28125 0.125 C 1.90625 0.125 1.546875 0.0546875 1.203125 -0.078125 C 0.859375 -0.210938 0.5625 -0.382812 0.3125 -0.59375 L 0.75 -1.203125 C 0.976562 -1.015625 1.210938 -0.859375 1.453125 -0.734375 C 1.703125 -0.617188 1.988281 -0.5625 2.3125 -0.5625 C 2.65625 -0.5625 2.914062 -0.640625 3.09375 -0.796875 C 3.269531 -0.960938 3.359375 -1.160156 3.359375 -1.390625 C 3.359375 -1.535156 3.320312 -1.65625 3.25 -1.75 C 3.175781 -1.851562 3.082031 -1.941406 2.96875 -2.015625 C 2.851562 -2.097656 2.722656 -2.164062 2.578125 -2.21875 C 2.429688 -2.28125 2.289062 -2.34375 2.15625 -2.40625 C 1.957031 -2.46875 1.765625 -2.539062 1.578125 -2.625 C 1.390625 -2.707031 1.21875 -2.804688 1.0625 -2.921875 C 0.914062 -3.046875 0.796875 -3.1875 0.703125 -3.34375 C 0.609375 -3.507812 0.5625 -3.703125 0.5625 -3.921875 C 0.5625 -4.140625 0.601562 -4.335938 0.6875 -4.515625 C 0.769531 -4.703125 0.890625 -4.863281 1.046875 -5 C 1.203125 -5.132812 1.394531 -5.238281 1.625 -5.3125 C 1.851562 -5.394531 2.109375 -5.4375 2.390625 -5.4375 C 2.722656 -5.4375 3.03125 -5.375 3.3125 -5.25 C 3.59375 -5.132812 3.832031 -4.992188 4.03125 -4.828125 L 3.609375 -4.265625 C 3.429688 -4.398438 3.242188 -4.507812 3.046875 -4.59375 C 2.847656 -4.6875 2.632812 -4.734375 2.40625 -4.734375 C 2.0625 -4.734375 1.8125 -4.65625 1.65625 -4.5 C 1.5 -4.351562 1.421875 -4.175781 1.421875 -3.96875 C 1.421875 -3.84375 1.453125 -3.734375 1.515625 -3.640625 C 1.585938 -3.554688 1.675781 -3.476562 1.78125 -3.40625 C 1.894531 -3.332031 2.019531 -3.269531 2.15625 -3.21875 C 2.300781 -3.164062 2.453125 -3.109375 2.609375 -3.046875 C 2.796875 -2.972656 2.984375 -2.894531 3.171875 -2.8125 C 3.367188 -2.738281 3.539062 -2.640625 3.6875 -2.515625 C 3.84375 -2.398438 3.96875 -2.253906 4.0625 -2.078125 C 4.164062 -1.910156 4.21875 -1.703125 4.21875 -1.453125 C 4.21875 -1.234375 4.175781 -1.03125 4.09375 -0.84375 C 4.007812 -0.65625 3.882812 -0.488281 3.71875 -0.34375 C 3.5625 -0.195312 3.359375 -0.0820312 3.109375 0 C 2.867188 0.0820312 2.59375 0.125 2.28125 0.125 Z M 2.28125 0.125 "/></g></g></g><g fill="#000000" fill-opacity="1"><g transform="translate(44.450684, 260.993842)"><g/></g></g><g fill="#000000" fill-opacity="1"><g transform="translate(46.630817, 260.993842)"><g><path d="M 2.53125 0.125 C 2.207031 0.125 1.910156 0.078125 1.640625 -0.015625 C 1.378906 -0.109375 1.148438 -0.242188 0.953125 -0.421875 C 0.765625 -0.597656 0.613281 -0.804688 0.5 -1.046875 C 0.394531 -1.296875 0.34375 -1.566406 0.34375 -1.859375 C 0.34375 -2.097656 0.378906 -2.3125 0.453125 -2.5 C 0.535156 -2.695312 0.640625 -2.878906 0.765625 -3.046875 C 0.898438 -3.210938 1.050781 -3.367188 1.21875 -3.515625 C 1.394531 -3.660156 1.570312 -3.796875 1.75 -3.921875 C 1.601562 -4.210938 1.488281 -4.5 1.40625 -4.78125 C 1.320312 -5.0625 1.28125 -5.332031 1.28125 -5.59375 C 1.28125 -5.832031 1.320312 -6.050781 1.40625 -6.25 C 1.488281 -6.457031 1.601562 -6.640625 1.75 -6.796875 C 1.894531 -6.953125 2.066406 -7.070312 2.265625 -7.15625 C 2.472656 -7.238281 2.695312 -7.28125 2.9375 -7.28125 C 3.382812 -7.28125 3.734375 -7.148438 3.984375 -6.890625 C 4.234375 -6.628906 4.359375 -6.289062 4.359375 -5.875 C 4.359375 -5.632812 4.304688 -5.414062 4.203125 -5.21875 C 4.109375 -5.019531 3.984375 -4.835938 3.828125 -4.671875 C 3.679688 -4.503906 3.507812 -4.34375 3.3125 -4.1875 C 3.125 -4.039062 2.929688 -3.894531 2.734375 -3.75 C 2.972656 -3.382812 3.25 -3.03125 3.5625 -2.6875 C 3.875 -2.34375 4.203125 -2.03125 4.546875 -1.75 C 4.765625 -2.039062 4.957031 -2.359375 5.125 -2.703125 C 5.300781 -3.054688 5.441406 -3.441406 5.546875 -3.859375 L 6.390625 -3.859375 C 6.242188 -3.390625 6.066406 -2.9375 5.859375 -2.5 C 5.660156 -2.070312 5.421875 -1.671875 5.140625 -1.296875 C 5.378906 -1.128906 5.613281 -0.988281 5.84375 -0.875 C 6.070312 -0.757812 6.285156 -0.671875 6.484375 -0.609375 L 6.234375 0.125 C 5.984375 0.0507812 5.71875 -0.046875 5.4375 -0.171875 C 5.164062 -0.304688 4.882812 -0.476562 4.59375 -0.6875 C 4.3125 -0.4375 4 -0.238281 3.65625 -0.09375 C 3.320312 0.0507812 2.945312 0.125 2.53125 0.125 Z M 2.0625 -5.609375 C 2.0625 -5.410156 2.09375 -5.203125 2.15625 -4.984375 C 2.21875 -4.773438 2.300781 -4.566406 2.40625 -4.359375 C 2.5625 -4.460938 2.710938 -4.570312 2.859375 -4.6875 C 3.015625 -4.800781 3.144531 -4.914062 3.25 -5.03125 C 3.363281 -5.15625 3.453125 -5.28125 3.515625 -5.40625 C 3.585938 -5.539062 3.625 -5.691406 3.625 -5.859375 C 3.625 -6.066406 3.566406 -6.25 3.453125 -6.40625 C 3.347656 -6.5625 3.175781 -6.640625 2.9375 -6.640625 C 2.675781 -6.640625 2.460938 -6.539062 2.296875 -6.34375 C 2.140625 -6.144531 2.0625 -5.898438 2.0625 -5.609375 Z M 2.625 -0.59375 C 2.875 -0.59375 3.109375 -0.640625 3.328125 -0.734375 C 3.554688 -0.835938 3.773438 -0.984375 3.984375 -1.171875 C 3.640625 -1.472656 3.304688 -1.800781 2.984375 -2.15625 C 2.660156 -2.519531 2.367188 -2.898438 2.109375 -3.296875 C 1.859375 -3.085938 1.644531 -2.875 1.46875 -2.65625 C 1.300781 -2.4375 1.21875 -2.1875 1.21875 -1.90625 C 1.21875 -1.707031 1.253906 -1.523438 1.328125 -1.359375 C 1.398438 -1.203125 1.5 -1.066406 1.625 -0.953125 C 1.757812 -0.835938 1.910156 -0.75 2.078125 -0.6875 C 2.242188 -0.625 2.425781 -0.59375 2.625 -0.59375 Z M 2.625 -0.59375 "/></g></g></g><g fill="#000000" fill-opacity="1"><g transform="translate(53.26933, 260.993842)"><g/></g></g><g fill="#000000" fill-opacity="1"><g transform="translate(55.449462, 260.993842)"><g><path d="M 0.984375 0 L 0.984375 -7.15625 L 3.21875 -7.15625 C 3.582031 -7.15625 3.914062 -7.117188 4.21875 -7.046875 C 4.53125 -6.984375 4.796875 -6.867188 5.015625 -6.703125 C 5.242188 -6.546875 5.414062 -6.335938 5.53125 -6.078125 C 5.65625 -5.828125 5.71875 -5.515625 5.71875 -5.140625 C 5.71875 -4.585938 5.570312 -4.140625 5.28125 -3.796875 C 5 -3.460938 4.609375 -3.238281 4.109375 -3.125 L 5.9375 0 L 4.90625 0 L 3.1875 -3.015625 L 1.890625 -3.015625 L 1.890625 0 Z M 1.890625 -3.765625 L 3.09375 -3.765625 C 3.644531 -3.765625 4.070312 -3.878906 4.375 -4.109375 C 4.675781 -4.335938 4.828125 -4.679688 4.828125 -5.140625 C 4.828125 -5.617188 4.675781 -5.953125 4.375 -6.140625 C 4.070312 -6.328125 3.644531 -6.421875 3.09375 -6.421875 L 1.890625 -6.421875 Z M 1.890625 -3.765625 "/></g></g></g><g fill="#000000" fill-opacity="1"><g transform="translate(61.542845, 260.993842)"><g><path d="M 3.046875 0.125 C 2.691406 0.125 2.359375 0.0625 2.046875 -0.0625 C 1.734375 -0.1875 1.460938 -0.363281 1.234375 -0.59375 C 1.003906 -0.832031 0.820312 -1.125 0.6875 -1.46875 C 0.5625 -1.8125 0.5 -2.203125 0.5 -2.640625 C 0.5 -3.078125 0.566406 -3.46875 0.703125 -3.8125 C 0.835938 -4.15625 1.015625 -4.445312 1.234375 -4.6875 C 1.460938 -4.925781 1.71875 -5.109375 2 -5.234375 C 2.28125 -5.367188 2.570312 -5.4375 2.875 -5.4375 C 3.207031 -5.4375 3.503906 -5.375 3.765625 -5.25 C 4.035156 -5.132812 4.257812 -4.96875 4.4375 -4.75 C 4.625 -4.53125 4.765625 -4.269531 4.859375 -3.96875 C 4.953125 -3.664062 5 -3.320312 5 -2.9375 C 5 -2.84375 4.992188 -2.75 4.984375 -2.65625 C 4.984375 -2.570312 4.976562 -2.5 4.96875 -2.4375 L 1.390625 -2.4375 C 1.421875 -1.863281 1.59375 -1.410156 1.90625 -1.078125 C 2.226562 -0.753906 2.644531 -0.59375 3.15625 -0.59375 C 3.40625 -0.59375 3.632812 -0.628906 3.84375 -0.703125 C 4.0625 -0.773438 4.269531 -0.875 4.46875 -1 L 4.78125 -0.421875 C 4.550781 -0.273438 4.296875 -0.144531 4.015625 -0.03125 C 3.734375 0.0703125 3.410156 0.125 3.046875 0.125 Z M 1.375 -3.078125 L 4.203125 -3.078125 C 4.203125 -3.609375 4.085938 -4.015625 3.859375 -4.296875 C 3.628906 -4.578125 3.3125 -4.71875 2.90625 -4.71875 C 2.71875 -4.71875 2.535156 -4.679688 2.359375 -4.609375 C 2.191406 -4.535156 2.035156 -4.425781 1.890625 -4.28125 C 1.753906 -4.144531 1.640625 -3.972656 1.546875 -3.765625 C 1.460938 -3.566406 1.40625 -3.335938 1.375 -3.078125 Z M 1.375 -3.078125 "/></g></g></g><g fill="#000000" fill-opacity="1"><g transform="translate(66.949581, 260.993842)"><g><path d="M 2.984375 0.125 C 2.640625 0.125 2.3125 0.0664062 2 -0.046875 C 1.695312 -0.171875 1.4375 -0.351562 1.21875 -0.59375 C 1 -0.832031 0.820312 -1.125 0.6875 -1.46875 C 0.5625 -1.8125 0.5 -2.203125 0.5 -2.640625 C 0.5 -3.078125 0.566406 -3.46875 0.703125 -3.8125 C 0.847656 -4.164062 1.035156 -4.460938 1.265625 -4.703125 C 1.492188 -4.941406 1.765625 -5.125 2.078125 -5.25 C 2.390625 -5.375 2.710938 -5.4375 3.046875 -5.4375 C 3.398438 -5.4375 3.695312 -5.375 3.9375 -5.25 C 4.1875 -5.125 4.410156 -4.976562 4.609375 -4.8125 L 4.140625 -4.21875 C 3.992188 -4.351562 3.832031 -4.460938 3.65625 -4.546875 C 3.488281 -4.640625 3.300781 -4.6875 3.09375 -4.6875 C 2.84375 -4.6875 2.613281 -4.632812 2.40625 -4.53125 C 2.207031 -4.4375 2.035156 -4.296875 1.890625 -4.109375 C 1.742188 -3.929688 1.628906 -3.71875 1.546875 -3.46875 C 1.460938 -3.21875 1.421875 -2.941406 1.421875 -2.640625 C 1.421875 -2.335938 1.460938 -2.0625 1.546875 -1.8125 C 1.628906 -1.5625 1.738281 -1.347656 1.875 -1.171875 C 2.019531 -0.992188 2.191406 -0.851562 2.390625 -0.75 C 2.597656 -0.65625 2.820312 -0.609375 3.0625 -0.609375 C 3.3125 -0.609375 3.539062 -0.660156 3.75 -0.765625 C 3.957031 -0.867188 4.144531 -0.992188 4.3125 -1.140625 L 4.703125 -0.546875 C 4.460938 -0.335938 4.195312 -0.171875 3.90625 -0.046875 C 3.613281 0.0664062 3.304688 0.125 2.984375 0.125 Z M 2.984375 0.125 "/></g></g></g><g fill="#000000" fill-opacity="1"><g transform="translate(43.616553, 272.266626)"><g><path d="M 2.921875 0.125 C 2.578125 0.125 2.257812 0.0546875 1.96875 -0.078125 C 1.675781 -0.210938 1.421875 -0.421875 1.203125 -0.703125 C 0.992188 -0.984375 0.828125 -1.332031 0.703125 -1.75 C 0.585938 -2.164062 0.53125 -2.65625 0.53125 -3.21875 C 0.53125 -3.914062 0.597656 -4.507812 0.734375 -5 C 0.878906 -5.488281 1.078125 -5.882812 1.328125 -6.1875 C 1.578125 -6.5 1.859375 -6.726562 2.171875 -6.875 C 2.492188 -7.019531 2.828125 -7.09375 3.171875 -7.09375 C 3.546875 -7.09375 3.867188 -7.019531 4.140625 -6.875 C 4.421875 -6.726562 4.660156 -6.550781 4.859375 -6.34375 L 4.359375 -5.796875 C 4.210938 -5.960938 4.035156 -6.09375 3.828125 -6.1875 C 3.628906 -6.289062 3.421875 -6.34375 3.203125 -6.34375 C 2.960938 -6.34375 2.734375 -6.289062 2.515625 -6.1875 C 2.296875 -6.082031 2.101562 -5.910156 1.9375 -5.671875 C 1.769531 -5.441406 1.632812 -5.140625 1.53125 -4.765625 C 1.4375 -4.390625 1.382812 -3.925781 1.375 -3.375 C 1.59375 -3.644531 1.847656 -3.859375 2.140625 -4.015625 C 2.429688 -4.171875 2.71875 -4.25 3 -4.25 C 3.601562 -4.25 4.082031 -4.070312 4.4375 -3.71875 C 4.800781 -3.363281 4.984375 -2.828125 4.984375 -2.109375 C 4.984375 -1.773438 4.925781 -1.46875 4.8125 -1.1875 C 4.707031 -0.914062 4.5625 -0.679688 4.375 -0.484375 C 4.1875 -0.296875 3.96875 -0.144531 3.71875 -0.03125 C 3.46875 0.0703125 3.203125 0.125 2.921875 0.125 Z M 2.921875 -0.578125 C 3.097656 -0.578125 3.257812 -0.613281 3.40625 -0.6875 C 3.550781 -0.757812 3.675781 -0.863281 3.78125 -1 C 3.894531 -1.132812 3.984375 -1.289062 4.046875 -1.46875 C 4.109375 -1.65625 4.140625 -1.867188 4.140625 -2.109375 C 4.140625 -2.566406 4.03125 -2.925781 3.8125 -3.1875 C 3.601562 -3.445312 3.28125 -3.578125 2.84375 -3.578125 C 2.625 -3.578125 2.378906 -3.503906 2.109375 -3.359375 C 1.847656 -3.222656 1.609375 -2.988281 1.390625 -2.65625 C 1.453125 -1.976562 1.609375 -1.460938 1.859375 -1.109375 C 2.117188 -0.753906 2.472656 -0.578125 2.921875 -0.578125 Z M 2.921875 -0.578125 "/></g></g></g><g fill="#000000" fill-opacity="1"><g transform="translate(4.023749, 83.942696)"><g><path d="M 0.984375 0 L 0.984375 -7.15625 L 3.015625 -7.15625 C 3.421875 -7.15625 3.785156 -7.117188 4.109375 -7.046875 C 4.441406 -6.972656 4.722656 -6.851562 4.953125 -6.6875 C 5.191406 -6.53125 5.375 -6.316406 5.5 -6.046875 C 5.632812 -5.773438 5.703125 -5.441406 5.703125 -5.046875 C 5.703125 -4.671875 5.640625 -4.34375 5.515625 -4.0625 C 5.390625 -3.789062 5.207031 -3.5625 4.96875 -3.375 C 4.738281 -3.195312 4.460938 -3.0625 4.140625 -2.96875 C 3.816406 -2.875 3.457031 -2.828125 3.0625 -2.828125 L 1.890625 -2.828125 L 1.890625 0 Z M 1.890625 -3.578125 L 2.953125 -3.578125 C 3.578125 -3.578125 4.039062 -3.691406 4.34375 -3.921875 C 4.644531 -4.160156 4.796875 -4.535156 4.796875 -5.046875 C 4.796875 -5.566406 4.632812 -5.925781 4.3125 -6.125 C 4 -6.320312 3.53125 -6.421875 2.90625 -6.421875 L 1.890625 -6.421875 Z M 1.890625 -3.578125 "/></g></g></g><g fill="#000000" fill-opacity="1"><g transform="translate(10.193535, 83.942696)"><g><path d="M 2.4375 0.125 C 1.875 0.125 1.460938 -0.046875 1.203125 -0.390625 C 0.941406 -0.742188 0.8125 -1.257812 0.8125 -1.9375 L 0.8125 -5.296875 L 1.71875 -5.296875 L 1.71875 -2.0625 C 1.71875 -1.5625 1.796875 -1.195312 1.953125 -0.96875 C 2.109375 -0.75 2.363281 -0.640625 2.71875 -0.640625 C 2.988281 -0.640625 3.226562 -0.707031 3.4375 -0.84375 C 3.65625 -0.988281 3.890625 -1.21875 4.140625 -1.53125 L 4.140625 -5.296875 L 5.03125 -5.296875 L 5.03125 0 L 4.296875 0 L 4.21875 -0.828125 L 4.1875 -0.828125 C 3.9375 -0.535156 3.675781 -0.300781 3.40625 -0.125 C 3.132812 0.0390625 2.8125 0.125 2.4375 0.125 Z M 2.4375 0.125 "/></g></g></g><g fill="#000000" fill-opacity="1"><g transform="translate(16.123513, 83.942696)"><g><path d="M 3.234375 0.125 C 2.992188 0.125 2.738281 0.0664062 2.46875 -0.046875 C 2.207031 -0.171875 1.957031 -0.335938 1.71875 -0.546875 L 1.6875 -0.546875 L 1.609375 0 L 0.890625 0 L 0.890625 -7.765625 L 1.78125 -7.765625 L 1.78125 -5.65625 L 1.765625 -4.6875 C 2.003906 -4.894531 2.265625 -5.070312 2.546875 -5.21875 C 2.835938 -5.363281 3.128906 -5.4375 3.421875 -5.4375 C 3.765625 -5.4375 4.066406 -5.367188 4.328125 -5.234375 C 4.585938 -5.109375 4.804688 -4.925781 4.984375 -4.6875 C 5.160156 -4.457031 5.296875 -4.175781 5.390625 -3.84375 C 5.484375 -3.507812 5.53125 -3.140625 5.53125 -2.734375 C 5.53125 -2.285156 5.46875 -1.882812 5.34375 -1.53125 C 5.21875 -1.175781 5.050781 -0.875 4.84375 -0.625 C 4.632812 -0.375 4.390625 -0.1875 4.109375 -0.0625 C 3.835938 0.0625 3.546875 0.125 3.234375 0.125 Z M 3.09375 -0.625 C 3.300781 -0.625 3.5 -0.671875 3.6875 -0.765625 C 3.875 -0.867188 4.035156 -1.007812 4.171875 -1.1875 C 4.304688 -1.363281 4.410156 -1.582031 4.484375 -1.84375 C 4.566406 -2.101562 4.609375 -2.394531 4.609375 -2.71875 C 4.609375 -3.007812 4.582031 -3.273438 4.53125 -3.515625 C 4.476562 -3.753906 4.394531 -3.957031 4.28125 -4.125 C 4.164062 -4.300781 4.019531 -4.4375 3.84375 -4.53125 C 3.664062 -4.625 3.453125 -4.671875 3.203125 -4.671875 C 2.773438 -4.671875 2.300781 -4.429688 1.78125 -3.953125 L 1.78125 -1.171875 C 2.019531 -0.972656 2.253906 -0.832031 2.484375 -0.75 C 2.710938 -0.664062 2.914062 -0.625 3.09375 -0.625 Z M 3.09375 -0.625 "/></g></g></g><g fill="#000000" fill-opacity="1"><g transform="translate(22.151595, 83.942696)"><g><path d="M 1.84375 0.125 C 1.5 0.125 1.253906 0.0234375 1.109375 -0.171875 C 0.960938 -0.378906 0.890625 -0.675781 0.890625 -1.0625 L 0.890625 -7.765625 L 1.78125 -7.765625 L 1.78125 -1 C 1.78125 -0.851562 1.804688 -0.75 1.859375 -0.6875 C 1.910156 -0.632812 1.972656 -0.609375 2.046875 -0.609375 C 2.066406 -0.609375 2.085938 -0.609375 2.109375 -0.609375 C 2.140625 -0.609375 2.179688 -0.613281 2.234375 -0.625 L 2.359375 0.046875 C 2.296875 0.078125 2.222656 0.0976562 2.140625 0.109375 C 2.066406 0.117188 1.96875 0.125 1.84375 0.125 Z M 1.84375 0.125 "/></g></g></g><g fill="#000000" fill-opacity="1"><g transform="translate(24.931267, 83.942696)"><g><path d="M 0.890625 0 L 0.890625 -5.296875 L 1.78125 -5.296875 L 1.78125 0 Z M 1.359375 -6.390625 C 1.179688 -6.390625 1.03125 -6.441406 0.90625 -6.546875 C 0.789062 -6.660156 0.734375 -6.800781 0.734375 -6.96875 C 0.734375 -7.144531 0.789062 -7.285156 0.90625 -7.390625 C 1.03125 -7.492188 1.179688 -7.546875 1.359375 -7.546875 C 1.523438 -7.546875 1.664062 -7.492188 1.78125 -7.390625 C 1.90625 -7.285156 1.96875 -7.144531 1.96875 -6.96875 C 1.96875 -6.800781 1.90625 -6.660156 1.78125 -6.546875 C 1.664062 -6.441406 1.523438 -6.390625 1.359375 -6.390625 Z M 1.359375 -6.390625 "/></g></g></g><g fill="#000000" fill-opacity="1"><g transform="translate(27.612835, 83.942696)"><g><path d="M 2.984375 0.125 C 2.640625 0.125 2.3125 0.0664062 2 -0.046875 C 1.695312 -0.171875 1.4375 -0.351562 1.21875 -0.59375 C 1 -0.832031 0.820312 -1.125 0.6875 -1.46875 C 0.5625 -1.8125 0.5 -2.203125 0.5 -2.640625 C 0.5 -3.078125 0.566406 -3.46875 0.703125 -3.8125 C 0.847656 -4.164062 1.035156 -4.460938 1.265625 -4.703125 C 1.492188 -4.941406 1.765625 -5.125 2.078125 -5.25 C 2.390625 -5.375 2.710938 -5.4375 3.046875 -5.4375 C 3.398438 -5.4375 3.695312 -5.375 3.9375 -5.25 C 4.1875 -5.125 4.410156 -4.976562 4.609375 -4.8125 L 4.140625 -4.21875 C 3.992188 -4.351562 3.832031 -4.460938 3.65625 -4.546875 C 3.488281 -4.640625 3.300781 -4.6875 3.09375 -4.6875 C 2.84375 -4.6875 2.613281 -4.632812 2.40625 -4.53125 C 2.207031 -4.4375 2.035156 -4.296875 1.890625 -4.109375 C 1.742188 -3.929688 1.628906 -3.71875 1.546875 -3.46875 C 1.460938 -3.21875 1.421875 -2.941406 1.421875 -2.640625 C 1.421875 -2.335938 1.460938 -2.0625 1.546875 -1.8125 C 1.628906 -1.5625 1.738281 -1.347656 1.875 -1.171875 C 2.019531 -0.992188 2.191406 -0.851562 2.390625 -0.75 C 2.597656 -0.65625 2.820312 -0.609375 3.0625 -0.609375 C 3.3125 -0.609375 3.539062 -0.660156 3.75 -0.765625 C 3.957031 -0.867188 4.144531 -0.992188 4.3125 -1.140625 L 4.703125 -0.546875 C 4.460938 -0.335938 4.195312 -0.171875 3.90625 -0.046875 C 3.613281 0.0664062 3.304688 0.125 2.984375 0.125 Z M 2.984375 0.125 "/></g></g></g><g fill="#000000" fill-opacity="1"><g transform="translate(32.583542, 83.942696)"><g/></g></g><g fill="#000000" fill-opacity="1"><g transform="translate(34.763675, 83.942696)"><g><path d="M 2.96875 0.125 C 2.46875 0.125 2 0.03125 1.5625 -0.15625 C 1.132812 -0.34375 0.765625 -0.597656 0.453125 -0.921875 L 1 -1.5625 C 1.257812 -1.289062 1.5625 -1.070312 1.90625 -0.90625 C 2.25 -0.75 2.609375 -0.671875 2.984375 -0.671875 C 3.453125 -0.671875 3.816406 -0.773438 4.078125 -0.984375 C 4.335938 -1.203125 4.46875 -1.484375 4.46875 -1.828125 C 4.46875 -2.015625 4.4375 -2.171875 4.375 -2.296875 C 4.3125 -2.421875 4.226562 -2.53125 4.125 -2.625 C 4.019531 -2.71875 3.894531 -2.800781 3.75 -2.875 C 3.601562 -2.945312 3.445312 -3.019531 3.28125 -3.09375 L 2.25 -3.546875 C 2.082031 -3.617188 1.910156 -3.703125 1.734375 -3.796875 C 1.566406 -3.898438 1.410156 -4.023438 1.265625 -4.171875 C 1.128906 -4.316406 1.019531 -4.488281 0.9375 -4.6875 C 0.851562 -4.894531 0.8125 -5.128906 0.8125 -5.390625 C 0.8125 -5.660156 0.863281 -5.910156 0.96875 -6.140625 C 1.082031 -6.367188 1.238281 -6.566406 1.4375 -6.734375 C 1.644531 -6.910156 1.882812 -7.046875 2.15625 -7.140625 C 2.425781 -7.234375 2.722656 -7.28125 3.046875 -7.28125 C 3.484375 -7.28125 3.878906 -7.195312 4.234375 -7.03125 C 4.597656 -6.875 4.910156 -6.664062 5.171875 -6.40625 L 4.671875 -5.8125 C 4.460938 -6.019531 4.222656 -6.179688 3.953125 -6.296875 C 3.691406 -6.421875 3.390625 -6.484375 3.046875 -6.484375 C 2.648438 -6.484375 2.328125 -6.390625 2.078125 -6.203125 C 1.835938 -6.023438 1.71875 -5.769531 1.71875 -5.4375 C 1.71875 -5.269531 1.753906 -5.125 1.828125 -5 C 1.898438 -4.882812 1.992188 -4.78125 2.109375 -4.6875 C 2.222656 -4.59375 2.347656 -4.507812 2.484375 -4.4375 C 2.617188 -4.375 2.757812 -4.3125 2.90625 -4.25 L 3.921875 -3.8125 C 4.128906 -3.726562 4.320312 -3.628906 4.5 -3.515625 C 4.6875 -3.398438 4.84375 -3.269531 4.96875 -3.125 C 5.101562 -2.976562 5.207031 -2.800781 5.28125 -2.59375 C 5.363281 -2.394531 5.40625 -2.164062 5.40625 -1.90625 C 5.40625 -1.625 5.347656 -1.359375 5.234375 -1.109375 C 5.117188 -0.859375 4.953125 -0.640625 4.734375 -0.453125 C 4.523438 -0.273438 4.269531 -0.132812 3.96875 -0.03125 C 3.675781 0.0703125 3.34375 0.125 2.96875 0.125 Z M 2.96875 0.125 "/></g></g></g><g fill="#000000" fill-opacity="1"><g transform="translate(40.584645, 83.942696)"><g><path d="M 2.109375 0.125 C 1.671875 0.125 1.300781 -0.00390625 1 -0.265625 C 0.707031 -0.523438 0.5625 -0.894531 0.5625 -1.375 C 0.5625 -1.957031 0.816406 -2.398438 1.328125 -2.703125 C 1.847656 -3.015625 2.675781 -3.234375 3.8125 -3.359375 C 3.8125 -3.523438 3.796875 -3.6875 3.765625 -3.84375 C 3.734375 -4.007812 3.675781 -4.148438 3.59375 -4.265625 C 3.519531 -4.390625 3.410156 -4.488281 3.265625 -4.5625 C 3.117188 -4.644531 2.9375 -4.6875 2.71875 -4.6875 C 2.414062 -4.6875 2.128906 -4.628906 1.859375 -4.515625 C 1.597656 -4.398438 1.359375 -4.269531 1.140625 -4.125 L 0.796875 -4.75 C 1.046875 -4.90625 1.347656 -5.054688 1.703125 -5.203125 C 2.054688 -5.359375 2.445312 -5.4375 2.875 -5.4375 C 3.519531 -5.4375 3.988281 -5.238281 4.28125 -4.84375 C 4.570312 -4.445312 4.71875 -3.914062 4.71875 -3.25 L 4.71875 0 L 3.984375 0 L 3.90625 -0.625 L 3.875 -0.625 C 3.613281 -0.414062 3.335938 -0.238281 3.046875 -0.09375 C 2.765625 0.0507812 2.453125 0.125 2.109375 0.125 Z M 2.375 -0.59375 C 2.632812 -0.59375 2.875 -0.648438 3.09375 -0.765625 C 3.320312 -0.890625 3.5625 -1.066406 3.8125 -1.296875 L 3.8125 -2.765625 C 3.375 -2.710938 3.003906 -2.644531 2.703125 -2.5625 C 2.398438 -2.476562 2.15625 -2.378906 1.96875 -2.265625 C 1.78125 -2.160156 1.644531 -2.035156 1.5625 -1.890625 C 1.476562 -1.753906 1.4375 -1.601562 1.4375 -1.4375 C 1.4375 -1.132812 1.523438 -0.914062 1.703125 -0.78125 C 1.890625 -0.65625 2.113281 -0.59375 2.375 -0.59375 Z M 2.375 -0.59375 "/></g></g></g><g fill="#000000" fill-opacity="1"><g transform="translate(46.078594, 83.942696)"><g><path d="M 1.046875 0 L 1.046875 -4.5625 L 0.328125 -4.5625 L 0.328125 -5.25 L 1.046875 -5.296875 L 1.046875 -6.140625 C 1.046875 -6.679688 1.171875 -7.109375 1.421875 -7.421875 C 1.671875 -7.734375 2.0625 -7.890625 2.59375 -7.890625 C 2.757812 -7.890625 2.914062 -7.875 3.0625 -7.84375 C 3.21875 -7.8125 3.359375 -7.769531 3.484375 -7.71875 L 3.28125 -7.03125 C 3.082031 -7.125 2.882812 -7.171875 2.6875 -7.171875 C 2.1875 -7.171875 1.9375 -6.828125 1.9375 -6.140625 L 1.9375 -5.296875 L 3.0625 -5.296875 L 3.0625 -4.5625 L 1.9375 -4.5625 L 1.9375 0 Z M 1.046875 0 "/></g></g></g><g fill="#000000" fill-opacity="1"><g transform="translate(49.152497, 83.942696)"><g><path d="M 3.046875 0.125 C 2.691406 0.125 2.359375 0.0625 2.046875 -0.0625 C 1.734375 -0.1875 1.460938 -0.363281 1.234375 -0.59375 C 1.003906 -0.832031 0.820312 -1.125 0.6875 -1.46875 C 0.5625 -1.8125 0.5 -2.203125 0.5 -2.640625 C 0.5 -3.078125 0.566406 -3.46875 0.703125 -3.8125 C 0.835938 -4.15625 1.015625 -4.445312 1.234375 -4.6875 C 1.460938 -4.925781 1.71875 -5.109375 2 -5.234375 C 2.28125 -5.367188 2.570312 -5.4375 2.875 -5.4375 C 3.207031 -5.4375 3.503906 -5.375 3.765625 -5.25 C 4.035156 -5.132812 4.257812 -4.96875 4.4375 -4.75 C 4.625 -4.53125 4.765625 -4.269531 4.859375 -3.96875 C 4.953125 -3.664062 5 -3.320312 5 -2.9375 C 5 -2.84375 4.992188 -2.75 4.984375 -2.65625 C 4.984375 -2.570312 4.976562 -2.5 4.96875 -2.4375 L 1.390625 -2.4375 C 1.421875 -1.863281 1.59375 -1.410156 1.90625 -1.078125 C 2.226562 -0.753906 2.644531 -0.59375 3.15625 -0.59375 C 3.40625 -0.59375 3.632812 -0.628906 3.84375 -0.703125 C 4.0625 -0.773438 4.269531 -0.875 4.46875 -1 L 4.78125 -0.421875 C 4.550781 -0.273438 4.296875 -0.144531 4.015625 -0.03125 C 3.734375 0.0703125 3.410156 0.125 3.046875 0.125 Z M 1.375 -3.078125 L 4.203125 -3.078125 C 4.203125 -3.609375 4.085938 -4.015625 3.859375 -4.296875 C 3.628906 -4.578125 3.3125 -4.71875 2.90625 -4.71875 C 2.71875 -4.71875 2.535156 -4.679688 2.359375 -4.609375 C 2.191406 -4.535156 2.035156 -4.425781 1.890625 -4.28125 C 1.753906 -4.144531 1.640625 -3.972656 1.546875 -3.765625 C 1.460938 -3.566406 1.40625 -3.335938 1.375 -3.078125 Z M 1.375 -3.078125 "/></g></g></g><g fill="#000000" fill-opacity="1"><g transform="translate(54.450132, 83.942696)"><g><path d="M 2.5625 0.125 C 2.28125 0.125 2.039062 0.0820312 1.84375 0 C 1.65625 -0.0820312 1.5 -0.203125 1.375 -0.359375 C 1.257812 -0.515625 1.175781 -0.703125 1.125 -0.921875 C 1.070312 -1.140625 1.046875 -1.378906 1.046875 -1.640625 L 1.046875 -4.5625 L 0.265625 -4.5625 L 0.265625 -5.25 L 1.09375 -5.296875 L 1.203125 -6.78125 L 1.953125 -6.78125 L 1.953125 -5.296875 L 3.375 -5.296875 L 3.375 -4.5625 L 1.953125 -4.5625 L 1.953125 -1.625 C 1.953125 -1.300781 2.007812 -1.046875 2.125 -0.859375 C 2.25 -0.679688 2.460938 -0.59375 2.765625 -0.59375 C 2.859375 -0.59375 2.957031 -0.609375 3.0625 -0.640625 C 3.175781 -0.671875 3.28125 -0.703125 3.375 -0.734375 L 3.546875 -0.0625 C 3.398438 -0.0078125 3.238281 0.03125 3.0625 0.0625 C 2.894531 0.101562 2.726562 0.125 2.5625 0.125 Z M 2.5625 0.125 "/></g></g></g><g fill="#000000" fill-opacity="1"><g transform="translate(58.134559, 83.942696)"><g><path d="M 0.984375 2.28125 C 0.859375 2.28125 0.742188 2.269531 0.640625 2.25 C 0.535156 2.226562 0.441406 2.203125 0.359375 2.171875 L 0.53125 1.46875 C 0.59375 1.476562 0.660156 1.488281 0.734375 1.5 C 0.804688 1.519531 0.875 1.53125 0.9375 1.53125 C 1.238281 1.53125 1.484375 1.421875 1.671875 1.203125 C 1.867188 0.992188 2.023438 0.726562 2.140625 0.40625 L 2.25 0.015625 L 0.125 -5.296875 L 1.0625 -5.296875 L 2.140625 -2.359375 C 2.210938 -2.128906 2.296875 -1.882812 2.390625 -1.625 C 2.484375 -1.375 2.570312 -1.125 2.65625 -0.875 L 2.6875 -0.875 C 2.769531 -1.113281 2.847656 -1.363281 2.921875 -1.625 C 2.992188 -1.882812 3.066406 -2.128906 3.140625 -2.359375 L 4.09375 -5.296875 L 4.96875 -5.296875 L 2.96875 0.4375 C 2.875 0.695312 2.765625 0.9375 2.640625 1.15625 C 2.523438 1.382812 2.390625 1.582031 2.234375 1.75 C 2.078125 1.914062 1.894531 2.046875 1.6875 2.140625 C 1.488281 2.234375 1.253906 2.28125 0.984375 2.28125 Z M 0.984375 2.28125 "/></g></g></g><g fill="#000000" fill-opacity="1"><g transform="translate(31.467397, 97.532464)"><g><path d="M 2.546875 0.125 C 2.273438 0.125 2.023438 0.0976562 1.796875 0.046875 C 1.566406 -0.00390625 1.359375 -0.0703125 1.171875 -0.15625 C 0.984375 -0.25 0.816406 -0.347656 0.671875 -0.453125 C 0.523438 -0.566406 0.390625 -0.6875 0.265625 -0.8125 L 0.703125 -1.40625 C 0.910156 -1.195312 1.15625 -1.007812 1.4375 -0.84375 C 1.71875 -0.6875 2.0625 -0.609375 2.46875 -0.609375 C 2.675781 -0.609375 2.875 -0.644531 3.0625 -0.71875 C 3.25 -0.800781 3.410156 -0.910156 3.546875 -1.046875 C 3.679688 -1.179688 3.785156 -1.347656 3.859375 -1.546875 C 3.941406 -1.742188 3.984375 -1.960938 3.984375 -2.203125 C 3.984375 -2.679688 3.847656 -3.054688 3.578125 -3.328125 C 3.316406 -3.597656 2.960938 -3.734375 2.515625 -3.734375 C 2.273438 -3.734375 2.066406 -3.695312 1.890625 -3.625 C 1.722656 -3.550781 1.53125 -3.441406 1.3125 -3.296875 L 0.84375 -3.609375 L 1.0625 -6.953125 L 4.546875 -6.953125 L 4.546875 -6.1875 L 1.859375 -6.1875 L 1.671875 -4.125 C 1.835938 -4.207031 2.003906 -4.273438 2.171875 -4.328125 C 2.335938 -4.378906 2.523438 -4.40625 2.734375 -4.40625 C 3.035156 -4.40625 3.316406 -4.359375 3.578125 -4.265625 C 3.835938 -4.179688 4.066406 -4.050781 4.265625 -3.875 C 4.460938 -3.695312 4.613281 -3.472656 4.71875 -3.203125 C 4.832031 -2.929688 4.890625 -2.601562 4.890625 -2.21875 C 4.890625 -1.84375 4.820312 -1.507812 4.6875 -1.21875 C 4.5625 -0.925781 4.390625 -0.679688 4.171875 -0.484375 C 3.953125 -0.285156 3.703125 -0.132812 3.421875 -0.03125 C 3.148438 0.0703125 2.859375 0.125 2.546875 0.125 Z M 2.546875 0.125 "/></g></g></g><g fill="#000000" fill-opacity="1"><g transform="translate(126.787857, 18.082743)"><g><path d="M 0.984375 0 L 0.984375 -7.15625 L 1.890625 -7.15625 L 1.890625 -4.15625 L 5.21875 -4.15625 L 5.21875 -7.15625 L 6.125 -7.15625 L 6.125 0 L 5.21875 0 L 5.21875 -3.375 L 1.890625 -3.375 L 1.890625 0 Z M 0.984375 0 "/></g></g></g><g fill="#000000" fill-opacity="1"><g transform="translate(133.895108, 18.082743)"><g><path d="M 3.046875 0.125 C 2.691406 0.125 2.359375 0.0625 2.046875 -0.0625 C 1.734375 -0.1875 1.460938 -0.363281 1.234375 -0.59375 C 1.003906 -0.832031 0.820312 -1.125 0.6875 -1.46875 C 0.5625 -1.8125 0.5 -2.203125 0.5 -2.640625 C 0.5 -3.078125 0.566406 -3.46875 0.703125 -3.8125 C 0.835938 -4.15625 1.015625 -4.445312 1.234375 -4.6875 C 1.460938 -4.925781 1.71875 -5.109375 2 -5.234375 C 2.28125 -5.367188 2.570312 -5.4375 2.875 -5.4375 C 3.207031 -5.4375 3.503906 -5.375 3.765625 -5.25 C 4.035156 -5.132812 4.257812 -4.96875 4.4375 -4.75 C 4.625 -4.53125 4.765625 -4.269531 4.859375 -3.96875 C 4.953125 -3.664062 5 -3.320312 5 -2.9375 C 5 -2.84375 4.992188 -2.75 4.984375 -2.65625 C 4.984375 -2.570312 4.976562 -2.5 4.96875 -2.4375 L 1.390625 -2.4375 C 1.421875 -1.863281 1.59375 -1.410156 1.90625 -1.078125 C 2.226562 -0.753906 2.644531 -0.59375 3.15625 -0.59375 C 3.40625 -0.59375 3.632812 -0.628906 3.84375 -0.703125 C 4.0625 -0.773438 4.269531 -0.875 4.46875 -1 L 4.78125 -0.421875 C 4.550781 -0.273438 4.296875 -0.144531 4.015625 -0.03125 C 3.734375 0.0703125 3.410156 0.125 3.046875 0.125 Z M 1.375 -3.078125 L 4.203125 -3.078125 C 4.203125 -3.609375 4.085938 -4.015625 3.859375 -4.296875 C 3.628906 -4.578125 3.3125 -4.71875 2.90625 -4.71875 C 2.71875 -4.71875 2.535156 -4.679688 2.359375 -4.609375 C 2.191406 -4.535156 2.035156 -4.425781 1.890625 -4.28125 C 1.753906 -4.144531 1.640625 -3.972656 1.546875 -3.765625 C 1.460938 -3.566406 1.40625 -3.335938 1.375 -3.078125 Z M 1.375 -3.078125 "/></g></g></g><g fill="#000000" fill-opacity="1"><g transform="translate(139.149096, 18.082743)"><g><path d="M 2.109375 0.125 C 1.671875 0.125 1.300781 -0.00390625 1 -0.265625 C 0.707031 -0.523438 0.5625 -0.894531 0.5625 -1.375 C 0.5625 -1.957031 0.816406 -2.398438 1.328125 -2.703125 C 1.847656 -3.015625 2.675781 -3.234375 3.8125 -3.359375 C 3.8125 -3.523438 3.796875 -3.6875 3.765625 -3.84375 C 3.734375 -4.007812 3.675781 -4.148438 3.59375 -4.265625 C 3.519531 -4.390625 3.410156 -4.488281 3.265625 -4.5625 C 3.117188 -4.644531 2.9375 -4.6875 2.71875 -4.6875 C 2.414062 -4.6875 2.128906 -4.628906 1.859375 -4.515625 C 1.597656 -4.398438 1.359375 -4.269531 1.140625 -4.125 L 0.796875 -4.75 C 1.046875 -4.90625 1.347656 -5.054688 1.703125 -5.203125 C 2.054688 -5.359375 2.445312 -5.4375 2.875 -5.4375 C 3.519531 -5.4375 3.988281 -5.238281 4.28125 -4.84375 C 4.570312 -4.445312 4.71875 -3.914062 4.71875 -3.25 L 4.71875 0 L 3.984375 0 L 3.90625 -0.625 L 3.875 -0.625 C 3.613281 -0.414062 3.335938 -0.238281 3.046875 -0.09375 C 2.765625 0.0507812 2.453125 0.125 2.109375 0.125 Z M 2.375 -0.59375 C 2.632812 -0.59375 2.875 -0.648438 3.09375 -0.765625 C 3.320312 -0.890625 3.5625 -1.066406 3.8125 -1.296875 L 3.8125 -2.765625 C 3.375 -2.710938 3.003906 -2.644531 2.703125 -2.5625 C 2.398438 -2.476562 2.15625 -2.378906 1.96875 -2.265625 C 1.78125 -2.160156 1.644531 -2.035156 1.5625 -1.890625 C 1.476562 -1.753906 1.4375 -1.601562 1.4375 -1.4375 C 1.4375 -1.132812 1.523438 -0.914062 1.703125 -0.78125 C 1.890625 -0.65625 2.113281 -0.59375 2.375 -0.59375 Z M 2.375 -0.59375 "/></g></g></g><g fill="#000000" fill-opacity="1"><g transform="translate(144.643045, 18.082743)"><g><path d="M 1.84375 0.125 C 1.5 0.125 1.253906 0.0234375 1.109375 -0.171875 C 0.960938 -0.378906 0.890625 -0.675781 0.890625 -1.0625 L 0.890625 -7.765625 L 1.78125 -7.765625 L 1.78125 -1 C 1.78125 -0.851562 1.804688 -0.75 1.859375 -0.6875 C 1.910156 -0.632812 1.972656 -0.609375 2.046875 -0.609375 C 2.066406 -0.609375 2.085938 -0.609375 2.109375 -0.609375 C 2.140625 -0.609375 2.179688 -0.613281 2.234375 -0.625 L 2.359375 0.046875 C 2.296875 0.078125 2.222656 0.0976562 2.140625 0.109375 C 2.066406 0.117188 1.96875 0.125 1.84375 0.125 Z M 1.84375 0.125 "/></g></g></g><g fill="#000000" fill-opacity="1"><g transform="translate(147.422717, 18.082743)"><g><path d="M 2.5625 0.125 C 2.28125 0.125 2.039062 0.0820312 1.84375 0 C 1.65625 -0.0820312 1.5 -0.203125 1.375 -0.359375 C 1.257812 -0.515625 1.175781 -0.703125 1.125 -0.921875 C 1.070312 -1.140625 1.046875 -1.378906 1.046875 -1.640625 L 1.046875 -4.5625 L 0.265625 -4.5625 L 0.265625 -5.25 L 1.09375 -5.296875 L 1.203125 -6.78125 L 1.953125 -6.78125 L 1.953125 -5.296875 L 3.375 -5.296875 L 3.375 -4.5625 L 1.953125 -4.5625 L 1.953125 -1.625 C 1.953125 -1.300781 2.007812 -1.046875 2.125 -0.859375 C 2.25 -0.679688 2.460938 -0.59375 2.765625 -0.59375 C 2.859375 -0.59375 2.957031 -0.609375 3.0625 -0.640625 C 3.175781 -0.671875 3.28125 -0.703125 3.375 -0.734375 L 3.546875 -0.0625 C 3.398438 -0.0078125 3.238281 0.03125 3.0625 0.0625 C 2.894531 0.101562 2.726562 0.125 2.5625 0.125 Z M 2.5625 0.125 "/></g></g></g><g fill="#000000" fill-opacity="1"><g transform="translate(151.107144, 18.082743)"><g><path d="M 0.890625 0 L 0.890625 -7.765625 L 1.78125 -7.765625 L 1.78125 -5.65625 L 1.75 -4.5625 C 2.007812 -4.800781 2.273438 -5.003906 2.546875 -5.171875 C 2.828125 -5.347656 3.148438 -5.4375 3.515625 -5.4375 C 4.078125 -5.4375 4.488281 -5.257812 4.75 -4.90625 C 5.007812 -4.5625 5.140625 -4.046875 5.140625 -3.359375 L 5.140625 0 L 4.25 0 L 4.25 -3.234375 C 4.25 -3.734375 4.164062 -4.09375 4 -4.3125 C 3.84375 -4.539062 3.585938 -4.65625 3.234375 -4.65625 C 2.960938 -4.65625 2.71875 -4.585938 2.5 -4.453125 C 2.289062 -4.316406 2.050781 -4.113281 1.78125 -3.84375 L 1.78125 0 Z M 0.890625 0 "/></g></g></g><g fill="#000000" fill-opacity="1"><g transform="translate(139.333182, 29.355524)"><g><path d="M 2.578125 0.125 C 2.296875 0.125 2.039062 0.0976562 1.8125 0.046875 C 1.582031 -0.00390625 1.375 -0.078125 1.1875 -0.171875 C 1 -0.265625 0.828125 -0.367188 0.671875 -0.484375 C 0.523438 -0.597656 0.394531 -0.71875 0.28125 -0.84375 L 0.734375 -1.4375 C 0.953125 -1.21875 1.195312 -1.023438 1.46875 -0.859375 C 1.75 -0.691406 2.097656 -0.609375 2.515625 -0.609375 C 2.941406 -0.609375 3.285156 -0.722656 3.546875 -0.953125 C 3.816406 -1.179688 3.953125 -1.492188 3.953125 -1.890625 C 3.953125 -2.085938 3.914062 -2.269531 3.84375 -2.4375 C 3.769531 -2.613281 3.644531 -2.765625 3.46875 -2.890625 C 3.289062 -3.015625 3.0625 -3.109375 2.78125 -3.171875 C 2.5 -3.234375 2.148438 -3.265625 1.734375 -3.265625 L 1.734375 -3.953125 C 2.109375 -3.953125 2.421875 -3.984375 2.671875 -4.046875 C 2.921875 -4.117188 3.125 -4.210938 3.28125 -4.328125 C 3.4375 -4.441406 3.546875 -4.578125 3.609375 -4.734375 C 3.671875 -4.898438 3.703125 -5.070312 3.703125 -5.25 C 3.703125 -5.59375 3.59375 -5.863281 3.375 -6.0625 C 3.164062 -6.257812 2.878906 -6.359375 2.515625 -6.359375 C 2.222656 -6.359375 1.953125 -6.289062 1.703125 -6.15625 C 1.460938 -6.03125 1.238281 -5.863281 1.03125 -5.65625 L 0.546875 -6.21875 C 0.816406 -6.46875 1.113281 -6.675781 1.4375 -6.84375 C 1.757812 -7.007812 2.128906 -7.09375 2.546875 -7.09375 C 2.847656 -7.09375 3.125 -7.050781 3.375 -6.96875 C 3.632812 -6.882812 3.851562 -6.769531 4.03125 -6.625 C 4.21875 -6.476562 4.363281 -6.296875 4.46875 -6.078125 C 4.570312 -5.859375 4.625 -5.609375 4.625 -5.328125 C 4.625 -4.898438 4.503906 -4.550781 4.265625 -4.28125 C 4.035156 -4.007812 3.734375 -3.804688 3.359375 -3.671875 L 3.359375 -3.625 C 3.566406 -3.570312 3.757812 -3.492188 3.9375 -3.390625 C 4.125 -3.296875 4.285156 -3.171875 4.421875 -3.015625 C 4.566406 -2.867188 4.675781 -2.695312 4.75 -2.5 C 4.820312 -2.3125 4.859375 -2.097656 4.859375 -1.859375 C 4.859375 -1.546875 4.796875 -1.265625 4.671875 -1.015625 C 4.554688 -0.773438 4.394531 -0.566406 4.1875 -0.390625 C 3.976562 -0.222656 3.734375 -0.09375 3.453125 0 C 3.179688 0.0820312 2.890625 0.125 2.578125 0.125 Z M 2.578125 0.125 "/></g></g></g></g></g></svg>