<svg xmlns="http://www.w3.org/2000/svg" xmlns:xlink="http://www.w3.org/1999/xlink" width="480" zoomAndPan="magnify" viewBox="0 0 360 359.999987" height="480" preserveAspectRatio="xMidYMid meet" version="1.0"><defs><g/><clipPath id="92853d17ab"><path d="M 27.386719 331 L 342.304688 331 L 342.304688 331.511719 L 27.386719 331.511719 Z M 27.386719 331 " clip-rule="nonzero"/></clipPath><clipPath id="3b1dd174e1"><path d="M 27.386719 252 L 342.304688 252 L 342.304688 254 L 27.386719 254 Z M 27.386719 252 " clip-rule="nonzero"/></clipPath><clipPath id="372c12546a"><path d="M 27.386719 173 L 342.304688 173 L 342.304688 175 L 27.386719 175 Z M 27.386719 173 " clip-rule="nonzero"/></clipPath><clipPath id="22d97dca7e"><path d="M 27.386719 94 L 342.304688 94 L 342.304688 96 L 27.386719 96 Z M 27.386719 94 " clip-rule="nonzero"/></clipPath><clipPath id="40fde9084a"><path d="M 27.386719 16.59375 L 342.304688 16.59375 L 342.304688 18 L 27.386719 18 Z M 27.386719 16.59375 " clip-rule="nonzero"/></clipPath><clipPath id="4291cbb5ed"><path d="M 12.570312 91 L 19 91 L 19 100 L 12.570312 100 Z M 12.570312 91 " clip-rule="nonzero"/></clipPath><clipPath id="f70e8ee4ae"><path d="M 12.570312 12 L 19 12 L 19 21 L 12.570312 21 Z M 12.570312 12 " clip-rule="nonzero"/></clipPath><clipPath id="ed65fe9890"><path d="M 27.386719 95.324219 L 75.425781 95.324219 L 75.425781 331.511719 L 27.386719 331.511719 Z M 27.386719 95.324219 " clip-rule="nonzero"/></clipPath><clipPath id="588b16d8fc"><path d="M 80.765625 16.59375 L 128.800781 16.59375 L 128.800781 331.511719 L 80.765625 331.511719 Z M 80.765625 16.59375 " clip-rule="nonzero"/></clipPath><clipPath id="8227b5f286"><path d="M 134.140625 95.324219 L 182.179688 95.324219 L 182.179688 331.511719 L 134.140625 331.511719 Z M 134.140625 95.324219 " clip-rule="nonzero"/></clipPath><clipPath id="5b3c7ea6bb"><path d="M 187.515625 174.050781 L 235.554688 174.050781 L 235.554688 331.511719 L 187.515625 331.511719 Z M 187.515625 174.050781 " clip-rule="nonzero"/></clipPath><clipPath id="010542c5bb"><path d="M 240.890625 16.59375 L 288.929688 16.59375 L 288.929688 331.511719 L 240.890625 331.511719 Z M 240.890625 16.59375 " clip-rule="nonzero"/></clipPath><clipPath id="15a8ec8f29"><path d="M 294.265625 95.324219 L 342.304688 95.324219 L 342.304688 331.511719 L 294.265625 331.511719 Z M 294.265625 95.324219 " clip-rule="nonzero"/></clipPath><clipPath id="8ede76b12e"><rect x="0" width="356" y="0" height="360"/></clipPath></defs><rect x="-36" width="432" fill="#ffffff" y="-35.999999" height="431.999984" fill-opacity="1"/><rect x="-36" width="432" fill="#ffffff" y="-35.999999" height="431.999984" fill-opacity="1"/><g transform="matrix(1, 0, 0, 1, 3, 0)"><g clip-path="url(#8ede76b12e)"><g clip-path="url(#92853d17ab)"><path stroke-linecap="butt" transform="matrix(0.874769, 0, 0, 0.874769, 27.388241, 16.593165)" fill="none" stroke-linejoin="miter" d="M -0.0017402 360.001952 L 359.999542 360.001952 " stroke="#000000" stroke-width="1" stroke-opacity="0.6" stroke-miterlimit="4"/></g><g clip-path="url(#3b1dd174e1)"><path stroke-linecap="butt" transform="matrix(0.874769, 0, 0, 0.874769, 27.388241, 16.593165)" fill="none" stroke-linejoin="miter" d="M -0.0017402 270.000515 L 359.999542 270.000515 " stroke="#000000" stroke-width="1" stroke-opacity="0.251" stroke-miterlimit="4"/></g><g clip-path="url(#372c12546a)"><path stroke-linecap="butt" transform="matrix(0.874769, 0, 0, 0.874769, 27.388241, 16.593165)" fill="none" stroke-linejoin="miter" d="M -0.0017402 179.999078 L 359.999542 179.999078 " stroke="#000000" stroke-width="1" stroke-opacity="0.251" stroke-miterlimit="4"/></g><g clip-path="url(#22d97dca7e)"><path stroke-linecap="butt" transform="matrix(0.874769, 0, 0, 0.874769, 27.388241, 16.593165)" fill="none" stroke-linejoin="miter" d="M -0.0017402 90.002106 L 359.999542 90.002106 " stroke="#000000" stroke-width="1" stroke-opacity="0.251" stroke-miterlimit="4"/></g><g clip-path="url(#40fde9084a)"><path stroke-linecap="butt" transform="matrix(0.874769, 0, 0, 0.874769, 27.388241, 16.593165)" fill="none" stroke-linejoin="miter" d="M -0.0017402 0.000669284 L 359.999542 0.000669284 " stroke="#000000" stroke-width="1" stroke-opacity="0.251" stroke-miterlimit="4"/></g><g fill="#000000" fill-opacity="1"><g transform="translate(36.927692, 346.468595)"><g><path d="M 3.09375 0.15625 C 2.289062 0.15625 1.664062 -0.195312 1.21875 -0.90625 C 0.769531 -1.625 0.546875 -2.648438 0.546875 -3.984375 C 0.546875 -5.316406 0.769531 -6.332031 1.21875 -7.03125 C 1.664062 -7.726562 2.289062 -8.078125 3.09375 -8.078125 C 3.882812 -8.078125 4.503906 -7.726562 4.953125 -7.03125 C 5.398438 -6.332031 5.625 -5.316406 5.625 -3.984375 C 5.625 -2.648438 5.398438 -1.625 4.953125 -0.90625 C 4.503906 -0.195312 3.882812 0.15625 3.09375 0.15625 Z M 3.09375 -0.671875 C 3.320312 -0.671875 3.53125 -0.734375 3.71875 -0.859375 C 3.90625 -0.992188 4.066406 -1.191406 4.203125 -1.453125 C 4.335938 -1.722656 4.441406 -2.066406 4.515625 -2.484375 C 4.597656 -2.910156 4.640625 -3.410156 4.640625 -3.984375 C 4.640625 -4.566406 4.597656 -5.0625 4.515625 -5.46875 C 4.441406 -5.882812 4.335938 -6.222656 4.203125 -6.484375 C 4.066406 -6.742188 3.90625 -6.9375 3.71875 -7.0625 C 3.53125 -7.1875 3.320312 -7.25 3.09375 -7.25 C 2.863281 -7.25 2.648438 -7.1875 2.453125 -7.0625 C 2.265625 -6.9375 2.101562 -6.742188 1.96875 -6.484375 C 1.832031 -6.222656 1.726562 -5.882812 1.65625 -5.46875 C 1.582031 -5.0625 1.546875 -4.566406 1.546875 -3.984375 C 1.546875 -2.828125 1.6875 -1.984375 1.96875 -1.453125 C 2.25 -0.929688 2.625 -0.671875 3.09375 -0.671875 Z M 3.09375 -0.671875 "/></g></g></g><g fill="#000000" fill-opacity="1"><g transform="translate(43.095884, 346.468595)"><g><path d="M 0.984375 0 L 0.984375 -0.84375 L 2.796875 -0.84375 L 2.796875 -6.6875 L 1.359375 -6.6875 L 1.359375 -7.34375 C 1.722656 -7.40625 2.035156 -7.484375 2.296875 -7.578125 C 2.566406 -7.671875 2.8125 -7.785156 3.03125 -7.921875 L 3.8125 -7.921875 L 3.8125 -0.84375 L 5.453125 -0.84375 L 5.453125 0 Z M 0.984375 0 "/></g></g></g><g fill="#000000" fill-opacity="1"><g transform="translate(49.264077, 346.468595)"><g><path d="M 0.125 1.984375 L 3.4375 -8.8125 L 4.1875 -8.8125 L 0.875 1.984375 Z M 0.125 1.984375 "/></g></g></g><g fill="#000000" fill-opacity="1"><g transform="translate(53.607875, 346.468595)"><g><path d="M 0.984375 0 L 0.984375 -0.84375 L 2.796875 -0.84375 L 2.796875 -6.6875 L 1.359375 -6.6875 L 1.359375 -7.34375 C 1.722656 -7.40625 2.035156 -7.484375 2.296875 -7.578125 C 2.566406 -7.671875 2.8125 -7.785156 3.03125 -7.921875 L 3.8125 -7.921875 L 3.8125 -0.84375 L 5.453125 -0.84375 L 5.453125 0 Z M 0.984375 0 "/></g></g></g><g fill="#000000" fill-opacity="1"><g transform="translate(59.776068, 346.468595)"><g><path d="M 0.5 0 L 0.5 -0.609375 C 1.09375 -1.203125 1.617188 -1.738281 2.078125 -2.21875 C 2.546875 -2.695312 2.9375 -3.140625 3.25 -3.546875 C 3.5625 -3.960938 3.800781 -4.34375 3.96875 -4.6875 C 4.132812 -5.03125 4.21875 -5.363281 4.21875 -5.6875 C 4.21875 -6.144531 4.09375 -6.515625 3.84375 -6.796875 C 3.601562 -7.085938 3.226562 -7.234375 2.71875 -7.234375 C 2.382812 -7.234375 2.078125 -7.140625 1.796875 -6.953125 C 1.515625 -6.773438 1.257812 -6.550781 1.03125 -6.28125 L 0.453125 -6.875 C 0.773438 -7.238281 1.125 -7.53125 1.5 -7.75 C 1.875 -7.96875 2.320312 -8.078125 2.84375 -8.078125 C 3.582031 -8.078125 4.160156 -7.863281 4.578125 -7.4375 C 5.003906 -7.007812 5.21875 -6.441406 5.21875 -5.734375 C 5.21875 -5.367188 5.132812 -4.992188 4.96875 -4.609375 C 4.8125 -4.234375 4.585938 -3.84375 4.296875 -3.4375 C 4.015625 -3.039062 3.675781 -2.625 3.28125 -2.1875 C 2.894531 -1.757812 2.460938 -1.300781 1.984375 -0.8125 C 2.203125 -0.820312 2.425781 -0.832031 2.65625 -0.84375 C 2.882812 -0.863281 3.101562 -0.875 3.3125 -0.875 L 5.609375 -0.875 L 5.609375 0 Z M 0.5 0 "/></g></g></g><g fill="#000000" fill-opacity="1"><g transform="translate(90.303436, 346.468595)"><g><path d="M 3.09375 0.15625 C 2.289062 0.15625 1.664062 -0.195312 1.21875 -0.90625 C 0.769531 -1.625 0.546875 -2.648438 0.546875 -3.984375 C 0.546875 -5.316406 0.769531 -6.332031 1.21875 -7.03125 C 1.664062 -7.726562 2.289062 -8.078125 3.09375 -8.078125 C 3.882812 -8.078125 4.503906 -7.726562 4.953125 -7.03125 C 5.398438 -6.332031 5.625 -5.316406 5.625 -3.984375 C 5.625 -2.648438 5.398438 -1.625 4.953125 -0.90625 C 4.503906 -0.195312 3.882812 0.15625 3.09375 0.15625 Z M 3.09375 -0.671875 C 3.320312 -0.671875 3.53125 -0.734375 3.71875 -0.859375 C 3.90625 -0.992188 4.066406 -1.191406 4.203125 -1.453125 C 4.335938 -1.722656 4.441406 -2.066406 4.515625 -2.484375 C 4.597656 -2.910156 4.640625 -3.410156 4.640625 -3.984375 C 4.640625 -4.566406 4.597656 -5.0625 4.515625 -5.46875 C 4.441406 -5.882812 4.335938 -6.222656 4.203125 -6.484375 C 4.066406 -6.742188 3.90625 -6.9375 3.71875 -7.0625 C 3.53125 -7.1875 3.320312 -7.25 3.09375 -7.25 C 2.863281 -7.25 2.648438 -7.1875 2.453125 -7.0625 C 2.265625 -6.9375 2.101562 -6.742188 1.96875 -6.484375 C 1.832031 -6.222656 1.726562 -5.882812 1.65625 -5.46875 C 1.582031 -5.0625 1.546875 -4.566406 1.546875 -3.984375 C 1.546875 -2.828125 1.6875 -1.984375 1.96875 -1.453125 C 2.25 -0.929688 2.625 -0.671875 3.09375 -0.671875 Z M 3.09375 -0.671875 "/></g></g></g><g fill="#000000" fill-opacity="1"><g transform="translate(96.471628, 346.468595)"><g><path d="M 0.984375 0 L 0.984375 -0.84375 L 2.796875 -0.84375 L 2.796875 -6.6875 L 1.359375 -6.6875 L 1.359375 -7.34375 C 1.722656 -7.40625 2.035156 -7.484375 2.296875 -7.578125 C 2.566406 -7.671875 2.8125 -7.785156 3.03125 -7.921875 L 3.8125 -7.921875 L 3.8125 -0.84375 L 5.453125 -0.84375 L 5.453125 0 Z M 0.984375 0 "/></g></g></g><g fill="#000000" fill-opacity="1"><g transform="translate(102.63982, 346.468595)"><g><path d="M 0.125 1.984375 L 3.4375 -8.8125 L 4.1875 -8.8125 L 0.875 1.984375 Z M 0.125 1.984375 "/></g></g></g><g fill="#000000" fill-opacity="1"><g transform="translate(106.983619, 346.468595)"><g><path d="M 0.984375 0 L 0.984375 -0.84375 L 2.796875 -0.84375 L 2.796875 -6.6875 L 1.359375 -6.6875 L 1.359375 -7.34375 C 1.722656 -7.40625 2.035156 -7.484375 2.296875 -7.578125 C 2.566406 -7.671875 2.8125 -7.785156 3.03125 -7.921875 L 3.8125 -7.921875 L 3.8125 -0.84375 L 5.453125 -0.84375 L 5.453125 0 Z M 0.984375 0 "/></g></g></g><g fill="#000000" fill-opacity="1"><g transform="translate(113.151811, 346.468595)"><g><path d="M 2.921875 -3.84375 C 3.179688 -3.84375 3.457031 -3.925781 3.75 -4.09375 C 4.050781 -4.257812 4.328125 -4.53125 4.578125 -4.90625 C 4.515625 -5.6875 4.332031 -6.273438 4.03125 -6.671875 C 3.738281 -7.066406 3.335938 -7.265625 2.828125 -7.265625 C 2.640625 -7.265625 2.457031 -7.222656 2.28125 -7.140625 C 2.113281 -7.054688 1.96875 -6.9375 1.84375 -6.78125 C 1.726562 -6.632812 1.632812 -6.453125 1.5625 -6.234375 C 1.488281 -6.015625 1.453125 -5.78125 1.453125 -5.53125 C 1.453125 -5.007812 1.570312 -4.597656 1.8125 -4.296875 C 2.050781 -3.992188 2.421875 -3.84375 2.921875 -3.84375 Z M 2.546875 0.15625 C 2.117188 0.15625 1.742188 0.078125 1.421875 -0.078125 C 1.109375 -0.242188 0.847656 -0.445312 0.640625 -0.6875 L 1.203125 -1.328125 C 1.367188 -1.140625 1.566406 -0.988281 1.796875 -0.875 C 2.023438 -0.757812 2.265625 -0.703125 2.515625 -0.703125 C 2.796875 -0.703125 3.054688 -0.757812 3.296875 -0.875 C 3.546875 -0.988281 3.765625 -1.175781 3.953125 -1.4375 C 4.148438 -1.707031 4.304688 -2.054688 4.421875 -2.484375 C 4.535156 -2.921875 4.597656 -3.457031 4.609375 -4.09375 C 4.359375 -3.78125 4.066406 -3.53125 3.734375 -3.34375 C 3.398438 -3.164062 3.070312 -3.078125 2.75 -3.078125 C 2.0625 -3.078125 1.515625 -3.28125 1.109375 -3.6875 C 0.703125 -4.09375 0.5 -4.707031 0.5 -5.53125 C 0.5 -5.90625 0.5625 -6.25 0.6875 -6.5625 C 0.8125 -6.875 0.976562 -7.140625 1.1875 -7.359375 C 1.394531 -7.585938 1.640625 -7.765625 1.921875 -7.890625 C 2.210938 -8.015625 2.515625 -8.078125 2.828125 -8.078125 C 3.222656 -8.078125 3.585938 -8 3.921875 -7.84375 C 4.253906 -7.6875 4.539062 -7.445312 4.78125 -7.125 C 5.03125 -6.800781 5.222656 -6.398438 5.359375 -5.921875 C 5.492188 -5.453125 5.5625 -4.898438 5.5625 -4.265625 C 5.5625 -3.460938 5.476562 -2.78125 5.3125 -2.21875 C 5.144531 -1.664062 4.921875 -1.210938 4.640625 -0.859375 C 4.359375 -0.503906 4.035156 -0.242188 3.671875 -0.078125 C 3.316406 0.078125 2.941406 0.15625 2.546875 0.15625 Z M 2.546875 0.15625 "/></g></g></g><g fill="#000000" fill-opacity="1"><g transform="translate(143.679175, 346.468595)"><g><path d="M 3.09375 0.15625 C 2.289062 0.15625 1.664062 -0.195312 1.21875 -0.90625 C 0.769531 -1.625 0.546875 -2.648438 0.546875 -3.984375 C 0.546875 -5.316406 0.769531 -6.332031 1.21875 -7.03125 C 1.664062 -7.726562 2.289062 -8.078125 3.09375 -8.078125 C 3.882812 -8.078125 4.503906 -7.726562 4.953125 -7.03125 C 5.398438 -6.332031 5.625 -5.316406 5.625 -3.984375 C 5.625 -2.648438 5.398438 -1.625 4.953125 -0.90625 C 4.503906 -0.195312 3.882812 0.15625 3.09375 0.15625 Z M 3.09375 -0.671875 C 3.320312 -0.671875 3.53125 -0.734375 3.71875 -0.859375 C 3.90625 -0.992188 4.066406 -1.191406 4.203125 -1.453125 C 4.335938 -1.722656 4.441406 -2.066406 4.515625 -2.484375 C 4.597656 -2.910156 4.640625 -3.410156 4.640625 -3.984375 C 4.640625 -4.566406 4.597656 -5.0625 4.515625 -5.46875 C 4.441406 -5.882812 4.335938 -6.222656 4.203125 -6.484375 C 4.066406 -6.742188 3.90625 -6.9375 3.71875 -7.0625 C 3.53125 -7.1875 3.320312 -7.25 3.09375 -7.25 C 2.863281 -7.25 2.648438 -7.1875 2.453125 -7.0625 C 2.265625 -6.9375 2.101562 -6.742188 1.96875 -6.484375 C 1.832031 -6.222656 1.726562 -5.882812 1.65625 -5.46875 C 1.582031 -5.0625 1.546875 -4.566406 1.546875 -3.984375 C 1.546875 -2.828125 1.6875 -1.984375 1.96875 -1.453125 C 2.25 -0.929688 2.625 -0.671875 3.09375 -0.671875 Z M 3.09375 -0.671875 "/></g></g></g><g fill="#000000" fill-opacity="1"><g transform="translate(149.847367, 346.468595)"><g><path d="M 0.984375 0 L 0.984375 -0.84375 L 2.796875 -0.84375 L 2.796875 -6.6875 L 1.359375 -6.6875 L 1.359375 -7.34375 C 1.722656 -7.40625 2.035156 -7.484375 2.296875 -7.578125 C 2.566406 -7.671875 2.8125 -7.785156 3.03125 -7.921875 L 3.8125 -7.921875 L 3.8125 -0.84375 L 5.453125 -0.84375 L 5.453125 0 Z M 0.984375 0 "/></g></g></g><g fill="#000000" fill-opacity="1"><g transform="translate(156.015559, 346.468595)"><g><path d="M 0.125 1.984375 L 3.4375 -8.8125 L 4.1875 -8.8125 L 0.875 1.984375 Z M 0.125 1.984375 "/></g></g></g><g fill="#000000" fill-opacity="1"><g transform="translate(160.359358, 346.468595)"><g><path d="M 0.5 0 L 0.5 -0.609375 C 1.09375 -1.203125 1.617188 -1.738281 2.078125 -2.21875 C 2.546875 -2.695312 2.9375 -3.140625 3.25 -3.546875 C 3.5625 -3.960938 3.800781 -4.34375 3.96875 -4.6875 C 4.132812 -5.03125 4.21875 -5.363281 4.21875 -5.6875 C 4.21875 -6.144531 4.09375 -6.515625 3.84375 -6.796875 C 3.601562 -7.085938 3.226562 -7.234375 2.71875 -7.234375 C 2.382812 -7.234375 2.078125 -7.140625 1.796875 -6.953125 C 1.515625 -6.773438 1.257812 -6.550781 1.03125 -6.28125 L 0.453125 -6.875 C 0.773438 -7.238281 1.125 -7.53125 1.5 -7.75 C 1.875 -7.96875 2.320312 -8.078125 2.84375 -8.078125 C 3.582031 -8.078125 4.160156 -7.863281 4.578125 -7.4375 C 5.003906 -7.007812 5.21875 -6.441406 5.21875 -5.734375 C 5.21875 -5.367188 5.132812 -4.992188 4.96875 -4.609375 C 4.8125 -4.234375 4.585938 -3.84375 4.296875 -3.4375 C 4.015625 -3.039062 3.675781 -2.625 3.28125 -2.1875 C 2.894531 -1.757812 2.460938 -1.300781 1.984375 -0.8125 C 2.203125 -0.820312 2.425781 -0.832031 2.65625 -0.84375 C 2.882812 -0.863281 3.101562 -0.875 3.3125 -0.875 L 5.609375 -0.875 L 5.609375 0 Z M 0.5 0 "/></g></g></g><g fill="#000000" fill-opacity="1"><g transform="translate(166.52755, 346.468595)"><g><path d="M 3.328125 0.15625 C 2.941406 0.15625 2.582031 0.078125 2.25 -0.078125 C 1.914062 -0.242188 1.625 -0.484375 1.375 -0.796875 C 1.132812 -1.117188 0.941406 -1.515625 0.796875 -1.984375 C 0.660156 -2.460938 0.59375 -3.023438 0.59375 -3.671875 C 0.59375 -4.460938 0.675781 -5.132812 0.84375 -5.6875 C 1.007812 -6.25 1.234375 -6.707031 1.515625 -7.0625 C 1.796875 -7.414062 2.113281 -7.671875 2.46875 -7.828125 C 2.832031 -7.992188 3.210938 -8.078125 3.609375 -8.078125 C 4.046875 -8.078125 4.414062 -7.992188 4.71875 -7.828125 C 5.03125 -7.671875 5.300781 -7.472656 5.53125 -7.234375 L 4.953125 -6.59375 C 4.785156 -6.78125 4.585938 -6.929688 4.359375 -7.046875 C 4.140625 -7.160156 3.90625 -7.21875 3.65625 -7.21875 C 3.375 -7.21875 3.109375 -7.160156 2.859375 -7.046875 C 2.617188 -6.929688 2.398438 -6.738281 2.203125 -6.46875 C 2.015625 -6.207031 1.863281 -5.863281 1.75 -5.4375 C 1.632812 -5.007812 1.570312 -4.476562 1.5625 -3.84375 C 1.8125 -4.15625 2.101562 -4.398438 2.4375 -4.578125 C 2.769531 -4.753906 3.097656 -4.84375 3.421875 -4.84375 C 4.109375 -4.84375 4.65625 -4.640625 5.0625 -4.234375 C 5.46875 -3.828125 5.671875 -3.210938 5.671875 -2.390625 C 5.671875 -2.015625 5.609375 -1.671875 5.484375 -1.359375 C 5.359375 -1.046875 5.1875 -0.773438 4.96875 -0.546875 C 4.757812 -0.328125 4.515625 -0.15625 4.234375 -0.03125 C 3.953125 0.09375 3.648438 0.15625 3.328125 0.15625 Z M 3.328125 -0.65625 C 3.523438 -0.65625 3.707031 -0.695312 3.875 -0.78125 C 4.039062 -0.863281 4.1875 -0.976562 4.3125 -1.125 C 4.4375 -1.28125 4.53125 -1.460938 4.59375 -1.671875 C 4.664062 -1.890625 4.703125 -2.128906 4.703125 -2.390625 C 4.703125 -2.921875 4.582031 -3.332031 4.34375 -3.625 C 4.101562 -3.925781 3.734375 -4.078125 3.234375 -4.078125 C 2.984375 -4.078125 2.707031 -3.992188 2.40625 -3.828125 C 2.113281 -3.671875 1.84375 -3.40625 1.59375 -3.03125 C 1.65625 -2.25 1.832031 -1.65625 2.125 -1.25 C 2.425781 -0.851562 2.828125 -0.65625 3.328125 -0.65625 Z M 3.328125 -0.65625 "/></g></g></g><g fill="#000000" fill-opacity="1"><g transform="translate(197.054928, 346.468595)"><g><path d="M 3.09375 0.15625 C 2.289062 0.15625 1.664062 -0.195312 1.21875 -0.90625 C 0.769531 -1.625 0.546875 -2.648438 0.546875 -3.984375 C 0.546875 -5.316406 0.769531 -6.332031 1.21875 -7.03125 C 1.664062 -7.726562 2.289062 -8.078125 3.09375 -8.078125 C 3.882812 -8.078125 4.503906 -7.726562 4.953125 -7.03125 C 5.398438 -6.332031 5.625 -5.316406 5.625 -3.984375 C 5.625 -2.648438 5.398438 -1.625 4.953125 -0.90625 C 4.503906 -0.195312 3.882812 0.15625 3.09375 0.15625 Z M 3.09375 -0.671875 C 3.320312 -0.671875 3.53125 -0.734375 3.71875 -0.859375 C 3.90625 -0.992188 4.066406 -1.191406 4.203125 -1.453125 C 4.335938 -1.722656 4.441406 -2.066406 4.515625 -2.484375 C 4.597656 -2.910156 4.640625 -3.410156 4.640625 -3.984375 C 4.640625 -4.566406 4.597656 -5.0625 4.515625 -5.46875 C 4.441406 -5.882812 4.335938 -6.222656 4.203125 -6.484375 C 4.066406 -6.742188 3.90625 -6.9375 3.71875 -7.0625 C 3.53125 -7.1875 3.320312 -7.25 3.09375 -7.25 C 2.863281 -7.25 2.648438 -7.1875 2.453125 -7.0625 C 2.265625 -6.9375 2.101562 -6.742188 1.96875 -6.484375 C 1.832031 -6.222656 1.726562 -5.882812 1.65625 -5.46875 C 1.582031 -5.0625 1.546875 -4.566406 1.546875 -3.984375 C 1.546875 -2.828125 1.6875 -1.984375 1.96875 -1.453125 C 2.25 -0.929688 2.625 -0.671875 3.09375 -0.671875 Z M 3.09375 -0.671875 "/></g></g></g><g fill="#000000" fill-opacity="1"><g transform="translate(203.223121, 346.468595)"><g><path d="M 0.5 0 L 0.5 -0.609375 C 1.09375 -1.203125 1.617188 -1.738281 2.078125 -2.21875 C 2.546875 -2.695312 2.9375 -3.140625 3.25 -3.546875 C 3.5625 -3.960938 3.800781 -4.34375 3.96875 -4.6875 C 4.132812 -5.03125 4.21875 -5.363281 4.21875 -5.6875 C 4.21875 -6.144531 4.09375 -6.515625 3.84375 -6.796875 C 3.601562 -7.085938 3.226562 -7.234375 2.71875 -7.234375 C 2.382812 -7.234375 2.078125 -7.140625 1.796875 -6.953125 C 1.515625 -6.773438 1.257812 -6.550781 1.03125 -6.28125 L 0.453125 -6.875 C 0.773438 -7.238281 1.125 -7.53125 1.5 -7.75 C 1.875 -7.96875 2.320312 -8.078125 2.84375 -8.078125 C 3.582031 -8.078125 4.160156 -7.863281 4.578125 -7.4375 C 5.003906 -7.007812 5.21875 -6.441406 5.21875 -5.734375 C 5.21875 -5.367188 5.132812 -4.992188 4.96875 -4.609375 C 4.8125 -4.234375 4.585938 -3.84375 4.296875 -3.4375 C 4.015625 -3.039062 3.675781 -2.625 3.28125 -2.1875 C 2.894531 -1.757812 2.460938 -1.300781 1.984375 -0.8125 C 2.203125 -0.820312 2.425781 -0.832031 2.65625 -0.84375 C 2.882812 -0.863281 3.101562 -0.875 3.3125 -0.875 L 5.609375 -0.875 L 5.609375 0 Z M 0.5 0 "/></g></g></g><g fill="#000000" fill-opacity="1"><g transform="translate(209.391313, 346.468595)"><g><path d="M 0.125 1.984375 L 3.4375 -8.8125 L 4.1875 -8.8125 L 0.875 1.984375 Z M 0.125 1.984375 "/></g></g></g><g fill="#000000" fill-opacity="1"><g transform="translate(213.735112, 346.468595)"><g><path d="M 3.09375 0.15625 C 2.289062 0.15625 1.664062 -0.195312 1.21875 -0.90625 C 0.769531 -1.625 0.546875 -2.648438 0.546875 -3.984375 C 0.546875 -5.316406 0.769531 -6.332031 1.21875 -7.03125 C 1.664062 -7.726562 2.289062 -8.078125 3.09375 -8.078125 C 3.882812 -8.078125 4.503906 -7.726562 4.953125 -7.03125 C 5.398438 -6.332031 5.625 -5.316406 5.625 -3.984375 C 5.625 -2.648438 5.398438 -1.625 4.953125 -0.90625 C 4.503906 -0.195312 3.882812 0.15625 3.09375 0.15625 Z M 3.09375 -0.671875 C 3.320312 -0.671875 3.53125 -0.734375 3.71875 -0.859375 C 3.90625 -0.992188 4.066406 -1.191406 4.203125 -1.453125 C 4.335938 -1.722656 4.441406 -2.066406 4.515625 -2.484375 C 4.597656 -2.910156 4.640625 -3.410156 4.640625 -3.984375 C 4.640625 -4.566406 4.597656 -5.0625 4.515625 -5.46875 C 4.441406 -5.882812 4.335938 -6.222656 4.203125 -6.484375 C 4.066406 -6.742188 3.90625 -6.9375 3.71875 -7.0625 C 3.53125 -7.1875 3.320312 -7.25 3.09375 -7.25 C 2.863281 -7.25 2.648438 -7.1875 2.453125 -7.0625 C 2.265625 -6.9375 2.101562 -6.742188 1.96875 -6.484375 C 1.832031 -6.222656 1.726562 -5.882812 1.65625 -5.46875 C 1.582031 -5.0625 1.546875 -4.566406 1.546875 -3.984375 C 1.546875 -2.828125 1.6875 -1.984375 1.96875 -1.453125 C 2.25 -0.929688 2.625 -0.671875 3.09375 -0.671875 Z M 3.09375 -0.671875 "/></g></g></g><g fill="#000000" fill-opacity="1"><g transform="translate(219.903304, 346.468595)"><g><path d="M 0.5 0 L 0.5 -0.609375 C 1.09375 -1.203125 1.617188 -1.738281 2.078125 -2.21875 C 2.546875 -2.695312 2.9375 -3.140625 3.25 -3.546875 C 3.5625 -3.960938 3.800781 -4.34375 3.96875 -4.6875 C 4.132812 -5.03125 4.21875 -5.363281 4.21875 -5.6875 C 4.21875 -6.144531 4.09375 -6.515625 3.84375 -6.796875 C 3.601562 -7.085938 3.226562 -7.234375 2.71875 -7.234375 C 2.382812 -7.234375 2.078125 -7.140625 1.796875 -6.953125 C 1.515625 -6.773438 1.257812 -6.550781 1.03125 -6.28125 L 0.453125 -6.875 C 0.773438 -7.238281 1.125 -7.53125 1.5 -7.75 C 1.875 -7.96875 2.320312 -8.078125 2.84375 -8.078125 C 3.582031 -8.078125 4.160156 -7.863281 4.578125 -7.4375 C 5.003906 -7.007812 5.21875 -6.441406 5.21875 -5.734375 C 5.21875 -5.367188 5.132812 -4.992188 4.96875 -4.609375 C 4.8125 -4.234375 4.585938 -3.84375 4.296875 -3.4375 C 4.015625 -3.039062 3.675781 -2.625 3.28125 -2.1875 C 2.894531 -1.757812 2.460938 -1.300781 1.984375 -0.8125 C 2.203125 -0.820312 2.425781 -0.832031 2.65625 -0.84375 C 2.882812 -0.863281 3.101562 -0.875 3.3125 -0.875 L 5.609375 -0.875 L 5.609375 0 Z M 0.5 0 "/></g></g></g><g fill="#000000" fill-opacity="1"><g transform="translate(250.430622, 346.468595)"><g><path d="M 3.09375 0.15625 C 2.289062 0.15625 1.664062 -0.195312 1.21875 -0.90625 C 0.769531 -1.625 0.546875 -2.648438 0.546875 -3.984375 C 0.546875 -5.316406 0.769531 -6.332031 1.21875 -7.03125 C 1.664062 -7.726562 2.289062 -8.078125 3.09375 -8.078125 C 3.882812 -8.078125 4.503906 -7.726562 4.953125 -7.03125 C 5.398438 -6.332031 5.625 -5.316406 5.625 -3.984375 C 5.625 -2.648438 5.398438 -1.625 4.953125 -0.90625 C 4.503906 -0.195312 3.882812 0.15625 3.09375 0.15625 Z M 3.09375 -0.671875 C 3.320312 -0.671875 3.53125 -0.734375 3.71875 -0.859375 C 3.90625 -0.992188 4.066406 -1.191406 4.203125 -1.453125 C 4.335938 -1.722656 4.441406 -2.066406 4.515625 -2.484375 C 4.597656 -2.910156 4.640625 -3.410156 4.640625 -3.984375 C 4.640625 -4.566406 4.597656 -5.0625 4.515625 -5.46875 C 4.441406 -5.882812 4.335938 -6.222656 4.203125 -6.484375 C 4.066406 -6.742188 3.90625 -6.9375 3.71875 -7.0625 C 3.53125 -7.1875 3.320312 -7.25 3.09375 -7.25 C 2.863281 -7.25 2.648438 -7.1875 2.453125 -7.0625 C 2.265625 -6.9375 2.101562 -6.742188 1.96875 -6.484375 C 1.832031 -6.222656 1.726562 -5.882812 1.65625 -5.46875 C 1.582031 -5.0625 1.546875 -4.566406 1.546875 -3.984375 C 1.546875 -2.828125 1.6875 -1.984375 1.96875 -1.453125 C 2.25 -0.929688 2.625 -0.671875 3.09375 -0.671875 Z M 3.09375 -0.671875 "/></g></g></g><g fill="#000000" fill-opacity="1"><g transform="translate(256.598814, 346.468595)"><g><path d="M 0.5 0 L 0.5 -0.609375 C 1.09375 -1.203125 1.617188 -1.738281 2.078125 -2.21875 C 2.546875 -2.695312 2.9375 -3.140625 3.25 -3.546875 C 3.5625 -3.960938 3.800781 -4.34375 3.96875 -4.6875 C 4.132812 -5.03125 4.21875 -5.363281 4.21875 -5.6875 C 4.21875 -6.144531 4.09375 -6.515625 3.84375 -6.796875 C 3.601562 -7.085938 3.226562 -7.234375 2.71875 -7.234375 C 2.382812 -7.234375 2.078125 -7.140625 1.796875 -6.953125 C 1.515625 -6.773438 1.257812 -6.550781 1.03125 -6.28125 L 0.453125 -6.875 C 0.773438 -7.238281 1.125 -7.53125 1.5 -7.75 C 1.875 -7.96875 2.320312 -8.078125 2.84375 -8.078125 C 3.582031 -8.078125 4.160156 -7.863281 4.578125 -7.4375 C 5.003906 -7.007812 5.21875 -6.441406 5.21875 -5.734375 C 5.21875 -5.367188 5.132812 -4.992188 4.96875 -4.609375 C 4.8125 -4.234375 4.585938 -3.84375 4.296875 -3.4375 C 4.015625 -3.039062 3.675781 -2.625 3.28125 -2.1875 C 2.894531 -1.757812 2.460938 -1.300781 1.984375 -0.8125 C 2.203125 -0.820312 2.425781 -0.832031 2.65625 -0.84375 C 2.882812 -0.863281 3.101562 -0.875 3.3125 -0.875 L 5.609375 -0.875 L 5.609375 0 Z M 0.5 0 "/></g></g></g><g fill="#000000" fill-opacity="1"><g transform="translate(262.767006, 346.468595)"><g><path d="M 0.125 1.984375 L 3.4375 -8.8125 L 4.1875 -8.8125 L 0.875 1.984375 Z M 0.125 1.984375 "/></g></g></g><g fill="#000000" fill-opacity="1"><g transform="translate(267.110805, 346.468595)"><g><path d="M 3.09375 0.15625 C 2.289062 0.15625 1.664062 -0.195312 1.21875 -0.90625 C 0.769531 -1.625 0.546875 -2.648438 0.546875 -3.984375 C 0.546875 -5.316406 0.769531 -6.332031 1.21875 -7.03125 C 1.664062 -7.726562 2.289062 -8.078125 3.09375 -8.078125 C 3.882812 -8.078125 4.503906 -7.726562 4.953125 -7.03125 C 5.398438 -6.332031 5.625 -5.316406 5.625 -3.984375 C 5.625 -2.648438 5.398438 -1.625 4.953125 -0.90625 C 4.503906 -0.195312 3.882812 0.15625 3.09375 0.15625 Z M 3.09375 -0.671875 C 3.320312 -0.671875 3.53125 -0.734375 3.71875 -0.859375 C 3.90625 -0.992188 4.066406 -1.191406 4.203125 -1.453125 C 4.335938 -1.722656 4.441406 -2.066406 4.515625 -2.484375 C 4.597656 -2.910156 4.640625 -3.410156 4.640625 -3.984375 C 4.640625 -4.566406 4.597656 -5.0625 4.515625 -5.46875 C 4.441406 -5.882812 4.335938 -6.222656 4.203125 -6.484375 C 4.066406 -6.742188 3.90625 -6.9375 3.71875 -7.0625 C 3.53125 -7.1875 3.320312 -7.25 3.09375 -7.25 C 2.863281 -7.25 2.648438 -7.1875 2.453125 -7.0625 C 2.265625 -6.9375 2.101562 -6.742188 1.96875 -6.484375 C 1.832031 -6.222656 1.726562 -5.882812 1.65625 -5.46875 C 1.582031 -5.0625 1.546875 -4.566406 1.546875 -3.984375 C 1.546875 -2.828125 1.6875 -1.984375 1.96875 -1.453125 C 2.25 -0.929688 2.625 -0.671875 3.09375 -0.671875 Z M 3.09375 -0.671875 "/></g></g></g><g fill="#000000" fill-opacity="1"><g transform="translate(273.278997, 346.468595)"><g><path d="M 2.921875 -3.84375 C 3.179688 -3.84375 3.457031 -3.925781 3.75 -4.09375 C 4.050781 -4.257812 4.328125 -4.53125 4.578125 -4.90625 C 4.515625 -5.6875 4.332031 -6.273438 4.03125 -6.671875 C 3.738281 -7.066406 3.335938 -7.265625 2.828125 -7.265625 C 2.640625 -7.265625 2.457031 -7.222656 2.28125 -7.140625 C 2.113281 -7.054688 1.96875 -6.9375 1.84375 -6.78125 C 1.726562 -6.632812 1.632812 -6.453125 1.5625 -6.234375 C 1.488281 -6.015625 1.453125 -5.78125 1.453125 -5.53125 C 1.453125 -5.007812 1.570312 -4.597656 1.8125 -4.296875 C 2.050781 -3.992188 2.421875 -3.84375 2.921875 -3.84375 Z M 2.546875 0.15625 C 2.117188 0.15625 1.742188 0.078125 1.421875 -0.078125 C 1.109375 -0.242188 0.847656 -0.445312 0.640625 -0.6875 L 1.203125 -1.328125 C 1.367188 -1.140625 1.566406 -0.988281 1.796875 -0.875 C 2.023438 -0.757812 2.265625 -0.703125 2.515625 -0.703125 C 2.796875 -0.703125 3.054688 -0.757812 3.296875 -0.875 C 3.546875 -0.988281 3.765625 -1.175781 3.953125 -1.4375 C 4.148438 -1.707031 4.304688 -2.054688 4.421875 -2.484375 C 4.535156 -2.921875 4.597656 -3.457031 4.609375 -4.09375 C 4.359375 -3.78125 4.066406 -3.53125 3.734375 -3.34375 C 3.398438 -3.164062 3.070312 -3.078125 2.75 -3.078125 C 2.0625 -3.078125 1.515625 -3.28125 1.109375 -3.6875 C 0.703125 -4.09375 0.5 -4.707031 0.5 -5.53125 C 0.5 -5.90625 0.5625 -6.25 0.6875 -6.5625 C 0.8125 -6.875 0.976562 -7.140625 1.1875 -7.359375 C 1.394531 -7.585938 1.640625 -7.765625 1.921875 -7.890625 C 2.210938 -8.015625 2.515625 -8.078125 2.828125 -8.078125 C 3.222656 -8.078125 3.585938 -8 3.921875 -7.84375 C 4.253906 -7.6875 4.539062 -7.445312 4.78125 -7.125 C 5.03125 -6.800781 5.222656 -6.398438 5.359375 -5.921875 C 5.492188 -5.453125 5.5625 -4.898438 5.5625 -4.265625 C 5.5625 -3.460938 5.476562 -2.78125 5.3125 -2.21875 C 5.144531 -1.664062 4.921875 -1.210938 4.640625 -0.859375 C 4.359375 -0.503906 4.035156 -0.242188 3.671875 -0.078125 C 3.316406 0.078125 2.941406 0.15625 2.546875 0.15625 Z M 2.546875 0.15625 "/></g></g></g><g fill="#000000" fill-opacity="1"><g transform="translate(303.80639, 346.468595)"><g><path d="M 3.09375 0.15625 C 2.289062 0.15625 1.664062 -0.195312 1.21875 -0.90625 C 0.769531 -1.625 0.546875 -2.648438 0.546875 -3.984375 C 0.546875 -5.316406 0.769531 -6.332031 1.21875 -7.03125 C 1.664062 -7.726562 2.289062 -8.078125 3.09375 -8.078125 C 3.882812 -8.078125 4.503906 -7.726562 4.953125 -7.03125 C 5.398438 -6.332031 5.625 -5.316406 5.625 -3.984375 C 5.625 -2.648438 5.398438 -1.625 4.953125 -0.90625 C 4.503906 -0.195312 3.882812 0.15625 3.09375 0.15625 Z M 3.09375 -0.671875 C 3.320312 -0.671875 3.53125 -0.734375 3.71875 -0.859375 C 3.90625 -0.992188 4.066406 -1.191406 4.203125 -1.453125 C 4.335938 -1.722656 4.441406 -2.066406 4.515625 -2.484375 C 4.597656 -2.910156 4.640625 -3.410156 4.640625 -3.984375 C 4.640625 -4.566406 4.597656 -5.0625 4.515625 -5.46875 C 4.441406 -5.882812 4.335938 -6.222656 4.203125 -6.484375 C 4.066406 -6.742188 3.90625 -6.9375 3.71875 -7.0625 C 3.53125 -7.1875 3.320312 -7.25 3.09375 -7.25 C 2.863281 -7.25 2.648438 -7.1875 2.453125 -7.0625 C 2.265625 -6.9375 2.101562 -6.742188 1.96875 -6.484375 C 1.832031 -6.222656 1.726562 -5.882812 1.65625 -5.46875 C 1.582031 -5.0625 1.546875 -4.566406 1.546875 -3.984375 C 1.546875 -2.828125 1.6875 -1.984375 1.96875 -1.453125 C 2.25 -0.929688 2.625 -0.671875 3.09375 -0.671875 Z M 3.09375 -0.671875 "/></g></g></g><g fill="#000000" fill-opacity="1"><g transform="translate(309.974582, 346.468595)"><g><path d="M 0.5 0 L 0.5 -0.609375 C 1.09375 -1.203125 1.617188 -1.738281 2.078125 -2.21875 C 2.546875 -2.695312 2.9375 -3.140625 3.25 -3.546875 C 3.5625 -3.960938 3.800781 -4.34375 3.96875 -4.6875 C 4.132812 -5.03125 4.21875 -5.363281 4.21875 -5.6875 C 4.21875 -6.144531 4.09375 -6.515625 3.84375 -6.796875 C 3.601562 -7.085938 3.226562 -7.234375 2.71875 -7.234375 C 2.382812 -7.234375 2.078125 -7.140625 1.796875 -6.953125 C 1.515625 -6.773438 1.257812 -6.550781 1.03125 -6.28125 L 0.453125 -6.875 C 0.773438 -7.238281 1.125 -7.53125 1.5 -7.75 C 1.875 -7.96875 2.320312 -8.078125 2.84375 -8.078125 C 3.582031 -8.078125 4.160156 -7.863281 4.578125 -7.4375 C 5.003906 -7.007812 5.21875 -6.441406 5.21875 -5.734375 C 5.21875 -5.367188 5.132812 -4.992188 4.96875 -4.609375 C 4.8125 -4.234375 4.585938 -3.84375 4.296875 -3.4375 C 4.015625 -3.039062 3.675781 -2.625 3.28125 -2.1875 C 2.894531 -1.757812 2.460938 -1.300781 1.984375 -0.8125 C 2.203125 -0.820312 2.425781 -0.832031 2.65625 -0.84375 C 2.882812 -0.863281 3.101562 -0.875 3.3125 -0.875 L 5.609375 -0.875 L 5.609375 0 Z M 0.5 0 "/></g></g></g><g fill="#000000" fill-opacity="1"><g transform="translate(316.142774, 346.468595)"><g><path d="M 0.125 1.984375 L 3.4375 -8.8125 L 4.1875 -8.8125 L 0.875 1.984375 Z M 0.125 1.984375 "/></g></g></g><g fill="#000000" fill-opacity="1"><g transform="translate(320.486573, 346.468595)"><g><path d="M 0.984375 0 L 0.984375 -0.84375 L 2.796875 -0.84375 L 2.796875 -6.6875 L 1.359375 -6.6875 L 1.359375 -7.34375 C 1.722656 -7.40625 2.035156 -7.484375 2.296875 -7.578125 C 2.566406 -7.671875 2.8125 -7.785156 3.03125 -7.921875 L 3.8125 -7.921875 L 3.8125 -0.84375 L 5.453125 -0.84375 L 5.453125 0 Z M 0.984375 0 "/></g></g></g><g fill="#000000" fill-opacity="1"><g transform="translate(326.654765, 346.468595)"><g><path d="M 3.328125 0.15625 C 2.941406 0.15625 2.582031 0.078125 2.25 -0.078125 C 1.914062 -0.242188 1.625 -0.484375 1.375 -0.796875 C 1.132812 -1.117188 0.941406 -1.515625 0.796875 -1.984375 C 0.660156 -2.460938 0.59375 -3.023438 0.59375 -3.671875 C 0.59375 -4.460938 0.675781 -5.132812 0.84375 -5.6875 C 1.007812 -6.25 1.234375 -6.707031 1.515625 -7.0625 C 1.796875 -7.414062 2.113281 -7.671875 2.46875 -7.828125 C 2.832031 -7.992188 3.210938 -8.078125 3.609375 -8.078125 C 4.046875 -8.078125 4.414062 -7.992188 4.71875 -7.828125 C 5.03125 -7.671875 5.300781 -7.472656 5.53125 -7.234375 L 4.953125 -6.59375 C 4.785156 -6.78125 4.585938 -6.929688 4.359375 -7.046875 C 4.140625 -7.160156 3.90625 -7.21875 3.65625 -7.21875 C 3.375 -7.21875 3.109375 -7.160156 2.859375 -7.046875 C 2.617188 -6.929688 2.398438 -6.738281 2.203125 -6.46875 C 2.015625 -6.207031 1.863281 -5.863281 1.75 -5.4375 C 1.632812 -5.007812 1.570312 -4.476562 1.5625 -3.84375 C 1.8125 -4.15625 2.101562 -4.398438 2.4375 -4.578125 C 2.769531 -4.753906 3.097656 -4.84375 3.421875 -4.84375 C 4.109375 -4.84375 4.65625 -4.640625 5.0625 -4.234375 C 5.46875 -3.828125 5.671875 -3.210938 5.671875 -2.390625 C 5.671875 -2.015625 5.609375 -1.671875 5.484375 -1.359375 C 5.359375 -1.046875 5.1875 -0.773438 4.96875 -0.546875 C 4.757812 -0.328125 4.515625 -0.15625 4.234375 -0.03125 C 3.953125 0.09375 3.648438 0.15625 3.328125 0.15625 Z M 3.328125 -0.65625 C 3.523438 -0.65625 3.707031 -0.695312 3.875 -0.78125 C 4.039062 -0.863281 4.1875 -0.976562 4.3125 -1.125 C 4.4375 -1.28125 4.53125 -1.460938 4.59375 -1.671875 C 4.664062 -1.890625 4.703125 -2.128906 4.703125 -2.390625 C 4.703125 -2.921875 4.582031 -3.332031 4.34375 -3.625 C 4.101562 -3.925781 3.734375 -4.078125 3.234375 -4.078125 C 2.984375 -4.078125 2.707031 -3.992188 2.40625 -3.828125 C 2.113281 -3.671875 1.84375 -3.40625 1.59375 -3.03125 C 1.65625 -2.25 1.832031 -1.65625 2.125 -1.25 C 2.425781 -0.851562 2.828125 -0.65625 3.328125 -0.65625 Z M 3.328125 -0.65625 "/></g></g></g><g fill="#000000" fill-opacity="1"><g transform="translate(12.566901, 335.446469)"><g><path d="M 3.09375 0.15625 C 2.289062 0.15625 1.664062 -0.195312 1.21875 -0.90625 C 0.769531 -1.625 0.546875 -2.648438 0.546875 -3.984375 C 0.546875 -5.316406 0.769531 -6.332031 1.21875 -7.03125 C 1.664062 -7.726562 2.289062 -8.078125 3.09375 -8.078125 C 3.882812 -8.078125 4.503906 -7.726562 4.953125 -7.03125 C 5.398438 -6.332031 5.625 -5.316406 5.625 -3.984375 C 5.625 -2.648438 5.398438 -1.625 4.953125 -0.90625 C 4.503906 -0.195312 3.882812 0.15625 3.09375 0.15625 Z M 3.09375 -0.671875 C 3.320312 -0.671875 3.53125 -0.734375 3.71875 -0.859375 C 3.90625 -0.992188 4.066406 -1.191406 4.203125 -1.453125 C 4.335938 -1.722656 4.441406 -2.066406 4.515625 -2.484375 C 4.597656 -2.910156 4.640625 -3.410156 4.640625 -3.984375 C 4.640625 -4.566406 4.597656 -5.0625 4.515625 -5.46875 C 4.441406 -5.882812 4.335938 -6.222656 4.203125 -6.484375 C 4.066406 -6.742188 3.90625 -6.9375 3.71875 -7.0625 C 3.53125 -7.1875 3.320312 -7.25 3.09375 -7.25 C 2.863281 -7.25 2.648438 -7.1875 2.453125 -7.0625 C 2.265625 -6.9375 2.101562 -6.742188 1.96875 -6.484375 C 1.832031 -6.222656 1.726562 -5.882812 1.65625 -5.46875 C 1.582031 -5.0625 1.546875 -4.566406 1.546875 -3.984375 C 1.546875 -2.828125 1.6875 -1.984375 1.96875 -1.453125 C 2.25 -0.929688 2.625 -0.671875 3.09375 -0.671875 Z M 3.09375 -0.671875 "/></g></g></g><g fill="#000000" fill-opacity="1"><g transform="translate(12.566901, 256.717276)"><g><path d="M 0.984375 0 L 0.984375 -0.84375 L 2.796875 -0.84375 L 2.796875 -6.6875 L 1.359375 -6.6875 L 1.359375 -7.34375 C 1.722656 -7.40625 2.035156 -7.484375 2.296875 -7.578125 C 2.566406 -7.671875 2.8125 -7.785156 3.03125 -7.921875 L 3.8125 -7.921875 L 3.8125 -0.84375 L 5.453125 -0.84375 L 5.453125 0 Z M 0.984375 0 "/></g></g></g><g fill="#000000" fill-opacity="1"><g transform="translate(12.566901, 177.988052)"><g><path d="M 0.5 0 L 0.5 -0.609375 C 1.09375 -1.203125 1.617188 -1.738281 2.078125 -2.21875 C 2.546875 -2.695312 2.9375 -3.140625 3.25 -3.546875 C 3.5625 -3.960938 3.800781 -4.34375 3.96875 -4.6875 C 4.132812 -5.03125 4.21875 -5.363281 4.21875 -5.6875 C 4.21875 -6.144531 4.09375 -6.515625 3.84375 -6.796875 C 3.601562 -7.085938 3.226562 -7.234375 2.71875 -7.234375 C 2.382812 -7.234375 2.078125 -7.140625 1.796875 -6.953125 C 1.515625 -6.773438 1.257812 -6.550781 1.03125 -6.28125 L 0.453125 -6.875 C 0.773438 -7.238281 1.125 -7.53125 1.5 -7.75 C 1.875 -7.96875 2.320312 -8.078125 2.84375 -8.078125 C 3.582031 -8.078125 4.160156 -7.863281 4.578125 -7.4375 C 5.003906 -7.007812 5.21875 -6.441406 5.21875 -5.734375 C 5.21875 -5.367188 5.132812 -4.992188 4.96875 -4.609375 C 4.8125 -4.234375 4.585938 -3.84375 4.296875 -3.4375 C 4.015625 -3.039062 3.675781 -2.625 3.28125 -2.1875 C 2.894531 -1.757812 2.460938 -1.300781 1.984375 -0.8125 C 2.203125 -0.820312 2.425781 -0.832031 2.65625 -0.84375 C 2.882812 -0.863281 3.101562 -0.875 3.3125 -0.875 L 5.609375 -0.875 L 5.609375 0 Z M 0.5 0 "/></g></g></g><g clip-path="url(#4291cbb5ed)"><g fill="#000000" fill-opacity="1"><g transform="translate(12.566901, 99.258837)"><g><path d="M 2.9375 0.15625 C 2.613281 0.15625 2.320312 0.125 2.0625 0.0625 C 1.800781 0 1.5625 -0.0820312 1.34375 -0.1875 C 1.132812 -0.289062 0.941406 -0.410156 0.765625 -0.546875 C 0.597656 -0.679688 0.453125 -0.820312 0.328125 -0.96875 L 0.84375 -1.640625 C 1.082031 -1.390625 1.359375 -1.171875 1.671875 -0.984375 C 1.992188 -0.796875 2.394531 -0.703125 2.875 -0.703125 C 3.351562 -0.703125 3.742188 -0.832031 4.046875 -1.09375 C 4.359375 -1.351562 4.515625 -1.707031 4.515625 -2.15625 C 4.515625 -2.382812 4.46875 -2.59375 4.375 -2.78125 C 4.289062 -2.976562 4.148438 -3.144531 3.953125 -3.28125 C 3.753906 -3.425781 3.492188 -3.535156 3.171875 -3.609375 C 2.847656 -3.679688 2.445312 -3.71875 1.96875 -3.71875 L 1.96875 -4.515625 C 2.394531 -4.515625 2.75 -4.550781 3.03125 -4.625 C 3.320312 -4.695312 3.554688 -4.796875 3.734375 -4.921875 C 3.910156 -5.054688 4.035156 -5.210938 4.109375 -5.390625 C 4.179688 -5.578125 4.21875 -5.773438 4.21875 -5.984375 C 4.21875 -6.378906 4.09375 -6.6875 3.84375 -6.90625 C 3.601562 -7.125 3.273438 -7.234375 2.859375 -7.234375 C 2.523438 -7.234375 2.21875 -7.160156 1.9375 -7.015625 C 1.664062 -6.867188 1.410156 -6.675781 1.171875 -6.4375 L 0.625 -7.078125 C 0.925781 -7.367188 1.257812 -7.609375 1.625 -7.796875 C 2 -7.984375 2.421875 -8.078125 2.890625 -8.078125 C 3.242188 -8.078125 3.5625 -8.03125 3.84375 -7.9375 C 4.132812 -7.84375 4.382812 -7.710938 4.59375 -7.546875 C 4.8125 -7.378906 4.976562 -7.171875 5.09375 -6.921875 C 5.207031 -6.671875 5.265625 -6.382812 5.265625 -6.0625 C 5.265625 -5.582031 5.128906 -5.1875 4.859375 -4.875 C 4.597656 -4.570312 4.253906 -4.335938 3.828125 -4.171875 L 3.828125 -4.125 C 4.066406 -4.0625 4.289062 -3.972656 4.5 -3.859375 C 4.707031 -3.753906 4.890625 -3.613281 5.046875 -3.4375 C 5.203125 -3.269531 5.320312 -3.070312 5.40625 -2.84375 C 5.5 -2.625 5.546875 -2.378906 5.546875 -2.109375 C 5.546875 -1.765625 5.472656 -1.453125 5.328125 -1.171875 C 5.191406 -0.890625 5.003906 -0.648438 4.765625 -0.453125 C 4.535156 -0.253906 4.265625 -0.101562 3.953125 0 C 3.640625 0.101562 3.300781 0.15625 2.9375 0.15625 Z M 2.9375 0.15625 "/></g></g></g></g><g clip-path="url(#f70e8ee4ae)"><g fill="#000000" fill-opacity="1"><g transform="translate(12.566901, 20.529626)"><g><path d="M 3.78125 0 L 3.78125 -2.1875 L 0.21875 -2.1875 L 0.21875 -2.859375 L 3.609375 -7.921875 L 4.75 -7.921875 L 4.75 -3 L 5.828125 -3 L 5.828125 -2.1875 L 4.75 -2.1875 L 4.75 0 Z M 1.296875 -3 L 3.78125 -3 L 3.78125 -5.296875 C 3.78125 -5.515625 3.785156 -5.769531 3.796875 -6.0625 C 3.804688 -6.363281 3.820312 -6.617188 3.84375 -6.828125 L 3.78125 -6.828125 C 3.6875 -6.640625 3.582031 -6.453125 3.46875 -6.265625 C 3.363281 -6.085938 3.253906 -5.90625 3.140625 -5.71875 Z M 1.296875 -3 "/></g></g></g></g><g clip-path="url(#ed65fe9890)"><path fill="#009ec1" d="M 31.230469 95.324219 L 71.582031 95.324219 C 72.09375 95.324219 72.582031 95.417969 73.054688 95.613281 C 73.523438 95.808594 73.941406 96.085938 74.300781 96.449219 C 74.660156 96.808594 74.9375 97.222656 75.132812 97.695312 C 75.328125 98.164062 75.425781 98.65625 75.425781 99.164062 L 75.425781 331.511719 C 75.425781 332.019531 75.328125 332.511719 75.132812 332.980469 C 74.9375 333.453125 74.660156 333.867188 74.300781 334.226562 C 73.941406 334.585938 73.523438 334.867188 73.054688 335.058594 C 72.582031 335.253906 72.09375 335.351562 71.582031 335.351562 L 31.230469 335.351562 C 30.722656 335.351562 30.230469 335.253906 29.761719 335.058594 C 29.289062 334.867188 28.875 334.585938 28.515625 334.226562 C 28.152344 333.867188 27.875 333.453125 27.679688 332.980469 C 27.484375 332.511719 27.386719 332.019531 27.386719 331.511719 L 27.386719 99.164062 C 27.386719 98.65625 27.484375 98.164062 27.679688 97.695312 C 27.875 97.222656 28.152344 96.808594 28.515625 96.449219 C 28.875 96.085938 29.289062 95.808594 29.761719 95.613281 C 30.230469 95.417969 30.722656 95.324219 31.230469 95.324219 Z M 31.230469 95.324219 " fill-opacity="1" fill-rule="nonzero"/></g><g clip-path="url(#588b16d8fc)"><path fill="#009ec1" d="M 84.605469 16.59375 L 124.960938 16.59375 C 125.46875 16.59375 125.957031 16.691406 126.429688 16.886719 C 126.902344 17.082031 127.316406 17.359375 127.675781 17.71875 C 128.035156 18.078125 128.316406 18.496094 128.507812 18.964844 C 128.703125 19.4375 128.800781 19.925781 128.800781 20.4375 L 128.800781 331.511719 C 128.800781 332.019531 128.703125 332.511719 128.507812 332.980469 C 128.316406 333.453125 128.035156 333.867188 127.675781 334.226562 C 127.316406 334.585938 126.902344 334.867188 126.429688 335.058594 C 125.957031 335.253906 125.46875 335.351562 124.960938 335.351562 L 84.605469 335.351562 C 84.097656 335.351562 83.605469 335.253906 83.136719 335.058594 C 82.664062 334.867188 82.25 334.585938 81.890625 334.226562 C 81.527344 333.867188 81.25 333.453125 81.054688 332.980469 C 80.863281 332.511719 80.765625 332.019531 80.765625 331.511719 L 80.765625 20.4375 C 80.765625 19.925781 80.863281 19.4375 81.054688 18.964844 C 81.25 18.496094 81.527344 18.078125 81.890625 17.71875 C 82.25 17.359375 82.664062 17.082031 83.136719 16.886719 C 83.605469 16.691406 84.097656 16.59375 84.605469 16.59375 Z M 84.605469 16.59375 " fill-opacity="1" fill-rule="nonzero"/></g><g clip-path="url(#8227b5f286)"><path fill="#009ec1" d="M 137.984375 95.324219 L 178.335938 95.324219 C 178.84375 95.324219 179.335938 95.417969 179.804688 95.613281 C 180.277344 95.808594 180.691406 96.085938 181.050781 96.449219 C 181.414062 96.808594 181.691406 97.222656 181.886719 97.695312 C 182.082031 98.164062 182.179688 98.65625 182.179688 99.164062 L 182.179688 331.511719 C 182.179688 332.019531 182.082031 332.511719 181.886719 332.980469 C 181.691406 333.453125 181.414062 333.867188 181.050781 334.226562 C 180.691406 334.585938 180.277344 334.867188 179.804688 335.058594 C 179.335938 335.253906 178.84375 335.351562 178.335938 335.351562 L 137.984375 335.351562 C 137.472656 335.351562 136.984375 335.253906 136.511719 335.058594 C 136.042969 334.867188 135.625 334.585938 135.265625 334.226562 C 134.90625 333.867188 134.628906 333.453125 134.433594 332.980469 C 134.238281 332.511719 134.140625 332.019531 134.140625 331.511719 L 134.140625 99.164062 C 134.140625 98.65625 134.238281 98.164062 134.433594 97.695312 C 134.628906 97.222656 134.90625 96.808594 135.265625 96.449219 C 135.625 96.085938 136.042969 95.808594 136.511719 95.613281 C 136.984375 95.417969 137.472656 95.324219 137.984375 95.324219 Z M 137.984375 95.324219 " fill-opacity="1" fill-rule="nonzero"/></g><g clip-path="url(#5b3c7ea6bb)"><path fill="#009ec1" d="M 191.359375 174.050781 L 231.710938 174.050781 C 232.21875 174.050781 232.710938 174.148438 233.179688 174.34375 C 233.652344 174.539062 234.066406 174.816406 234.429688 175.175781 C 234.789062 175.539062 235.066406 175.953125 235.261719 176.425781 C 235.457031 176.894531 235.554688 177.386719 235.554688 177.894531 L 235.554688 331.511719 C 235.554688 332.019531 235.457031 332.511719 235.261719 332.980469 C 235.066406 333.453125 234.789062 333.867188 234.429688 334.226562 C 234.066406 334.585938 233.652344 334.867188 233.179688 335.058594 C 232.710938 335.253906 232.21875 335.351562 231.710938 335.351562 L 191.359375 335.351562 C 190.847656 335.351562 190.359375 335.253906 189.886719 335.058594 C 189.417969 334.867188 189 334.585938 188.640625 334.226562 C 188.28125 333.867188 188.003906 333.453125 187.808594 332.980469 C 187.613281 332.511719 187.515625 332.019531 187.515625 331.511719 L 187.515625 177.894531 C 187.515625 177.386719 187.613281 176.894531 187.808594 176.425781 C 188.003906 175.953125 188.28125 175.539062 188.640625 175.175781 C 189 174.816406 189.417969 174.539062 189.886719 174.34375 C 190.359375 174.148438 190.847656 174.050781 191.359375 174.050781 Z M 191.359375 174.050781 " fill-opacity="1" fill-rule="nonzero"/></g><g clip-path="url(#010542c5bb)"><path fill="#009ec1" d="M 244.734375 16.59375 L 285.085938 16.59375 C 285.597656 16.59375 286.085938 16.691406 286.558594 16.886719 C 287.027344 17.082031 287.441406 17.359375 287.804688 17.71875 C 288.164062 18.078125 288.441406 18.496094 288.636719 18.964844 C 288.832031 19.4375 288.929688 19.925781 288.929688 20.4375 L 288.929688 331.511719 C 288.929688 332.019531 288.832031 332.511719 288.636719 332.980469 C 288.441406 333.453125 288.164062 333.867188 287.804688 334.226562 C 287.441406 334.585938 287.027344 334.867188 286.558594 335.058594 C 286.085938 335.253906 285.597656 335.351562 285.085938 335.351562 L 244.734375 335.351562 C 244.222656 335.351562 243.734375 335.253906 243.261719 335.058594 C 242.792969 334.867188 242.378906 334.585938 242.015625 334.226562 C 241.65625 333.867188 241.378906 333.453125 241.183594 332.980469 C 240.988281 332.511719 240.890625 332.019531 240.890625 331.511719 L 240.890625 20.4375 C 240.890625 19.925781 240.988281 19.4375 241.183594 18.964844 C 241.378906 18.496094 241.65625 18.078125 242.015625 17.71875 C 242.378906 17.359375 242.792969 17.082031 243.261719 16.886719 C 243.734375 16.691406 244.222656 16.59375 244.734375 16.59375 Z M 244.734375 16.59375 " fill-opacity="1" fill-rule="nonzero"/></g><g clip-path="url(#15a8ec8f29)"><path fill="#009ec1" d="M 298.109375 95.324219 L 338.460938 95.324219 C 338.972656 95.324219 339.460938 95.417969 339.933594 95.613281 C 340.402344 95.808594 340.820312 96.085938 341.179688 96.449219 C 341.539062 96.808594 341.816406 97.222656 342.011719 97.695312 C 342.207031 98.164062 342.304688 98.65625 342.304688 99.164062 L 342.304688 331.511719 C 342.304688 332.019531 342.207031 332.511719 342.011719 332.980469 C 341.816406 333.453125 341.539062 333.867188 341.179688 334.226562 C 340.820312 334.585938 340.402344 334.867188 339.933594 335.058594 C 339.460938 335.253906 338.972656 335.351562 338.460938 335.351562 L 298.109375 335.351562 C 297.601562 335.351562 297.109375 335.253906 296.640625 335.058594 C 296.167969 334.867188 295.753906 334.585938 295.390625 334.226562 C 295.03125 333.867188 294.753906 333.453125 294.558594 332.980469 C 294.363281 332.511719 294.265625 332.019531 294.265625 331.511719 L 294.265625 99.164062 C 294.265625 98.65625 294.363281 98.164062 294.558594 97.695312 C 294.753906 97.222656 295.03125 96.808594 295.390625 96.449219 C 295.753906 96.085938 296.167969 95.808594 296.640625 95.613281 C 297.109375 95.417969 297.601562 95.324219 298.109375 95.324219 Z M 298.109375 95.324219 " fill-opacity="1" fill-rule="nonzero"/></g></g></g></svg>