<svg xmlns="http://www.w3.org/2000/svg" xmlns:xlink="http://www.w3.org/1999/xlink" width="480" zoomAndPan="magnify" viewBox="0 0 360 359.999987" height="480" preserveAspectRatio="xMidYMid meet" version="1.0"><defs><g/><clipPath id="6ae3ecb32b"><path d="M 0 0 L 360 0 L 360 360 L 0 360 Z M 0 0 " clip-rule="nonzero"/></clipPath><clipPath id="e40c7700ad"><path d="M 180 0 C 279.410156 0 360 80.589844 360 180 C 360 279.410156 279.410156 360 180 360 C 80.589844 360 0 279.410156 0 180 C 0 80.589844 80.589844 0 180 0 L 180 54 C 110.414062 54 54 110.414062 54 180 C 54 249.585938 110.414062 306 180 306 C 249.585938 306 306 249.585938 306 180 C 306 110.414062 249.585938 54 180 54 Z M 180 0 " clip-rule="nonzero"/></clipPath><clipPath id="5df5e2d5fe"><path d="M 0 0 L 360 0 L 360 360 L 0 360 Z M 0 0 " clip-rule="nonzero"/></clipPath><clipPath id="ff83ea8804"><path d="M 180 0 C 279.410156 0 360 80.589844 360 180 C 360 279.410156 279.410156 360 180 360 C 80.589844 360 0 279.410156 0 180 C 0 80.589844 80.589844 0 180 0 L 180 54 C 110.414062 54 54 110.414062 54 180 C 54 249.585938 110.414062 306 180 306 C 249.585938 306 306 249.585938 306 180 C 306 110.414062 249.585938 54 180 54 Z M 180 0 " clip-rule="nonzero"/></clipPath><clipPath id="edf4811a4c"><rect x="0" width="360" y="0" height="360"/></clipPath><clipPath id="4b65918fc1"><path d="M 180 0 L 303.75 0 L 303.75 88.59375 L 180 88.59375 Z M 180 0 " clip-rule="nonzero"/></clipPath><clipPath id="ef5d9bc7aa"><path d="M 180 0 C 225.78125 0 269.84375 17.445312 303.21875 48.785156 L 266.253906 88.148438 C 242.890625 66.210938 212.046875 54 180 54 Z M 180 0 " clip-rule="nonzero"/></clipPath><clipPath id="e8effdfb04"><path d="M 0 0 L 123.359375 0 L 123.359375 88.320312 L 0 88.320312 Z M 0 0 " clip-rule="nonzero"/></clipPath><clipPath id="e7200f38a9"><path d="M 0 0 C 45.78125 0 89.84375 17.445312 123.21875 48.785156 L 86.253906 88.148438 C 62.890625 66.210938 32.046875 54 0 54 Z M 0 0 " clip-rule="nonzero"/></clipPath><clipPath id="3dcfe437e5"><rect x="0" width="124" y="0" height="89"/></clipPath><clipPath id="0882ac28c8"><rect x="0" width="360" y="0" height="360"/></clipPath></defs><g><g clip-path="url(#0882ac28c8)"><g clip-path="url(#6ae3ecb32b)"><g clip-path="url(#e40c7700ad)"><g><g clip-path="url(#edf4811a4c)"><g clip-path="url(#5df5e2d5fe)"><g clip-path="url(#ff83ea8804)"><rect x="-131.04" width="622.08" fill="#d9e8f6" y="-131.039995" height="622.079977" fill-opacity="1"/></g></g></g></g></g></g><g clip-path="url(#4b65918fc1)"><g clip-path="url(#ef5d9bc7aa)"><g transform="matrix(1, 0, 0, 1, 180, 0)"><g clip-path="url(#3dcfe437e5)"><g clip-path="url(#e8effdfb04)"><g clip-path="url(#e7200f38a9)"><rect x="-311.04" width="622.08" fill="#ffbc78" y="-131.039995" height="622.079977" fill-opacity="1"/></g></g></g></g></g></g></g></g><g fill="#000000" fill-opacity="1"><g transform="translate(153.59765, 214.499983)"><g><path d="M 29.390625 0 L 29.390625 -15.203125 L 1.90625 -15.203125 L 1.90625 -25.296875 L 25.09375 -63.484375 L 43.09375 -63.484375 L 43.09375 -26.390625 L 50.390625 -26.390625 L 50.390625 -15.203125 L 43.09375 -15.203125 L 43.09375 0 Z M 16 -26.390625 L 29.390625 -26.390625 L 29.390625 -36.6875 C 29.390625 -38.757812 29.457031 -41.144531 29.59375 -43.84375 C 29.726562 -46.539062 29.863281 -48.890625 30 -50.890625 L 29.59375 -50.890625 C 28.789062 -49.160156 27.957031 -47.394531 27.09375 -45.59375 C 26.226562 -43.789062 25.328125 -41.988281 24.390625 -40.1875 Z M 16 -26.390625 "/></g></g></g></svg>