<svg xmlns="http://www.w3.org/2000/svg" xmlns:xlink="http://www.w3.org/1999/xlink" width="480" zoomAndPan="magnify" viewBox="0 0 360 359.999987" height="480" preserveAspectRatio="xMidYMid meet" version="1.0"><defs><g/><clipPath id="eea791c934"><path d="M 0 0 L 360 0 L 360 360 L 0 360 Z M 0 0 " clip-rule="nonzero"/></clipPath><clipPath id="38d3107e5a"><path d="M 180 0 C 279.410156 0 360 80.589844 360 180 C 360 279.410156 279.410156 360 180 360 C 80.589844 360 0 279.410156 0 180 C 0 80.589844 80.589844 0 180 0 L 180 54 C 110.414062 54 54 110.414062 54 180 C 54 249.585938 110.414062 306 180 306 C 249.585938 306 306 249.585938 306 180 C 306 110.414062 249.585938 54 180 54 Z M 180 0 " clip-rule="nonzero"/></clipPath><clipPath id="d44d059100"><path d="M 0 0 L 360 0 L 360 360 L 0 360 Z M 0 0 " clip-rule="nonzero"/></clipPath><clipPath id="db8bf51ea6"><path d="M 180 0 C 279.410156 0 360 80.589844 360 180 C 360 279.410156 279.410156 360 180 360 C 80.589844 360 0 279.410156 0 180 C 0 80.589844 80.589844 0 180 0 L 180 54 C 110.414062 54 54 110.414062 54 180 C 54 249.585938 110.414062 306 180 306 C 249.585938 306 306 249.585938 306 180 C 306 110.414062 249.585938 54 180 54 Z M 180 0 " clip-rule="nonzero"/></clipPath><clipPath id="11a6293d11"><rect x="0" width="360" y="0" height="360"/></clipPath><clipPath id="39ced21e77"><path d="M 180 0 L 360 0 L 360 351.5625 L 180 351.5625 Z M 180 0 " clip-rule="nonzero"/></clipPath><clipPath id="aefd99aca2"><path d="M 180 0 C 268.539062 0 343.933594 64.390625 357.785156 151.839844 C 371.632812 239.292969 319.832031 323.828125 235.625 351.191406 L 218.9375 299.832031 C 277.882812 280.679688 314.144531 221.503906 304.449219 160.289062 C 294.753906 99.074219 241.976562 54 180 54 Z M 180 0 " clip-rule="nonzero"/></clipPath><clipPath id="80a26dac3b"><path d="M 0 0 L 180 0 L 180 351.359375 L 0 351.359375 Z M 0 0 " clip-rule="nonzero"/></clipPath><clipPath id="33e2406bd9"><path d="M 0 0 C 88.539062 0 163.933594 64.390625 177.785156 151.839844 C 191.632812 239.292969 139.832031 323.828125 55.625 351.191406 L 38.9375 299.832031 C 97.882812 280.679688 134.144531 221.503906 124.449219 160.289062 C 114.753906 99.074219 61.976562 54 0 54 Z M 0 0 " clip-rule="nonzero"/></clipPath><clipPath id="9333255ac7"><rect x="0" width="180" y="0" height="352"/></clipPath><clipPath id="afeec52f8b"><rect x="0" width="360" y="0" height="360"/></clipPath></defs><g><g clip-path="url(#afeec52f8b)"><g clip-path="url(#eea791c934)"><g clip-path="url(#38d3107e5a)"><g><g clip-path="url(#11a6293d11)"><g clip-path="url(#d44d059100)"><g clip-path="url(#db8bf51ea6)"><rect x="-131.04" width="622.08" fill="#d9e8f6" y="-131.039995" height="622.079977" fill-opacity="1"/></g></g></g></g></g></g><g clip-path="url(#39ced21e77)"><g clip-path="url(#aefd99aca2)"><g transform="matrix(1, 0, 0, 1, 180, 0)"><g clip-path="url(#9333255ac7)"><g clip-path="url(#80a26dac3b)"><g clip-path="url(#33e2406bd9)"><rect x="-311.04" width="622.08" fill="#f2938c" y="-131.039995" height="622.079977" fill-opacity="1"/></g></g></g></g></g></g></g></g><g fill="#000000" fill-opacity="1"><g transform="translate(127.201168, 214.499983)"><g><path d="M 3.703125 0 L 3.703125 -8.40625 C 7.765625 -12.195312 11.476562 -15.742188 14.84375 -19.046875 C 18.207031 -22.347656 21.109375 -25.445312 23.546875 -28.34375 C 25.984375 -31.238281 27.882812 -33.9375 29.25 -36.4375 C 30.613281 -38.9375 31.296875 -41.320312 31.296875 -43.59375 C 31.296875 -46.726562 30.492188 -49.109375 28.890625 -50.734375 C 27.296875 -52.367188 25.097656 -53.1875 22.296875 -53.1875 C 19.960938 -53.1875 17.894531 -52.535156 16.09375 -51.234375 C 14.289062 -49.941406 12.59375 -48.425781 11 -46.6875 L 3 -54.59375 C 6.132812 -57.925781 9.332031 -60.441406 12.59375 -62.140625 C 15.863281 -63.835938 19.765625 -64.6875 24.296875 -64.6875 C 27.429688 -64.6875 30.28125 -64.203125 32.84375 -63.234375 C 35.40625 -62.273438 37.617188 -60.910156 39.484375 -59.140625 C 41.359375 -57.367188 42.796875 -55.25 43.796875 -52.78125 C 44.796875 -50.320312 45.296875 -47.5625 45.296875 -44.5 C 45.296875 -41.832031 44.726562 -39.113281 43.59375 -36.34375 C 42.457031 -33.570312 40.9375 -30.800781 39.03125 -28.03125 C 37.132812 -25.269531 34.96875 -22.503906 32.53125 -19.734375 C 30.101562 -16.972656 27.59375 -14.257812 25 -11.59375 C 26.59375 -11.789062 28.375 -11.972656 30.34375 -12.140625 C 32.3125 -12.304688 34.0625 -12.390625 35.59375 -12.390625 L 48.390625 -12.390625 L 48.390625 0 Z M 3.703125 0 "/></g></g></g><g fill="#000000" fill-opacity="1"><g transform="translate(179.992896, 214.499983)"><g><path d="M 26.390625 1.203125 C 22.992188 1.203125 19.894531 0.488281 17.09375 -0.9375 C 14.289062 -2.375 11.90625 -4.492188 9.9375 -7.296875 C 7.976562 -10.097656 6.445312 -13.5625 5.34375 -17.6875 C 4.25 -21.820312 3.703125 -26.59375 3.703125 -32 C 3.703125 -37.394531 4.25 -42.125 5.34375 -46.1875 C 6.445312 -50.257812 7.976562 -53.675781 9.9375 -56.4375 C 11.90625 -59.207031 14.289062 -61.273438 17.09375 -62.640625 C 19.894531 -64.003906 22.992188 -64.6875 26.390625 -64.6875 C 29.796875 -64.6875 32.894531 -64.003906 35.6875 -62.640625 C 38.488281 -61.273438 40.875 -59.207031 42.84375 -56.4375 C 44.8125 -53.675781 46.34375 -50.257812 47.4375 -46.1875 C 48.539062 -42.125 49.09375 -37.394531 49.09375 -32 C 49.09375 -26.59375 48.539062 -21.820312 47.4375 -17.6875 C 46.34375 -13.5625 44.8125 -10.097656 42.84375 -7.296875 C 40.875 -4.492188 38.488281 -2.375 35.6875 -0.9375 C 32.894531 0.488281 29.796875 1.203125 26.390625 1.203125 Z M 26.390625 -10.203125 C 27.660156 -10.203125 28.828125 -10.515625 29.890625 -11.140625 C 30.960938 -11.773438 31.894531 -12.925781 32.6875 -14.59375 C 33.488281 -16.257812 34.101562 -18.492188 34.53125 -21.296875 C 34.96875 -24.097656 35.1875 -27.664062 35.1875 -32 C 35.1875 -36.332031 34.96875 -39.878906 34.53125 -42.640625 C 34.101562 -45.410156 33.488281 -47.578125 32.6875 -49.140625 C 31.894531 -50.703125 30.960938 -51.785156 29.890625 -52.390625 C 28.828125 -52.992188 27.660156 -53.296875 26.390625 -53.296875 C 25.191406 -53.296875 24.054688 -52.992188 22.984375 -52.390625 C 21.921875 -51.785156 20.988281 -50.703125 20.1875 -49.140625 C 19.394531 -47.578125 18.765625 -45.410156 18.296875 -42.640625 C 17.828125 -39.878906 17.59375 -36.332031 17.59375 -32 C 17.59375 -27.664062 17.828125 -24.097656 18.296875 -21.296875 C 18.765625 -18.492188 19.394531 -16.257812 20.1875 -14.59375 C 20.988281 -12.925781 21.921875 -11.773438 22.984375 -11.140625 C 24.054688 -10.515625 25.191406 -10.203125 26.390625 -10.203125 Z M 26.390625 -10.203125 "/></g></g></g></svg>