<svg xmlns="http://www.w3.org/2000/svg" xmlns:xlink="http://www.w3.org/1999/xlink" width="480" zoomAndPan="magnify" viewBox="0 0 360 359.999987" height="480" preserveAspectRatio="xMidYMid meet" version="1.0"><defs><g/><clipPath id="16fbb725af"><path d="M 32 329 L 347.230469 329 L 347.230469 331 L 32 331 Z M 32 329 " clip-rule="nonzero"/></clipPath><clipPath id="ea703b692f"><path d="M 32 277 L 347.230469 277 L 347.230469 279 L 32 279 Z M 32 277 " clip-rule="nonzero"/></clipPath><clipPath id="1551e77758"><path d="M 32 225 L 347.230469 225 L 347.230469 226 L 32 226 Z M 32 225 " clip-rule="nonzero"/></clipPath><clipPath id="4677064e76"><path d="M 32 172 L 347.230469 172 L 347.230469 174 L 32 174 Z M 32 172 " clip-rule="nonzero"/></clipPath><clipPath id="b20ad38a6c"><path d="M 32 120 L 347.230469 120 L 347.230469 122 L 32 122 Z M 32 120 " clip-rule="nonzero"/></clipPath><clipPath id="53471eeb1d"><path d="M 32 67 L 347.230469 67 L 347.230469 69 L 32 69 Z M 32 67 " clip-rule="nonzero"/></clipPath><clipPath id="815ef05e04"><path d="M 32 15 L 347.230469 15 L 347.230469 17 L 32 17 Z M 32 15 " clip-rule="nonzero"/></clipPath><clipPath id="90cbde0d80"><path d="M 12.527344 64 L 18 64 L 18 73 L 12.527344 73 Z M 12.527344 64 " clip-rule="nonzero"/></clipPath><clipPath id="3480328b02"><path d="M 12.527344 11 L 18 11 L 18 20 L 12.527344 20 Z M 12.527344 11 " clip-rule="nonzero"/></clipPath><clipPath id="753aea48d4"><rect x="0" width="359" y="0" height="360"/></clipPath></defs><g transform="matrix(1, 0, 0, 1, 1, 0)"><g clip-path="url(#753aea48d4)"><g clip-path="url(#16fbb725af)"><path stroke-linecap="butt" transform="matrix(0.873925, 0, 0, 0.873925, 32.616381, 15.703195)" fill="none" stroke-linejoin="miter" d="M 0.00092293 360.000188 L 360.001191 360.000188 " stroke="#000000" stroke-width="1" stroke-opacity="0.6" stroke-miterlimit="4"/></g><g clip-path="url(#ea703b692f)"><path stroke-linecap="butt" transform="matrix(0.873925, 0, 0, 0.873925, 32.616381, 15.703195)" fill="none" stroke-linejoin="miter" d="M 0.00092293 299.997908 L 360.001191 299.997908 " stroke="#000000" stroke-width="1" stroke-opacity="0.251" stroke-miterlimit="4"/></g><g clip-path="url(#1551e77758)"><path stroke-linecap="butt" transform="matrix(0.873925, 0, 0, 0.873925, 32.616381, 15.703195)" fill="none" stroke-linejoin="miter" d="M 0.00092293 240.000098 L 360.001191 240.000098 " stroke="#000000" stroke-width="1" stroke-opacity="0.251" stroke-miterlimit="4"/></g><g clip-path="url(#4677064e76)"><path stroke-linecap="butt" transform="matrix(0.873925, 0, 0, 0.873925, 32.616381, 15.703195)" fill="none" stroke-linejoin="miter" d="M 0.00092293 179.997819 L 360.001191 179.997819 " stroke="#000000" stroke-width="1" stroke-opacity="0.251" stroke-miterlimit="4"/></g><g clip-path="url(#b20ad38a6c)"><path stroke-linecap="butt" transform="matrix(0.873925, 0, 0, 0.873925, 32.616381, 15.703195)" fill="none" stroke-linejoin="miter" d="M 0.00092293 120.000009 L 360.001191 120.000009 " stroke="#000000" stroke-width="1" stroke-opacity="0.251" stroke-miterlimit="4"/></g><g clip-path="url(#53471eeb1d)"><path stroke-linecap="butt" transform="matrix(0.873925, 0, 0, 0.873925, 32.616381, 15.703195)" fill="none" stroke-linejoin="miter" d="M 0.00092293 60.002199 L 360.001191 60.002199 " stroke="#000000" stroke-width="1" stroke-opacity="0.251" stroke-miterlimit="4"/></g><g clip-path="url(#815ef05e04)"><path stroke-linecap="butt" transform="matrix(0.873925, 0, 0, 0.873925, 32.616381, 15.703195)" fill="none" stroke-linejoin="miter" d="M 0.00092293 -0.0000802828 L 360.001191 -0.0000802828 " stroke="#000000" stroke-width="1" stroke-opacity="0.251" stroke-miterlimit="4"/></g><path fill="#000000" d="M 58.835938 173.007812 L 111.269531 41.921875 " fill-opacity="1" fill-rule="nonzero"/><path fill="#005ea2" d="M 57.007812 172.28125 L 109.445312 41.191406 C 109.539062 40.949219 109.679688 40.734375 109.863281 40.546875 C 110.042969 40.359375 110.253906 40.214844 110.496094 40.113281 C 110.734375 40.011719 110.984375 39.957031 111.246094 39.953125 C 111.507812 39.953125 111.757812 40 112 40.09375 C 112.242188 40.191406 112.457031 40.332031 112.644531 40.515625 C 112.828125 40.695312 112.972656 40.90625 113.078125 41.144531 C 113.179688 41.386719 113.234375 41.636719 113.234375 41.898438 C 113.238281 42.15625 113.191406 42.410156 113.09375 42.652344 L 60.660156 173.738281 C 60.5625 173.980469 60.421875 174.195312 60.242188 174.382812 C 60.058594 174.570312 59.847656 174.714844 59.609375 174.816406 C 59.367188 174.917969 59.117188 174.972656 58.859375 174.976562 C 58.597656 174.980469 58.347656 174.933594 58.105469 174.835938 C 57.863281 174.738281 57.648438 174.597656 57.460938 174.417969 C 57.273438 174.234375 57.128906 174.023438 57.027344 173.785156 C 56.925781 173.542969 56.871094 173.292969 56.867188 173.035156 C 56.863281 172.773438 56.910156 172.523438 57.007812 172.28125 Z M 57.007812 172.28125 " fill-opacity="1" fill-rule="nonzero"/><path fill="#000000" d="M 111.269531 41.921875 L 163.707031 120.574219 " fill-opacity="1" fill-rule="nonzero"/><path fill="#005ea2" d="M 112.90625 40.832031 L 165.339844 119.484375 C 165.484375 119.699219 165.582031 119.9375 165.632812 120.191406 C 165.683594 120.449219 165.683594 120.703125 165.632812 120.960938 C 165.582031 121.214844 165.484375 121.453125 165.339844 121.667969 C 165.195312 121.886719 165.011719 122.066406 164.796875 122.210938 C 164.578125 122.355469 164.34375 122.453125 164.085938 122.503906 C 163.832031 122.554688 163.574219 122.554688 163.320312 122.503906 C 163.0625 122.453125 162.828125 122.351562 162.609375 122.207031 C 162.394531 122.0625 162.214844 121.882812 162.070312 121.664062 L 109.632812 43.011719 C 109.488281 42.792969 109.390625 42.558594 109.339844 42.300781 C 109.289062 42.046875 109.289062 41.789062 109.339844 41.535156 C 109.394531 41.28125 109.492188 41.042969 109.636719 40.828125 C 109.78125 40.609375 109.960938 40.429688 110.179688 40.285156 C 110.394531 40.140625 110.632812 40.042969 110.886719 39.992188 C 111.144531 39.941406 111.398438 39.941406 111.65625 39.992188 C 111.910156 40.042969 112.148438 40.140625 112.363281 40.289062 C 112.582031 40.433594 112.761719 40.613281 112.90625 40.832031 Z M 112.90625 40.832031 " fill-opacity="1" fill-rule="nonzero"/><path fill="#000000" d="M 163.707031 120.574219 L 216.140625 94.355469 " fill-opacity="1" fill-rule="nonzero"/><path fill="#005ea2" d="M 162.824219 118.816406 L 215.261719 92.597656 C 215.496094 92.480469 215.742188 92.414062 216 92.394531 C 216.261719 92.375 216.515625 92.410156 216.761719 92.492188 C 217.011719 92.574219 217.230469 92.699219 217.429688 92.871094 C 217.625 93.042969 217.78125 93.242188 217.898438 93.476562 C 218.015625 93.710938 218.082031 93.957031 218.101562 94.21875 C 218.121094 94.476562 218.089844 94.730469 218.007812 94.976562 C 217.921875 95.226562 217.796875 95.449219 217.625 95.644531 C 217.457031 95.839844 217.253906 96 217.019531 96.113281 L 164.585938 122.332031 C 164.351562 122.449219 164.105469 122.515625 163.84375 122.535156 C 163.585938 122.554688 163.332031 122.523438 163.082031 122.441406 C 162.835938 122.355469 162.613281 122.230469 162.417969 122.058594 C 162.21875 121.890625 162.0625 121.6875 161.945312 121.453125 C 161.828125 121.21875 161.761719 120.972656 161.742188 120.714844 C 161.726562 120.453125 161.757812 120.199219 161.839844 119.953125 C 161.921875 119.703125 162.046875 119.484375 162.21875 119.285156 C 162.390625 119.089844 162.59375 118.933594 162.824219 118.816406 Z M 162.824219 118.816406 " fill-opacity="1" fill-rule="nonzero"/><path fill="#000000" d="M 216.140625 94.355469 L 268.574219 120.574219 " fill-opacity="1" fill-rule="nonzero"/><path fill="#005ea2" d="M 217.019531 92.597656 L 269.457031 118.816406 C 269.6875 118.933594 269.890625 119.089844 270.0625 119.285156 C 270.234375 119.484375 270.359375 119.703125 270.441406 119.953125 C 270.523438 120.199219 270.554688 120.453125 270.539062 120.714844 C 270.519531 120.972656 270.453125 121.21875 270.335938 121.453125 C 270.21875 121.6875 270.0625 121.890625 269.863281 122.058594 C 269.667969 122.230469 269.445312 122.355469 269.199219 122.441406 C 268.949219 122.523438 268.695312 122.554688 268.4375 122.535156 C 268.175781 122.515625 267.929688 122.449219 267.695312 122.332031 L 215.261719 96.113281 C 215.027344 96 214.824219 95.839844 214.65625 95.644531 C 214.484375 95.449219 214.359375 95.226562 214.273438 94.976562 C 214.191406 94.730469 214.160156 94.476562 214.179688 94.21875 C 214.199219 93.957031 214.265625 93.710938 214.382812 93.476562 C 214.5 93.242188 214.65625 93.042969 214.851562 92.871094 C 215.050781 92.699219 215.269531 92.574219 215.519531 92.492188 C 215.765625 92.410156 216.019531 92.375 216.28125 92.394531 C 216.539062 92.414062 216.785156 92.480469 217.019531 92.597656 Z M 217.019531 92.597656 " fill-opacity="1" fill-rule="nonzero"/><path fill="#000000" d="M 268.574219 120.574219 L 321.011719 225.445312 " fill-opacity="1" fill-rule="nonzero"/><path fill="#005ea2" d="M 270.335938 119.695312 L 322.769531 224.566406 C 322.886719 224.800781 322.953125 225.046875 322.972656 225.304688 C 322.992188 225.566406 322.960938 225.820312 322.878906 226.066406 C 322.792969 226.3125 322.667969 226.535156 322.496094 226.734375 C 322.328125 226.929688 322.125 227.085938 321.890625 227.203125 C 321.65625 227.320312 321.410156 227.386719 321.152344 227.40625 C 320.890625 227.425781 320.636719 227.394531 320.390625 227.3125 C 320.140625 227.226562 319.921875 227.101562 319.722656 226.929688 C 319.527344 226.761719 319.371094 226.558594 319.253906 226.324219 L 266.816406 121.453125 C 266.699219 121.21875 266.632812 120.972656 266.613281 120.714844 C 266.597656 120.453125 266.628906 120.199219 266.710938 119.953125 C 266.792969 119.703125 266.917969 119.484375 267.089844 119.285156 C 267.261719 119.089844 267.464844 118.933594 267.695312 118.816406 C 267.929688 118.699219 268.175781 118.632812 268.4375 118.613281 C 268.695312 118.59375 268.949219 118.625 269.199219 118.707031 C 269.445312 118.792969 269.667969 118.917969 269.863281 119.089844 C 270.0625 119.257812 270.21875 119.460938 270.335938 119.695312 Z M 270.335938 119.695312 " fill-opacity="1" fill-rule="nonzero"/><path fill="#005ea2" d="M 63.203125 173.007812 C 63.203125 172.722656 63.175781 172.4375 63.121094 172.15625 C 63.0625 171.875 62.980469 171.601562 62.871094 171.335938 C 62.761719 171.074219 62.625 170.820312 62.46875 170.582031 C 62.308594 170.34375 62.125 170.121094 61.925781 169.917969 C 61.722656 169.71875 61.5 169.535156 61.261719 169.375 C 61.023438 169.21875 60.769531 169.082031 60.507812 168.972656 C 60.242188 168.863281 59.96875 168.78125 59.6875 168.722656 C 59.40625 168.667969 59.121094 168.640625 58.835938 168.640625 C 58.546875 168.640625 58.261719 168.667969 57.980469 168.722656 C 57.699219 168.78125 57.425781 168.863281 57.160156 168.972656 C 56.898438 169.082031 56.644531 169.21875 56.40625 169.375 C 56.167969 169.535156 55.945312 169.71875 55.746094 169.917969 C 55.542969 170.121094 55.359375 170.34375 55.199219 170.582031 C 55.042969 170.820312 54.90625 171.074219 54.796875 171.335938 C 54.6875 171.601562 54.605469 171.875 54.546875 172.15625 C 54.492188 172.4375 54.464844 172.722656 54.464844 173.007812 C 54.464844 173.296875 54.492188 173.582031 54.546875 173.863281 C 54.605469 174.144531 54.6875 174.417969 54.796875 174.683594 C 54.90625 174.945312 55.042969 175.199219 55.199219 175.4375 C 55.359375 175.675781 55.542969 175.898438 55.746094 176.097656 C 55.945312 176.300781 56.167969 176.484375 56.40625 176.644531 C 56.644531 176.800781 56.898438 176.9375 57.160156 177.046875 C 57.425781 177.15625 57.699219 177.238281 57.980469 177.296875 C 58.261719 177.351562 58.546875 177.378906 58.835938 177.378906 C 59.121094 177.378906 59.40625 177.351562 59.6875 177.296875 C 59.96875 177.238281 60.242188 177.15625 60.507812 177.046875 C 60.769531 176.9375 61.023438 176.800781 61.261719 176.644531 C 61.5 176.484375 61.722656 176.300781 61.925781 176.097656 C 62.125 175.898438 62.308594 175.675781 62.46875 175.4375 C 62.625 175.199219 62.761719 174.945312 62.871094 174.683594 C 62.980469 174.417969 63.0625 174.144531 63.121094 173.863281 C 63.175781 173.582031 63.203125 173.296875 63.203125 173.007812 Z M 63.203125 173.007812 " fill-opacity="1" fill-rule="nonzero"/><path fill="#005ea2" d="M 115.640625 41.921875 C 115.640625 41.632812 115.609375 41.351562 115.554688 41.070312 C 115.5 40.785156 115.417969 40.515625 115.304688 40.25 C 115.195312 39.984375 115.0625 39.730469 114.902344 39.492188 C 114.742188 39.253906 114.5625 39.035156 114.359375 38.832031 C 114.15625 38.628906 113.9375 38.445312 113.695312 38.289062 C 113.457031 38.128906 113.207031 37.992188 112.941406 37.882812 C 112.675781 37.773438 112.402344 37.691406 112.121094 37.636719 C 111.839844 37.578125 111.554688 37.550781 111.269531 37.550781 C 110.984375 37.550781 110.699219 37.578125 110.417969 37.636719 C 110.136719 37.691406 109.863281 37.773438 109.597656 37.882812 C 109.332031 37.992188 109.082031 38.128906 108.84375 38.289062 C 108.601562 38.445312 108.382812 38.628906 108.179688 38.832031 C 107.976562 39.035156 107.796875 39.253906 107.636719 39.492188 C 107.476562 39.730469 107.34375 39.984375 107.234375 40.25 C 107.121094 40.515625 107.039062 40.785156 106.984375 41.070312 C 106.929688 41.351562 106.898438 41.632812 106.898438 41.921875 C 106.898438 42.207031 106.929688 42.492188 106.984375 42.773438 C 107.039062 43.054688 107.121094 43.328125 107.234375 43.59375 C 107.34375 43.859375 107.476562 44.109375 107.636719 44.347656 C 107.796875 44.585938 107.976562 44.808594 108.179688 45.011719 C 108.382812 45.214844 108.601562 45.394531 108.84375 45.554688 C 109.082031 45.714844 109.332031 45.847656 109.597656 45.957031 C 109.863281 46.066406 110.136719 46.152344 110.417969 46.207031 C 110.699219 46.261719 110.984375 46.289062 111.269531 46.289062 C 111.554688 46.289062 111.839844 46.261719 112.121094 46.207031 C 112.402344 46.152344 112.675781 46.066406 112.941406 45.957031 C 113.207031 45.847656 113.457031 45.714844 113.695312 45.554688 C 113.9375 45.394531 114.15625 45.214844 114.359375 45.011719 C 114.5625 44.808594 114.742188 44.585938 114.902344 44.347656 C 115.0625 44.109375 115.195312 43.859375 115.304688 43.59375 C 115.417969 43.328125 115.5 43.054688 115.554688 42.773438 C 115.609375 42.492188 115.640625 42.207031 115.640625 41.921875 Z M 115.640625 41.921875 " fill-opacity="1" fill-rule="nonzero"/><path fill="#005ea2" d="M 168.074219 120.574219 C 168.074219 120.289062 168.046875 120.003906 167.992188 119.722656 C 167.933594 119.441406 167.851562 119.167969 167.742188 118.902344 C 167.632812 118.636719 167.496094 118.386719 167.339844 118.148438 C 167.179688 117.90625 166.996094 117.6875 166.796875 117.484375 C 166.59375 117.28125 166.371094 117.101562 166.132812 116.941406 C 165.894531 116.78125 165.640625 116.648438 165.378906 116.539062 C 165.113281 116.425781 164.839844 116.34375 164.558594 116.289062 C 164.277344 116.234375 163.992188 116.203125 163.707031 116.203125 C 163.417969 116.203125 163.132812 116.234375 162.851562 116.289062 C 162.570312 116.34375 162.296875 116.425781 162.03125 116.539062 C 161.769531 116.648438 161.515625 116.78125 161.277344 116.941406 C 161.039062 117.101562 160.816406 117.28125 160.617188 117.484375 C 160.414062 117.6875 160.230469 117.90625 160.070312 118.148438 C 159.914062 118.386719 159.777344 118.636719 159.667969 118.902344 C 159.558594 119.167969 159.476562 119.441406 159.417969 119.722656 C 159.363281 120.003906 159.335938 120.289062 159.335938 120.574219 C 159.335938 120.859375 159.363281 121.144531 159.417969 121.425781 C 159.476562 121.707031 159.558594 121.980469 159.667969 122.246094 C 159.777344 122.511719 159.914062 122.761719 160.070312 123 C 160.230469 123.242188 160.414062 123.460938 160.617188 123.664062 C 160.816406 123.867188 161.039062 124.046875 161.277344 124.207031 C 161.515625 124.367188 161.769531 124.5 162.03125 124.609375 C 162.296875 124.722656 162.570312 124.804688 162.851562 124.859375 C 163.132812 124.914062 163.417969 124.945312 163.707031 124.945312 C 163.992188 124.945312 164.277344 124.914062 164.558594 124.859375 C 164.839844 124.804688 165.113281 124.722656 165.378906 124.609375 C 165.640625 124.5 165.894531 124.367188 166.132812 124.207031 C 166.371094 124.046875 166.59375 123.867188 166.796875 123.664062 C 166.996094 123.460938 167.179688 123.242188 167.339844 123 C 167.496094 122.761719 167.632812 122.511719 167.742188 122.246094 C 167.851562 121.980469 167.933594 121.707031 167.992188 121.425781 C 168.046875 121.144531 168.074219 120.859375 168.074219 120.574219 Z M 168.074219 120.574219 " fill-opacity="1" fill-rule="nonzero"/><path fill="#005ea2" d="M 220.511719 94.355469 C 220.511719 94.070312 220.480469 93.785156 220.425781 93.503906 C 220.371094 93.222656 220.289062 92.949219 220.175781 92.683594 C 220.066406 92.417969 219.933594 92.167969 219.773438 91.929688 C 219.613281 91.691406 219.433594 91.46875 219.230469 91.265625 C 219.027344 91.0625 218.808594 90.882812 218.566406 90.722656 C 218.328125 90.5625 218.078125 90.429688 217.8125 90.320312 C 217.546875 90.210938 217.273438 90.125 216.992188 90.070312 C 216.710938 90.015625 216.425781 89.988281 216.140625 89.988281 C 215.855469 89.988281 215.570312 90.015625 215.289062 90.070312 C 215.007812 90.125 214.734375 90.210938 214.46875 90.320312 C 214.203125 90.429688 213.953125 90.5625 213.714844 90.722656 C 213.472656 90.882812 213.253906 91.0625 213.050781 91.265625 C 212.847656 91.46875 212.667969 91.691406 212.507812 91.929688 C 212.347656 92.167969 212.214844 92.417969 212.105469 92.683594 C 211.992188 92.949219 211.910156 93.222656 211.855469 93.503906 C 211.800781 93.785156 211.769531 94.070312 211.769531 94.355469 C 211.769531 94.644531 211.800781 94.925781 211.855469 95.207031 C 211.910156 95.492188 211.992188 95.761719 212.105469 96.027344 C 212.214844 96.292969 212.347656 96.546875 212.507812 96.785156 C 212.667969 97.023438 212.847656 97.242188 213.050781 97.445312 C 213.253906 97.648438 213.472656 97.832031 213.714844 97.988281 C 213.953125 98.148438 214.203125 98.285156 214.46875 98.394531 C 214.734375 98.503906 215.007812 98.585938 215.289062 98.640625 C 215.570312 98.699219 215.855469 98.726562 216.140625 98.726562 C 216.425781 98.726562 216.710938 98.699219 216.992188 98.640625 C 217.273438 98.585938 217.546875 98.503906 217.8125 98.394531 C 218.078125 98.285156 218.328125 98.148438 218.566406 97.988281 C 218.808594 97.832031 219.027344 97.648438 219.230469 97.445312 C 219.433594 97.242188 219.613281 97.023438 219.773438 96.785156 C 219.933594 96.546875 220.066406 96.292969 220.175781 96.027344 C 220.289062 95.761719 220.371094 95.492188 220.425781 95.207031 C 220.480469 94.925781 220.511719 94.644531 220.511719 94.355469 Z M 220.511719 94.355469 " fill-opacity="1" fill-rule="nonzero"/><path fill="#005ea2" d="M 272.945312 120.574219 C 272.945312 120.289062 272.917969 120.003906 272.863281 119.722656 C 272.804688 119.441406 272.722656 119.167969 272.613281 118.902344 C 272.503906 118.636719 272.367188 118.386719 272.210938 118.148438 C 272.050781 117.90625 271.867188 117.6875 271.664062 117.484375 C 271.464844 117.28125 271.242188 117.101562 271.003906 116.941406 C 270.765625 116.78125 270.511719 116.648438 270.25 116.539062 C 269.984375 116.425781 269.710938 116.34375 269.429688 116.289062 C 269.148438 116.234375 268.863281 116.203125 268.574219 116.203125 C 268.289062 116.203125 268.003906 116.234375 267.722656 116.289062 C 267.441406 116.34375 267.167969 116.425781 266.902344 116.539062 C 266.640625 116.648438 266.386719 116.78125 266.148438 116.941406 C 265.910156 117.101562 265.6875 117.28125 265.488281 117.484375 C 265.285156 117.6875 265.101562 117.90625 264.941406 118.148438 C 264.785156 118.386719 264.648438 118.636719 264.539062 118.902344 C 264.429688 119.167969 264.347656 119.441406 264.289062 119.722656 C 264.234375 120.003906 264.207031 120.289062 264.207031 120.574219 C 264.207031 120.859375 264.234375 121.144531 264.289062 121.425781 C 264.347656 121.707031 264.429688 121.980469 264.539062 122.246094 C 264.648438 122.511719 264.785156 122.761719 264.941406 123 C 265.101562 123.242188 265.285156 123.460938 265.488281 123.664062 C 265.6875 123.867188 265.910156 124.046875 266.148438 124.207031 C 266.386719 124.367188 266.640625 124.5 266.902344 124.609375 C 267.167969 124.722656 267.441406 124.804688 267.722656 124.859375 C 268.003906 124.914062 268.289062 124.945312 268.574219 124.945312 C 268.863281 124.945312 269.148438 124.914062 269.429688 124.859375 C 269.710938 124.804688 269.984375 124.722656 270.25 124.609375 C 270.511719 124.5 270.765625 124.367188 271.003906 124.207031 C 271.242188 124.046875 271.464844 123.867188 271.664062 123.664062 C 271.867188 123.460938 272.050781 123.242188 272.210938 123 C 272.367188 122.761719 272.503906 122.511719 272.613281 122.246094 C 272.722656 121.980469 272.804688 121.707031 272.863281 121.425781 C 272.917969 121.144531 272.945312 120.859375 272.945312 120.574219 Z M 272.945312 120.574219 " fill-opacity="1" fill-rule="nonzero"/><path fill="#005ea2" d="M 325.382812 225.445312 C 325.382812 225.160156 325.351562 224.875 325.296875 224.59375 C 325.242188 224.3125 325.160156 224.039062 325.046875 223.773438 C 324.9375 223.507812 324.804688 223.257812 324.644531 223.019531 C 324.484375 222.777344 324.304688 222.558594 324.101562 222.355469 C 323.898438 222.152344 323.679688 221.972656 323.4375 221.8125 C 323.199219 221.652344 322.949219 221.519531 322.683594 221.40625 C 322.417969 221.296875 322.144531 221.214844 321.863281 221.160156 C 321.582031 221.105469 321.296875 221.074219 321.011719 221.074219 C 320.726562 221.074219 320.441406 221.105469 320.160156 221.160156 C 319.878906 221.214844 319.605469 221.296875 319.339844 221.40625 C 319.074219 221.519531 318.824219 221.652344 318.585938 221.8125 C 318.34375 221.972656 318.125 222.152344 317.921875 222.355469 C 317.71875 222.558594 317.539062 222.777344 317.378906 223.015625 C 317.21875 223.257812 317.085938 223.507812 316.976562 223.773438 C 316.863281 224.039062 316.78125 224.3125 316.726562 224.59375 C 316.671875 224.875 316.640625 225.160156 316.640625 225.445312 C 316.640625 225.730469 316.671875 226.015625 316.726562 226.296875 C 316.78125 226.578125 316.863281 226.851562 316.976562 227.117188 C 317.085938 227.382812 317.21875 227.632812 317.378906 227.871094 C 317.539062 228.113281 317.71875 228.332031 317.921875 228.535156 C 318.125 228.738281 318.34375 228.917969 318.585938 229.078125 C 318.824219 229.238281 319.074219 229.371094 319.339844 229.480469 C 319.605469 229.59375 319.878906 229.675781 320.160156 229.730469 C 320.441406 229.785156 320.726562 229.816406 321.011719 229.816406 C 321.296875 229.816406 321.582031 229.785156 321.863281 229.730469 C 322.144531 229.675781 322.417969 229.59375 322.683594 229.480469 C 322.949219 229.371094 323.199219 229.238281 323.4375 229.078125 C 323.679688 228.917969 323.898438 228.738281 324.101562 228.535156 C 324.304688 228.332031 324.484375 228.113281 324.644531 227.871094 C 324.804688 227.632812 324.9375 227.382812 325.046875 227.117188 C 325.160156 226.851562 325.242188 226.578125 325.296875 226.296875 C 325.351562 226.015625 325.382812 225.730469 325.382812 225.445312 Z M 325.382812 225.445312 " fill-opacity="1" fill-rule="nonzero"/><g fill="#000000" fill-opacity="1"><g transform="translate(47.842054, 345.260392)"><g><path d="M 2.625 0.15625 C 1.613281 0.15625 0.867188 -0.28125 0.390625 -1.15625 L 1.125 -1.671875 C 1.3125 -1.347656 1.519531 -1.113281 1.75 -0.96875 C 1.976562 -0.820312 2.238281 -0.75 2.53125 -0.75 C 2.96875 -0.75 3.289062 -0.882812 3.5 -1.15625 C 3.71875 -1.425781 3.828125 -1.875 3.828125 -2.5 L 3.828125 -8.140625 L 4.875 -8.140625 L 4.875 -2.390625 C 4.875 -2.046875 4.828125 -1.71875 4.734375 -1.40625 C 4.648438 -1.09375 4.519531 -0.820312 4.34375 -0.59375 C 4.164062 -0.363281 3.929688 -0.179688 3.640625 -0.046875 C 3.359375 0.0859375 3.019531 0.15625 2.625 0.15625 Z M 2.625 0.15625 "/></g></g></g><g fill="#000000" fill-opacity="1"><g transform="translate(53.793522, 345.260392)"><g><path d="M 2.78125 0.15625 C 2.132812 0.15625 1.664062 -0.0390625 1.375 -0.4375 C 1.082031 -0.84375 0.9375 -1.429688 0.9375 -2.203125 L 0.9375 -6.03125 L 1.953125 -6.03125 L 1.953125 -2.34375 C 1.953125 -1.769531 2.039062 -1.359375 2.21875 -1.109375 C 2.40625 -0.859375 2.695312 -0.734375 3.09375 -0.734375 C 3.40625 -0.734375 3.679688 -0.8125 3.921875 -0.96875 C 4.160156 -1.132812 4.425781 -1.394531 4.71875 -1.75 L 4.71875 -6.03125 L 5.734375 -6.03125 L 5.734375 0 L 4.890625 0 L 4.796875 -0.9375 L 4.765625 -0.9375 C 4.484375 -0.613281 4.1875 -0.347656 3.875 -0.140625 C 3.5625 0.0546875 3.195312 0.15625 2.78125 0.15625 Z M 2.78125 0.15625 "/></g></g></g><g fill="#000000" fill-opacity="1"><g transform="translate(60.538518, 345.260392)"><g><path d="M 2.09375 0.15625 C 1.707031 0.15625 1.429688 0.0390625 1.265625 -0.1875 C 1.097656 -0.425781 1.015625 -0.769531 1.015625 -1.21875 L 1.015625 -8.828125 L 2.03125 -8.828125 L 2.03125 -1.140625 C 2.03125 -0.972656 2.054688 -0.851562 2.109375 -0.78125 C 2.171875 -0.71875 2.238281 -0.6875 2.3125 -0.6875 C 2.351562 -0.6875 2.382812 -0.6875 2.40625 -0.6875 C 2.4375 -0.6875 2.484375 -0.695312 2.546875 -0.71875 L 2.6875 0.046875 C 2.613281 0.078125 2.53125 0.101562 2.4375 0.125 C 2.351562 0.144531 2.238281 0.15625 2.09375 0.15625 Z M 2.09375 0.15625 "/></g></g></g><g fill="#000000" fill-opacity="1"><g transform="translate(63.700229, 345.260392)"><g><path d="M 1.109375 2.59375 C 0.972656 2.59375 0.847656 2.582031 0.734375 2.5625 C 0.617188 2.539062 0.507812 2.507812 0.40625 2.46875 L 0.609375 1.65625 C 0.671875 1.675781 0.742188 1.695312 0.828125 1.71875 C 0.910156 1.738281 0.988281 1.75 1.0625 1.75 C 1.414062 1.75 1.703125 1.625 1.921875 1.375 C 2.140625 1.132812 2.3125 0.828125 2.4375 0.453125 L 2.5625 0.015625 L 0.15625 -6.03125 L 1.203125 -6.03125 L 2.4375 -2.6875 C 2.519531 -2.425781 2.613281 -2.148438 2.71875 -1.859375 C 2.820312 -1.566406 2.921875 -1.28125 3.015625 -1 L 3.0625 -1 C 3.15625 -1.269531 3.242188 -1.550781 3.328125 -1.84375 C 3.410156 -2.144531 3.492188 -2.425781 3.578125 -2.6875 L 4.65625 -6.03125 L 5.640625 -6.03125 L 3.375 0.5 C 3.269531 0.789062 3.148438 1.066406 3.015625 1.328125 C 2.878906 1.585938 2.71875 1.804688 2.53125 1.984375 C 2.351562 2.171875 2.148438 2.316406 1.921875 2.421875 C 1.691406 2.535156 1.421875 2.59375 1.109375 2.59375 Z M 1.109375 2.59375 "/></g></g></g><g fill="#000000" fill-opacity="1"><g transform="translate(101.503765, 345.260392)"><g><path d="M 2.515625 -4.546875 L 2.140625 -3.3125 L 4.578125 -3.3125 L 4.1875 -4.546875 C 4.039062 -5.003906 3.898438 -5.457031 3.765625 -5.90625 C 3.640625 -6.363281 3.507812 -6.828125 3.375 -7.296875 L 3.328125 -7.296875 C 3.203125 -6.828125 3.070312 -6.363281 2.9375 -5.90625 C 2.800781 -5.457031 2.660156 -5.003906 2.515625 -4.546875 Z M 0.03125 0 L 2.796875 -8.140625 L 3.953125 -8.140625 L 6.71875 0 L 5.609375 0 L 4.84375 -2.484375 L 1.875 -2.484375 L 1.09375 0 Z M 0.03125 0 "/></g></g></g><g fill="#000000" fill-opacity="1"><g transform="translate(108.174298, 345.260392)"><g><path d="M 2.78125 0.15625 C 2.132812 0.15625 1.664062 -0.0390625 1.375 -0.4375 C 1.082031 -0.84375 0.9375 -1.429688 0.9375 -2.203125 L 0.9375 -6.03125 L 1.953125 -6.03125 L 1.953125 -2.34375 C 1.953125 -1.769531 2.039062 -1.359375 2.21875 -1.109375 C 2.40625 -0.859375 2.695312 -0.734375 3.09375 -0.734375 C 3.40625 -0.734375 3.679688 -0.8125 3.921875 -0.96875 C 4.160156 -1.132812 4.425781 -1.394531 4.71875 -1.75 L 4.71875 -6.03125 L 5.734375 -6.03125 L 5.734375 0 L 4.890625 0 L 4.796875 -0.9375 L 4.765625 -0.9375 C 4.484375 -0.613281 4.1875 -0.347656 3.875 -0.140625 C 3.5625 0.0546875 3.195312 0.15625 2.78125 0.15625 Z M 2.78125 0.15625 "/></g></g></g><g fill="#000000" fill-opacity="1"><g transform="translate(114.919294, 345.260392)"><g><path d="M 3.046875 2.78125 C 2.679688 2.78125 2.34375 2.742188 2.03125 2.671875 C 1.726562 2.597656 1.46875 2.488281 1.25 2.34375 C 1.03125 2.207031 0.859375 2.039062 0.734375 1.84375 C 0.617188 1.644531 0.5625 1.414062 0.5625 1.15625 C 0.5625 0.894531 0.640625 0.648438 0.796875 0.421875 C 0.953125 0.191406 1.164062 -0.015625 1.4375 -0.203125 L 1.4375 -0.265625 C 1.289062 -0.347656 1.164062 -0.46875 1.0625 -0.625 C 0.957031 -0.789062 0.90625 -0.992188 0.90625 -1.234375 C 0.90625 -1.492188 0.972656 -1.71875 1.109375 -1.90625 C 1.253906 -2.101562 1.40625 -2.253906 1.5625 -2.359375 L 1.5625 -2.40625 C 1.363281 -2.570312 1.179688 -2.789062 1.015625 -3.0625 C 0.859375 -3.34375 0.78125 -3.664062 0.78125 -4.03125 C 0.78125 -4.363281 0.835938 -4.660156 0.953125 -4.921875 C 1.078125 -5.191406 1.242188 -5.414062 1.453125 -5.59375 C 1.660156 -5.78125 1.898438 -5.921875 2.171875 -6.015625 C 2.453125 -6.117188 2.742188 -6.171875 3.046875 -6.171875 C 3.210938 -6.171875 3.367188 -6.15625 3.515625 -6.125 C 3.660156 -6.101562 3.789062 -6.070312 3.90625 -6.03125 L 6 -6.03125 L 6 -5.25 L 4.765625 -5.25 C 4.898438 -5.101562 5.015625 -4.921875 5.109375 -4.703125 C 5.210938 -4.492188 5.265625 -4.257812 5.265625 -4 C 5.265625 -3.675781 5.203125 -3.382812 5.078125 -3.125 C 4.960938 -2.863281 4.804688 -2.644531 4.609375 -2.46875 C 4.410156 -2.289062 4.175781 -2.148438 3.90625 -2.046875 C 3.644531 -1.953125 3.359375 -1.90625 3.046875 -1.90625 C 2.898438 -1.90625 2.75 -1.921875 2.59375 -1.953125 C 2.4375 -1.992188 2.285156 -2.050781 2.140625 -2.125 C 2.035156 -2.03125 1.945312 -1.925781 1.875 -1.8125 C 1.800781 -1.707031 1.765625 -1.570312 1.765625 -1.40625 C 1.765625 -1.207031 1.835938 -1.046875 1.984375 -0.921875 C 2.128906 -0.804688 2.410156 -0.75 2.828125 -0.75 L 4 -0.75 C 4.695312 -0.75 5.222656 -0.632812 5.578125 -0.40625 C 5.929688 -0.175781 6.109375 0.1875 6.109375 0.6875 C 6.109375 0.96875 6.035156 1.234375 5.890625 1.484375 C 5.753906 1.742188 5.550781 1.96875 5.28125 2.15625 C 5.019531 2.34375 4.703125 2.492188 4.328125 2.609375 C 3.953125 2.722656 3.523438 2.78125 3.046875 2.78125 Z M 3.046875 -2.59375 C 3.222656 -2.59375 3.382812 -2.625 3.53125 -2.6875 C 3.6875 -2.757812 3.820312 -2.851562 3.9375 -2.96875 C 4.0625 -3.09375 4.15625 -3.242188 4.21875 -3.421875 C 4.289062 -3.609375 4.328125 -3.8125 4.328125 -4.03125 C 4.328125 -4.476562 4.203125 -4.820312 3.953125 -5.0625 C 3.703125 -5.3125 3.398438 -5.4375 3.046875 -5.4375 C 2.691406 -5.4375 2.390625 -5.3125 2.140625 -5.0625 C 1.898438 -4.820312 1.78125 -4.476562 1.78125 -4.03125 C 1.78125 -3.8125 1.8125 -3.609375 1.875 -3.421875 C 1.9375 -3.242188 2.023438 -3.09375 2.140625 -2.96875 C 2.265625 -2.851562 2.40625 -2.757812 2.5625 -2.6875 C 2.71875 -2.625 2.878906 -2.59375 3.046875 -2.59375 Z M 3.203125 2.078125 C 3.492188 2.078125 3.753906 2.039062 3.984375 1.96875 C 4.222656 1.894531 4.425781 1.800781 4.59375 1.6875 C 4.757812 1.582031 4.882812 1.453125 4.96875 1.296875 C 5.0625 1.148438 5.109375 1 5.109375 0.84375 C 5.109375 0.5625 5.003906 0.363281 4.796875 0.25 C 4.585938 0.144531 4.285156 0.09375 3.890625 0.09375 L 2.859375 0.09375 C 2.742188 0.09375 2.613281 0.0859375 2.46875 0.078125 C 2.332031 0.0664062 2.203125 0.0390625 2.078125 0 C 1.859375 0.15625 1.695312 0.316406 1.59375 0.484375 C 1.5 0.660156 1.453125 0.835938 1.453125 1.015625 C 1.453125 1.335938 1.601562 1.59375 1.90625 1.78125 C 2.21875 1.976562 2.648438 2.078125 3.203125 2.078125 Z M 3.203125 2.078125 "/></g></g></g><g fill="#000000" fill-opacity="1"><g transform="translate(151.804121, 345.260392)"><g><path d="M 3.375 0.15625 C 2.800781 0.15625 2.269531 0.046875 1.78125 -0.171875 C 1.289062 -0.390625 0.867188 -0.679688 0.515625 -1.046875 L 1.140625 -1.78125 C 1.429688 -1.46875 1.769531 -1.21875 2.15625 -1.03125 C 2.550781 -0.84375 2.960938 -0.75 3.390625 -0.75 C 3.921875 -0.75 4.335938 -0.867188 4.640625 -1.109375 C 4.941406 -1.359375 5.09375 -1.679688 5.09375 -2.078125 C 5.09375 -2.285156 5.054688 -2.460938 4.984375 -2.609375 C 4.910156 -2.753906 4.8125 -2.878906 4.6875 -2.984375 C 4.570312 -3.085938 4.429688 -3.179688 4.265625 -3.265625 C 4.097656 -3.347656 3.921875 -3.429688 3.734375 -3.515625 L 2.5625 -4.03125 C 2.375 -4.113281 2.179688 -4.210938 1.984375 -4.328125 C 1.785156 -4.441406 1.609375 -4.582031 1.453125 -4.75 C 1.296875 -4.914062 1.164062 -5.113281 1.0625 -5.34375 C 0.96875 -5.570312 0.921875 -5.832031 0.921875 -6.125 C 0.921875 -6.4375 0.984375 -6.722656 1.109375 -6.984375 C 1.234375 -7.242188 1.410156 -7.472656 1.640625 -7.671875 C 1.867188 -7.867188 2.140625 -8.019531 2.453125 -8.125 C 2.765625 -8.226562 3.101562 -8.28125 3.46875 -8.28125 C 3.957031 -8.28125 4.410156 -8.1875 4.828125 -8 C 5.242188 -7.820312 5.59375 -7.582031 5.875 -7.28125 L 5.328125 -6.609375 C 5.078125 -6.847656 4.800781 -7.035156 4.5 -7.171875 C 4.195312 -7.304688 3.851562 -7.375 3.46875 -7.375 C 3.019531 -7.375 2.65625 -7.269531 2.375 -7.0625 C 2.09375 -6.851562 1.953125 -6.5625 1.953125 -6.1875 C 1.953125 -5.988281 1.992188 -5.820312 2.078125 -5.6875 C 2.160156 -5.550781 2.265625 -5.429688 2.390625 -5.328125 C 2.523438 -5.222656 2.671875 -5.128906 2.828125 -5.046875 C 2.984375 -4.972656 3.144531 -4.90625 3.3125 -4.84375 L 4.46875 -4.34375 C 4.695312 -4.238281 4.914062 -4.125 5.125 -4 C 5.332031 -3.875 5.507812 -3.722656 5.65625 -3.546875 C 5.800781 -3.378906 5.914062 -3.179688 6 -2.953125 C 6.09375 -2.734375 6.140625 -2.472656 6.140625 -2.171875 C 6.140625 -1.847656 6.070312 -1.546875 5.9375 -1.265625 C 5.8125 -0.984375 5.628906 -0.734375 5.390625 -0.515625 C 5.148438 -0.304688 4.859375 -0.140625 4.515625 -0.015625 C 4.179688 0.0976562 3.800781 0.15625 3.375 0.15625 Z M 3.375 0.15625 "/></g></g></g><g fill="#000000" fill-opacity="1"><g transform="translate(158.425128, 345.260392)"><g><path d="M 3.46875 0.15625 C 3.0625 0.15625 2.679688 0.0820312 2.328125 -0.0625 C 1.972656 -0.207031 1.664062 -0.414062 1.40625 -0.6875 C 1.144531 -0.957031 0.941406 -1.285156 0.796875 -1.671875 C 0.648438 -2.066406 0.578125 -2.507812 0.578125 -3 C 0.578125 -3.5 0.648438 -3.941406 0.796875 -4.328125 C 0.953125 -4.722656 1.15625 -5.054688 1.40625 -5.328125 C 1.65625 -5.609375 1.941406 -5.816406 2.265625 -5.953125 C 2.585938 -6.097656 2.925781 -6.171875 3.28125 -6.171875 C 3.65625 -6.171875 3.992188 -6.101562 4.296875 -5.96875 C 4.597656 -5.84375 4.847656 -5.65625 5.046875 -5.40625 C 5.253906 -5.15625 5.410156 -4.859375 5.515625 -4.515625 C 5.628906 -4.171875 5.6875 -3.78125 5.6875 -3.34375 C 5.6875 -3.238281 5.679688 -3.132812 5.671875 -3.03125 C 5.671875 -2.925781 5.660156 -2.835938 5.640625 -2.765625 L 1.578125 -2.765625 C 1.617188 -2.117188 1.816406 -1.609375 2.171875 -1.234375 C 2.535156 -0.859375 3.003906 -0.671875 3.578125 -0.671875 C 3.867188 -0.671875 4.132812 -0.710938 4.375 -0.796875 C 4.625 -0.890625 4.863281 -1.003906 5.09375 -1.140625 L 5.453125 -0.46875 C 5.179688 -0.300781 4.882812 -0.15625 4.5625 -0.03125 C 4.238281 0.09375 3.875 0.15625 3.46875 0.15625 Z M 1.5625 -3.5 L 4.78125 -3.5 C 4.78125 -4.113281 4.648438 -4.578125 4.390625 -4.890625 C 4.128906 -5.210938 3.765625 -5.375 3.296875 -5.375 C 3.085938 -5.375 2.882812 -5.332031 2.6875 -5.25 C 2.488281 -5.164062 2.3125 -5.039062 2.15625 -4.875 C 2 -4.71875 1.867188 -4.519531 1.765625 -4.28125 C 1.660156 -4.050781 1.59375 -3.789062 1.5625 -3.5 Z M 1.5625 -3.5 "/></g></g></g><g fill="#000000" fill-opacity="1"><g transform="translate(164.574968, 345.260392)"><g><path d="M 1.015625 2.546875 L 1.015625 -6.03125 L 1.859375 -6.03125 L 1.953125 -5.328125 L 1.984375 -5.328125 C 2.253906 -5.566406 2.550781 -5.765625 2.875 -5.921875 C 3.207031 -6.085938 3.550781 -6.171875 3.90625 -6.171875 C 4.289062 -6.171875 4.632812 -6.097656 4.9375 -5.953125 C 5.238281 -5.816406 5.488281 -5.613281 5.6875 -5.34375 C 5.882812 -5.070312 6.035156 -4.75 6.140625 -4.375 C 6.242188 -4 6.296875 -3.578125 6.296875 -3.109375 C 6.296875 -2.585938 6.222656 -2.125 6.078125 -1.71875 C 5.941406 -1.320312 5.753906 -0.984375 5.515625 -0.703125 C 5.273438 -0.421875 4.992188 -0.207031 4.671875 -0.0625 C 4.359375 0.0820312 4.03125 0.15625 3.6875 0.15625 C 3.40625 0.15625 3.125 0.09375 2.84375 -0.03125 C 2.570312 -0.15625 2.296875 -0.328125 2.015625 -0.546875 L 2.03125 0.515625 L 2.03125 2.546875 Z M 3.515625 -0.703125 C 3.765625 -0.703125 3.992188 -0.757812 4.203125 -0.875 C 4.410156 -0.988281 4.585938 -1.144531 4.734375 -1.34375 C 4.890625 -1.550781 5.007812 -1.800781 5.09375 -2.09375 C 5.1875 -2.394531 5.234375 -2.734375 5.234375 -3.109375 C 5.234375 -3.429688 5.203125 -3.726562 5.140625 -4 C 5.085938 -4.28125 4.992188 -4.515625 4.859375 -4.703125 C 4.734375 -4.898438 4.566406 -5.050781 4.359375 -5.15625 C 4.160156 -5.269531 3.921875 -5.328125 3.640625 -5.328125 C 3.390625 -5.328125 3.132812 -5.253906 2.875 -5.109375 C 2.613281 -4.972656 2.332031 -4.769531 2.03125 -4.5 L 2.03125 -1.34375 C 2.300781 -1.113281 2.566406 -0.945312 2.828125 -0.84375 C 3.085938 -0.75 3.316406 -0.703125 3.515625 -0.703125 Z M 3.515625 -0.703125 "/></g></g></g><g fill="#000000" fill-opacity="1"><g transform="translate(171.245382, 345.260392)"><g><path d="M 2.921875 0.15625 C 2.597656 0.15625 2.328125 0.101562 2.109375 0 C 1.890625 -0.101562 1.707031 -0.238281 1.5625 -0.40625 C 1.425781 -0.582031 1.328125 -0.796875 1.265625 -1.046875 C 1.210938 -1.296875 1.1875 -1.566406 1.1875 -1.859375 L 1.1875 -5.203125 L 0.296875 -5.203125 L 0.296875 -5.96875 L 1.234375 -6.03125 L 1.359375 -7.71875 L 2.21875 -7.71875 L 2.21875 -6.03125 L 3.84375 -6.03125 L 3.84375 -5.203125 L 2.21875 -5.203125 L 2.21875 -1.84375 C 2.21875 -1.476562 2.285156 -1.191406 2.421875 -0.984375 C 2.554688 -0.785156 2.800781 -0.6875 3.15625 -0.6875 C 3.257812 -0.6875 3.375 -0.703125 3.5 -0.734375 C 3.625 -0.765625 3.734375 -0.800781 3.828125 -0.84375 L 4.03125 -0.078125 C 3.863281 -0.015625 3.679688 0.0351562 3.484375 0.078125 C 3.296875 0.128906 3.109375 0.15625 2.921875 0.15625 Z M 2.921875 0.15625 "/></g></g></g><g fill="#000000" fill-opacity="1"><g transform="translate(207.079876, 345.260392)"><g><path d="M 4.125 0.15625 C 3.601562 0.15625 3.128906 0.0546875 2.703125 -0.140625 C 2.285156 -0.347656 1.921875 -0.632812 1.609375 -1 C 1.304688 -1.363281 1.066406 -1.804688 0.890625 -2.328125 C 0.722656 -2.859375 0.640625 -3.453125 0.640625 -4.109375 C 0.640625 -4.765625 0.722656 -5.347656 0.890625 -5.859375 C 1.066406 -6.378906 1.304688 -6.816406 1.609375 -7.171875 C 1.921875 -7.535156 2.285156 -7.8125 2.703125 -8 C 3.128906 -8.1875 3.601562 -8.28125 4.125 -8.28125 C 4.632812 -8.28125 5.101562 -8.179688 5.53125 -7.984375 C 5.957031 -7.796875 6.320312 -7.519531 6.625 -7.15625 C 6.9375 -6.800781 7.175781 -6.363281 7.34375 -5.84375 C 7.519531 -5.332031 7.609375 -4.753906 7.609375 -4.109375 C 7.609375 -3.453125 7.519531 -2.859375 7.34375 -2.328125 C 7.175781 -1.804688 6.9375 -1.363281 6.625 -1 C 6.320312 -0.632812 5.957031 -0.347656 5.53125 -0.140625 C 5.101562 0.0546875 4.632812 0.15625 4.125 0.15625 Z M 4.125 -0.75 C 4.488281 -0.75 4.816406 -0.828125 5.109375 -0.984375 C 5.398438 -1.148438 5.648438 -1.378906 5.859375 -1.671875 C 6.066406 -1.960938 6.226562 -2.3125 6.34375 -2.71875 C 6.46875 -3.132812 6.53125 -3.597656 6.53125 -4.109375 C 6.53125 -4.609375 6.46875 -5.0625 6.34375 -5.46875 C 6.226562 -5.875 6.066406 -6.21875 5.859375 -6.5 C 5.648438 -6.78125 5.398438 -6.992188 5.109375 -7.140625 C 4.816406 -7.296875 4.488281 -7.375 4.125 -7.375 C 3.757812 -7.375 3.425781 -7.296875 3.125 -7.140625 C 2.832031 -6.992188 2.582031 -6.78125 2.375 -6.5 C 2.164062 -6.21875 2.003906 -5.875 1.890625 -5.46875 C 1.773438 -5.0625 1.71875 -4.609375 1.71875 -4.109375 C 1.71875 -3.597656 1.773438 -3.132812 1.890625 -2.71875 C 2.003906 -2.3125 2.164062 -1.960938 2.375 -1.671875 C 2.582031 -1.378906 2.832031 -1.148438 3.125 -0.984375 C 3.425781 -0.828125 3.757812 -0.75 4.125 -0.75 Z M 4.125 -0.75 "/></g></g></g><g fill="#000000" fill-opacity="1"><g transform="translate(215.31273, 345.260392)"><g><path d="M 3.40625 0.15625 C 3 0.15625 2.625 0.0859375 2.28125 -0.046875 C 1.9375 -0.191406 1.632812 -0.398438 1.375 -0.671875 C 1.125 -0.941406 0.925781 -1.273438 0.78125 -1.671875 C 0.644531 -2.066406 0.578125 -2.507812 0.578125 -3 C 0.578125 -3.507812 0.65625 -3.957031 0.8125 -4.34375 C 0.96875 -4.738281 1.175781 -5.070312 1.4375 -5.34375 C 1.707031 -5.613281 2.015625 -5.816406 2.359375 -5.953125 C 2.710938 -6.097656 3.082031 -6.171875 3.46875 -6.171875 C 3.863281 -6.171875 4.203125 -6.097656 4.484375 -5.953125 C 4.765625 -5.816406 5.015625 -5.65625 5.234375 -5.46875 L 4.71875 -4.796875 C 4.539062 -4.953125 4.351562 -5.078125 4.15625 -5.171875 C 3.96875 -5.273438 3.753906 -5.328125 3.515625 -5.328125 C 3.242188 -5.328125 2.988281 -5.269531 2.75 -5.15625 C 2.519531 -5.050781 2.320312 -4.894531 2.15625 -4.6875 C 1.988281 -4.476562 1.859375 -4.226562 1.765625 -3.9375 C 1.671875 -3.65625 1.625 -3.34375 1.625 -3 C 1.625 -2.65625 1.664062 -2.34375 1.75 -2.0625 C 1.84375 -1.78125 1.96875 -1.535156 2.125 -1.328125 C 2.289062 -1.128906 2.488281 -0.972656 2.71875 -0.859375 C 2.957031 -0.742188 3.210938 -0.6875 3.484375 -0.6875 C 3.765625 -0.6875 4.019531 -0.742188 4.25 -0.859375 C 4.488281 -0.984375 4.707031 -1.128906 4.90625 -1.296875 L 5.34375 -0.625 C 5.070312 -0.382812 4.769531 -0.191406 4.4375 -0.046875 C 4.101562 0.0859375 3.757812 0.15625 3.40625 0.15625 Z M 3.40625 0.15625 "/></g></g></g><g fill="#000000" fill-opacity="1"><g transform="translate(220.842517, 345.260392)"><g><path d="M 2.921875 0.15625 C 2.597656 0.15625 2.328125 0.101562 2.109375 0 C 1.890625 -0.101562 1.707031 -0.238281 1.5625 -0.40625 C 1.425781 -0.582031 1.328125 -0.796875 1.265625 -1.046875 C 1.210938 -1.296875 1.1875 -1.566406 1.1875 -1.859375 L 1.1875 -5.203125 L 0.296875 -5.203125 L 0.296875 -5.96875 L 1.234375 -6.03125 L 1.359375 -7.71875 L 2.21875 -7.71875 L 2.21875 -6.03125 L 3.84375 -6.03125 L 3.84375 -5.203125 L 2.21875 -5.203125 L 2.21875 -1.84375 C 2.21875 -1.476562 2.285156 -1.191406 2.421875 -0.984375 C 2.554688 -0.785156 2.800781 -0.6875 3.15625 -0.6875 C 3.257812 -0.6875 3.375 -0.703125 3.5 -0.734375 C 3.625 -0.765625 3.734375 -0.800781 3.828125 -0.84375 L 4.03125 -0.078125 C 3.863281 -0.015625 3.679688 0.0351562 3.484375 0.078125 C 3.296875 0.128906 3.109375 0.15625 2.921875 0.15625 Z M 2.921875 0.15625 "/></g></g></g><g fill="#000000" fill-opacity="1"><g transform="translate(257.73431, 345.260392)"><g><path d="M 1.109375 0 L 1.109375 -8.140625 L 2.1875 -8.140625 L 5.125 -3.03125 L 6 -1.34375 L 6.046875 -1.34375 C 6.023438 -1.75 6 -2.171875 5.96875 -2.609375 C 5.945312 -3.054688 5.9375 -3.5 5.9375 -3.9375 L 5.9375 -8.140625 L 6.90625 -8.140625 L 6.90625 0 L 5.84375 0 L 2.890625 -5.125 L 2.015625 -6.796875 L 1.953125 -6.796875 C 1.992188 -6.378906 2.023438 -5.957031 2.046875 -5.53125 C 2.078125 -5.113281 2.09375 -4.6875 2.09375 -4.25 L 2.09375 0 Z M 1.109375 0 "/></g></g></g><g fill="#000000" fill-opacity="1"><g transform="translate(265.756389, 345.260392)"><g><path d="M 3.359375 0.15625 C 2.984375 0.15625 2.628906 0.0859375 2.296875 -0.046875 C 1.960938 -0.191406 1.664062 -0.398438 1.40625 -0.671875 C 1.15625 -0.941406 0.953125 -1.273438 0.796875 -1.671875 C 0.648438 -2.066406 0.578125 -2.507812 0.578125 -3 C 0.578125 -3.507812 0.648438 -3.957031 0.796875 -4.34375 C 0.953125 -4.738281 1.15625 -5.070312 1.40625 -5.34375 C 1.664062 -5.613281 1.960938 -5.816406 2.296875 -5.953125 C 2.628906 -6.097656 2.984375 -6.171875 3.359375 -6.171875 C 3.734375 -6.171875 4.085938 -6.097656 4.421875 -5.953125 C 4.753906 -5.816406 5.046875 -5.613281 5.296875 -5.34375 C 5.554688 -5.070312 5.765625 -4.738281 5.921875 -4.34375 C 6.078125 -3.957031 6.15625 -3.507812 6.15625 -3 C 6.15625 -2.507812 6.078125 -2.066406 5.921875 -1.671875 C 5.765625 -1.273438 5.554688 -0.941406 5.296875 -0.671875 C 5.046875 -0.398438 4.753906 -0.191406 4.421875 -0.046875 C 4.085938 0.0859375 3.734375 0.15625 3.359375 0.15625 Z M 3.359375 -0.6875 C 3.617188 -0.6875 3.851562 -0.742188 4.0625 -0.859375 C 4.28125 -0.972656 4.460938 -1.128906 4.609375 -1.328125 C 4.765625 -1.535156 4.882812 -1.78125 4.96875 -2.0625 C 5.050781 -2.34375 5.09375 -2.65625 5.09375 -3 C 5.09375 -3.34375 5.050781 -3.65625 4.96875 -3.9375 C 4.882812 -4.226562 4.765625 -4.476562 4.609375 -4.6875 C 4.460938 -4.894531 4.28125 -5.050781 4.0625 -5.15625 C 3.851562 -5.269531 3.617188 -5.328125 3.359375 -5.328125 C 3.109375 -5.328125 2.875 -5.269531 2.65625 -5.15625 C 2.4375 -5.050781 2.25 -4.894531 2.09375 -4.6875 C 1.945312 -4.476562 1.832031 -4.226562 1.75 -3.9375 C 1.664062 -3.65625 1.625 -3.34375 1.625 -3 C 1.625 -2.65625 1.664062 -2.34375 1.75 -2.0625 C 1.832031 -1.78125 1.945312 -1.535156 2.09375 -1.328125 C 2.25 -1.128906 2.4375 -0.972656 2.65625 -0.859375 C 2.875 -0.742188 3.109375 -0.6875 3.359375 -0.6875 Z M 3.359375 -0.6875 "/></g></g></g><g fill="#000000" fill-opacity="1"><g transform="translate(272.426949, 345.260392)"><g><path d="M 2.3125 0 L 0.15625 -6.03125 L 1.203125 -6.03125 L 2.34375 -2.609375 C 2.4375 -2.304688 2.53125 -2.003906 2.625 -1.703125 C 2.71875 -1.410156 2.8125 -1.117188 2.90625 -0.828125 L 2.953125 -0.828125 C 3.046875 -1.117188 3.132812 -1.410156 3.21875 -1.703125 C 3.3125 -2.003906 3.40625 -2.304688 3.5 -2.609375 L 4.640625 -6.03125 L 5.640625 -6.03125 L 3.515625 0 Z M 2.3125 0 "/></g></g></g><g fill="#000000" fill-opacity="1"><g transform="translate(310.63417, 345.260392)"><g><path d="M 1.109375 0 L 1.109375 -8.140625 L 3.15625 -8.140625 C 4.40625 -8.140625 5.359375 -7.789062 6.015625 -7.09375 C 6.671875 -6.394531 7 -5.398438 7 -4.109375 C 7 -3.460938 6.914062 -2.882812 6.75 -2.375 C 6.582031 -1.863281 6.335938 -1.429688 6.015625 -1.078125 C 5.691406 -0.734375 5.296875 -0.46875 4.828125 -0.28125 C 4.359375 -0.09375 3.816406 0 3.203125 0 Z M 2.140625 -0.84375 L 3.078125 -0.84375 C 4.023438 -0.84375 4.738281 -1.128906 5.21875 -1.703125 C 5.695312 -2.273438 5.9375 -3.078125 5.9375 -4.109375 C 5.9375 -5.140625 5.695312 -5.925781 5.21875 -6.46875 C 4.738281 -7.019531 4.023438 -7.296875 3.078125 -7.296875 L 2.140625 -7.296875 Z M 2.140625 -0.84375 "/></g></g></g><g fill="#000000" fill-opacity="1"><g transform="translate(318.259479, 345.260392)"><g><path d="M 3.46875 0.15625 C 3.0625 0.15625 2.679688 0.0820312 2.328125 -0.0625 C 1.972656 -0.207031 1.664062 -0.414062 1.40625 -0.6875 C 1.144531 -0.957031 0.941406 -1.285156 0.796875 -1.671875 C 0.648438 -2.066406 0.578125 -2.507812 0.578125 -3 C 0.578125 -3.5 0.648438 -3.941406 0.796875 -4.328125 C 0.953125 -4.722656 1.15625 -5.054688 1.40625 -5.328125 C 1.65625 -5.609375 1.941406 -5.816406 2.265625 -5.953125 C 2.585938 -6.097656 2.925781 -6.171875 3.28125 -6.171875 C 3.65625 -6.171875 3.992188 -6.101562 4.296875 -5.96875 C 4.597656 -5.84375 4.847656 -5.65625 5.046875 -5.40625 C 5.253906 -5.15625 5.410156 -4.859375 5.515625 -4.515625 C 5.628906 -4.171875 5.6875 -3.78125 5.6875 -3.34375 C 5.6875 -3.238281 5.679688 -3.132812 5.671875 -3.03125 C 5.671875 -2.925781 5.660156 -2.835938 5.640625 -2.765625 L 1.578125 -2.765625 C 1.617188 -2.117188 1.816406 -1.609375 2.171875 -1.234375 C 2.535156 -0.859375 3.003906 -0.671875 3.578125 -0.671875 C 3.867188 -0.671875 4.132812 -0.710938 4.375 -0.796875 C 4.625 -0.890625 4.863281 -1.003906 5.09375 -1.140625 L 5.453125 -0.46875 C 5.179688 -0.300781 4.882812 -0.15625 4.5625 -0.03125 C 4.238281 0.09375 3.875 0.15625 3.46875 0.15625 Z M 1.5625 -3.5 L 4.78125 -3.5 C 4.78125 -4.113281 4.648438 -4.578125 4.390625 -4.890625 C 4.128906 -5.210938 3.765625 -5.375 3.296875 -5.375 C 3.085938 -5.375 2.882812 -5.332031 2.6875 -5.25 C 2.488281 -5.164062 2.3125 -5.039062 2.15625 -4.875 C 2 -4.71875 1.867188 -4.519531 1.765625 -4.28125 C 1.660156 -4.050781 1.59375 -3.789062 1.5625 -3.5 Z M 1.5625 -3.5 "/></g></g></g><g fill="#000000" fill-opacity="1"><g transform="translate(324.409319, 345.260392)"><g><path d="M 3.40625 0.15625 C 3 0.15625 2.625 0.0859375 2.28125 -0.046875 C 1.9375 -0.191406 1.632812 -0.398438 1.375 -0.671875 C 1.125 -0.941406 0.925781 -1.273438 0.78125 -1.671875 C 0.644531 -2.066406 0.578125 -2.507812 0.578125 -3 C 0.578125 -3.507812 0.65625 -3.957031 0.8125 -4.34375 C 0.96875 -4.738281 1.175781 -5.070312 1.4375 -5.34375 C 1.707031 -5.613281 2.015625 -5.816406 2.359375 -5.953125 C 2.710938 -6.097656 3.082031 -6.171875 3.46875 -6.171875 C 3.863281 -6.171875 4.203125 -6.097656 4.484375 -5.953125 C 4.765625 -5.816406 5.015625 -5.65625 5.234375 -5.46875 L 4.71875 -4.796875 C 4.539062 -4.953125 4.351562 -5.078125 4.15625 -5.171875 C 3.96875 -5.273438 3.753906 -5.328125 3.515625 -5.328125 C 3.242188 -5.328125 2.988281 -5.269531 2.75 -5.15625 C 2.519531 -5.050781 2.320312 -4.894531 2.15625 -4.6875 C 1.988281 -4.476562 1.859375 -4.226562 1.765625 -3.9375 C 1.671875 -3.65625 1.625 -3.34375 1.625 -3 C 1.625 -2.65625 1.664062 -2.34375 1.75 -2.0625 C 1.84375 -1.78125 1.96875 -1.535156 2.125 -1.328125 C 2.289062 -1.128906 2.488281 -0.972656 2.71875 -0.859375 C 2.957031 -0.742188 3.210938 -0.6875 3.484375 -0.6875 C 3.765625 -0.6875 4.019531 -0.742188 4.25 -0.859375 C 4.488281 -0.984375 4.707031 -1.128906 4.90625 -1.296875 L 5.34375 -0.625 C 5.070312 -0.382812 4.769531 -0.191406 4.4375 -0.046875 C 4.101562 0.0859375 3.757812 0.15625 3.40625 0.15625 Z M 3.40625 0.15625 "/></g></g></g><g fill="#000000" fill-opacity="1"><g transform="translate(17.809339, 334.2489)"><g><path d="M 3.09375 0.15625 C 2.289062 0.15625 1.664062 -0.195312 1.21875 -0.90625 C 0.769531 -1.625 0.546875 -2.648438 0.546875 -3.984375 C 0.546875 -5.316406 0.769531 -6.328125 1.21875 -7.015625 C 1.664062 -7.710938 2.289062 -8.0625 3.09375 -8.0625 C 3.882812 -8.0625 4.503906 -7.710938 4.953125 -7.015625 C 5.398438 -6.328125 5.625 -5.316406 5.625 -3.984375 C 5.625 -2.648438 5.398438 -1.625 4.953125 -0.90625 C 4.503906 -0.195312 3.882812 0.15625 3.09375 0.15625 Z M 3.09375 -0.671875 C 3.320312 -0.671875 3.53125 -0.734375 3.71875 -0.859375 C 3.90625 -0.984375 4.066406 -1.179688 4.203125 -1.453125 C 4.335938 -1.722656 4.441406 -2.066406 4.515625 -2.484375 C 4.585938 -2.898438 4.625 -3.398438 4.625 -3.984375 C 4.625 -4.554688 4.585938 -5.050781 4.515625 -5.46875 C 4.441406 -5.882812 4.335938 -6.222656 4.203125 -6.484375 C 4.066406 -6.742188 3.90625 -6.9375 3.71875 -7.0625 C 3.53125 -7.1875 3.320312 -7.25 3.09375 -7.25 C 2.851562 -7.25 2.640625 -7.1875 2.453125 -7.0625 C 2.265625 -6.9375 2.101562 -6.742188 1.96875 -6.484375 C 1.832031 -6.222656 1.722656 -5.882812 1.640625 -5.46875 C 1.566406 -5.050781 1.53125 -4.554688 1.53125 -3.984375 C 1.53125 -2.828125 1.671875 -1.984375 1.953125 -1.453125 C 2.242188 -0.929688 2.625 -0.671875 3.09375 -0.671875 Z M 3.09375 -0.671875 "/></g></g></g><g fill="#000000" fill-opacity="1"><g transform="translate(17.809339, 281.813385)"><g><path d="M 0.5 0 L 0.5 -0.609375 C 1.09375 -1.203125 1.617188 -1.738281 2.078125 -2.21875 C 2.546875 -2.695312 2.9375 -3.140625 3.25 -3.546875 C 3.5625 -3.960938 3.800781 -4.34375 3.96875 -4.6875 C 4.132812 -5.03125 4.21875 -5.363281 4.21875 -5.6875 C 4.21875 -6.132812 4.09375 -6.503906 3.84375 -6.796875 C 3.59375 -7.085938 3.21875 -7.234375 2.71875 -7.234375 C 2.382812 -7.234375 2.078125 -7.140625 1.796875 -6.953125 C 1.515625 -6.765625 1.257812 -6.539062 1.03125 -6.28125 L 0.453125 -6.859375 C 0.773438 -7.222656 1.125 -7.515625 1.5 -7.734375 C 1.875 -7.953125 2.320312 -8.0625 2.84375 -8.0625 C 3.570312 -8.0625 4.144531 -7.847656 4.5625 -7.421875 C 4.988281 -6.992188 5.203125 -6.429688 5.203125 -5.734375 C 5.203125 -5.359375 5.125 -4.984375 4.96875 -4.609375 C 4.8125 -4.234375 4.585938 -3.84375 4.296875 -3.4375 C 4.015625 -3.039062 3.675781 -2.625 3.28125 -2.1875 C 2.882812 -1.75 2.453125 -1.289062 1.984375 -0.8125 C 2.203125 -0.820312 2.425781 -0.832031 2.65625 -0.84375 C 2.882812 -0.863281 3.101562 -0.875 3.3125 -0.875 L 5.609375 -0.875 L 5.609375 0 Z M 0.5 0 "/></g></g></g><g fill="#000000" fill-opacity="1"><g transform="translate(17.809339, 229.377887)"><g><path d="M 3.765625 0 L 3.765625 -2.1875 L 0.203125 -2.1875 L 0.203125 -2.859375 L 3.59375 -7.921875 L 4.734375 -7.921875 L 4.734375 -3 L 5.8125 -3 L 5.8125 -2.1875 L 4.734375 -2.1875 L 4.734375 0 Z M 1.296875 -3 L 3.765625 -3 L 3.765625 -5.296875 C 3.765625 -5.515625 3.769531 -5.769531 3.78125 -6.0625 C 3.800781 -6.351562 3.816406 -6.609375 3.828125 -6.828125 L 3.78125 -6.828125 C 3.6875 -6.628906 3.582031 -6.441406 3.46875 -6.265625 C 3.363281 -6.085938 3.253906 -5.898438 3.140625 -5.703125 Z M 1.296875 -3 "/></g></g></g><g fill="#000000" fill-opacity="1"><g transform="translate(17.809339, 176.942388)"><g><path d="M 3.328125 0.15625 C 2.929688 0.15625 2.566406 0.078125 2.234375 -0.078125 C 1.910156 -0.242188 1.625 -0.484375 1.375 -0.796875 C 1.132812 -1.117188 0.941406 -1.515625 0.796875 -1.984375 C 0.660156 -2.460938 0.59375 -3.019531 0.59375 -3.65625 C 0.59375 -4.445312 0.675781 -5.125 0.84375 -5.6875 C 1.007812 -6.25 1.234375 -6.703125 1.515625 -7.046875 C 1.796875 -7.398438 2.113281 -7.65625 2.46875 -7.8125 C 2.832031 -7.976562 3.210938 -8.0625 3.609375 -8.0625 C 4.035156 -8.0625 4.40625 -7.976562 4.71875 -7.8125 C 5.03125 -7.65625 5.296875 -7.457031 5.515625 -7.21875 L 4.953125 -6.59375 C 4.785156 -6.78125 4.585938 -6.925781 4.359375 -7.03125 C 4.128906 -7.144531 3.890625 -7.203125 3.640625 -7.203125 C 3.367188 -7.203125 3.109375 -7.144531 2.859375 -7.03125 C 2.617188 -6.914062 2.398438 -6.722656 2.203125 -6.453125 C 2.015625 -6.191406 1.863281 -5.847656 1.75 -5.421875 C 1.632812 -4.992188 1.570312 -4.46875 1.5625 -3.84375 C 1.8125 -4.15625 2.097656 -4.398438 2.421875 -4.578125 C 2.753906 -4.753906 3.082031 -4.84375 3.40625 -4.84375 C 4.09375 -4.84375 4.640625 -4.640625 5.046875 -4.234375 C 5.460938 -3.828125 5.671875 -3.210938 5.671875 -2.390625 C 5.671875 -2.015625 5.609375 -1.671875 5.484375 -1.359375 C 5.359375 -1.046875 5.1875 -0.773438 4.96875 -0.546875 C 4.757812 -0.328125 4.515625 -0.15625 4.234375 -0.03125 C 3.953125 0.09375 3.648438 0.15625 3.328125 0.15625 Z M 3.328125 -0.65625 C 3.523438 -0.65625 3.707031 -0.695312 3.875 -0.78125 C 4.039062 -0.863281 4.179688 -0.976562 4.296875 -1.125 C 4.421875 -1.28125 4.519531 -1.460938 4.59375 -1.671875 C 4.664062 -1.890625 4.703125 -2.128906 4.703125 -2.390625 C 4.703125 -2.910156 4.582031 -3.316406 4.34375 -3.609375 C 4.101562 -3.910156 3.734375 -4.0625 3.234375 -4.0625 C 2.984375 -4.0625 2.707031 -3.976562 2.40625 -3.8125 C 2.101562 -3.65625 1.832031 -3.394531 1.59375 -3.03125 C 1.65625 -2.25 1.832031 -1.65625 2.125 -1.25 C 2.414062 -0.851562 2.816406 -0.65625 3.328125 -0.65625 Z M 3.328125 -0.65625 "/></g></g></g><g fill="#000000" fill-opacity="1"><g transform="translate(17.809339, 124.506876)"><g><path d="M 3.109375 0.15625 C 2.734375 0.15625 2.382812 0.101562 2.0625 0 C 1.75 -0.113281 1.476562 -0.265625 1.25 -0.453125 C 1.019531 -0.648438 0.835938 -0.878906 0.703125 -1.140625 C 0.578125 -1.410156 0.515625 -1.703125 0.515625 -2.015625 C 0.515625 -2.273438 0.554688 -2.515625 0.640625 -2.734375 C 0.722656 -2.953125 0.832031 -3.148438 0.96875 -3.328125 C 1.101562 -3.503906 1.257812 -3.660156 1.4375 -3.796875 C 1.625 -3.929688 1.8125 -4.050781 2 -4.15625 L 2 -4.203125 C 1.707031 -4.410156 1.445312 -4.660156 1.21875 -4.953125 C 1 -5.242188 0.890625 -5.601562 0.890625 -6.03125 C 0.890625 -6.332031 0.945312 -6.609375 1.0625 -6.859375 C 1.175781 -7.109375 1.332031 -7.320312 1.53125 -7.5 C 1.738281 -7.675781 1.976562 -7.8125 2.25 -7.90625 C 2.519531 -8.007812 2.816406 -8.0625 3.140625 -8.0625 C 3.484375 -8.0625 3.789062 -8.007812 4.0625 -7.90625 C 4.34375 -7.800781 4.578125 -7.65625 4.765625 -7.46875 C 4.960938 -7.289062 5.113281 -7.070312 5.21875 -6.8125 C 5.320312 -6.550781 5.375 -6.265625 5.375 -5.953125 C 5.375 -5.742188 5.335938 -5.546875 5.265625 -5.359375 C 5.191406 -5.171875 5.101562 -4.992188 5 -4.828125 C 4.894531 -4.660156 4.78125 -4.507812 4.65625 -4.375 C 4.53125 -4.25 4.40625 -4.140625 4.28125 -4.046875 L 4.28125 -4 C 4.457031 -3.894531 4.625 -3.78125 4.78125 -3.65625 C 4.945312 -3.53125 5.09375 -3.382812 5.21875 -3.21875 C 5.351562 -3.0625 5.457031 -2.878906 5.53125 -2.671875 C 5.613281 -2.460938 5.65625 -2.222656 5.65625 -1.953125 C 5.65625 -1.660156 5.59375 -1.382812 5.46875 -1.125 C 5.34375 -0.875 5.164062 -0.648438 4.9375 -0.453125 C 4.71875 -0.265625 4.453125 -0.113281 4.140625 0 C 3.828125 0.101562 3.484375 0.15625 3.109375 0.15625 Z M 3.65625 -4.3125 C 3.925781 -4.550781 4.128906 -4.800781 4.265625 -5.0625 C 4.410156 -5.332031 4.484375 -5.613281 4.484375 -5.90625 C 4.484375 -6.300781 4.363281 -6.632812 4.125 -6.90625 C 3.882812 -7.175781 3.546875 -7.3125 3.109375 -7.3125 C 2.742188 -7.3125 2.441406 -7.191406 2.203125 -6.953125 C 1.960938 -6.722656 1.84375 -6.414062 1.84375 -6.03125 C 1.84375 -5.789062 1.890625 -5.582031 1.984375 -5.40625 C 2.085938 -5.238281 2.222656 -5.085938 2.390625 -4.953125 C 2.554688 -4.828125 2.75 -4.710938 2.96875 -4.609375 C 3.1875 -4.503906 3.414062 -4.40625 3.65625 -4.3125 Z M 3.125 -0.609375 C 3.59375 -0.609375 3.96875 -0.734375 4.25 -0.984375 C 4.53125 -1.242188 4.671875 -1.582031 4.671875 -2 C 4.671875 -2.25 4.613281 -2.460938 4.5 -2.640625 C 4.382812 -2.828125 4.226562 -2.988281 4.03125 -3.125 C 3.832031 -3.269531 3.601562 -3.394531 3.34375 -3.5 C 3.082031 -3.613281 2.8125 -3.726562 2.53125 -3.84375 C 2.21875 -3.625 1.953125 -3.375 1.734375 -3.09375 C 1.523438 -2.8125 1.421875 -2.488281 1.421875 -2.125 C 1.421875 -1.894531 1.460938 -1.6875 1.546875 -1.5 C 1.640625 -1.320312 1.757812 -1.164062 1.90625 -1.03125 C 2.0625 -0.894531 2.242188 -0.789062 2.453125 -0.71875 C 2.660156 -0.644531 2.882812 -0.609375 3.125 -0.609375 Z M 3.125 -0.609375 "/></g></g></g><g clip-path="url(#90cbde0d80)"><g fill="#000000" fill-opacity="1"><g transform="translate(11.655823, 72.071368)"><g><path d="M 0.984375 0 L 0.984375 -0.84375 L 2.796875 -0.84375 L 2.796875 -6.671875 L 1.359375 -6.671875 L 1.359375 -7.328125 C 1.710938 -7.398438 2.023438 -7.484375 2.296875 -7.578125 C 2.566406 -7.671875 2.8125 -7.785156 3.03125 -7.921875 L 3.8125 -7.921875 L 3.8125 -0.84375 L 5.453125 -0.84375 L 5.453125 0 Z M 0.984375 0 "/></g></g></g></g><g fill="#000000" fill-opacity="1"><g transform="translate(17.818065, 72.071368)"><g><path d="M 3.09375 0.15625 C 2.289062 0.15625 1.664062 -0.195312 1.21875 -0.90625 C 0.769531 -1.625 0.546875 -2.648438 0.546875 -3.984375 C 0.546875 -5.316406 0.769531 -6.328125 1.21875 -7.015625 C 1.664062 -7.710938 2.289062 -8.0625 3.09375 -8.0625 C 3.882812 -8.0625 4.503906 -7.710938 4.953125 -7.015625 C 5.398438 -6.328125 5.625 -5.316406 5.625 -3.984375 C 5.625 -2.648438 5.398438 -1.625 4.953125 -0.90625 C 4.503906 -0.195312 3.882812 0.15625 3.09375 0.15625 Z M 3.09375 -0.671875 C 3.320312 -0.671875 3.53125 -0.734375 3.71875 -0.859375 C 3.90625 -0.984375 4.066406 -1.179688 4.203125 -1.453125 C 4.335938 -1.722656 4.441406 -2.066406 4.515625 -2.484375 C 4.585938 -2.898438 4.625 -3.398438 4.625 -3.984375 C 4.625 -4.554688 4.585938 -5.050781 4.515625 -5.46875 C 4.441406 -5.882812 4.335938 -6.222656 4.203125 -6.484375 C 4.066406 -6.742188 3.90625 -6.9375 3.71875 -7.0625 C 3.53125 -7.1875 3.320312 -7.25 3.09375 -7.25 C 2.851562 -7.25 2.640625 -7.1875 2.453125 -7.0625 C 2.265625 -6.9375 2.101562 -6.742188 1.96875 -6.484375 C 1.832031 -6.222656 1.722656 -5.882812 1.640625 -5.46875 C 1.566406 -5.050781 1.53125 -4.554688 1.53125 -3.984375 C 1.53125 -2.828125 1.671875 -1.984375 1.953125 -1.453125 C 2.242188 -0.929688 2.625 -0.671875 3.09375 -0.671875 Z M 3.09375 -0.671875 "/></g></g></g><g clip-path="url(#3480328b02)"><g fill="#000000" fill-opacity="1"><g transform="translate(11.655823, 19.635859)"><g><path d="M 0.984375 0 L 0.984375 -0.84375 L 2.796875 -0.84375 L 2.796875 -6.671875 L 1.359375 -6.671875 L 1.359375 -7.328125 C 1.710938 -7.398438 2.023438 -7.484375 2.296875 -7.578125 C 2.566406 -7.671875 2.8125 -7.785156 3.03125 -7.921875 L 3.8125 -7.921875 L 3.8125 -0.84375 L 5.453125 -0.84375 L 5.453125 0 Z M 0.984375 0 "/></g></g></g></g><g fill="#000000" fill-opacity="1"><g transform="translate(17.818065, 19.635859)"><g><path d="M 0.5 0 L 0.5 -0.609375 C 1.09375 -1.203125 1.617188 -1.738281 2.078125 -2.21875 C 2.546875 -2.695312 2.9375 -3.140625 3.25 -3.546875 C 3.5625 -3.960938 3.800781 -4.34375 3.96875 -4.6875 C 4.132812 -5.03125 4.21875 -5.363281 4.21875 -5.6875 C 4.21875 -6.132812 4.09375 -6.503906 3.84375 -6.796875 C 3.59375 -7.085938 3.21875 -7.234375 2.71875 -7.234375 C 2.382812 -7.234375 2.078125 -7.140625 1.796875 -6.953125 C 1.515625 -6.765625 1.257812 -6.539062 1.03125 -6.28125 L 0.453125 -6.859375 C 0.773438 -7.222656 1.125 -7.515625 1.5 -7.734375 C 1.875 -7.953125 2.320312 -8.0625 2.84375 -8.0625 C 3.570312 -8.0625 4.144531 -7.847656 4.5625 -7.421875 C 4.988281 -6.992188 5.203125 -6.429688 5.203125 -5.734375 C 5.203125 -5.359375 5.125 -4.984375 4.96875 -4.609375 C 4.8125 -4.234375 4.585938 -3.84375 4.296875 -3.4375 C 4.015625 -3.039062 3.675781 -2.625 3.28125 -2.1875 C 2.882812 -1.75 2.453125 -1.289062 1.984375 -0.8125 C 2.203125 -0.820312 2.425781 -0.832031 2.65625 -0.84375 C 2.882812 -0.863281 3.101562 -0.875 3.3125 -0.875 L 5.609375 -0.875 L 5.609375 0 Z M 0.5 0 "/></g></g></g></g></g></svg>